<svg width="86" height="86" viewBox="0 0 86 86" fill="none" xmlns="http://www.w3.org/2000/svg">
<g clip-path="url(#clip0_166_347)">
<path d="M43 85.3281C66.3772 85.3281 85.3281 66.3772 85.3281 43C85.3281 19.6228 66.3772 0.671875 43 0.671875C19.6228 0.671875 0.671875 19.6228 0.671875 43C0.671875 66.3772 19.6228 85.3281 43 85.3281Z" fill="#9297AB"/>
<path d="M85.3241 43.0001C85.3232 51.5485 82.7339 59.8963 77.8972 66.9448C73.0604 73.9934 66.2028 79.4122 58.227 82.4882C50.2511 85.5642 41.5308 86.1532 33.2138 84.1776C24.8968 82.202 17.3728 77.7545 11.6322 71.4204C19.8451 78.3291 30.3756 81.8601 41.0932 81.299C51.8108 80.7379 61.915 76.1265 69.3616 68.398C76.8081 60.6695 81.0409 50.4009 81.2034 39.6699C81.366 28.9388 77.4462 18.5467 70.2372 10.5962C74.9677 14.5662 78.7702 19.5251 81.3769 25.1237C83.9835 30.7223 85.3309 36.8244 85.3241 43.0001Z" fill="#84879C"/>
<path d="M43 86C34.4954 86 26.1818 83.4781 19.1105 78.7532C12.0392 74.0283 6.52774 67.3126 3.27317 59.4554C0.0186006 51.5982 -0.832943 42.9523 0.826222 34.6111C2.48539 26.27 6.58074 18.6081 12.5944 12.5944C18.6081 6.58077 26.2699 2.48542 34.6111 0.826252C42.9523 -0.832912 51.5982 0.0186311 59.4554 3.2732C67.3126 6.52777 74.0283 12.0392 78.7532 19.1105C83.4781 26.1818 86 34.4954 86 43C85.987 54.4003 81.4525 65.33 73.3912 73.3913C65.33 81.4525 54.4003 85.987 43 86ZM43 1.34377C34.7612 1.34377 26.7074 3.78687 19.857 8.36411C13.0067 12.9414 7.66749 19.4472 4.51463 27.0589C1.36177 34.6705 0.536836 43.0462 2.14415 51.1268C3.75147 59.2073 7.71884 66.6297 13.5446 72.4554C19.3703 78.2812 26.7927 82.2485 34.8733 83.8559C42.9538 85.4632 51.3295 84.6382 58.9411 81.4854C66.5528 78.3325 73.0586 72.9933 77.6359 66.143C82.2131 59.2927 84.6562 51.2388 84.6562 43C84.6438 31.9559 80.251 21.3677 72.4417 13.5584C64.6323 5.74899 54.0441 1.35622 43 1.34377Z" fill="#2F3A5A"/>
<path d="M43.0002 69.6707C57.73 69.6707 69.6709 57.7298 69.6709 43C69.6709 28.2701 57.73 16.3292 43.0002 16.3292C28.2703 16.3292 16.3294 28.2701 16.3294 43C16.3294 57.7298 28.2703 69.6707 43.0002 69.6707Z" fill="#707583"/>
<path d="M43.0002 70.3453C37.5918 70.3453 32.3049 68.7415 27.8079 65.7368C23.311 62.732 19.8061 58.4613 17.7364 53.4646C15.6667 48.4679 15.1252 42.9697 16.1803 37.6652C17.2354 32.3607 19.8398 27.4882 23.6641 23.6639C27.4884 19.8396 32.3609 17.2352 37.6654 16.1801C42.9699 15.125 48.4681 15.6665 53.4648 17.7362C58.4615 19.8059 62.7322 23.3108 65.737 27.8077C68.7417 32.3047 70.3455 37.5916 70.3455 43C70.338 50.2501 67.4546 57.2012 62.328 62.3278C57.2014 67.4544 50.2503 70.3378 43.0002 70.3453ZM43.0002 16.9984C37.8576 16.9984 32.8304 18.5234 28.5545 21.3805C24.2786 24.2376 20.9459 28.2985 18.9779 33.0496C17.0099 37.8008 16.495 43.0288 17.4982 48.0726C18.5015 53.1165 20.9779 57.7495 24.6143 61.3859C28.2507 65.0223 32.8837 67.4987 37.9275 68.5019C42.9713 69.5052 48.1994 68.9903 52.9506 67.0223C57.7017 65.0543 61.7626 61.7216 64.6197 57.4457C67.4768 53.1697 69.0017 48.1426 69.0017 43C68.9946 36.1061 66.2529 29.4967 61.3782 24.622C56.5035 19.7473 49.894 17.0055 43.0002 16.9984Z" fill="#2F3A5A"/>
<path d="M72.2428 39.1415C71.4113 32.8064 68.5448 26.9129 64.0745 22.3477C59.6042 17.7826 53.8608 16.9643 47.5447 16C44.5901 15.5633 41.5875 15.5633 38.6329 16C32.281 16.9686 26.3308 17.8144 21.8516 22.4211C17.3725 27.0279 14.521 32.9718 13.7312 39.3484C13.5816 40.5599 13.506 41.7794 13.5048 43C13.5061 48.0177 14.7872 52.952 17.227 57.3366C19.6667 61.7211 23.1844 65.411 27.4475 68.0572C31.7106 70.7034 36.5782 72.2186 41.5901 72.4595C46.6019 72.7003 51.5924 71.6589 56.0896 69.4336C58.9289 68.0224 61.5242 66.1661 63.7772 63.935C66.5432 61.1959 68.738 57.935 70.2346 54.3413C71.7311 50.7477 72.4996 46.8928 72.4954 43C72.4941 41.7098 72.4097 40.4209 72.2428 39.1415ZM64.0298 31.3034L50.3517 33.6429L48.2891 19.5294C51.593 20.2754 54.7025 21.7095 57.4147 23.7382C60.1269 25.767 62.381 28.3448 64.0298 31.3034ZM37.7111 19.5294L35.6054 33.9445L21.8118 31.593C23.4465 28.5632 25.7114 25.9189 28.454 23.838C31.1965 21.7571 34.3531 20.2879 37.7111 19.5294ZM18.9369 43C18.9369 42.6426 18.9483 42.2885 18.9638 41.9351L31.339 48.0593L25.3916 59.3938C21.2372 54.9466 18.9296 49.0858 18.9369 43ZM43.0001 67.0653C40.1283 67.0676 37.2795 66.5547 34.5889 65.5509L43.4395 56.4805L52.0516 65.2989C49.1771 66.4677 46.1031 67.0675 43.0001 67.0653ZM61.1051 58.8435L55.1866 47.5688L67.0284 41.7168C67.0505 42.1421 67.0633 42.57 67.0633 43.0007C67.0705 48.8306 64.9522 54.4632 61.1051 58.8435Z" fill="#D9E2E9"/>
<path d="M43.0001 73.1671C34.9996 73.1659 27.3272 69.9871 21.67 64.33C16.0129 58.6728 12.8341 51.0004 12.8329 42.9999C12.8338 41.7513 12.9103 40.5038 13.062 39.2643C13.8697 32.7422 16.7861 26.6625 21.3673 21.9506C25.9486 17.2387 31.6459 15.7006 38.1427 14.7099C39.5876 14.4973 41.0435 15.5092 42.5 15.5C44.0887 15.4899 45.678 14.478 47.254 14.7099C53.7149 15.6956 59.9788 17.2054 64.5516 21.8748C69.1244 26.5442 72.0568 32.5726 72.9073 39.0527C73.0781 40.3615 73.165 41.68 73.1673 42.9999C73.1784 46.9825 72.3957 50.9274 70.8652 54.6041C69.3346 58.2808 67.0867 61.6157 64.2528 64.4139C61.95 66.6968 59.296 68.5956 56.3919 70.0382C52.2318 72.1078 47.6465 73.1791 43.0001 73.1671ZM42.5 17.5C41.0418 17.5003 39.7876 15.8279 38.345 16.0409C32.1384 16.9878 26.7092 18.3884 22.3327 22.89C17.9562 27.3915 15.1701 33.1995 14.3984 39.4303C14.2525 40.6146 14.1785 41.8067 14.1767 42.9999C14.1776 47.9037 15.4294 52.7262 17.8136 57.0114C20.1978 61.2965 23.6356 64.9027 27.8019 67.4889C31.9683 70.0752 36.7254 71.5559 41.6236 71.7912C46.5217 72.0265 51.3989 71.0085 55.7939 68.8335C58.5697 67.4551 61.1065 65.6404 63.3075 63.4585C66.0147 60.785 68.1621 57.5989 69.6243 54.0862C71.0865 50.5736 71.8341 46.8048 71.8235 42.9999C71.8226 41.7376 71.7409 40.4766 71.579 39.2247C70.7654 33.0344 67.9634 27.2759 63.5946 22.8156C59.2258 18.3553 53.2285 16.9825 47.0565 16.0409C45.6148 15.828 43.9574 17.5004 42.5 17.5ZM43.0001 67.737C40.048 67.7398 37.1193 67.2123 34.3537 66.1796C34.249 66.1405 34.1557 66.0759 34.0823 65.9916C34.0088 65.9073 33.9576 65.806 33.9332 65.697C33.9087 65.5879 33.9119 65.4744 33.9424 65.3669C33.9729 65.2593 34.0298 65.1611 34.1078 65.0811L42.9584 56.0108C43.0875 55.8862 43.2598 55.8166 43.4392 55.8166C43.6185 55.8166 43.7909 55.8862 43.9199 56.0108L52.532 64.8291C52.609 64.908 52.6654 65.0045 52.6962 65.1103C52.7271 65.2161 52.7315 65.3278 52.709 65.4357C52.6865 65.5436 52.6378 65.6442 52.5672 65.7289C52.4966 65.8135 52.4063 65.8794 52.3042 65.9209C49.35 67.124 46.1899 67.7408 43.0001 67.737ZM35.8077 65.2638C40.7129 66.8447 46.0025 66.7646 50.8577 65.0361L43.4402 57.4452L35.8077 65.2638ZM25.3916 60.0655C25.2993 60.0656 25.2081 60.0467 25.1234 60.0099C25.0388 59.9731 24.9627 59.9194 24.8998 59.8519C20.6298 55.28 18.258 49.2557 18.265 42.9999C18.265 42.6331 18.2771 42.2689 18.2926 41.9061C18.2974 41.7945 18.3301 41.6858 18.3876 41.5899C18.445 41.494 18.5255 41.414 18.6217 41.3571C18.7179 41.3002 18.8268 41.2682 18.9385 41.264C19.0502 41.2598 19.1612 41.2835 19.2614 41.333L31.6367 47.4572C31.7174 47.4969 31.7893 47.5524 31.8482 47.6204C31.9071 47.6884 31.9517 47.7676 31.9794 47.8532C32.0071 47.9388 32.0173 48.0291 32.0094 48.1187C32.0016 48.2083 31.9758 48.2955 31.9336 48.3749L25.9862 59.7094C25.9362 59.8045 25.8642 59.8862 25.7762 59.9477C25.6882 60.0092 25.5867 60.0487 25.4803 60.0629C25.4508 60.0657 25.4212 60.0666 25.3916 60.0655ZM19.6088 43.006C19.6034 48.591 21.604 53.9921 25.2465 58.2259L30.4246 48.3581L19.6088 43.006ZM61.1051 59.5153C61.0786 59.5152 61.0521 59.5136 61.0258 59.5106C60.9175 59.4978 60.8139 59.4588 60.724 59.397C60.6341 59.3352 60.5606 59.2524 60.5098 59.1558L54.5919 47.8825C54.5503 47.8031 54.525 47.7163 54.5174 47.627C54.5098 47.5378 54.5202 47.4479 54.5478 47.3627C54.5755 47.2775 54.6199 47.1987 54.6785 47.1309C54.7371 47.0631 54.8086 47.0078 54.8889 46.968L66.7307 41.1187C66.8305 41.0695 66.9408 41.0458 67.052 41.0498C67.1631 41.0538 67.2715 41.0853 67.3675 41.1415C67.4635 41.1977 67.544 41.2768 67.6018 41.3718C67.6597 41.4668 67.693 41.5747 67.6989 41.6858C67.7217 42.1225 67.7345 42.5592 67.7345 43.0046C67.7341 48.9946 65.5581 54.7805 61.611 59.2862C61.5479 59.3582 61.4701 59.4159 61.3828 59.4554C61.2956 59.495 61.2009 59.5154 61.1051 59.5153ZM56.1017 47.8677L61.2348 57.6468C64.5733 53.4952 66.3927 48.3274 66.3914 42.9999C66.3914 42.9269 66.3914 42.8539 66.3914 42.7809L56.1017 47.8677ZM35.6054 34.6156C35.5676 34.6156 35.5299 34.6124 35.4926 34.6062L21.7017 32.2499C21.5965 32.2319 21.4971 32.1891 21.4118 32.1251C21.3265 32.0611 21.2576 31.9776 21.2109 31.8817C21.1642 31.7858 21.1411 31.6801 21.1433 31.5734C21.1456 31.4668 21.1732 31.3622 21.2239 31.2683C22.9022 28.1534 25.2295 25.435 28.0485 23.2967C30.8675 21.1584 34.1126 19.6501 37.5646 18.8736C37.6709 18.8498 37.7814 18.8522 37.8865 18.8806C37.9917 18.909 38.0883 18.9625 38.1682 19.0365C38.2481 19.1106 38.3087 19.2029 38.345 19.3056C38.3812 19.4083 38.3919 19.5183 38.3762 19.6261L36.2699 34.0412C36.2465 34.2007 36.1665 34.3465 36.0445 34.452C35.9226 34.5575 35.7667 34.6155 35.6054 34.6156ZM22.8674 31.0883L35.0404 33.1657L36.9021 20.4202C31.0112 22.0088 25.9745 25.8372 22.8674 31.0883ZM50.3517 34.3133C50.1905 34.3132 50.0346 34.2551 49.9126 34.1497C49.7906 34.0442 49.7106 33.8984 49.6873 33.7388L47.6246 19.6261C47.6089 19.5183 47.6196 19.4083 47.6559 19.3056C47.6921 19.2029 47.7528 19.1106 47.8327 19.0365C47.9125 18.9625 48.0092 18.909 48.1143 18.8806C48.2195 18.8522 48.33 18.8498 48.4362 18.8736C51.8319 19.6399 55.0278 21.1136 57.8154 23.1985C60.603 25.2834 62.9197 27.9327 64.6143 30.9734C64.6667 31.0672 64.6958 31.1723 64.6991 31.2797C64.7025 31.3872 64.68 31.4939 64.6336 31.5908C64.5872 31.6878 64.5182 31.7722 64.4324 31.8369C64.3467 31.9017 64.2466 31.945 64.1406 31.963L50.4646 34.3052C50.4273 34.3114 50.3896 34.3146 50.3517 34.3146V34.3133ZM49.0987 20.4216L50.9175 32.8647L62.9548 30.8047C59.8319 25.7009 54.8741 21.9857 49.0987 20.4216Z" fill="#2F3A5A"/>
<path d="M43.3199 50.6668C47.3556 50.6668 50.6272 47.3952 50.6272 43.3594C50.6272 39.3237 47.3556 36.0521 43.3199 36.0521C39.2842 36.0521 36.0126 39.3237 36.0126 43.3594C36.0126 47.3952 39.2842 50.6668 43.3199 50.6668Z" fill="#C1CDD3"/>
<path d="M43.3199 51.3386C41.7417 51.3386 40.1991 50.8707 38.8869 49.9939C37.5747 49.1171 36.552 47.8709 35.9481 46.4129C35.3441 44.9549 35.1861 43.3506 35.494 41.8028C35.8019 40.255 36.5618 38.8332 37.6777 37.7173C38.7936 36.6014 40.2154 35.8414 41.7632 35.5336C43.311 35.2257 44.9154 35.3837 46.3734 35.9876C47.8314 36.5916 49.0776 37.6143 49.9543 38.9264C50.8311 40.2386 51.2991 41.7813 51.2991 43.3594C51.2968 45.4749 50.4554 47.5031 48.9595 48.999C47.4636 50.4949 45.4354 51.3363 43.3199 51.3386ZM43.3199 36.7247C42.0075 36.7247 40.7246 37.1138 39.6334 37.8429C38.5422 38.5721 37.6918 39.6084 37.1895 40.8208C36.6873 42.0333 36.5559 43.3675 36.8119 44.6546C37.068 45.9418 37.6999 47.1241 38.6279 48.0521C39.5559 48.9801 40.7382 49.612 42.0254 49.868C43.3125 50.1241 44.6467 49.9927 45.8592 49.4905C47.0716 48.9882 48.1079 48.1378 48.8371 47.0466C49.5662 45.9554 49.9553 44.6725 49.9553 43.3601C49.9535 41.6008 49.2539 39.914 48.0099 38.6699C46.7659 37.4258 45.0792 36.726 43.3199 36.724V36.7247Z" fill="#2F3A5A"/>
<path d="M40.5541 8.9836C41.2894 8.56434 41.2939 7.50595 40.5622 7.08047L40.3523 6.95842C40.1342 6.83157 40 6.59828 40 6.34595C40 5.78969 40.6117 5.45039 41.0836 5.74491L42.4576 6.60242C42.9789 6.92777 43.6402 6.92731 44.161 6.60123L45.6425 5.67375C46.1108 5.38058 46.7187 5.71723 46.7187 6.26972C46.7187 6.51917 46.5866 6.74995 46.3714 6.87617L46.1389 7.0126C45.3702 7.46354 45.3714 8.57517 46.1409 9.02455L46.3678 9.15704C46.5851 9.28396 46.7187 9.51672 46.7187 9.7684C46.7187 10.3247 46.1066 10.6637 45.6351 10.3685L44.1604 9.44523C43.6398 9.11933 42.979 9.11842 42.4576 9.44288L41.0735 10.304C40.6056 10.5952 40 10.2587 40 9.70764C40 9.45535 40.1353 9.22243 40.3545 9.09745L40.5541 8.9836Z" fill="#2F3A5A"/>
</g>
<defs>
<clipPath id="clip0_166_347">
<rect width="86" height="86" fill="white"/>
</clipPath>
</defs>
</svg>
