<svg width="86" height="86" viewBox="0 0 86 86" fill="none" xmlns="http://www.w3.org/2000/svg">
<g clip-path="url(#clip0_166_259)">
<path d="M12.6359 38.3642L0.676512 31.1906L0.676513 54.811C0.67517 67.8595 19.6254 78.4321 42.9999 78.4321C66.3745 78.4321 85.3281 67.8595 85.3281 54.811L85.3281 31.1892L73.3781 38.3696C65.6851 33.9439 54.923 31.1892 42.9999 31.1892C31.0768 31.1892 20.3282 33.9412 12.6359 38.3642Z" fill="#84879C"/>
<path d="M86 31.1892L86 54.811C86 68.2062 66.7111 79.104 43 79.104C19.2889 79.104 -4.76359e-07 68.2062 -1.06188e-06 54.811L-2.09442e-06 31.1892C9.17671e-05 31.0704 0.0316937 30.9537 0.0915814 30.8511C0.151469 30.7485 0.2375 30.6636 0.340903 30.6051C0.444305 30.5465 0.56138 30.5165 0.68019 30.5179C0.799 30.5194 0.915295 30.5524 1.01722 30.6134L12.6454 37.5848C20.7542 33.0248 31.5109 30.5174 43 30.5174C54.4891 30.5174 65.2585 33.0275 73.3687 37.5915L84.9821 30.6134C85.084 30.5522 85.2004 30.5191 85.3193 30.5175C85.4382 30.516 85.5554 30.546 85.6589 30.6046C85.7624 30.6631 85.8485 30.7481 85.9085 30.8508C85.9684 30.9535 86 31.0703 86 31.1892ZM1.34711 54.811C1.34711 67.4651 20.0333 77.7603 43.0034 77.7603C65.9734 77.7603 84.6596 67.4651 84.6596 54.811L84.6596 32.3771L73.7275 38.9454C73.6249 39.0071 73.5076 39.0403 73.3878 39.0415C73.268 39.0427 73.1501 39.0118 73.0462 38.9521C65.0953 34.3793 54.4266 31.8611 43 31.8611C31.5734 31.8611 20.9161 34.3773 12.9672 38.9454C12.8634 39.005 12.7456 39.0358 12.626 39.0346C12.5063 39.0334 12.3891 39.0003 12.2866 38.9386L1.34711 32.3758L1.34711 54.811Z" fill="#2F3A5A"/>
<path d="M85.3281 31.1898C85.3281 18.1442 66.3781 7.56869 43.002 7.56869C19.6259 7.56869 0.675902 18.1442 0.675902 31.1898C0.675903 44.2354 19.6259 54.8109 43.002 54.8109C66.3781 54.8109 85.3281 44.2354 85.3281 31.1898Z" fill="#9297AB"/>
<path d="M43 7.56537C66.3812 7.56537 85.3281 18.1407 85.3281 31.1885C85.3281 39.2644 78.0719 46.393 66.9994 50.646C74.4773 46.3863 79.0864 40.5477 79.0864 34.1179C79.0864 21.0701 60.1395 10.4947 36.765 10.4947C28.5788 10.4171 20.4468 11.8286 12.7656 14.6604C20.4452 10.2797 31.1548 7.56538 43 7.56537Z" fill="#84879C"/>
<path d="M86 31.1892C86 44.5844 66.7111 55.4822 43 55.4822C19.2889 55.4822 -4.76359e-07 44.5844 -1.06188e-06 31.1892C-1.6474e-06 17.794 19.2889 6.89621 43 6.89621C66.7111 6.89621 86 17.794 86 31.1892ZM1.34711 31.1892C1.34711 43.8433 20.0333 54.1384 43.0034 54.1384C65.9734 54.1384 84.6596 43.8433 84.6596 31.1892C84.6596 18.5351 65.9734 8.23996 43.0034 8.23996C20.0333 8.23996 1.34711 18.5351 1.34711 31.1892Z" fill="#2F3A5A"/>
<path d="M67.9722 29.7303C67.9722 23.4693 56.7927 18.3938 43.002 18.3938C29.2113 18.3938 18.0317 23.4693 18.0317 29.7303C18.0317 35.9913 29.2113 41.0669 43.002 41.0669C56.7927 41.0669 67.9722 35.9913 67.9722 29.7303Z" fill="#D9E2E9"/>
<path d="M68.6442 29.7303C68.6442 36.4639 57.3782 41.7388 43.0001 41.7388C28.622 41.7388 17.3593 36.4639 17.3593 29.7303C17.3593 22.9968 28.622 17.7213 43.0001 17.7213C57.3782 17.7213 68.6442 22.9968 68.6442 29.7303ZM18.7031 29.7303C18.7031 35.5085 29.8307 40.395 43.0014 40.395C56.1722 40.395 67.3005 35.5112 67.3005 29.7303C67.3005 23.9495 56.1729 19.065 43.0001 19.065C29.8273 19.065 18.7031 23.9495 18.7031 29.7303Z" fill="#2F3A5A"/>
<path d="M43 18.3967C56.7936 18.3967 67.9695 23.4653 67.9695 29.7306C67.9695 31.9659 66.5404 34.0514 64.0807 35.7963C59.8096 32.3395 51.6416 29.9966 42.277 29.9966C33.4083 29.9966 25.6253 32.0909 21.1963 35.2561C19.1853 33.6194 18.0304 31.7328 18.0304 29.7306C18.0297 23.4653 29.2144 18.3967 43 18.3967Z" fill="#707583"/>
<path d="M68.6408 29.7306C68.6408 32.1212 67.1983 34.4082 64.4692 36.3446L64.054 36.6395L63.6582 36.319C59.3522 32.8334 51.1613 30.6686 42.2771 30.6686C33.8196 30.6686 26.085 32.5881 21.5874 35.803L21.1702 36.1014L20.7724 35.7775C18.5391 33.9594 17.3586 31.8685 17.3586 29.7306C17.3586 22.9985 28.622 17.7249 43.0001 17.7249C57.3782 17.7249 68.6408 22.9984 68.6408 29.7306ZM64.0923 34.9538C66.1912 33.3527 67.2971 31.5541 67.2971 29.7306C67.2971 23.9525 56.1702 19.0687 42.9994 19.0687C29.8286 19.0687 18.7017 23.9512 18.7017 29.7306C18.7017 31.3317 19.5752 32.9422 21.2374 34.4109C26.003 31.2195 33.8102 29.3248 42.2765 29.3248C51.1822 29.3248 59.4664 31.4721 64.0923 34.9538Z" fill="#2F3A5A"/>
<path d="M6.87804 46.5241C6.87789 46.6702 6.83013 46.8123 6.74199 46.9288C6.65384 47.0453 6.53013 47.1299 6.38958 47.1698C4.59568 47.6811 2.90726 48.093 1.2269 48.4289C1.05344 48.4635 0.873336 48.4283 0.725666 48.331C0.577996 48.2336 0.474673 48.0819 0.438116 47.9089C0.282913 47.1732 0.139132 46.4066 0.00945968 45.6292C-0.019853 45.4534 0.021866 45.2732 0.125439 45.1282C0.229012 44.9831 0.385954 44.8852 0.561741 44.8559C0.737528 44.8266 0.917759 44.8683 1.06279 44.9719C1.20781 45.0754 1.30576 45.2324 1.33507 45.4082C1.42376 45.9389 1.51916 46.4637 1.61994 46.9763C3.04969 46.6733 4.49691 46.3125 6.02207 45.8771C6.12206 45.8486 6.22729 45.8437 6.32949 45.8628C6.43169 45.8819 6.52807 45.9245 6.61104 45.9871C6.69401 46.0498 6.7613 46.1308 6.80763 46.2239C6.85397 46.317 6.87807 46.4195 6.87804 46.5235L6.87804 46.5241Z" fill="#2F3A5A"/>
<path d="M13.2501 50.0385C13.2499 50.1717 13.2101 50.3018 13.1358 50.4124C13.0616 50.5229 12.9561 50.6089 12.8328 50.6593C11.2156 51.3151 9.5373 51.9198 7.8435 52.4573C7.75908 52.4841 7.67017 52.494 7.5819 52.4864C7.49364 52.4787 7.40775 52.4537 7.3292 52.4128C7.25064 52.3718 7.18096 52.3157 7.12417 52.2477C7.06738 52.1797 7.0246 52.1011 6.99829 52.0165C6.45205 50.2596 5.96696 48.4616 5.55644 46.6724C5.53473 46.5858 5.53054 46.4956 5.54409 46.4073C5.55765 46.319 5.58869 46.2342 5.63539 46.1581C5.6821 46.0819 5.74353 46.0158 5.8161 45.9636C5.88866 45.9115 5.9709 45.8743 6.058 45.8543C6.14509 45.8344 6.2353 45.832 6.32334 45.8473C6.41138 45.8626 6.49547 45.8953 6.57071 45.9435C6.64594 45.9918 6.71081 46.0545 6.7615 46.1281C6.81219 46.2017 6.84769 46.2846 6.86593 46.3721C7.21866 47.908 7.62716 49.4513 8.08269 50.9677C9.52386 50.4974 10.9489 49.9727 12.3283 49.4137C12.4302 49.3723 12.5408 49.3566 12.6503 49.368C12.7597 49.3793 12.8647 49.4174 12.956 49.4789C13.0473 49.5403 13.1221 49.6232 13.1739 49.7203C13.2256 49.8175 13.2527 49.9258 13.2528 50.0358L13.2501 50.0385Z" fill="#2F3A5A"/>
<path d="M19.9118 52.8625C19.9119 52.9845 19.8789 53.1042 19.8161 53.2089C19.7534 53.3135 19.6634 53.3991 19.5557 53.4564C18.0157 54.2761 16.4126 55.0515 14.7894 55.761C14.708 55.7966 14.6204 55.8157 14.5316 55.8172C14.4428 55.8187 14.3546 55.8026 14.272 55.7698C14.1895 55.737 14.1143 55.6881 14.0507 55.6261C13.9872 55.564 13.9366 55.49 13.9019 55.4082C13.1843 53.7191 12.5252 51.985 11.942 50.2543C11.8851 50.085 11.8977 49.9 11.9771 49.7401C12.0566 49.5801 12.1963 49.4583 12.3656 49.4013C12.5349 49.3444 12.7199 49.357 12.8798 49.4365C13.0398 49.5159 13.1616 49.6557 13.2186 49.8249C13.7184 51.3091 14.2754 52.796 14.8781 54.2533C16.2561 53.6345 17.616 52.9687 18.9275 52.2706C19.0298 52.2161 19.1445 52.189 19.2604 52.192C19.3763 52.1949 19.4895 52.2278 19.5889 52.2875C19.6884 52.3471 19.7707 52.4315 19.8278 52.5324C19.885 52.6333 19.9151 52.7472 19.9151 52.8632L19.9118 52.8625Z" fill="#2F3A5A"/>
<path d="M26.8018 54.9882C26.8019 55.0985 26.7749 55.2071 26.7231 55.3045C26.6713 55.4018 26.5963 55.485 26.5048 55.5465C25.0603 56.5174 23.5485 57.4513 22.0113 58.322C21.9339 58.3659 21.8486 58.3939 21.7603 58.4045C21.672 58.4151 21.5825 58.4081 21.4969 58.3838C21.4114 58.3596 21.3315 58.3186 21.2619 58.2632C21.1923 58.2079 21.1344 58.1392 21.0915 58.0613C20.206 56.4488 19.3775 54.796 18.6277 53.1399C18.5581 52.9781 18.5548 52.7956 18.6184 52.6314C18.6821 52.4672 18.8076 52.3346 18.968 52.2621C19.1284 52.1895 19.3109 52.1828 19.4762 52.2435C19.6415 52.3041 19.7764 52.4272 19.8519 52.5862C20.4942 54.0052 21.1956 55.4249 21.9414 56.8137C23.2442 56.0578 24.5248 55.2583 25.755 54.4319C25.856 54.3639 25.9737 54.3247 26.0953 54.3184C26.2169 54.3122 26.338 54.3391 26.4455 54.3963C26.553 54.4535 26.6429 54.5388 26.7057 54.6432C26.7685 54.7476 26.8017 54.8671 26.8018 54.9889L26.8018 54.9882Z" fill="#2F3A5A"/>
<path d="M33.8572 56.4093C33.8573 56.5081 33.8356 56.6056 33.7937 56.6951C33.7518 56.7845 33.6907 56.8635 33.6147 56.9267C32.2763 58.0393 30.8708 59.1197 29.4377 60.1382C29.3652 60.1895 29.2832 60.226 29.1965 60.2454C29.1099 60.2649 29.0202 60.2669 28.9327 60.2515C28.8452 60.2361 28.7617 60.2034 28.6869 60.1555C28.6121 60.1076 28.5476 60.0453 28.497 59.9723C27.4509 58.4585 26.4599 56.8951 25.5502 55.3256C25.5016 55.2491 25.4689 55.1636 25.4542 55.0742C25.4395 54.9848 25.443 54.8933 25.4646 54.8053C25.4862 54.7173 25.5253 54.6345 25.5797 54.562C25.634 54.4895 25.7025 54.4288 25.781 54.3834C25.8594 54.3381 25.9462 54.3091 26.0362 54.2982C26.1261 54.2872 26.2174 54.2946 26.3044 54.3199C26.3914 54.3451 26.4724 54.3877 26.5426 54.4451C26.6127 54.5024 26.6705 54.5734 26.7125 54.6537C27.4919 55.9975 28.3324 57.3412 29.2166 58.6453C30.43 57.7645 31.6186 56.8413 32.7574 55.8947C32.8555 55.8131 32.9749 55.7612 33.1014 55.745C33.228 55.7288 33.3566 55.749 33.4721 55.8032C33.5876 55.8574 33.6853 55.9434 33.7538 56.0511C33.8222 56.1588 33.8586 56.2837 33.8586 56.4113L33.8572 56.4093Z" fill="#2F3A5A"/>
<path d="M41.0127 57.1215C41.0127 57.2973 40.9437 57.4662 40.8205 57.5918C39.6031 58.8321 38.3171 60.0468 36.9996 61.2018C36.9328 61.2605 36.855 61.3055 36.7707 61.3339C36.6864 61.3624 36.5972 61.3739 36.5085 61.3676C36.4197 61.3614 36.3331 61.3375 36.2536 61.2975C36.1741 61.2575 36.1034 61.2021 36.0455 61.1346C34.8529 59.7351 33.708 58.2791 32.6418 56.8064C32.59 56.7349 32.5529 56.6539 32.5324 56.5681C32.512 56.4823 32.5086 56.3932 32.5225 56.3061C32.5365 56.219 32.5675 56.1355 32.6137 56.0603C32.6599 55.9851 32.7205 55.9198 32.7919 55.8681C32.8634 55.8163 32.9444 55.7792 33.0302 55.7587C33.116 55.7382 33.2051 55.7349 33.2922 55.7488C33.3793 55.7628 33.4628 55.7938 33.538 55.84C33.6132 55.8862 33.6785 55.9468 33.7302 56.0182C34.6433 57.28 35.6162 58.529 36.6273 59.7398C37.74 58.7447 38.8257 57.7087 39.8618 56.6532C39.9552 56.5579 40.0749 56.4926 40.2055 56.4656C40.3362 56.4386 40.472 56.4511 40.5955 56.5016C40.719 56.552 40.8247 56.6381 40.8992 56.7489C40.9736 56.8596 41.0133 56.99 41.0133 57.1235L41.0127 57.1215Z" fill="#2F3A5A"/>
<path d="M48.2004 57.1214C48.2003 57.2738 48.1484 57.4216 48.0532 57.5407C46.9702 58.8945 45.8172 60.2282 44.6267 61.5094C44.5661 61.5744 44.4932 61.6267 44.4123 61.6633C44.3314 61.6999 44.244 61.7201 44.1552 61.7227C44.0664 61.7254 43.978 61.7103 43.895 61.6786C43.8121 61.6468 43.7362 61.5989 43.6719 61.5376C42.3389 60.2611 41.0516 58.9261 39.8422 57.5682C39.7237 57.4351 39.663 57.2604 39.6733 57.0824C39.6836 56.9045 39.7642 56.738 39.8973 56.6195C40.0304 56.501 40.2052 56.4402 40.3831 56.4506C40.561 56.4609 40.7275 56.5415 40.846 56.6746C41.8814 57.8383 42.9772 58.9852 44.1093 60.0911C45.1138 58.9906 46.086 57.8524 47.0071 56.7022C47.0941 56.5934 47.2127 56.5143 47.3466 56.4759C47.4804 56.4375 47.6229 56.4417 47.7543 56.4878C47.8857 56.5339 47.9996 56.6197 48.0801 56.7333C48.1606 56.847 48.2038 56.9828 48.2037 57.1221L48.2004 57.1214Z" fill="#2F3A5A"/>
<path d="M55.3551 56.41C55.3553 56.5392 55.318 56.6657 55.2476 56.7741C54.307 58.2274 53.2992 59.6706 52.2457 61.062C52.192 61.1331 52.1247 61.1927 52.0478 61.2375C51.9708 61.2823 51.8858 61.3114 51.7975 61.323C51.7092 61.3346 51.6195 61.3286 51.5336 61.3052C51.4477 61.2819 51.3672 61.2417 51.297 61.187C49.8404 60.0522 48.42 58.8509 47.0743 57.6167C47.0092 57.557 46.9566 57.4851 46.9194 57.405C46.8821 57.325 46.861 57.2384 46.8572 57.1502C46.8535 57.0621 46.8671 56.974 46.8974 56.8911C46.9276 56.8081 46.9739 56.732 47.0336 56.667C47.0933 56.6019 47.1652 56.5493 47.2452 56.5121C47.3253 56.4748 47.4119 56.4537 47.5 56.45C47.5882 56.4462 47.6763 56.4598 47.7592 56.4901C47.8421 56.5203 47.9183 56.5666 47.9833 56.6263C49.1356 57.6839 50.3449 58.7165 51.5846 59.7035C52.4701 58.5089 53.3207 57.2814 54.1189 56.0458C54.1976 55.924 54.3136 55.8309 54.4496 55.7804C54.5856 55.73 54.7343 55.7249 54.8734 55.766C55.0125 55.807 55.1346 55.892 55.2215 56.0082C55.3083 56.1244 55.3552 56.2656 55.3551 56.4107L55.3551 56.41Z" fill="#2F3A5A"/>
<path d="M62.4106 54.9896C62.4106 55.0956 62.3855 55.2001 62.3374 55.2946C61.5499 56.8345 60.6919 58.3711 59.7842 59.8633C59.738 59.9394 59.6771 60.0056 59.6051 60.058C59.5331 60.1103 59.4514 60.1478 59.3647 60.1683C59.2781 60.1888 59.1882 60.1919 59.1004 60.1774C59.0125 60.1629 58.9284 60.131 58.853 60.0837C57.2862 59.1008 55.7476 58.0466 54.2789 56.9508C54.2083 56.8978 54.1488 56.8315 54.1039 56.7556C54.0589 56.6797 54.0294 56.5956 54.0169 56.5083C54.0044 56.4209 54.0093 56.332 54.0312 56.2465C54.0531 56.161 54.0916 56.0807 54.1445 56.0101C54.1974 55.9396 54.2638 55.8801 54.3397 55.8351C54.4156 55.7902 54.4996 55.7606 54.587 55.7481C54.6743 55.7357 54.7633 55.7405 54.8488 55.7624C54.9342 55.7843 55.0145 55.8228 55.0851 55.8758C56.3436 56.8164 57.6544 57.7227 58.9907 58.5801C59.7493 57.3035 60.4689 55.9974 61.1407 54.6879C61.2093 54.5533 61.3212 54.4458 61.4584 54.3826C61.5956 54.3195 61.7501 54.3044 61.8969 54.3398C62.0437 54.3752 62.1743 54.459 62.2676 54.5778C62.361 54.6965 62.4116 54.8432 62.4113 54.9943L62.4106 54.9896Z" fill="#2F3A5A"/>
<path d="M69.3012 52.8631C69.3011 52.9466 69.2854 53.0293 69.2549 53.107C68.6253 54.7195 67.9259 56.3374 67.1781 57.9083C67.1399 57.9886 67.086 58.0606 67.0197 58.1199C66.9534 58.1793 66.876 58.2249 66.7919 58.2541C66.7078 58.2833 66.6188 58.2955 66.5299 58.29C66.4411 58.2845 66.3543 58.2614 66.2744 58.222C64.6035 57.3983 62.9614 56.5047 61.3933 55.5641C61.2515 55.4677 61.1519 55.3209 61.1149 55.1535C61.0779 54.9861 61.1062 54.811 61.1942 54.6638C61.2821 54.5167 61.4229 54.4087 61.5878 54.362C61.7527 54.3152 61.9292 54.3333 62.0813 54.4125C63.425 55.2187 64.8272 55.9901 66.2536 56.711C66.8785 55.3672 67.463 53.9919 68.0005 52.6186C68.0573 52.4725 68.1635 52.3508 68.3005 52.2747C68.4376 52.1986 68.597 52.1728 68.7511 52.2018C68.9052 52.2309 69.0442 52.3129 69.1442 52.4337C69.2442 52.5544 69.2988 52.7064 69.2986 52.8631L69.3012 52.8631Z" fill="#2F3A5A"/>
<path d="M75.9629 50.0384C75.9628 50.0995 75.9544 50.1603 75.938 50.2192C75.4717 51.8921 74.9376 53.5725 74.3517 55.2139C74.3217 55.2975 74.2755 55.3744 74.2156 55.44C74.1557 55.5056 74.0834 55.5587 74.0028 55.5962C73.9223 55.6337 73.8351 55.6548 73.7463 55.6584C73.6576 55.662 73.569 55.6479 73.4857 55.617C71.7388 54.9713 70.0121 54.2491 68.3458 53.471C68.1843 53.3957 68.0593 53.2592 67.9984 53.0917C67.9375 52.9242 67.9456 52.7393 68.021 52.5778C68.0964 52.4163 68.2328 52.2913 68.4003 52.2304C68.5679 52.1694 68.7527 52.1776 68.9142 52.2529C70.344 52.9208 71.8208 53.5463 73.3137 54.116C73.8008 52.7105 74.2476 51.2814 74.644 49.857C74.6873 49.7002 74.786 49.5644 74.9218 49.4748C75.0576 49.3852 75.2213 49.348 75.3825 49.37C75.5437 49.392 75.6915 49.4717 75.7983 49.5944C75.9052 49.7171 75.9639 49.8744 75.9636 50.0371L75.9629 50.0384Z" fill="#2F3A5A"/>
<path d="M82.3316 46.5239C82.3315 46.5629 82.3281 46.6018 82.3216 46.6402C82.0219 48.3568 81.6571 50.0875 81.2365 51.7854C81.2152 51.8714 81.1771 51.9524 81.1244 52.0237C81.0717 52.095 81.0054 52.1551 80.9293 52.2006C80.8532 52.2462 80.7689 52.2762 80.6812 52.289C80.5934 52.3018 80.504 52.2971 80.4181 52.2752C78.6108 51.8143 76.8108 51.2754 75.0707 50.6741C74.9022 50.6159 74.7637 50.4932 74.6857 50.3329C74.6077 50.1726 74.5966 49.9879 74.6548 49.8195C74.713 49.651 74.8357 49.5125 74.996 49.4345C75.1562 49.3565 75.3409 49.3454 75.5094 49.4036C77.0037 49.9202 78.5429 50.3899 80.0923 50.8017C80.4383 49.3471 80.742 47.8724 80.9973 46.409C81.0263 46.2435 81.1162 46.0949 81.2494 45.9924C81.3826 45.89 81.5494 45.8411 81.7168 45.8556C81.8842 45.87 82.0401 45.9466 82.1538 46.0703C82.2675 46.1941 82.3307 46.3559 82.331 46.5239L82.3316 46.5239Z" fill="#2F3A5A"/>
<path d="M86 47.2543C86 47.2919 85.9968 47.3294 85.9906 47.3665C85.976 47.4535 85.9444 47.5368 85.8977 47.6117C85.8509 47.6865 85.7898 47.7514 85.7179 47.8026C85.646 47.8539 85.5648 47.8904 85.4787 47.9102C85.3927 47.93 85.3037 47.9327 85.2166 47.9181C84.0314 47.7165 82.7858 47.4706 81.5132 47.179C81.3434 47.1357 81.1972 47.0277 81.1059 46.878C81.0146 46.7284 80.9853 46.549 81.0244 46.3781C81.0635 46.2073 81.1679 46.0584 81.3152 45.9634C81.4625 45.8684 81.6411 45.8347 81.8129 45.8695C83.0599 46.1551 84.2793 46.399 85.441 46.5931C85.5972 46.6198 85.7389 46.7007 85.8412 46.8217C85.9435 46.9426 85.9997 47.0958 86 47.2543Z" fill="#2F3A5A"/>
<path d="M6.4877 53.8946C6.48751 54.0408 6.43965 54.1829 6.35138 54.2994C6.26311 54.416 6.13925 54.5005 5.99858 54.5403C4.2517 55.0354 2.50483 55.4533 0.808344 55.7832C0.634995 55.8134 0.456713 55.7744 0.311812 55.6746C0.16691 55.5748 0.066956 55.4221 0.0334292 55.2494C-9.7701e-05 55.0766 0.035479 54.8976 0.132514 54.7508C0.229548 54.604 0.380296 54.5012 0.552359 54.4643C2.21391 54.1418 3.92316 53.732 5.63241 53.2476C5.73235 53.2192 5.83751 53.2144 5.93962 53.2336C6.04174 53.2527 6.13802 53.2953 6.2209 53.3579C6.30379 53.4205 6.37102 53.5015 6.41731 53.5946C6.46361 53.6876 6.4877 53.79 6.4877 53.8939L6.4877 53.8946Z" fill="#2F3A5A"/>
<path d="M12.9275 57.4084C12.9276 57.5427 12.8875 57.6739 12.8123 57.7852C12.7371 57.8964 12.6303 57.9826 12.5056 58.0326C10.8649 58.6903 9.16907 59.2943 7.46654 59.8285C7.29663 59.8818 7.11253 59.8654 6.95468 59.783C6.79683 59.7006 6.67814 59.5589 6.62468 59.3891C6.07173 57.6281 5.58059 55.8281 5.16537 54.0436C5.14386 53.9572 5.13977 53.8673 5.15334 53.7792C5.16692 53.6911 5.19788 53.6066 5.24443 53.5306C5.29097 53.4546 5.35218 53.3886 5.42447 53.3365C5.49676 53.2844 5.5787 53.2471 5.66552 53.227C5.75234 53.2069 5.84229 53.2042 5.93015 53.2191C6.01801 53.2341 6.10201 53.2664 6.17727 53.3141C6.25253 53.3619 6.31754 53.4241 6.36851 53.4972C6.41949 53.5703 6.4554 53.6528 6.47418 53.74C6.83095 55.2752 7.24482 56.8198 7.70707 58.3416C9.16101 57.8713 10.6042 57.3479 12.0071 56.7856C12.109 56.7446 12.2195 56.7292 12.3288 56.7409C12.4381 56.7525 12.5429 56.7908 12.6339 56.8523C12.725 56.9138 12.7995 56.9968 12.8511 57.0939C12.9026 57.1909 12.9296 57.2992 12.9296 57.4091L12.9275 57.4084Z" fill="#2F3A5A"/>
<path d="M19.6584 60.2349C19.6586 60.3574 19.6252 60.4776 19.562 60.5826C19.4988 60.6875 19.408 60.7731 19.2996 60.8302C17.7463 61.6485 16.1264 62.4232 14.4863 63.1327C14.4052 63.1678 14.318 63.1866 14.2296 63.1879C14.1412 63.1892 14.0535 63.1731 13.9713 63.1405C13.8892 63.1078 13.8143 63.0593 13.7509 62.9977C13.6876 62.9361 13.637 62.8625 13.6021 62.7813C12.8758 61.0895 12.2087 59.3548 11.6194 57.626C11.562 57.4573 11.5739 57.2726 11.6526 57.1127C11.7313 56.9527 11.8703 56.8305 12.039 56.7731C12.2078 56.7156 12.3924 56.7275 12.5524 56.8062C12.7124 56.8849 12.8345 57.0239 12.892 57.1927C13.3972 58.6775 13.9616 60.1664 14.5717 61.627C15.9685 61.0069 17.3452 60.3397 18.6701 59.641C18.7724 59.5871 18.887 59.5605 19.0026 59.5638C19.1183 59.5672 19.2311 59.6003 19.3301 59.6601C19.4292 59.7198 19.5112 59.8041 19.5681 59.9048C19.625 60.0055 19.655 60.1192 19.6551 60.2349L19.6584 60.2349Z" fill="#2F3A5A"/>
<path d="M26.6198 62.3628C26.6199 62.4736 26.5925 62.5826 26.5402 62.6803C26.488 62.7779 26.4124 62.8611 26.3201 62.9225C24.8595 63.8954 23.3337 64.8273 21.7816 65.6973C21.7045 65.7406 21.6196 65.7682 21.5318 65.7786C21.444 65.7889 21.355 65.7819 21.2699 65.7578C21.1848 65.7337 21.1053 65.693 21.036 65.6382C20.9667 65.5833 20.9089 65.5153 20.8659 65.438C19.9729 63.8322 19.1351 62.1767 18.3752 60.5152C18.3358 60.4346 18.3129 60.347 18.3079 60.2574C18.3029 60.1679 18.3159 60.0782 18.3461 59.9938C18.3763 59.9093 18.4231 59.8318 18.4837 59.7657C18.5444 59.6996 18.6176 59.6463 18.6992 59.609C18.7807 59.5717 18.8689 59.5511 18.9586 59.5484C19.0482 59.5457 19.1375 59.5609 19.2211 59.5933C19.3048 59.6257 19.3811 59.6744 19.4456 59.7368C19.5101 59.7991 19.5615 59.8737 19.5967 59.9562C20.2484 61.3812 20.9593 62.8029 21.7131 64.189C23.0327 63.4324 24.3294 62.6309 25.575 61.8018C25.6762 61.7345 25.7938 61.6959 25.9152 61.69C26.0365 61.6842 26.1572 61.7115 26.2644 61.7688C26.3715 61.8262 26.4611 61.9115 26.5236 62.0158C26.586 62.12 26.6191 62.2393 26.6191 62.3608L26.6198 62.3628Z" fill="#2F3A5A"/>
<path d="M33.7476 63.7859C33.7476 63.8852 33.7257 63.9833 33.6833 64.0731C33.6409 64.1629 33.5791 64.2422 33.5024 64.3053C32.1485 65.4186 30.7295 66.499 29.2837 67.5162C29.2112 67.5675 29.1293 67.604 29.0426 67.6235C28.956 67.643 28.8663 67.6451 28.7789 67.6298C28.6914 67.6144 28.6078 67.5818 28.533 67.534C28.4582 67.4861 28.3936 67.4239 28.343 67.3509C27.2889 65.8398 26.2864 64.2764 25.3646 62.7035C25.32 62.6274 25.2908 62.5432 25.2788 62.4558C25.2667 62.3684 25.272 62.2794 25.2943 62.1941C25.3166 62.1087 25.3555 62.0285 25.4088 61.9582C25.462 61.8878 25.5287 61.8287 25.6048 61.7841C25.6809 61.7395 25.7651 61.7103 25.8525 61.6982C25.94 61.6862 26.0289 61.6914 26.1143 61.7137C26.1997 61.736 26.2798 61.7749 26.3502 61.8282C26.4205 61.8815 26.4797 61.9481 26.5243 62.0243C27.3151 63.3741 28.1663 64.7165 29.0592 66.0239C30.2868 65.1418 31.4908 64.2166 32.645 63.2692C32.7434 63.1884 32.8626 63.1372 32.989 63.1215C33.1153 63.1058 33.2435 63.1264 33.3586 63.1807C33.4737 63.2351 33.571 63.321 33.6391 63.4285C33.7073 63.536 33.7435 63.6606 33.7436 63.7879L33.7476 63.7859Z" fill="#2F3A5A"/>
<path d="M40.9757 64.5002C40.9749 64.6765 40.905 64.8454 40.7808 64.9705C39.5533 66.2088 38.2553 67.4229 36.9223 68.5798C36.8556 68.6379 36.7781 68.6822 36.6942 68.7103C36.6104 68.7383 36.5218 68.7496 36.4336 68.7433C36.3454 68.7371 36.2593 68.7135 36.1803 68.6739C36.1012 68.6343 36.0307 68.5795 35.9729 68.5126C34.7635 67.1104 33.6079 65.6538 32.5336 64.1831C32.4815 64.1118 32.444 64.031 32.4232 63.9453C32.4023 63.8595 32.3986 63.7705 32.4122 63.6833C32.4257 63.5962 32.4563 63.5125 32.5022 63.4371C32.5482 63.3618 32.6084 63.2962 32.6797 63.2441C32.7509 63.1921 32.8317 63.1546 32.9175 63.1337C33.0032 63.1129 33.0922 63.1092 33.1794 63.1227C33.2666 63.1363 33.3503 63.1669 33.4256 63.2128C33.501 63.2587 33.5666 63.319 33.6186 63.3903C34.5411 64.6521 35.5254 65.9044 36.5514 67.1199C37.6801 66.1208 38.7793 65.0827 39.8268 64.0292C39.9203 63.9349 40.0398 63.8704 40.17 63.8439C40.3002 63.8175 40.4354 63.8302 40.5583 63.8806C40.6813 63.9309 40.7866 64.0166 40.8609 64.1268C40.9352 64.2369 40.9751 64.3667 40.9757 64.4995L40.9757 64.5002Z" fill="#2F3A5A"/>
<path d="M48.2366 64.5C48.2366 64.6535 48.184 64.8024 48.0875 64.9219C46.993 66.2757 45.8286 67.6094 44.6253 68.8907C44.5646 68.9553 44.4917 69.0073 44.4108 69.0436C44.33 69.0799 44.2427 69.0998 44.1541 69.1023C44.0655 69.1047 43.9772 69.0896 43.8945 69.0578C43.8117 69.026 43.7361 68.9781 43.6719 68.9169C42.3282 67.647 41.0281 66.3114 39.8019 64.9474C39.6865 64.8144 39.628 64.6414 39.6389 64.4656C39.6498 64.2898 39.7293 64.1253 39.8602 64.0076C39.9912 63.8898 40.1632 63.8282 40.3391 63.836C40.5151 63.8437 40.6809 63.9203 40.801 64.0491C41.8538 65.2196 42.9631 66.3691 44.106 67.4757C45.1225 66.3725 46.1075 65.233 47.04 64.0787C47.1271 63.9699 47.2458 63.8908 47.3798 63.8524C47.5138 63.814 47.6564 63.8183 47.7879 63.8646C47.9193 63.9108 48.0332 63.9969 48.1136 64.1107C48.194 64.2246 48.237 64.3606 48.2366 64.5Z" fill="#2F3A5A"/>
<path d="M55.4646 63.7867C55.4646 63.9168 55.4266 64.0441 55.3551 64.1528C54.4057 65.6081 53.3852 67.0506 52.3216 68.4414C52.2678 68.5116 52.2007 68.5706 52.1241 68.6148C52.0475 68.6591 51.963 68.6878 51.8753 68.6993C51.7876 68.7108 51.6985 68.7048 51.6131 68.6818C51.5276 68.6587 51.4476 68.6191 51.3776 68.565C49.8995 67.4228 48.465 66.2235 47.1132 64.9954C47.0467 64.9364 46.9926 64.8647 46.9539 64.7847C46.9153 64.7046 46.893 64.6176 46.8882 64.5288C46.8834 64.4401 46.8963 64.3512 46.9261 64.2675C46.9559 64.1837 47.0021 64.1067 47.0619 64.0409C47.1217 63.9751 47.1939 63.9218 47.2745 63.8841C47.355 63.8465 47.4422 63.8252 47.531 63.8215C47.6199 63.8178 47.7086 63.8317 47.792 63.8625C47.8754 63.8933 47.9518 63.9404 48.0169 64.001C49.1786 65.0565 50.4034 66.0919 51.6638 67.0842C52.5594 65.8883 53.4208 64.6581 54.2297 63.4185C54.3089 63.2974 54.4251 63.205 54.5609 63.1553C54.6968 63.1055 54.8451 63.1009 54.9838 63.1422C55.1225 63.1835 55.2442 63.2685 55.3307 63.3845C55.4172 63.5005 55.4639 63.6413 55.464 63.786L55.4646 63.7867Z" fill="#2F3A5A"/>
<path d="M62.5925 62.3642C62.5925 62.4713 62.567 62.5768 62.518 62.672C61.7238 64.2099 60.8564 65.7458 59.9406 67.2407C59.8944 67.3161 59.8336 67.3816 59.762 67.4335C59.6903 67.4854 59.6091 67.5226 59.523 67.543C59.4369 67.5634 59.3477 67.5667 59.2603 67.5525C59.173 67.5383 59.0893 67.507 59.0141 67.4604C57.4305 66.4768 55.8758 65.4233 54.3943 64.3288C54.3207 64.2774 54.2581 64.2119 54.2102 64.1359C54.1623 64.0599 54.1302 63.9752 54.1156 63.8866C54.1011 63.798 54.1044 63.7074 54.1255 63.6201C54.1466 63.5328 54.1849 63.4507 54.2382 63.3785C54.2916 63.3062 54.3589 63.2455 54.4361 63.1997C54.5133 63.1539 54.599 63.1241 54.6879 63.112C54.7769 63.0999 54.8674 63.1057 54.954 63.1291C55.0407 63.1526 55.1218 63.1931 55.1925 63.2484C56.4657 64.1891 57.7933 65.0981 59.1478 65.9581C59.9171 64.6775 60.6475 63.368 61.324 62.0612C61.3931 61.9272 61.5052 61.8203 61.6424 61.7577C61.7796 61.695 61.9338 61.6804 62.0803 61.7161C62.2268 61.7518 62.357 61.8357 62.4501 61.9543C62.5431 62.073 62.5935 62.2195 62.5932 62.3703L62.5925 62.3642Z" fill="#2F3A5A"/>
<path d="M69.5545 60.2364C69.5544 60.3206 69.5384 60.404 69.5075 60.4823C68.8705 62.0948 68.1637 63.7133 67.4079 65.2848C67.3695 65.3646 67.3157 65.4359 67.2496 65.4948C67.1836 65.5537 67.1065 65.5989 67.023 65.628C66.9394 65.657 66.8509 65.6692 66.7625 65.664C66.6742 65.6587 66.5878 65.636 66.5082 65.5973C64.8285 64.7762 63.1677 63.8826 61.5787 62.9413C61.5027 62.8963 61.4364 62.8368 61.3835 62.7662C61.3306 62.6956 61.2921 62.6152 61.2702 62.5297C61.2484 62.4442 61.2435 62.3552 61.2561 62.2679C61.2686 62.1805 61.2982 62.0965 61.3432 62.0205C61.3882 61.9446 61.4477 61.8783 61.5183 61.8254C61.5889 61.7724 61.6693 61.734 61.7548 61.7121C61.8403 61.6902 61.9293 61.6854 62.0167 61.6979C62.104 61.7104 62.1881 61.74 62.264 61.785C63.6299 62.5913 65.0489 63.3673 66.4894 64.0882C67.1223 62.7405 67.7162 61.3638 68.2585 59.9898C68.3156 59.8439 68.422 59.7227 68.5591 59.6469C68.6962 59.5712 68.8555 59.5457 69.0094 59.575C69.1633 59.6042 69.3022 59.6863 69.4019 59.8071C69.5017 59.9279 69.5562 60.0797 69.5558 60.2364L69.5545 60.2364Z" fill="#2F3A5A"/>
<path d="M76.2854 57.4085C76.2854 57.4703 76.2768 57.5318 76.2598 57.5912C75.7895 59.2615 75.252 60.9419 74.6547 62.5873C74.6247 62.6705 74.5786 62.747 74.5189 62.8124C74.4593 62.8777 74.3873 62.9306 74.3071 62.9681C74.227 63.0055 74.1402 63.0268 74.0518 63.0306C73.9634 63.0345 73.8751 63.0208 73.792 62.9904C72.029 62.3454 70.2828 61.6238 68.6005 60.8465C68.4426 60.7693 68.3213 60.6334 68.2624 60.4679C68.2035 60.3024 68.2119 60.1204 68.2856 59.9609C68.3593 59.8014 68.4925 59.6772 68.6568 59.6148C68.821 59.5523 69.0031 59.5567 69.1642 59.627C70.6107 60.2955 72.1056 60.9217 73.618 61.4928C74.1119 60.0819 74.5647 58.6514 74.9658 57.2277C75.0096 57.0713 75.1086 56.936 75.2444 56.847C75.3803 56.7579 75.5438 56.721 75.7047 56.7433C75.8656 56.7655 76.0131 56.8452 76.1197 56.9678C76.2263 57.0903 76.2849 57.2474 76.2847 57.4098L76.2854 57.4085Z" fill="#2F3A5A"/>
<path d="M82.7213 53.8906C82.7214 53.93 82.718 53.9694 82.7112 54.0082C82.4089 55.7215 82.0394 57.4529 81.6127 59.1554C81.5913 59.2411 81.5532 59.3217 81.5006 59.3926C81.448 59.4635 81.3819 59.5234 81.3061 59.5687C81.2304 59.6141 81.1464 59.6441 81.0591 59.657C80.9717 59.6699 80.8827 59.6654 80.7971 59.6439C78.9682 59.1837 77.1508 58.6455 75.3959 58.0455C75.2272 57.9879 75.0883 57.8656 75.0098 57.7056C74.9313 57.5455 74.9196 57.3609 74.9773 57.1922C75.0349 57.0236 75.1572 56.8847 75.3172 56.8062C75.4773 56.7277 75.6619 56.716 75.8306 56.7736C77.3416 57.291 78.899 57.76 80.4705 58.1725C80.8219 56.7138 81.1296 55.2377 81.3883 53.7751C81.4173 53.6094 81.5074 53.4607 81.6407 53.3583C81.774 53.2558 81.9409 53.2071 82.1085 53.2217C82.276 53.2363 82.4319 53.3131 82.5455 53.4371C82.6591 53.5611 82.7221 53.7232 82.722 53.8913L82.7213 53.8906Z" fill="#2F3A5A"/>
<path d="M86.0001 54.5496C86 54.5881 85.9966 54.6265 85.99 54.6645C85.975 54.7515 85.943 54.8346 85.8958 54.9092C85.8487 54.9838 85.7872 55.0483 85.7151 55.0992C85.643 55.15 85.5616 55.1862 85.4755 55.2055C85.3894 55.2249 85.3003 55.2271 85.2134 55.2121C84.1733 55.032 83.0916 54.8157 81.9071 54.5496C81.7364 54.5075 81.5891 54.4002 81.4966 54.2508C81.4041 54.1013 81.3739 53.9216 81.4124 53.7501C81.4509 53.5786 81.555 53.429 81.7025 53.3334C81.85 53.2379 82.0291 53.2039 82.2013 53.2388C83.3644 53.5001 84.4246 53.7124 85.4425 53.8885C85.5984 53.9154 85.7398 53.9964 85.8418 54.1174C85.9438 54.2383 85.9999 54.3914 86.0001 54.5496Z" fill="#2F3A5A"/>
<path d="M6.09737 61.2562C6.09723 61.4023 6.04946 61.5444 5.96132 61.6609C5.87318 61.7774 5.74946 61.862 5.60892 61.9019C4.72944 62.1518 3.813 62.3856 2.80855 62.6167C2.7221 62.6378 2.63233 62.6415 2.54444 62.6276C2.45656 62.6137 2.37231 62.5825 2.29659 62.5358C2.22087 62.489 2.15518 62.4277 2.10334 62.3554C2.05151 62.2831 2.01455 62.2012 1.99461 62.1145C1.97468 62.0278 1.97217 61.938 1.98723 61.8503C2.00229 61.7626 2.03462 61.6788 2.08233 61.6037C2.13005 61.5286 2.19221 61.4637 2.26521 61.4128C2.3382 61.3619 2.42057 61.3261 2.50755 61.3073C3.48983 61.0815 4.38409 60.8531 5.2414 60.6092C5.34139 60.5807 5.44663 60.5758 5.54883 60.5949C5.65103 60.614 5.7474 60.6565 5.83037 60.7192C5.91334 60.7818 5.98064 60.8629 6.02697 60.9559C6.0733 61.049 6.0974 61.1516 6.09737 61.2555L6.09737 61.2562Z" fill="#2F3A5A"/>
<path d="M12.6051 64.7788C12.6051 64.9135 12.5646 65.0451 12.4889 65.1565C12.4132 65.268 12.3057 65.3541 12.1805 65.4036C10.5256 66.0594 8.8137 66.6627 7.09101 67.1962C6.92163 67.2487 6.73837 67.2321 6.58118 67.15C6.42398 67.068 6.3056 66.9271 6.25184 66.7581C5.69217 64.9965 5.19498 63.1972 4.77371 61.412C4.73291 61.2386 4.76268 61.056 4.85649 60.9045C4.9503 60.7529 5.10045 60.6449 5.27393 60.6041C5.4474 60.5633 5.62997 60.5931 5.78149 60.6869C5.933 60.7807 6.04105 60.9308 6.08185 61.1043C6.44332 62.6409 6.86324 64.1875 7.33154 65.7114C8.80496 65.241 10.2663 64.7163 11.6839 64.1546C11.7858 64.1142 11.8961 64.0993 12.0051 64.1112C12.114 64.1231 12.2184 64.1616 12.3091 64.2231C12.3998 64.2847 12.4741 64.3675 12.5255 64.4644C12.5768 64.5612 12.6037 64.6692 12.6037 64.7788L12.6051 64.7788Z" fill="#2F3A5A"/>
<path d="M19.4052 67.6082C19.4053 67.7312 19.3717 67.8519 19.3079 67.9571C19.2442 68.0623 19.1528 68.148 19.0437 68.2049C17.4749 69.0225 15.8395 69.7959 14.1834 70.5047C14.0201 70.5746 13.8358 70.5771 13.6707 70.5115C13.5056 70.4459 13.3733 70.3176 13.3025 70.1546C12.5675 68.4635 11.8916 66.7281 11.2977 64.998C11.268 64.9144 11.2553 64.8257 11.2601 64.7371C11.2649 64.6485 11.2873 64.5617 11.3258 64.4818C11.3643 64.4019 11.4183 64.3304 11.4847 64.2714C11.551 64.2125 11.6284 64.1672 11.7123 64.1384C11.7962 64.1095 11.885 64.0975 11.9735 64.1031C12.0621 64.1087 12.1486 64.1318 12.2282 64.1711C12.3078 64.2104 12.3788 64.265 12.4372 64.3319C12.4955 64.3987 12.54 64.4765 12.5682 64.5606C13.0808 66.0481 13.6519 67.5397 14.2707 69.0024C15.6816 68.3809 17.0791 67.7137 18.4229 67.0136C18.5253 66.9603 18.6396 66.9343 18.755 66.938C18.8704 66.9417 18.9828 66.9751 19.0815 67.0349C19.1802 67.0947 19.2619 67.179 19.3186 67.2795C19.3752 67.38 19.4051 67.4935 19.4052 67.6089L19.4052 67.6082Z" fill="#2F3A5A"/>
<path d="M26.4377 69.7407C26.4378 69.8521 26.4102 69.9617 26.3575 70.0597C26.3047 70.1578 26.2284 70.2412 26.1354 70.3024C24.6626 71.2719 23.1207 72.2052 21.5525 73.0752C21.3972 73.1614 21.2141 73.1825 21.0433 73.134C20.8724 73.0856 20.7277 72.9714 20.6408 72.8166C19.7364 71.2041 18.8892 69.5499 18.1233 67.8931C18.084 67.8127 18.0612 67.7253 18.0561 67.636C18.0511 67.5467 18.0639 67.4573 18.0939 67.373C18.1238 67.2887 18.1703 67.2113 18.2306 67.1452C18.2909 67.0791 18.3638 67.0257 18.445 66.9882C18.5262 66.9507 18.6141 66.9297 18.7035 66.9266C18.7929 66.9235 18.882 66.9383 18.9656 66.97C19.0492 67.0018 19.1256 67.05 19.1904 67.1117C19.2552 67.1734 19.3069 67.2474 19.3427 67.3294C20.0012 68.7537 20.7207 70.1774 21.486 71.5709C22.8224 70.813 24.1345 70.0101 25.3963 69.179C25.4976 69.1124 25.615 69.0743 25.7361 69.0689C25.8572 69.0636 25.9775 69.0911 26.0842 69.1485C26.191 69.2059 26.2802 69.2912 26.3424 69.3952C26.4047 69.4992 26.4376 69.6182 26.4377 69.7394L26.4377 69.7407Z" fill="#2F3A5A"/>
<path d="M33.6375 71.1623C33.6376 71.2622 33.6153 71.3608 33.5724 71.451C33.5296 71.5411 33.4671 71.6206 33.3896 71.6837C32.017 72.8017 30.5832 73.8814 29.1293 74.8932C28.9835 74.9947 28.8036 75.0343 28.6287 75.0035C28.4538 74.9726 28.2983 74.8738 28.196 74.7286C27.1291 73.2149 26.1132 71.6507 25.1874 70.0806C25.1424 70.0046 25.1129 69.9206 25.1004 69.8333C25.0879 69.7459 25.0928 69.657 25.1147 69.5715C25.1365 69.486 25.1751 69.4057 25.228 69.3351C25.281 69.2645 25.3473 69.2051 25.4232 69.1601C25.4991 69.1151 25.5832 69.0856 25.6705 69.0731C25.7579 69.0606 25.8468 69.0655 25.9323 69.0874C26.0177 69.1093 26.0981 69.1478 26.1687 69.2007C26.2392 69.2537 26.2987 69.32 26.3437 69.3959C27.1439 70.7484 28.0052 72.0922 28.9109 73.4037C30.1492 72.5242 31.368 71.597 32.539 70.6409C32.6375 70.5608 32.7567 70.5102 32.8828 70.4951C33.0089 70.4799 33.1367 70.5008 33.2513 70.5553C33.366 70.6098 33.4629 70.6957 33.5308 70.803C33.5987 70.9103 33.6348 71.0346 33.6349 71.1616L33.6375 71.1623Z" fill="#2F3A5A"/>
<path d="M40.9388 71.876C40.9389 71.9643 40.9216 72.0518 40.8878 72.1335C40.854 72.2151 40.8044 72.2892 40.742 72.3517C39.4983 73.5933 38.1888 74.8074 36.8451 75.9603C36.7107 76.0761 36.5359 76.1341 36.3589 76.1215C36.1819 76.1089 36.0171 76.0268 35.9004 75.8931C34.683 74.4943 33.5146 73.0377 32.4255 71.5643C32.3197 71.4209 32.2751 71.2414 32.3016 71.0652C32.3281 70.8889 32.4236 70.7305 32.5669 70.6246C32.7103 70.5188 32.8898 70.4742 33.066 70.5008C33.2422 70.5273 33.4007 70.6227 33.5065 70.7661C34.4425 72.0339 35.4395 73.289 36.4756 74.5037C37.6178 73.5046 38.729 72.4639 39.7919 71.403C39.8859 71.309 40.0057 71.245 40.1361 71.2192C40.2665 71.1933 40.4016 71.2066 40.5244 71.2576C40.6471 71.3085 40.7521 71.3947 40.8258 71.5052C40.8996 71.6158 40.9389 71.7458 40.9388 71.8787L40.9388 71.876Z" fill="#2F3A5A"/>
<path d="M48.2735 71.8759C48.2735 72.0306 48.2201 72.1806 48.1224 72.3005C47.0218 73.649 45.8454 74.984 44.6286 76.2693C44.5064 76.398 44.3383 76.4731 44.161 76.4782C43.9836 76.4834 43.8114 76.4182 43.6819 76.2968C42.3234 75.0203 41.0085 73.6873 39.773 72.3274C39.6556 72.1952 39.5952 72.022 39.6047 71.8454C39.6142 71.6689 39.6929 71.5032 39.8237 71.3843C39.9545 71.2654 40.127 71.2029 40.3036 71.2102C40.4803 71.2176 40.6469 71.2943 40.7673 71.4237C41.8302 72.5941 42.9536 73.7457 44.1133 74.855C45.146 73.7457 46.143 72.6029 47.0836 71.4506C47.1713 71.3431 47.2901 71.2653 47.4238 71.2281C47.5574 71.1908 47.6993 71.1958 47.83 71.2424C47.9607 71.289 48.0738 71.3749 48.1537 71.4883C48.2335 71.6018 48.2764 71.7372 48.2762 71.8759L48.2735 71.8759Z" fill="#2F3A5A"/>
<path d="M55.5742 71.163C55.5743 71.2941 55.5357 71.4224 55.4634 71.5318C54.5053 72.9851 53.4739 74.4283 52.3989 75.8211C52.2904 75.962 52.1305 76.0541 51.9542 76.0773C51.7779 76.1004 51.5995 76.0528 51.4583 75.9447C49.9701 74.8079 48.5209 73.6072 47.1509 72.375C47.0221 72.255 46.9455 72.0891 46.9377 71.9131C46.9299 71.7372 46.9916 71.5652 47.1093 71.4343C47.2271 71.3033 47.3916 71.2238 47.5674 71.2129C47.7431 71.202 47.9162 71.2605 48.0492 71.376C49.229 72.4368 50.468 73.4742 51.7445 74.4666C52.6529 73.2666 53.525 72.0337 54.3427 70.7928C54.4222 70.6721 54.5386 70.5802 54.6744 70.5309C54.8103 70.4816 54.9585 70.4774 55.0969 70.519C55.2354 70.5605 55.3567 70.6457 55.4429 70.7617C55.5292 70.8777 55.5757 71.0184 55.5756 71.163L55.5742 71.163Z" fill="#2F3A5A"/>
<path d="M62.7746 69.7406C62.7748 69.8484 62.7487 69.9547 62.6987 70.0503C61.8979 71.5848 61.019 73.1214 60.0945 74.619C60.0009 74.7702 59.8511 74.878 59.6781 74.919C59.5051 74.9599 59.3228 74.9306 59.1714 74.8374C57.575 73.8565 56.0055 72.803 54.5066 71.7071C54.3643 71.6013 54.2696 71.4436 54.2432 71.2683C54.2167 71.093 54.2606 70.9143 54.3653 70.7713C54.47 70.6282 54.627 70.5323 54.8021 70.5045C54.9772 70.4766 55.1562 70.5192 55.3001 70.6227C56.5907 71.5633 57.9351 72.4784 59.3037 73.3378C60.0845 72.0518 60.8242 70.7403 61.5075 69.4308C61.577 69.2973 61.6893 69.1911 61.8264 69.129C61.9635 69.0669 62.1174 69.0527 62.2636 69.0885C62.4097 69.1244 62.5396 69.2083 62.6324 69.3268C62.7252 69.4452 62.7755 69.5914 62.7753 69.7419L62.7746 69.7406Z" fill="#2F3A5A"/>
<path d="M69.8078 67.6087C69.8078 67.6939 69.7916 67.7782 69.7601 67.8573C69.1178 69.4698 68.4036 71.0823 67.6377 72.6605C67.5598 72.8205 67.4218 72.943 67.2538 73.0013C67.0858 73.0596 66.9015 73.0489 66.7414 72.9716C65.0483 72.1553 63.3739 71.2624 61.7635 70.3177C61.6873 70.2731 61.6207 70.2139 61.5674 70.1435C61.5142 70.0731 61.4753 69.9929 61.453 69.9075C61.4308 69.8221 61.4255 69.7331 61.4376 69.6457C61.4497 69.5583 61.4789 69.4741 61.5236 69.3979C61.5682 69.3218 61.6274 69.2552 61.6978 69.2019C61.7682 69.1486 61.8484 69.1098 61.9338 69.0875C62.0192 69.0652 62.1082 69.06 62.1956 69.0721C62.2831 69.0842 62.3672 69.1134 62.4434 69.1581C63.8281 69.9724 65.2659 70.7484 66.7172 71.4659C67.3588 70.1135 67.9602 68.7354 68.5084 67.3601C68.566 67.2145 68.6726 67.0935 68.8098 67.0182C68.9471 66.9428 69.1063 66.9177 69.2601 66.9473C69.4139 66.9768 69.5525 67.0592 69.652 67.1801C69.7515 67.3009 69.8057 67.4528 69.8051 67.6094L69.8078 67.6087Z" fill="#2F3A5A"/>
<path d="M76.6079 64.7788C76.6079 64.8414 76.5991 64.9036 76.5817 64.9636C76.104 66.6433 75.5578 68.323 74.9585 69.9603C74.8978 70.1278 74.7732 70.2643 74.6119 70.3399C74.4507 70.4155 74.266 70.424 74.0985 70.3635C72.3173 69.7185 70.553 68.9976 68.8579 68.2215C68.6958 68.1474 68.5698 68.0119 68.5076 67.8449C68.4454 67.6779 68.4522 67.493 68.5263 67.331C68.6004 67.1689 68.7359 67.0429 68.9029 66.9807C69.0699 66.9186 69.2548 66.9253 69.4169 66.9994C70.8802 67.6713 72.3939 68.2954 73.9265 68.8672C74.4257 67.4603 74.8839 66.0265 75.2917 64.5968C75.336 64.4407 75.4353 64.306 75.5711 64.2174C75.707 64.1288 75.8704 64.0924 76.031 64.1148C76.1917 64.1372 76.3388 64.217 76.4452 64.3395C76.5516 64.4619 76.6101 64.6187 76.61 64.7809L76.6079 64.7788Z" fill="#2F3A5A"/>
<path d="M83.115 61.255C83.115 61.2946 83.1114 61.3342 83.1043 61.3732C82.9289 62.3602 82.7253 63.3606 82.4996 64.3469C82.4562 64.5168 82.3482 64.663 82.1986 64.7543C82.049 64.8456 81.8696 64.8748 81.6987 64.8357C81.5278 64.7966 81.379 64.6923 81.284 64.545C81.189 64.3977 81.1553 64.2191 81.1901 64.0473C81.4111 63.0825 81.61 62.1035 81.782 61.1381C81.8119 60.9732 81.9022 60.8254 82.0354 60.7237C82.1686 60.622 82.3349 60.5738 82.5019 60.5884C82.6688 60.6031 82.8242 60.6795 82.9376 60.8028C83.0511 60.9262 83.1143 61.0874 83.115 61.255Z" fill="#2F3A5A"/>
<path d="M80.8884 66.0668C80.8885 66.1695 80.865 66.2709 80.8197 66.3632C80.7744 66.4554 80.7086 66.536 80.6273 66.5988C80.546 66.6616 80.4514 66.705 80.3507 66.7255C80.25 66.746 80.146 66.7431 80.0466 66.7172C78.598 66.3389 77.1421 65.9008 75.7204 65.4151C75.5517 65.3575 75.4128 65.2353 75.3343 65.0754C75.2557 64.9154 75.2439 64.7308 75.3015 64.5621C75.359 64.3935 75.4812 64.2546 75.6412 64.176C75.8011 64.0974 75.9857 64.0856 76.1544 64.1432C77.5452 64.6182 78.9696 65.0469 80.3872 65.4198C80.5304 65.4574 80.6571 65.5412 80.7477 65.6581C80.8383 65.7751 80.8878 65.9188 80.8884 66.0668Z" fill="#2F3A5A"/>
<path d="M84.27 61.5048C84.2701 61.6049 84.2478 61.7038 84.2047 61.7942C84.1617 61.8847 84.0989 61.9643 84.0211 62.0274C83.9433 62.0904 83.8524 62.1353 83.755 62.1587C83.6577 62.1821 83.5563 62.1834 83.4584 62.1626L82.3 61.9126C82.2131 61.8946 82.1306 61.8595 82.0573 61.8094C81.984 61.7592 81.9213 61.6951 81.873 61.6206C81.8246 61.5461 81.7915 61.4628 81.7756 61.3754C81.7596 61.288 81.7612 61.1984 81.7801 61.1116C81.799 61.0249 81.8349 60.9427 81.8858 60.8699C81.9366 60.7971 82.0014 60.7351 82.0764 60.6875C82.1514 60.6399 82.235 60.6077 82.3225 60.5926C82.4101 60.5775 82.4997 60.58 82.5863 60.5998L83.7379 60.8484C83.8883 60.8804 84.0232 60.963 84.12 61.0824C84.2169 61.2019 84.2698 61.351 84.27 61.5048Z" fill="#2F3A5A"/>
<g clip-path="url(#clip1_166_259)">
<path d="M85.8437 18.5781C85.8437 12.27 80.73 7.15625 74.4219 7.15625C68.1137 7.15625 63 12.27 63 18.5781C63 24.8863 68.1137 30 74.4219 30C80.73 30 85.8437 24.8863 85.8437 18.5781Z" fill="#0052B4"/>
<path d="M67.4694 18.5782L68.6075 18.2083L68.6075 17.0117L69.3109 17.9799L70.4491 17.61L69.7456 18.5782L70.4491 19.5463L69.3109 19.1765L68.6075 20.1447L68.6075 18.948L67.4694 18.5782Z" fill="#FFDA44"/>
<path d="M69.5057 23.4943L70.049 22.428L69.2029 21.5818L70.3848 21.7691L70.9281 20.7028L71.1153 21.8847L72.2973 22.0719L71.231 22.6152L71.4182 23.7971L70.5721 22.951L69.5057 23.4943Z" fill="#FFDA44"/>
<path d="M74.4218 25.5306L74.052 24.3925L72.8553 24.3925L73.8235 23.6891L73.4537 22.5509L74.4218 23.2544L75.39 22.5509L75.0202 23.6891L75.9883 24.3925L74.7917 24.3925L74.4218 25.5306Z" fill="#FFDA44"/>
<path d="M79.338 23.4943L78.2717 22.951L77.4255 23.7971L77.6128 22.6152L76.5465 22.072L77.7284 21.8847L77.9157 20.7028L78.459 21.769L79.6409 21.5818L78.7947 22.428L79.338 23.4943Z" fill="#FFDA44"/>
<path d="M81.3743 18.5782L80.2361 18.948L80.2361 20.1447L79.5328 19.1765L78.3947 19.5463L79.0981 18.5782L78.3947 17.61L79.5328 17.9799L80.2361 17.0117L80.2361 18.2084L81.3743 18.5782Z" fill="#FFDA44"/>
<path d="M79.338 13.662L78.7947 14.7283L79.6409 15.5745L78.4589 15.3873L77.9157 16.4535L77.7284 15.2716L76.5465 15.0844L77.6128 14.5411L77.4255 13.3592L78.2717 14.2054L79.338 13.662Z" fill="#FFDA44"/>
<path d="M74.4218 11.6257L74.7917 12.7639L75.9883 12.7639L75.0202 13.4672L75.39 14.6053L74.4218 13.9019L73.4537 14.6053L73.8235 13.4672L72.8553 12.7639L74.0521 12.7639L74.4218 11.6257Z" fill="#FFDA44"/>
<path d="M69.5057 13.662L70.572 14.2053L71.4182 13.3592L71.2309 14.5412L72.2972 15.0844L71.1152 15.2716L70.928 16.4535L70.3847 15.3873L69.2029 15.5745L70.049 14.7283L69.5057 13.662Z" fill="#FFDA44"/>
</g>
</g>
<defs>
<clipPath id="clip0_166_259">
<rect width="86" height="86" fill="white" transform="translate(0 86) rotate(-90)"/>
</clipPath>
<clipPath id="clip1_166_259">
<rect width="22.8438" height="22.8438" fill="white" transform="translate(63 30) rotate(-90)"/>
</clipPath>
</defs>
</svg>
