<svg width="64" height="64" viewBox="0 0 64 64" fill="none" xmlns="http://www.w3.org/2000/svg">
<path d="M45.2501 36.375C44.5379 36.3752 43.8269 36.4366 43.1251 36.5583V17.75C43.1251 17.6351 43.1025 17.5213 43.0585 17.4151C43.0146 17.309 42.9501 17.2125 42.8689 17.1313L28.8689 3.13125C28.7876 3.05 28.6911 2.98555 28.585 2.94158C28.4788 2.89762 28.365 2.87499 28.2501 2.875H10.7501C9.59021 2.87632 8.47818 3.33768 7.65799 4.15787C6.83781 4.97805 6.37645 6.09008 6.37512 7.25V49.25C6.37645 50.4099 6.83781 51.5219 7.65799 52.3421C8.47818 53.1623 9.59021 53.6237 10.7501 53.625H33.8766C34.7569 55.6789 36.1769 57.4561 37.9859 58.768C39.7949 60.0798 41.9253 60.8774 44.151 61.076C46.3768 61.2746 48.6148 60.8669 50.6274 59.896C52.6401 58.9252 54.3524 57.4275 55.5824 55.5619C56.8124 53.6963 57.5144 51.5325 57.6137 49.3001C57.713 47.0677 57.206 44.8501 56.1466 42.8826C55.0871 40.9152 53.5146 39.2713 51.5961 38.1255C49.6776 36.9798 47.4847 36.3749 45.2501 36.375V36.375ZM29.1251 5.8625L40.1376 16.875H31.7501C31.0542 16.8742 30.387 16.5974 29.8948 16.1053C29.4027 15.6132 29.1259 14.9459 29.1251 14.25V5.8625ZM33.2751 51.875H10.7501C10.0542 51.8742 9.38696 51.5974 8.89484 51.1053C8.40273 50.6132 8.12592 49.9459 8.12512 49.25V7.25C8.12592 6.55405 8.40273 5.88683 8.89484 5.39472C9.38696 4.90261 10.0542 4.62579 10.7501 4.625H27.3751V14.25C27.3764 15.4099 27.8378 16.5219 28.658 17.3421C29.4782 18.1623 30.5902 18.6237 31.7501 18.625H41.3751V36.9963C38.387 37.9826 35.8867 40.0698 34.3821 42.8334C32.8776 45.5971 32.4817 48.83 33.2751 51.875ZM45.2501 59.375C43.1487 59.375 41.0945 58.7519 39.3472 57.5844C37.5999 56.4169 36.2381 54.7575 35.4339 52.816C34.6297 50.8745 34.4193 48.7382 34.8293 46.6772C35.2392 44.6161 36.2512 42.7229 37.7371 41.237C39.223 39.7511 41.1162 38.7391 43.1773 38.3292C45.2383 37.9192 47.3747 38.1296 49.3161 38.9338C51.2576 39.738 52.917 41.0998 54.0845 42.8471C55.252 44.5943 55.8751 46.6486 55.8751 48.75C55.8718 51.5669 54.7513 54.2675 52.7595 56.2594C50.7676 58.2512 48.067 59.3717 45.2501 59.375V59.375Z" fill="#B3ACA2"/>
<path d="M45.2498 43.3396C45.9007 43.3404 46.5248 43.5993 46.9851 44.0595C47.4454 44.5198 47.7043 45.1438 47.7051 45.7948C47.7051 46.0268 47.7972 46.2494 47.9613 46.4135C48.1254 46.5776 48.348 46.6698 48.5801 46.6698C48.8121 46.6698 49.0347 46.5776 49.1988 46.4135C49.3629 46.2494 49.4551 46.0268 49.4551 45.7948C49.4537 44.8318 49.1224 43.8984 48.5164 43.15C47.9105 42.4016 47.0664 41.8834 46.1248 41.6818V40.6348C46.1248 40.4027 46.0326 40.1801 45.8685 40.016C45.7044 39.852 45.4819 39.7598 45.2498 39.7598C45.0177 39.7598 44.7952 39.852 44.6311 40.016C44.467 40.1801 44.3748 40.4027 44.3748 40.6348V41.6818C43.3586 41.8982 42.4585 42.4831 41.8481 43.3238C41.2376 44.1645 40.9599 45.2014 41.0686 46.2347C41.1773 47.268 41.6647 48.2244 42.4367 48.9197C43.2087 49.6149 44.2108 49.9998 45.2498 50C45.9008 49.997 46.5264 50.2527 46.9889 50.7108C47.4513 51.169 47.7129 51.7921 47.7159 52.4431C47.719 53.0941 47.4633 53.7197 47.0051 54.1822C46.5469 54.6447 45.9238 54.9062 45.2728 54.9093C45.2651 54.9093 45.2576 54.9081 45.2498 54.9081C45.2421 54.9081 45.2346 54.909 45.2268 54.9093C44.58 54.9027 43.9619 54.6413 43.5066 54.1819C43.0513 53.7225 42.7954 53.1021 42.7946 52.4553C42.7946 52.2232 42.7024 52.0006 42.5383 51.8365C42.3742 51.6725 42.1516 51.5803 41.9196 51.5803C41.6875 51.5803 41.4649 51.6725 41.3008 51.8365C41.1367 52.0006 41.0446 52.2232 41.0446 52.4553C41.0459 53.4182 41.3772 54.3517 41.9831 55.1001C42.5891 55.8485 43.4332 56.3667 44.3748 56.5684V57.7669C44.3748 57.999 44.467 58.2215 44.6311 58.3856C44.7952 58.5497 45.0177 58.6419 45.2498 58.6419C45.4819 58.6419 45.7044 58.5497 45.8685 58.3856C46.0326 58.2215 46.1248 57.999 46.1248 57.7669V56.5684C47.1413 56.3523 48.0419 55.7675 48.6527 54.9267C49.2635 54.086 49.5414 53.0488 49.4326 52.0152C49.3239 50.9817 48.8363 50.025 48.0639 49.3297C47.2915 48.6345 46.289 48.2498 45.2498 48.25C44.5986 48.25 43.9741 47.9913 43.5137 47.5309C43.0532 47.0704 42.7946 46.4459 42.7946 45.7948C42.7946 45.1436 43.0532 44.5191 43.5137 44.0586C43.9741 43.5982 44.5986 43.3395 45.2498 43.3395V43.3396Z" fill="#B3ACA2"/>
<path d="M30.8751 40.875H12.8751C12.6431 40.875 12.4205 40.9672 12.2564 41.1313C12.0923 41.2954 12.0001 41.5179 12.0001 41.75C12.0001 41.9821 12.0923 42.2046 12.2564 42.3687C12.4205 42.5328 12.6431 42.625 12.8751 42.625H30.8751C31.1072 42.625 31.3297 42.5328 31.4938 42.3687C31.6579 42.2046 31.7501 41.9821 31.7501 41.75C31.7501 41.5179 31.6579 41.2954 31.4938 41.1313C31.3297 40.9672 31.1072 40.875 30.8751 40.875V40.875Z" fill="#B3ACA2"/>
<path d="M26.2501 45.125H12.8751C12.6431 45.125 12.4205 45.2172 12.2564 45.3813C12.0923 45.5454 12.0001 45.7679 12.0001 46C12.0001 46.2321 12.0923 46.4546 12.2564 46.6187C12.4205 46.7828 12.6431 46.875 12.8751 46.875H26.2501C26.4822 46.875 26.7047 46.7828 26.8688 46.6187C27.0329 46.4546 27.1251 46.2321 27.1251 46C27.1251 45.7679 27.0329 45.5454 26.8688 45.3813C26.7047 45.2172 26.4822 45.125 26.2501 45.125V45.125Z" fill="#B3ACA2"/>
</svg>
