<svg width="86" height="86" viewBox="0 0 86 86" fill="none" xmlns="http://www.w3.org/2000/svg">
<g clip-path="url(#clip0_77_2292)">
<path d="M85.1668 39.312C85.0185 37.4987 84.7471 35.6975 84.3545 33.9209C83.7668 31.2216 82.9134 28.5871 81.8068 26.0559C78.8074 19.1452 74.011 13.1644 67.9167 8.73569C61.8224 4.30694 54.6527 1.59204 47.1535 0.873399C45.7733 0.736315 44.387 0.669042 43 0.671837C41.6522 0.671837 40.3124 0.739024 38.9942 0.865337C37.1366 1.03378 35.2925 1.32671 33.4741 1.74213C28.0018 3.01104 22.8362 5.35445 18.2771 8.63629C13.718 11.9181 9.85628 16.073 6.91623 20.8597C3.52923 26.3284 1.45919 32.5094 0.86936 38.915C0.732466 40.2736 0.66519 41.6384 0.667798 43.004C0.670015 50.2729 2.54269 57.4189 6.10569 63.7546C9.66869 70.0903 14.8021 75.4026 21.0122 79.1804C22.6104 80.156 24.2726 81.0226 25.9874 81.7745C32.0597 84.4255 38.6677 85.6199 45.2838 85.2625C51.8999 84.9051 58.3408 83.0056 64.0921 79.7159C66.4959 78.3263 68.7589 76.7061 70.8492 74.8784C72.2591 73.6421 73.588 72.3162 74.8273 70.909C81.6133 63.1987 85.349 53.2752 85.3321 43.004C85.3328 41.7583 85.277 40.5308 85.1668 39.312ZM68.4244 64.7969C67.3525 66.0453 66.1902 67.2131 64.9467 68.2907C62.1152 70.7584 58.8856 72.7281 55.3954 74.1158C47.1695 77.3834 37.9865 77.2725 29.842 73.8074C28.3309 73.1623 26.8709 72.4034 25.4748 71.5372C23.7001 70.4505 22.031 69.2001 20.4895 67.8022C19.2716 66.6916 18.135 65.4951 17.0884 64.2218C12.1751 58.2434 9.49413 50.7423 9.50497 43.004C9.50497 42.0271 9.54797 41.0596 9.62456 40.1089C9.76466 38.4794 10.0252 36.8624 10.4039 35.2714C11.8321 29.264 14.8915 23.7678 19.2449 19.3887C23.5982 15.0096 29.0763 11.9178 35.0752 10.4543C36.6667 10.0721 38.2832 9.8027 39.9127 9.64809C40.9319 9.56276 41.9599 9.51371 42.9966 9.51371C44.0333 9.51371 45.0525 9.55671 46.0637 9.64809C52.0438 10.1974 57.7662 12.3448 62.6312 15.8655C67.4963 19.3862 71.3249 24.1505 73.7161 29.6592C74.5493 31.5726 75.2003 33.5603 75.6605 35.5959C76.0258 37.203 76.2693 38.8353 76.3888 40.4791C76.4486 41.3102 76.4828 42.1588 76.4828 43.006C76.4944 51.0006 73.6347 58.7335 68.4244 64.7969Z" fill="#D9E2E9" stroke="#2F3A5A" stroke-width="1.49208" stroke-linecap="round" stroke-linejoin="round"/>
<path d="M42.6124 33.9216H38.5966L38.2183 31.5109L34.4612 7.92811L33.4735 1.7435C35.2919 1.32807 37.1361 1.03515 38.9936 0.866699L39.6769 7.06071L42.2522 30.5904L42.6124 33.9216Z" fill="#D9E2E9"/>
<path d="M42.6123 34.5934H38.5965C38.4363 34.5934 38.2814 34.5362 38.1597 34.4321C38.038 34.328 37.9575 34.1839 37.9327 34.0257L37.5544 31.6163L32.8103 1.84823C32.7834 1.67971 32.8216 1.50726 32.9172 1.36588C33.0127 1.2245 33.1585 1.12479 33.325 1.08699C35.1726 0.664 37.0467 0.366353 38.9344 0.196088C39.1095 0.18063 39.2836 0.23436 39.4195 0.345762C39.5554 0.457164 39.6422 0.617371 39.6614 0.792041L43.2801 33.8483C43.2902 33.942 43.2805 34.0368 43.2515 34.1266C43.2225 34.2163 43.175 34.2989 43.112 34.3691C43.049 34.4392 42.972 34.4953 42.8859 34.5337C42.7998 34.5722 42.7066 34.592 42.6123 34.5921V34.5934ZM39.1716 33.2496H41.8638L41.5843 30.6609L38.3983 1.59829C37.0007 1.74782 35.6119 1.96984 34.2374 2.26345L39.1716 33.2496Z" fill="#2F3A5A"/>
<path d="M52.5264 1.7427L51.5381 7.92798L47.7816 31.5108L47.4034 33.9201H42.6129L43.0745 30.5608L46.3055 7.05924L47.1534 0.873291C48.961 1.04899 50.7557 1.33938 52.5264 1.7427Z" fill="#D9E2E9"/>
<path d="M47.4035 34.5935H42.6123C42.5164 34.5934 42.4216 34.5728 42.3343 34.533C42.2471 34.4933 42.1693 34.4353 42.1063 34.363C42.0433 34.2907 41.9965 34.2057 41.969 34.1138C41.9416 34.0219 41.9341 33.9252 41.9472 33.8302L46.489 0.783365C46.5138 0.612231 46.6031 0.457066 46.7387 0.349735C46.8743 0.242403 47.0458 0.191051 47.218 0.206225C49.0538 0.384859 50.8764 0.679279 52.675 1.08772C52.8415 1.12537 52.9875 1.22502 53.0832 1.36642C53.1789 1.50781 53.2172 1.68035 53.1903 1.84896L48.0673 34.0257C48.0424 34.1839 47.9619 34.3281 47.8402 34.4322C47.7185 34.5363 47.5636 34.5935 47.4035 34.5935ZM43.383 33.2497H46.8297L47.1186 31.4081L51.7626 2.26351C50.4188 1.9793 49.0657 1.76027 47.7313 1.61044L43.383 33.2497Z" fill="#2F3A5A"/>
<path d="M34.3227 40.1706L33.0764 43.9923L30.575 43.5952L7.03652 39.8844L0.873413 38.9156C1.04446 37.0568 1.33939 35.2116 1.75626 33.3921L7.87637 34.6687L31.0641 39.4873L34.3227 40.1706Z" fill="#D9E2E9"/>
<path d="M33.0771 44.6642C33.0418 44.6643 33.0065 44.6616 32.9716 44.6561L0.76597 39.5788C0.597178 39.5522 0.444861 39.4623 0.340015 39.3273C0.235169 39.1924 0.185671 39.0226 0.201595 38.8525C0.377473 36.9652 0.678236 35.0918 1.10191 33.2443C1.14143 33.073 1.24651 32.9241 1.39459 32.8294C1.54268 32.7347 1.72199 32.7018 1.89405 32.7377L34.4605 39.5136C34.5529 39.5329 34.6402 39.5715 34.7167 39.6268C34.7932 39.6821 34.8572 39.753 34.9045 39.8347C34.9518 39.9164 34.9813 40.0072 34.9912 40.1011C35.001 40.195 34.991 40.2899 34.9617 40.3796L33.7161 44.2013C33.672 44.3359 33.5865 44.4532 33.4717 44.5364C33.3569 44.6195 33.2188 44.6643 33.0771 44.6642ZM1.60245 38.3506L32.6155 43.2391L33.452 40.6753L30.9264 40.1458L2.26895 34.1883C1.97659 35.5636 1.75414 36.9528 1.60245 38.3506Z" fill="#2F3A5A"/>
<path d="M35.8002 35.6092L34.3221 40.1692L31.3127 38.7105L9.99011 28.3825L4.36719 25.6688C5.1114 24.0122 5.96244 22.4057 6.91494 20.8595L12.4915 23.7116L33.8148 34.596L35.8002 35.6092Z" fill="#D9E2E9"/>
<path d="M34.3227 40.8423C34.221 40.8424 34.1206 40.8195 34.0291 40.7751L4.07691 26.2734C3.91915 26.1974 3.79729 26.0628 3.7373 25.8983C3.67732 25.7337 3.68394 25.5523 3.75575 25.3926C4.51234 23.7097 5.37683 22.0774 6.34382 20.506C6.43253 20.3622 6.57218 20.2571 6.73492 20.2117C6.89767 20.1662 7.07157 20.1837 7.22196 20.2608L36.1052 35.0125C36.2481 35.0848 36.3605 35.2057 36.422 35.3536C36.4836 35.5014 36.4904 35.6663 36.4411 35.8187L34.963 40.3787C34.9193 40.5138 34.8339 40.6315 34.7191 40.7151C34.6043 40.7986 34.466 40.8436 34.3241 40.8437L34.3227 40.8423ZM5.25471 25.3502L33.9209 39.2292L34.9838 35.945L7.16821 21.7396C6.47685 22.9019 5.83588 24.1106 5.25471 25.3502Z" fill="#2F3A5A"/>
<path d="M37.7015 49.9832L35.1444 52.6412L18.7412 69.7276L14.4211 74.2292C13.0793 73.0011 11.8182 71.6875 10.6458 70.2967L15.0768 65.8657L32.0618 48.9177L33.8154 47.1641L37.7015 49.9832Z" fill="#D9E2E9"/>
<path d="M14.4211 74.9045C14.2529 74.9049 14.0907 74.8418 13.9669 74.7278C12.6039 73.4799 11.3227 72.1455 10.1312 70.7329C10.023 70.6041 9.96699 70.4394 9.97433 70.2713C9.98167 70.1032 10.0518 69.944 10.1708 69.8252L33.3405 46.6952C33.4537 46.5824 33.6034 46.5137 33.7628 46.5014C33.9221 46.4891 34.0806 46.534 34.2099 46.628L38.0953 49.4431C38.1728 49.4995 38.2373 49.5719 38.2846 49.6552C38.3318 49.7386 38.3607 49.8312 38.3692 49.9266C38.3777 50.0221 38.3657 50.1182 38.334 50.2087C38.3023 50.2991 38.2516 50.3817 38.1853 50.451L14.9062 74.6976C14.8435 74.763 14.7682 74.8151 14.6848 74.8506C14.6015 74.8862 14.5118 74.9045 14.4211 74.9045ZM11.5603 70.3358C12.4425 71.3517 13.3925 72.3413 14.3943 73.292L36.6844 50.074L33.888 48.0477L11.5603 70.3358Z" fill="#2F3A5A"/>
<path d="M40.9507 52.3464L39.6123 54.9668L28.8234 76.1987L25.9894 81.7752C24.2746 81.0233 22.6124 80.1567 21.0142 79.1811L24.1155 73.753L35.8734 53.187L37.7008 49.9841L40.9507 52.3464Z" fill="#D9E2E9"/>
<path d="M25.9867 82.4457C25.8942 82.4457 25.8027 82.4265 25.718 82.3892C23.9757 81.625 22.2869 80.7444 20.6628 79.7535C20.5134 79.6625 20.4054 79.5168 20.3618 79.3474C20.3181 79.178 20.3422 78.9983 20.429 78.8464L37.1177 49.6514C37.1645 49.5695 37.2281 49.4983 37.3043 49.4425C37.3805 49.3868 37.4676 49.3477 37.5599 49.3279C37.6522 49.308 37.7476 49.3079 37.84 49.3274C37.9323 49.3469 38.0196 49.3857 38.0959 49.4411L41.3458 51.8014C41.4749 51.8958 41.5661 52.033 41.603 52.1886C41.6399 52.3441 41.6202 52.5077 41.5474 52.65L40.209 55.2703L26.5847 82.0781C26.5286 82.1886 26.4431 82.2813 26.3375 82.3462C26.232 82.4111 26.1106 82.4455 25.9867 82.4457ZM21.9219 78.9425C23.1397 79.6588 24.3935 80.312 25.6784 80.8997L40.0914 52.5519L37.9132 50.9683L21.9219 78.9425Z" fill="#2F3A5A"/>
<path d="M64.0928 79.7158C62.5114 80.6207 60.8731 81.4224 59.1881 82.1158L56.3542 76.5311L45.5108 55.189H45.5014L44.2 52.6231L48.0767 49.808L49.9505 53.3158L61.1406 74.2051L64.0928 79.7158Z" fill="#D9E2E9"/>
<path d="M59.1922 82.7877C59.0681 82.7877 58.9464 82.7534 58.8406 82.6885C58.7348 82.6237 58.6491 82.5308 58.5929 82.4201L44.9565 55.5808C44.9362 55.5532 44.9183 55.5239 44.9028 55.4934L43.6013 52.9275C43.5287 52.7853 43.5091 52.6218 43.546 52.4665C43.5829 52.3111 43.674 52.1739 43.8029 52.0796L47.6803 49.2645C47.758 49.208 47.8469 49.1689 47.941 49.1497C48.0351 49.1305 48.1322 49.1317 48.2258 49.1532C48.3194 49.1747 48.4073 49.2161 48.4836 49.2744C48.5598 49.3328 48.6227 49.4068 48.6679 49.4916L64.6834 79.3994C64.7661 79.5538 64.7852 79.7344 64.7366 79.9028C64.688 80.0711 64.5757 80.2137 64.4234 80.3004C62.8177 81.2193 61.1542 82.0335 59.4435 82.7379C59.3637 82.7706 59.2784 82.7875 59.1922 82.7877ZM46.057 54.798C46.0769 54.8255 46.0946 54.8545 46.1101 54.8847L59.5066 81.2544C60.7362 80.727 61.9704 80.123 63.1885 79.4518L47.8483 50.8044L45.0586 52.8301L46.057 54.798Z" fill="#2F3A5A"/>
<path d="M74.8281 70.9096C73.5887 72.3169 72.2599 73.6428 70.8499 74.8791L66.65 70.2539L50.7353 52.7341L48.0767 49.8081L51.3259 47.4451L53.5229 49.6421L70.3971 66.4887L74.8281 70.9096Z" fill="#D9E2E9"/>
<path d="M70.8492 75.5503C70.7555 75.5503 70.6629 75.5307 70.5773 75.4927C70.4917 75.4548 70.415 75.3993 70.352 75.33L47.5795 50.2563C47.516 50.1864 47.468 50.104 47.4386 50.0143C47.4091 49.9247 47.3988 49.8298 47.4085 49.736C47.4181 49.6421 47.4474 49.5513 47.4945 49.4695C47.5415 49.3877 47.6053 49.3167 47.6816 49.2612L50.9281 46.9016C51.0574 46.8074 51.216 46.7624 51.3755 46.7747C51.535 46.787 51.6849 46.8558 51.7982 46.9688L75.2997 70.4327C75.4209 70.5535 75.4915 70.716 75.497 70.887C75.5025 71.0581 75.4425 71.2248 75.3293 71.3531C74.0702 72.7819 72.7208 74.1284 71.2893 75.3844C71.1674 75.4909 71.0111 75.5499 70.8492 75.5503ZM49.0805 49.9103L70.9023 73.9345C71.941 72.9939 72.9481 71.9901 73.9056 70.9359L51.2573 48.326L49.0805 49.9103Z" fill="#2F3A5A"/>
<path d="M81.8062 26.0565L76.1019 28.6218L54.5388 38.3337L51.1122 39.875L49.8753 36.0534L52.3491 34.7889L73.6375 23.924L79.2141 21.0719C80.1871 22.6744 81.0531 24.3396 81.8062 26.0565Z" fill="#D9E2E9"/>
<path d="M51.1136 40.5469C50.9716 40.5468 50.8333 40.5018 50.7185 40.4183C50.6037 40.3347 50.5183 40.217 50.4746 40.0819L49.2377 36.261C49.1884 36.1086 49.1952 35.9436 49.2568 35.7958C49.3184 35.648 49.4307 35.527 49.5736 35.4547L78.909 20.4719C79.0601 20.3946 79.2348 20.3774 79.3981 20.4236C79.5613 20.4699 79.7011 20.5762 79.7892 20.7212C80.7783 22.349 81.6588 24.0405 82.4249 25.7844C82.4961 25.9467 82.5004 26.1305 82.4367 26.2958C82.373 26.4612 82.2466 26.5947 82.085 26.6673L51.389 40.4877C51.3024 40.5267 51.2085 40.5468 51.1136 40.5469ZM50.6923 36.3913L51.5214 38.9545L80.9186 25.7186C80.3288 24.4322 79.6745 23.1765 78.9581 21.9561L50.6923 36.3913Z" fill="#2F3A5A"/>
<path d="M85.1668 39.312L78.9822 40.2815L55.3994 43.9922L52.6024 44.435L51.1162 39.875L54.8545 39.2031L78.1995 35.0214L84.3566 33.9229C84.7484 35.6988 85.0191 37.4993 85.1668 39.312Z" fill="#D9E2E9"/>
<path d="M52.5991 45.1068C52.4574 45.1067 52.3194 45.0618 52.2047 44.9785C52.0901 44.8953 52.0047 44.7779 51.9608 44.6432L50.4746 40.0832C50.4449 39.9919 50.435 39.8954 50.4457 39.8001C50.4564 39.7047 50.4874 39.6128 50.5366 39.5304C50.5858 39.448 50.6521 39.3771 50.731 39.3225C50.8099 39.2679 50.8995 39.2308 50.994 39.2138L84.2363 33.2576C84.4072 33.2272 84.5832 33.264 84.7275 33.3605C84.8717 33.4569 84.9731 33.6054 85.0103 33.7749C85.4089 35.5813 85.6848 37.4125 85.8361 39.2561C85.8496 39.425 85.7989 39.5928 85.694 39.7259C85.5891 39.8589 85.4378 39.9474 85.2704 39.9737L52.7046 45.0987C52.6697 45.1041 52.6344 45.1068 52.5991 45.1068ZM51.9944 40.3996L53.064 43.6817L84.4446 38.7455C84.3111 37.3863 84.1077 36.035 83.8352 34.6968L51.9944 40.3996Z" fill="#2F3A5A"/>
<path d="M42.9999 58.0323C51.3022 58.0323 58.0325 51.3021 58.0325 42.9998C58.0325 34.6976 51.3022 27.9673 42.9999 27.9673C34.6977 27.9673 27.9674 34.6976 27.9674 42.9998C27.9674 51.3021 34.6977 58.0323 42.9999 58.0323Z" fill="#D9E2E9"/>
<path d="M42.9999 58.7044C39.8939 58.7045 36.8575 57.7835 34.2749 56.058C31.6922 54.3325 29.6792 51.8798 28.4905 49.0102C27.3018 46.1406 26.9907 42.983 27.5965 39.9366C28.2024 36.8902 29.6981 34.0919 31.8943 31.8955C34.0906 29.6991 36.8889 28.2034 39.9352 27.5973C42.9816 26.9913 46.1393 27.3023 49.0089 28.4909C51.8786 29.6795 54.3313 31.6924 56.057 34.275C57.7826 36.8576 58.7037 39.8939 58.7037 42.9999C58.6991 47.1635 57.0431 51.1552 54.0991 54.0993C51.1551 57.0434 47.1635 58.6995 42.9999 58.7044ZM42.9999 28.64C40.1596 28.6398 37.383 29.482 35.0213 31.0599C32.6596 32.6378 30.8189 34.8806 29.7319 37.5047C28.6449 40.1288 28.3604 43.0163 28.9145 45.8021C29.4686 48.5878 30.8363 51.1467 32.8448 53.1551C34.8532 55.1635 37.4121 56.5313 40.1978 57.0854C42.9836 57.6395 45.8711 57.355 48.4952 56.268C51.1193 55.181 53.3621 53.3403 54.94 50.9786C56.5179 48.6169 57.3601 45.8403 57.3599 42.9999C57.3553 39.1928 55.8409 35.5429 53.1489 32.8508C50.4569 30.1586 46.8071 28.6441 42.9999 28.6393V28.64Z" fill="#2F3A5A"/>
<path d="M42.9999 37.0322C44.2362 37.0322 45.2385 36.0299 45.2385 34.7935C45.2385 33.5571 44.2362 32.5548 42.9999 32.5548C41.7635 32.5548 40.7612 33.5571 40.7612 34.7935C40.7612 36.0299 41.7635 37.0322 42.9999 37.0322Z" fill="#2F3A5A"/>
<path d="M42.9999 53.4448C44.2362 53.4448 45.2385 52.4425 45.2385 51.2061C45.2385 49.9697 44.2362 48.9674 42.9999 48.9674C41.7635 48.9674 40.7612 49.9697 40.7612 51.2061C40.7612 52.4425 41.7635 53.4448 42.9999 53.4448Z" fill="#2F3A5A"/>
<path d="M51.2062 45.2386C52.4425 45.2386 53.4448 44.2363 53.4448 42.9999C53.4448 41.7635 52.4425 40.7612 51.2062 40.7612C49.9698 40.7612 48.9675 41.7635 48.9675 42.9999C48.9675 44.2363 49.9698 45.2386 51.2062 45.2386Z" fill="#2F3A5A"/>
<path d="M34.7936 45.2386C36.03 45.2386 37.0323 44.2363 37.0323 42.9999C37.0323 41.7635 36.03 40.7612 34.7936 40.7612C33.5572 40.7612 32.5549 41.7635 32.5549 42.9999C32.5549 44.2363 33.5572 45.2386 34.7936 45.2386Z" fill="#2F3A5A"/>
</g>
<defs>
<clipPath id="clip0_77_2292">
<rect width="86" height="86" fill="white"/>
</clipPath>
</defs>
</svg>
