<svg width="64" height="64" viewBox="0 0 64 64" fill="none" xmlns="http://www.w3.org/2000/svg">
<path d="M11.2015 25.375H11.1765C10.7357 25.3757 10.2993 25.4635 9.89262 25.6335C9.4859 25.8035 9.11681 26.0522 8.80661 26.3654C8.4964 26.6786 8.25121 27.0501 8.08514 27.4584C7.91908 27.8667 7.83542 28.3039 7.83898 28.7447C7.84387 29.6364 8.19897 30.4905 8.82773 31.1228C9.45649 31.7551 10.3085 32.1151 11.2002 32.125H11.2252C12.1232 32 12.9649 31.7323 13.5951 31.0928C13.9063 30.776 14.1518 30.401 14.3178 29.9891C14.4838 29.5773 14.5668 29.1368 14.5622 28.6928C14.5548 27.8077 14.197 26.9616 13.5671 26.3398C12.9372 25.718 12.0866 25.3711 11.2015 25.375V25.375ZM11.2126 30.3148C10.7853 30.3172 10.3745 30.1505 10.0696 29.8512C9.91864 29.7063 9.79831 29.5325 9.71577 29.3402C9.63323 29.1479 9.59016 28.941 9.5891 28.7318C9.58755 28.5209 9.62781 28.3119 9.70757 28.1167C9.78733 27.9215 9.905 27.7441 10.0538 27.5947C10.2025 27.4452 10.3794 27.3268 10.5743 27.2462C10.7691 27.1656 10.978 27.1244 11.1889 27.125H11.2014C11.4109 27.1213 11.6192 27.1592 11.814 27.2366C12.0088 27.314 12.1863 27.4292 12.3362 27.5758C12.4861 27.7223 12.6054 27.8971 12.6872 28.0901C12.769 28.2831 12.8117 28.4904 12.8127 28.7C12.8138 28.9111 12.7733 29.1204 12.6934 29.3158C12.6136 29.5113 12.496 29.6891 12.3474 29.839C12.1988 29.989 12.0221 30.1082 11.8274 30.1898C11.6327 30.2715 11.4238 30.3139 11.2127 30.3148H11.2126Z" fill="#B3ACA2"/>
<path d="M58.3805 24.1625C58.3853 24.1244 58.3875 24.0861 58.3873 24.0478C58.3862 22.6331 57.8728 21.2666 56.9422 20.2011C56.7023 19.9297 56.435 19.6838 56.1445 19.4674L59.2062 19.4438C59.3246 19.4429 59.4416 19.4179 59.5501 19.3705C59.6587 19.323 59.7564 19.254 59.8375 19.1676C59.9185 19.0813 59.9812 18.9794 60.0217 18.8681C60.0623 18.7568 60.0797 18.6384 60.0732 18.5201C60.015 17.7865 59.866 17.063 59.6295 16.3661C59.1124 14.8514 57.5183 13.875 55.5615 13.875H55.5178C54.3315 13.875 52.1819 13.8951 51.1984 13.8985L49.2318 10.327C47.8587 7.90712 45.864 5.125 42.5859 5.125H42.543L18.6587 5.3125C15.9667 5.33225 13.5914 7.2185 11.9683 10.6145L9.96966 14.2207C8.98853 14.226 6.81366 14.2393 5.61216 14.2481C3.63541 14.2626 2.03603 15.2635 1.53716 16.7967C1.31118 17.4961 1.17283 18.2207 1.12528 18.9541C1.12034 19.0725 1.13923 19.1906 1.18085 19.3016C1.22246 19.4125 1.28595 19.5139 1.36754 19.5998C1.44913 19.6857 1.54715 19.7543 1.65578 19.8016C1.76442 19.8489 1.88144 19.8738 1.99991 19.875H2.00753L5.01241 19.8439C3.70928 20.8564 2.87841 22.5306 2.89266 24.4589C2.89293 24.4952 2.89552 24.5315 2.90041 24.5675L4.38403 35.6326C4.40454 36.3938 4.68927 37.124 5.18937 37.6982C5.68948 38.2723 6.37379 38.6545 7.12491 38.7793L7.15103 42.3224C7.15539 42.8692 7.37605 43.3921 7.76478 43.7767C8.1535 44.1613 8.67868 44.3764 9.22553 44.375H9.24128L12.8842 44.3515C13.434 44.3471 13.9597 44.1248 14.3458 43.7333C14.7319 43.3417 14.9469 42.813 14.9435 42.2631L14.9178 38.7686L25.4284 38.6916C25.3937 39.1595 25.3759 39.63 25.3752 40.103C25.3752 50.4418 33.7863 58.853 44.1252 58.853C54.464 58.853 62.8752 50.442 62.8752 40.103C62.8882 35.4213 61.1366 30.9066 57.9695 27.4587L58.3805 24.1625ZM55.5305 15.6316C56.7225 15.6221 57.7042 16.1466 57.9734 16.9349C58.0587 17.1862 58.1297 17.4421 58.1859 17.7015L53.3169 17.739L52.1624 15.6481C53.2354 15.6439 54.6485 15.6375 55.5307 15.6313L55.5305 15.6316ZM13.5117 11.4449C13.5205 11.429 13.5288 11.4127 13.5367 11.3964C14.301 9.79012 15.9844 7.08175 18.6717 7.062L42.5559 6.875H42.586C44.4642 6.875 45.9985 8.17625 47.7049 11.1833L51.747 18.5106L47.4705 18.5449C47.285 17.1418 46.5933 15.8548 45.5256 14.9258C44.4578 13.9968 43.0876 13.4898 41.6723 13.5H41.6279C40.2027 13.5003 38.8275 14.0248 37.764 14.9736C36.7006 15.9224 36.0233 17.2292 35.8612 18.6451L9.41666 18.834L13.5117 11.4449ZM45.7025 18.5606L37.6292 18.6201C37.7924 17.6752 38.2848 16.8185 39.019 16.2017C39.7532 15.5849 40.682 15.2478 41.6409 15.25H41.672C42.2038 15.2443 42.7315 15.3433 43.2249 15.5415C43.7184 15.7397 44.168 16.0332 44.548 16.4051C45.1483 16.9856 45.552 17.7393 45.7025 18.5606V18.5606ZM3.00116 18.1061C3.05324 17.8465 3.12001 17.5901 3.20116 17.3381C3.45878 16.5459 4.43266 16.0077 5.62453 15.999C6.50878 15.9925 7.92091 15.9843 8.99553 15.9784L7.83853 18.0641L3.00116 18.1061ZM12.8713 42.6048L9.22841 42.6316C9.14283 42.6297 9.06094 42.5964 8.99828 42.5381C8.96785 42.5083 8.94363 42.4727 8.927 42.4334C8.91038 42.3942 8.90168 42.352 8.90141 42.3094L8.87566 38.814L13.1678 38.7824L13.1935 42.2777C13.1941 42.3638 13.1604 42.4466 13.1 42.5079C13.0396 42.5692 12.9573 42.604 12.8713 42.6048V42.6048ZM25.6414 36.9391L7.66853 37.0728C7.2649 37.0737 6.87719 36.9154 6.58953 36.6323C6.44631 36.4925 6.33222 36.3258 6.25387 36.1417C6.17551 35.9576 6.13444 35.7598 6.13303 35.5597C6.13263 35.523 6.12992 35.4864 6.12491 35.45L4.64253 24.3904C4.64953 22.0941 6.20953 20.6989 7.78203 20.5939C7.82874 20.6081 7.87652 20.6185 7.92491 20.625H7.93141L53.1967 20.2703C53.2032 20.2703 53.2092 20.25 53.216 20.25H53.2459C53.6998 20.2527 54.1479 20.3531 54.5596 20.5442C54.9714 20.7354 55.3372 21.0128 55.6323 21.3577C56.266 22.0953 56.6214 23.0315 56.6368 24.0037L56.3972 25.9258C53.2214 23.1776 49.2151 21.5749 45.0202 21.3744C40.8252 21.1739 36.6843 22.3872 33.2609 24.8199C31.8225 25.8436 30.5351 27.0645 29.4365 28.4466L29.4219 26.4569C29.4203 26.2248 29.3265 26.0029 29.1612 25.84C28.9959 25.6771 28.7727 25.5865 28.5407 25.5881C28.3086 25.5898 28.0867 25.6836 27.9238 25.8488C27.7608 26.0141 27.6703 26.2373 27.6719 26.4694L27.6888 28.7585C27.6906 28.9892 27.7837 29.2098 27.9476 29.372C28.1116 29.5343 28.3331 29.6251 28.5638 29.6245H28.5699C27.0848 31.8266 26.0866 34.3201 25.6418 36.9386L25.6414 36.9391ZM61.1249 40.1032C61.1249 49.477 53.4988 57.1032 44.1249 57.1032C34.751 57.1032 27.1249 49.4771 27.1249 40.1032C27.1249 35.5946 28.916 31.2706 32.1041 28.0824C35.2922 24.8943 39.6162 23.1033 44.1249 23.1033C48.6336 23.1033 52.9576 24.8943 56.1457 28.0824C59.3338 31.2706 61.1249 35.5946 61.1249 40.1032V40.1032Z" fill="#B3ACA2"/>
<path d="M24.3024 25.6251H24.2959C24.181 25.6253 24.0674 25.6483 23.9614 25.6927C23.8555 25.7371 23.7594 25.802 23.6786 25.8837C23.5979 25.9654 23.5341 26.0622 23.491 26.1687C23.4478 26.2751 23.4262 26.3891 23.4273 26.5039L23.4442 28.7759C23.4454 28.8893 23.4691 29.0012 23.5138 29.1054C23.5586 29.2095 23.6235 29.3038 23.7048 29.3827C23.7862 29.4617 23.8823 29.5237 23.9878 29.5653C24.0932 29.6069 24.2058 29.6272 24.3192 29.6251H24.3257C24.4397 29.6266 24.5529 29.6053 24.6586 29.5625C24.7643 29.5197 24.8605 29.4562 24.9413 29.3758C25.0222 29.2954 25.0863 29.1997 25.1297 29.0943C25.1731 28.9888 25.1951 28.8757 25.1943 28.7617L25.1774 26.4819C25.1763 26.3682 25.1529 26.2558 25.1083 26.1511C25.0637 26.0464 24.9989 25.9516 24.9177 25.872C24.8364 25.7924 24.7402 25.7296 24.6346 25.6872C24.5291 25.6449 24.4162 25.6237 24.3024 25.6251V25.6251Z" fill="#B3ACA2"/>
<path d="M20.0579 25.625H20.0514C19.8178 25.6291 19.5953 25.7255 19.4326 25.8931C19.2698 26.0607 19.18 26.2859 19.1828 26.5195L19.1998 28.8463C19.2002 29.0809 19.2916 29.3062 19.4548 29.4748C19.618 29.6434 19.8403 29.742 20.0748 29.75H20.0813C20.3165 29.7423 20.5392 29.6427 20.7017 29.4724C20.8641 29.3022 20.9533 29.075 20.9499 28.8398L20.9329 26.5209C20.9323 26.2871 20.8405 26.0627 20.6771 25.8955C20.5138 25.7282 20.2917 25.6312 20.0579 25.625V25.625Z" fill="#B3ACA2"/>
<path d="M55.2484 31.1158L44.5172 25.8481C44.3968 25.7893 44.2644 25.7588 44.1304 25.7588C43.9963 25.7588 43.864 25.7893 43.7435 25.8481L33.0044 31.1C32.8556 31.1713 32.7296 31.2826 32.6406 31.4215C32.5515 31.5604 32.5029 31.7213 32.5001 31.8863V41.9363C32.5001 44.62 34.2509 47.9074 36.4697 49.4201L43.6259 54.2965C43.7721 54.3956 43.9447 54.4486 44.1213 54.4486C44.298 54.4486 44.4705 54.3956 44.6167 54.2965L51.7792 49.4201C53.9982 47.9076 55.7496 44.6201 55.7496 41.9363V31.9011C55.7472 31.7366 55.699 31.576 55.6105 31.4373C55.5219 31.2986 55.3966 31.1873 55.2484 31.1158V31.1158ZM54.0001 41.9356C54.0001 44.0286 52.5251 46.7938 50.7945 47.9738L44.132 52.5139L37.4587 47.9738C35.728 46.7938 34.2501 44.0286 34.2501 41.9356V32.432L44.1251 27.6081L54.0001 32.4456V41.9356Z" fill="#B3ACA2"/>
<path d="M40.002 38.7948C39.9244 38.7091 39.8306 38.6396 39.726 38.5904C39.6215 38.5412 39.5082 38.5132 39.3927 38.508C39.2773 38.5028 39.1619 38.5205 39.0534 38.5601C38.9448 38.5998 38.8451 38.6605 38.7602 38.7389C38.6752 38.8172 38.6066 38.9116 38.5584 39.0167C38.5101 39.1217 38.4831 39.2352 38.479 39.3507C38.4748 39.4662 38.4936 39.5814 38.5342 39.6896C38.5748 39.7978 38.6365 39.8969 38.7156 39.9811L42.0101 43.5536C42.1671 43.7239 42.3851 43.8249 42.6165 43.8347C42.8478 43.8445 43.0736 43.7621 43.2444 43.6058L49.483 37.8914C49.6541 37.7346 49.756 37.5163 49.7661 37.2845C49.7763 37.0526 49.6939 36.8262 49.5372 36.6551C49.3804 36.4839 49.1621 36.3821 48.9302 36.3719C48.6984 36.3618 48.472 36.4441 48.3008 36.6009L42.7054 41.7259L40.002 38.7948Z" fill="#B3ACA2"/>
</svg>
