<svg width="84" height="84" viewBox="0 0 84 84" fill="none" xmlns="http://www.w3.org/2000/svg">
<g clip-path="url(#clip0_77_2596)">
<path d="M6.75079 45.3652H11.3964V60.0016H6.75079V45.3652Z" fill="#9297AB"/>
<path d="M11.3964 60.6579H6.75085C6.57681 60.6579 6.40989 60.5888 6.28682 60.4657C6.16375 60.3427 6.0946 60.1757 6.0946 60.0017V45.3673C6.0946 45.1933 6.16375 45.0263 6.28682 44.9033C6.40989 44.7802 6.57681 44.7111 6.75085 44.7111H11.3964C11.5705 44.7111 11.7374 44.7802 11.8605 44.9033C11.9836 45.0263 12.0527 45.1933 12.0527 45.3673V60.0017C12.0527 60.1757 11.9836 60.3427 11.8605 60.4657C11.7374 60.5888 11.5705 60.6579 11.3964 60.6579ZM7.4071 59.3454H10.7402V46.0236H7.4071V59.3454Z" fill="#939597"/>
<path d="M4.66272 52.668H13.4834V67.9356H4.66272V52.668Z" fill="#9297AB"/>
<path d="M13.484 68.5919H4.66272C4.48867 68.5919 4.32175 68.5227 4.19868 68.3997C4.07561 68.2766 4.00647 68.1097 4.00647 67.9356V52.668C4.00647 52.4939 4.07561 52.327 4.19868 52.2039C4.32175 52.0809 4.48867 52.0117 4.66272 52.0117H13.484C13.6581 52.0117 13.825 52.0809 13.9481 52.2039C14.0711 52.327 14.1403 52.4939 14.1403 52.668V67.9356C14.1403 68.1097 14.0711 68.2766 13.9481 68.3997C13.825 68.5227 13.6581 68.5919 13.484 68.5919ZM5.31963 67.2794H12.8278V53.3242H5.31897L5.31963 67.2794Z" fill="#939597"/>
<path d="M14.9061 67.9357H3.24063C2.89926 67.9433 2.57444 68.0843 2.33572 68.3284C2.09699 68.5726 1.96332 68.9005 1.96332 69.2419C1.96332 69.5834 2.09699 69.9113 2.33572 70.1554C2.57444 70.3996 2.89926 70.5405 3.24063 70.5482H14.9061C15.2475 70.5405 15.5723 70.3996 15.811 70.1554C16.0498 69.9113 16.1834 69.5834 16.1834 69.2419C16.1834 68.9005 16.0498 68.5726 15.811 68.3284C15.5723 68.0843 15.2475 67.9433 14.9061 67.9357Z" fill="#9297AB"/>
<path d="M14.906 71.2031H3.24053C2.72004 71.2031 2.22087 70.9964 1.85282 70.6283C1.48478 70.2603 1.27802 69.7611 1.27802 69.2406C1.27802 68.7201 1.48478 68.2209 1.85282 67.8529C2.22087 67.4848 2.72004 67.2781 3.24053 67.2781H14.906C15.4265 67.2781 15.9257 67.4848 16.2937 67.8529C16.6618 68.2209 16.8685 68.7201 16.8685 69.2406C16.8685 69.7611 16.6618 70.2603 16.2937 70.6283C15.9257 70.9964 15.4265 71.2031 14.906 71.2031ZM3.24053 68.5919C3.06814 68.5919 2.9028 68.6604 2.7809 68.7823C2.659 68.9042 2.59052 69.0695 2.59052 69.2419C2.59052 69.4143 2.659 69.5796 2.7809 69.7015C2.9028 69.8234 3.06814 69.8919 3.24053 69.8919H14.906C15.0784 69.8919 15.2438 69.8234 15.3657 69.7015C15.4876 69.5796 15.556 69.4143 15.556 69.2419C15.556 69.0695 15.4876 68.9042 15.3657 68.7823C15.2438 68.6604 15.0784 68.5919 14.906 68.5919H3.24053Z" fill="#939597"/>
<path d="M0.65625 60.3015H4.66266V63.527H0.65625V60.3015Z" fill="#9297AB"/>
<path d="M4.66266 64.1813H0.65625C0.482202 64.1813 0.315282 64.1121 0.192211 63.9891C0.0691404 63.866 0 63.6991 0 63.525V60.3015C0 60.1275 0.0691404 59.9605 0.192211 59.8375C0.315282 59.7144 0.482202 59.6453 0.65625 59.6453H4.66266C4.83671 59.6453 5.00362 59.7144 5.1267 59.8375C5.24977 59.9605 5.31891 60.1275 5.31891 60.3015V63.525C5.31891 63.6991 5.24977 63.866 5.1267 63.9891C5.00362 64.1121 4.83671 64.1813 4.66266 64.1813ZM1.3125 62.8688H4.00641V60.9578H1.3125V62.8688Z" fill="#939597"/>
<path d="M63.0809 54.6362L61.4132 66.9699C61.253 68.1541 62.0832 69.2439 63.2674 69.4041L69.4788 70.244C70.663 70.4041 71.7528 69.5739 71.913 68.3897L73.5807 56.0559C73.7408 54.8717 72.9106 53.7819 71.7264 53.6218L65.515 52.7819C64.3308 52.6218 63.241 53.452 63.0809 54.6362Z" fill="#3A556A"/>
<path d="M69.7909 70.9453C69.6622 70.9453 69.5337 70.9366 69.4063 70.9191L63.1969 70.0778C62.456 69.9768 61.7855 69.586 61.3326 68.9911C60.8796 68.3962 60.6813 67.6458 60.7812 66.9048L62.4533 54.5719C62.5543 53.8313 62.9449 53.161 63.5396 52.7081C64.1342 52.2552 64.8842 52.0567 65.625 52.1562L71.8351 52.9982C72.5759 53.0991 73.2465 53.49 73.6994 54.0849C74.1523 54.6798 74.3506 55.4302 74.2507 56.1712L72.5812 68.5041C72.4895 69.1791 72.1567 69.7982 71.6442 70.247C71.1317 70.6958 70.4741 70.9441 69.7928 70.946L69.7909 70.9453ZM65.2457 53.4425C64.8812 53.4431 64.5292 53.5756 64.2548 53.8155C63.9803 54.0555 63.802 54.3866 63.7527 54.7478L62.0812 67.0807C62.028 67.4768 62.1341 67.8779 62.3762 68.1959C62.6184 68.5139 62.9767 68.7229 63.3727 68.7771L69.5828 69.619C69.979 69.6723 70.3801 69.5662 70.6981 69.3241C71.0161 69.0819 71.2251 68.7236 71.2792 68.3275L72.9514 55.9946C73.0046 55.5989 72.8989 55.1982 72.6573 54.8802C72.4157 54.5623 72.058 54.353 71.6625 54.2982L65.4524 53.4563C65.3839 53.4471 65.3148 53.4425 65.2457 53.4425Z" fill="#939597"/>
<path d="M11.5666 47.5689L9.89888 59.9027C9.73875 61.0869 10.5689 62.1767 11.7531 62.3368L17.9646 63.1767C19.1488 63.3368 20.2386 62.5066 20.3987 61.3224L22.0664 48.9887C22.2265 47.8045 21.3964 46.7147 20.2122 46.5546L14.0007 45.7147C12.8165 45.5545 11.7267 46.3847 11.5666 47.5689Z" fill="#3A556A"/>
<path d="M18.2595 63.8727C18.1309 63.8727 18.0024 63.864 17.875 63.8465L11.6649 63.0045C10.924 62.9036 10.2535 62.5127 9.80059 61.9178C9.34766 61.3229 9.14936 60.5725 9.24924 59.8315L10.9214 47.4986C11.0226 46.758 11.4136 46.0878 12.0085 45.6352C12.6033 45.1825 13.3535 44.9844 14.0943 45.0843L20.3044 45.9243C21.0453 46.0252 21.7158 46.4161 22.1687 47.011C22.6217 47.6059 22.82 48.3562 22.7201 49.0973L21.048 61.4302C20.9562 62.1053 20.6233 62.7245 20.1106 63.1733C19.598 63.6222 18.9403 63.8704 18.2589 63.8721L18.2595 63.8727ZM13.7124 46.3692C13.3482 46.3703 12.9967 46.503 12.7227 46.7429C12.4487 46.9828 12.2706 47.3137 12.2214 47.6745L10.5493 60.0074C10.4961 60.4036 10.6021 60.8046 10.8443 61.1227C11.0864 61.4407 11.4448 61.6497 11.8408 61.7038L18.0509 62.5458C18.447 62.599 18.8481 62.4929 19.1661 62.2508C19.4841 62.0087 19.6931 61.6503 19.7473 61.2543L21.4187 48.922C21.4719 48.5259 21.3659 48.1248 21.1237 47.8068C20.8816 47.4888 20.5233 47.2798 20.1272 47.2256L13.9171 46.3837C13.8493 46.3743 13.7809 46.3695 13.7124 46.3692Z" fill="#939597"/>
<path d="M77.5627 50.7668C76.9911 53.8884 76.0891 56.9402 74.8721 59.871C74.4609 60.8512 73.7372 61.6679 72.8137 62.1942C71.8902 62.7204 70.8187 62.9267 69.7658 62.7808L41.6777 58.9628L41.612 58.9536L13.5029 55.1473C12.4508 55.0099 11.474 54.5276 10.7253 53.7758C9.97657 53.024 9.49827 52.0452 9.36523 50.9926C8.96042 47.7376 8.91421 44.448 9.22741 41.183C9.38098 39.6454 9.60213 38.3099 9.82395 37.2002C10.2477 35.1504 11.1083 33.216 12.3472 31.5289L16.7815 25.4212C16.7815 25.4212 24.9794 11.9378 27.7763 11.1444C29.1334 10.7579 33.8854 11.0289 38.4601 11.4201C43.019 11.8086 47.3851 12.2988 47.9245 12.3585L47.956 12.3631L47.9875 12.3677C49.0729 12.5377 65.3329 15.0977 67.7321 16.5473C70.2167 18.0731 74.5295 33.2489 74.5295 33.2489L77.1782 40.3121C77.9231 42.2746 78.2354 44.3748 78.0936 46.4691C78.0007 47.9108 77.8234 49.3458 77.5627 50.7668Z" fill="#C1CDD3"/>
<path d="M77.5595 50.7688C76.9909 53.8915 76.0888 56.9441 74.8689 59.8743C74.4578 60.8534 73.7351 61.6693 72.8129 62.1956C71.8906 62.7219 70.8205 62.929 69.7685 62.7848L41.677 58.9615L41.6114 58.9529L13.5088 55.1519C12.4562 55.0157 11.4787 54.5337 10.7297 53.7817C9.98069 53.0297 9.5026 52.0503 9.3705 50.9972C8.96116 47.7422 8.91362 44.4518 9.22875 41.1863C9.38297 39.646 9.60741 38.3106 9.82463 37.2015C9.87975 36.916 9.95128 36.6332 10.0307 36.3484C9.80825 39.2968 9.88102 42.26 10.2479 45.194C10.3797 46.2473 10.8577 47.2271 11.6067 47.9793C12.3558 48.7315 13.3334 49.2137 14.3862 49.35L42.4973 53.1595L42.5531 53.1674L70.6472 56.9829C71.7005 57.1302 72.7729 56.9246 73.697 56.3982C74.6212 55.8718 75.345 55.0542 75.7554 54.0731C76.7248 51.72 77.4988 49.2911 78.0694 46.811C77.9695 48.1384 77.7993 49.4595 77.5595 50.7688Z" fill="#9297AB"/>
<path d="M70.4222 63.4811C70.1744 63.4809 69.9269 63.4643 69.6813 63.4312L41.5223 59.6039L13.4177 55.7977C12.221 55.6432 11.1096 55.0951 10.2585 54.2397C9.40734 53.3843 8.86485 52.2702 8.71637 51.0727C8.30592 47.7702 8.25926 44.4327 8.57724 41.12C8.71309 39.7609 8.91127 38.4372 9.18296 37.0736C9.62812 34.9312 10.5273 32.9092 11.8198 31.1437L16.2527 25.0406C17.6138 22.7968 24.7 11.3387 27.598 10.5171C28.0508 10.3858 29.4316 9.99209 38.5167 10.7697C42.5415 11.113 46.4573 11.5382 47.9536 11.7049L48.0481 11.7167C51.0012 12.1761 65.6493 14.5255 68.0729 15.9889C70.6487 17.5711 74.4306 30.4973 75.1604 33.0724L77.7926 40.0844C78.5716 42.1356 78.8964 44.3314 78.7448 46.5203C78.6512 47.9851 78.4717 49.4432 78.2073 50.887C77.6285 54.0538 76.7145 57.1502 75.4806 60.1237C75.0639 61.1207 74.3609 61.9719 73.4606 62.5695C72.5602 63.1671 71.5029 63.4843 70.4222 63.4811ZM30.2072 11.6156C29.4531 11.5801 28.6974 11.635 27.9563 11.7791C26.0991 12.3041 20.4613 20.6384 17.3441 25.7664L12.8816 31.9187C11.7001 33.5313 10.878 35.3783 10.4705 37.3354C10.208 38.6531 10.0157 39.9355 9.88384 41.2519C9.57525 44.4691 9.62103 47.7106 10.0203 50.9178C10.1339 51.8269 10.5466 52.6724 11.1935 53.3211C11.8405 53.9699 12.6848 54.3849 13.5936 54.5009L41.771 58.3151L69.8585 62.1331C70.7677 62.2593 71.693 62.0816 72.4908 61.6277C73.2885 61.1738 73.9139 60.469 74.2698 59.623C75.4682 56.7356 76.356 53.7291 76.9185 50.654C77.174 49.257 77.3473 47.8463 77.4376 46.4291C77.5763 44.4262 77.2787 42.4171 76.5654 40.5405L73.9168 33.4786C72.2597 27.6551 69.0415 18.1224 67.3904 17.1058C65.5529 15.9981 53.8303 13.9453 47.8879 13.0154L47.8092 13.0056C46.3175 12.8396 42.4155 12.415 38.4058 12.0737C34.2931 11.7226 31.7626 11.6156 30.2072 11.6156Z" fill="#939597"/>
<path d="M69.6729 31.5592L45.9212 28.3396L45.8655 28.3318L39.2951 27.4386L36.2107 27.0239L34.263 26.7568L32.6493 26.5435H32.6414L22.1158 25.1129L28.6396 14.6719C28.8069 14.408 29.045 14.1964 29.3267 14.0611C29.6084 13.9259 29.9224 13.8724 30.2329 13.9067L43.0029 15.2908H43.0108L44.6455 15.4666L46.6405 15.6839L47.5934 15.7902L47.6177 15.7934L49.7026 16.1281L64.8331 18.5871C65.1424 18.6379 65.4311 18.7751 65.6658 18.9828C65.9006 19.1905 66.0719 19.4603 66.16 19.7611L69.6729 31.5592Z" fill="#9297AB"/>
<path d="M31.5479 50.0887L53.7061 53.1305L31.5479 50.0887Z" fill="#D9E2E9"/>
<path d="M53.7074 53.787C53.6773 53.7871 53.6473 53.7851 53.6175 53.7811L31.4592 50.7394C31.3723 50.7296 31.2882 50.7025 31.2119 50.6597C31.1356 50.6169 31.0686 50.5593 31.0149 50.4902C30.9612 50.4212 30.9219 50.3421 30.8991 50.2576C30.8764 50.1732 30.8708 50.085 30.8827 49.9983C30.8946 49.9117 30.9236 49.8282 30.9682 49.753C31.0127 49.6777 31.0719 49.6121 31.1422 49.56C31.2125 49.5079 31.2925 49.4704 31.3774 49.4497C31.4624 49.429 31.5507 49.4255 31.6371 49.4393L53.7953 52.4804C53.9603 52.5027 54.1106 52.5868 54.2158 52.7157C54.3211 52.8447 54.3734 53.0088 54.3623 53.1748C54.3511 53.3409 54.2772 53.4965 54.1556 53.6102C54.0341 53.7238 53.8738 53.787 53.7074 53.787Z" fill="#939597"/>
<path d="M31.1351 53.0952L53.2941 56.1369L31.1351 53.0952Z" fill="#D9E2E9"/>
<path d="M53.2947 56.7931C53.2646 56.7932 53.2346 56.7913 53.2048 56.7872L31.0465 53.7468C30.9596 53.737 30.8755 53.7099 30.7992 53.6671C30.7229 53.6243 30.6559 53.5667 30.6022 53.4977C30.5485 53.4286 30.5091 53.3496 30.4864 53.2651C30.4637 53.1806 30.4581 53.0924 30.47 53.0058C30.4818 52.9191 30.5109 52.8357 30.5555 52.7604C30.6 52.6851 30.6592 52.6195 30.7295 52.5675C30.7998 52.5154 30.8797 52.4779 30.9647 52.4572C31.0497 52.4364 31.138 52.4329 31.2243 52.4468L53.3833 55.4879C53.5482 55.5101 53.6985 55.5943 53.8038 55.7232C53.909 55.8521 53.9614 56.0162 53.9502 56.1823C53.939 56.3483 53.8652 56.5039 53.7436 56.6176C53.622 56.7313 53.4618 56.7945 53.2953 56.7944L53.2947 56.7931Z" fill="#939597"/>
<g opacity="0.75">
<path opacity="0.75" d="M44.646 15.4698L34.2648 26.756L32.6517 26.5427L43.0028 15.2933L43.0113 15.2946L44.646 15.4698Z" fill="white"/>
<path opacity="0.75" d="M49.703 16.1313L39.2949 27.4385L36.2125 27.0231L46.6409 15.687L47.5945 15.7933L47.6181 15.7966L49.703 16.1313Z" fill="white"/>
</g>
<path d="M69.674 32.2166C69.6446 32.2167 69.6152 32.2147 69.5861 32.2107L22.0218 25.7617C21.9131 25.7469 21.8099 25.7052 21.7216 25.6402C21.6333 25.5753 21.5626 25.4893 21.5161 25.39C21.4696 25.2907 21.4486 25.1814 21.4552 25.072C21.4618 24.9625 21.4957 24.8565 21.5539 24.7636L28.0822 14.3292C28.3138 13.9601 28.6444 13.6635 29.0363 13.4732C29.4283 13.2829 29.8658 13.2066 30.299 13.2529L47.6634 15.1403C47.6844 15.1425 47.705 15.1458 47.7251 15.1501L64.9385 17.9497C65.3682 18.0211 65.7693 18.2113 66.0964 18.499C66.4235 18.7866 66.6635 19.1602 66.7892 19.5772L70.3027 31.3759C70.332 31.4739 70.3379 31.5773 70.3201 31.6779C70.3023 31.7786 70.2612 31.8737 70.2002 31.9557C70.1391 32.0376 70.0597 32.1042 69.9684 32.1501C69.877 32.1959 69.7762 32.2198 69.674 32.2199V32.2166ZM23.205 24.5982L68.7553 30.7735L65.5311 19.95C65.4766 19.769 65.3724 19.6069 65.2304 19.4821C65.0884 19.3573 64.9144 19.2748 64.7279 19.2438L47.5125 16.4423H47.5059L30.1573 14.5549C29.9693 14.5347 29.7794 14.5678 29.6093 14.6503C29.4392 14.7328 29.2957 14.8614 29.1952 15.0215L23.205 24.5982Z" fill="#939597"/>
<path d="M61.4607 55.078L61.2456 56.6453C61.1306 57.4833 61.7167 58.2558 62.5547 58.3708L69.2012 59.283C70.0391 59.3979 70.8117 58.8119 70.9267 57.9739L71.1417 56.4066C71.2567 55.5686 70.6707 54.7961 69.8327 54.6811L63.1862 53.769C62.3482 53.654 61.5757 54.2401 61.4607 55.078Z" fill="white"/>
<path d="M69.3919 59.9715C69.2921 59.9715 69.1923 59.9647 69.0933 59.9511L62.4488 59.0383C62.1642 58.9993 61.8901 58.9047 61.6421 58.7597C61.3941 58.6148 61.177 58.4224 61.0034 58.1935C60.8298 57.9647 60.703 57.7039 60.6302 57.426C60.5574 57.1481 60.54 56.8586 60.5792 56.5741L60.7944 55.0069C60.8334 54.7224 60.9282 54.4483 61.0731 54.2004C61.2181 53.9525 61.4105 53.7355 61.6393 53.562C61.8682 53.3884 62.129 53.2616 62.4068 53.1889C62.6846 53.1161 62.9741 53.0988 63.2586 53.1379L69.9032 54.0501C70.4775 54.1298 70.9968 54.4339 71.3473 54.8958C71.6977 55.3578 71.8507 55.9398 71.7728 56.5143L71.5576 58.0782C71.4858 58.602 71.2271 59.0821 70.8291 59.4301C70.431 59.7781 69.9206 59.9703 69.3919 59.9715ZM62.9607 54.4301C62.7497 54.4305 62.546 54.5072 62.3872 54.646C62.2284 54.7849 62.1251 54.9764 62.0964 55.1854L61.8812 56.7532C61.8656 56.867 61.8727 56.9827 61.9018 57.0937C61.931 57.2048 61.9818 57.309 62.0513 57.4004C62.1208 57.4918 62.2076 57.5686 62.3067 57.6265C62.4059 57.6843 62.5155 57.7221 62.6293 57.7376L69.2738 58.6498C69.5034 58.681 69.7361 58.6198 69.9206 58.4797C70.1052 58.3395 70.2266 58.1319 70.2582 57.9023L70.4734 56.3352C70.5043 56.1055 70.4429 55.873 70.3026 55.6885C70.1624 55.504 69.9548 55.3826 69.7253 55.3508L63.0808 54.4386C63.0405 54.4331 63 54.4302 62.9594 54.4301H62.9607Z" fill="#939597"/>
<path d="M13.9018 48.5646L13.6867 50.1319C13.5717 50.9699 14.1578 51.7424 14.9958 51.8574L21.6423 52.7695C22.4802 52.8845 23.2528 52.2984 23.3678 51.4605L23.5828 49.8932C23.6978 49.0552 23.1118 48.2827 22.2738 48.1677L15.6273 47.2556C14.7893 47.1406 14.0168 47.7266 13.9018 48.5646Z" fill="white"/>
<path d="M21.8393 53.4436C21.7383 53.4435 21.6375 53.4364 21.5375 53.4226L14.8929 52.5104C14.3183 52.4314 13.7986 52.1275 13.448 51.6654C13.0974 51.2033 12.9446 50.6209 13.0233 50.0462L13.2385 48.4791C13.2776 48.1946 13.3723 47.9205 13.5173 47.6726C13.6622 47.4246 13.8546 47.2077 14.0835 47.0341C14.3123 46.8606 14.5731 46.7338 14.8509 46.661C15.1288 46.5883 15.4182 46.571 15.7027 46.6101L22.3473 47.5223C22.9214 47.6023 23.4403 47.9065 23.7905 48.3684C24.1407 48.8303 24.2936 49.4122 24.2156 49.9865L24.0004 51.5543C23.9285 52.077 23.6702 52.5562 23.2729 52.9035C22.8757 53.2508 22.3663 53.4429 21.8387 53.4443L21.8393 53.4436ZM15.4028 47.9023C15.192 47.903 14.9884 47.9798 14.8296 48.1185C14.6708 48.2573 14.5675 48.4487 14.5385 48.6576L14.3233 50.2254C14.2921 50.4551 14.3534 50.6878 14.4937 50.8724C14.6339 51.057 14.8417 51.1783 15.0714 51.2098L21.716 52.122C21.9456 52.1533 22.1783 52.0922 22.3629 51.952C22.5475 51.8119 22.6689 51.6041 22.7003 51.3745L22.9162 49.8093C22.9471 49.5797 22.8857 49.3471 22.7454 49.1627C22.6052 48.9782 22.3976 48.8567 22.1681 48.825L15.5236 47.9128C15.4838 47.9066 15.4437 47.9031 15.4035 47.9023H15.4028Z" fill="#939597"/>
<path d="M72.8826 42.6857L65.5818 42.2624C65.3326 42.248 65.0845 42.3055 64.8672 42.4281C64.6498 42.5508 64.4723 42.7334 64.3559 42.9541L62.4127 46.639C62.3114 46.8322 62.2603 47.0479 62.2641 47.2661C62.268 47.4842 62.3267 47.698 62.4348 47.8875C62.5429 48.0771 62.6969 48.2364 62.8828 48.3508C63.0686 48.4652 63.2802 48.531 63.4982 48.5421L71.8326 48.9588C72.1336 48.974 72.4306 48.8841 72.6728 48.7046C72.915 48.525 73.0872 48.2669 73.1602 47.9744L74.0723 44.2994C74.1187 44.1136 74.1235 43.9198 74.0863 43.7319C74.0492 43.5441 73.9709 43.3667 73.8573 43.2125C73.7436 43.0584 73.5973 42.9312 73.4288 42.8402C73.2603 42.7491 73.0738 42.6963 72.8826 42.6857Z" fill="white"/>
<path d="M71.8955 49.6184C71.8633 49.6184 71.8299 49.6184 71.7977 49.6184L63.4633 49.2017C63.1346 49.1852 62.8153 49.0861 62.535 48.9135C62.2548 48.7409 62.0225 48.5004 61.8599 48.2142C61.6973 47.928 61.6094 47.6054 61.6045 47.2763C61.5996 46.9472 61.6778 46.6221 61.8319 46.3313L63.7757 42.6464C63.9536 42.3166 64.2211 42.0439 64.5474 41.8597C64.8738 41.6755 65.2455 41.5874 65.6198 41.6056L72.9205 42.0295C73.2079 42.0462 73.4881 42.126 73.7411 42.2633C73.9941 42.4005 74.2137 42.5919 74.3843 42.8238C74.5549 43.0557 74.6722 43.3223 74.728 43.6047C74.7838 43.8871 74.7765 44.1784 74.7069 44.4577L73.7947 48.1327C73.6888 48.5565 73.4445 48.9328 73.1004 49.202C72.7564 49.4711 72.3323 49.6177 71.8955 49.6184ZM65.5069 42.9188C65.3896 42.9189 65.2745 42.9509 65.174 43.0115C65.0735 43.0721 64.9915 43.1589 64.9366 43.2626L62.9928 46.9475C62.9424 47.0433 62.917 47.1503 62.9188 47.2586C62.9207 47.3668 62.9498 47.4729 63.0034 47.567C63.057 47.661 63.1334 47.7401 63.2256 47.7969C63.3178 47.8536 63.4228 47.8863 63.5309 47.8918L71.8653 48.3085C72.0144 48.3155 72.1612 48.2706 72.2809 48.1815C72.4005 48.0923 72.4856 47.9644 72.5216 47.8196L73.4337 44.1446C73.4567 44.0525 73.459 43.9565 73.4405 43.8634C73.422 43.7703 73.3831 43.6824 73.3267 43.6061C73.2703 43.5297 73.1976 43.4669 73.114 43.4219C73.0304 43.3769 72.9379 43.351 72.8431 43.346L65.5436 42.9188H65.5069Z" fill="#939597"/>
<path d="M15.8952 34.8639L23.0404 36.4219C23.2842 36.4751 23.5076 36.5973 23.6839 36.7739C23.8602 36.9505 23.9819 37.1741 24.0346 37.4181L24.9134 41.4868C24.9595 41.7005 24.951 41.9224 24.8887 42.132C24.8263 42.3416 24.7122 42.532 24.5568 42.6858C24.4014 42.8396 24.2097 42.9517 23.9995 43.0118C23.7893 43.0719 23.5673 43.0781 23.3541 43.0297L15.2166 41.1856C14.9224 41.1189 14.6606 40.9521 14.4758 40.7136C14.2911 40.4751 14.195 40.1799 14.204 39.8784L14.3175 36.0938C14.3235 35.9029 14.3715 35.7158 14.458 35.5455C14.5444 35.3753 14.6673 35.2262 14.8179 35.1088C14.9685 34.9915 15.1431 34.9087 15.3292 34.8663C15.5154 34.824 15.7086 34.8232 15.8952 34.8639Z" fill="white"/>
<path d="M23.6453 43.7226C23.4985 43.7225 23.3521 43.706 23.2089 43.6734L15.0714 41.8293C14.6287 41.7284 14.2348 41.477 13.9568 41.1179C13.6789 40.7589 13.5343 40.3144 13.5476 39.8606L13.6598 36.0734C13.6685 35.786 13.7403 35.5042 13.8702 35.2477C14.0001 34.9913 14.1848 34.7666 14.4113 34.5896C14.6379 34.4127 14.9006 34.2878 15.1808 34.2238C15.4611 34.1598 15.7519 34.1583 16.0328 34.2195L23.1781 35.7781C23.5447 35.8586 23.8806 36.0426 24.1458 36.3083C24.411 36.574 24.5944 36.9101 24.6743 37.2769L25.553 41.3496C25.6146 41.6348 25.6116 41.9301 25.5443 42.214C25.477 42.4978 25.3471 42.7631 25.1641 42.9903C24.9811 43.2175 24.7496 43.4009 24.4866 43.5272C24.2236 43.6534 23.9357 43.7193 23.644 43.72L23.6453 43.7226ZM15.6141 35.49C15.4471 35.4912 15.2871 35.5572 15.1677 35.6739C15.0483 35.7906 14.9787 35.9491 14.9736 36.116L14.8614 39.9C14.8573 40.0493 14.9051 40.1955 14.9967 40.3135C15.0882 40.4316 15.2178 40.5144 15.3634 40.5477L23.5009 42.3917C23.6066 42.4157 23.7166 42.4126 23.8207 42.3828C23.9248 42.353 24.0198 42.2975 24.0968 42.2213C24.1738 42.1451 24.2303 42.0507 24.2612 41.9469C24.292 41.843 24.2962 41.7331 24.2734 41.6272L23.3927 37.5571C23.3663 37.4364 23.3059 37.3257 23.2185 37.2382C23.1312 37.1508 23.0206 37.0902 22.8998 37.0636L15.7552 35.5031C15.7088 35.4937 15.6615 35.4893 15.6141 35.49Z" fill="#939597"/>
<path d="M76.5698 27.6574L76.1796 30.5007C76.0884 31.1652 76.5532 31.7778 77.2177 31.869L81.9183 32.5141C82.5828 32.6053 83.1954 32.1405 83.2866 31.476L83.6768 28.6327C83.768 27.9683 83.3033 27.3557 82.6388 27.2645L77.9381 26.6194C77.2736 26.5282 76.661 26.9929 76.5698 27.6574Z" fill="#9297AB"/>
<path d="M82.074 33.2062C81.9884 33.2062 81.9029 33.2002 81.818 33.1885L77.1193 32.5441C76.6281 32.4761 76.1838 32.2161 75.884 31.8211C75.5842 31.4261 75.4533 30.9282 75.52 30.4368L75.9105 27.594C75.9779 27.1025 76.2378 26.658 76.633 26.3582C77.0282 26.0584 77.5263 25.9279 78.0177 25.9953L82.7164 26.6404C82.9598 26.6738 83.1943 26.7547 83.4064 26.8786C83.6185 27.0026 83.8041 27.1671 83.9526 27.3628C84.1011 27.5584 84.2096 27.7815 84.2719 28.0191C84.3342 28.2567 84.3491 28.5043 84.3157 28.7477L83.9259 31.5899C83.8639 32.0373 83.6424 32.4472 83.3021 32.7442C82.9618 33.0412 82.5257 33.2053 82.074 33.2062ZM77.7624 27.2901C77.6279 27.2904 77.498 27.3394 77.3967 27.4279C77.2954 27.5164 77.2295 27.6385 77.2112 27.7718L76.8207 30.6147C76.8009 30.7613 76.84 30.9097 76.9294 31.0276C77.0188 31.1454 77.1513 31.223 77.2978 31.2434L81.9965 31.8878C82.1431 31.9074 82.2915 31.8683 82.4093 31.7789C82.5271 31.6895 82.6047 31.5571 82.6252 31.4107L83.015 28.5685C83.025 28.4959 83.0206 28.422 83.002 28.3511C82.9835 28.2802 82.9511 28.2137 82.9068 28.1553C82.8625 28.0969 82.8071 28.0478 82.7438 28.0108C82.6805 27.9739 82.6106 27.9497 82.538 27.9398L77.8392 27.2947C77.8149 27.2907 77.7903 27.2883 77.7657 27.2875L77.7624 27.2901Z" fill="#939597"/>
<path d="M76.3501 31.33L74.4608 33.304L76.3501 31.33Z" fill="#9297AB"/>
<path d="M73.9774 32.8083L75.8655 30.8329L76.8143 31.7397L74.9263 33.7152L73.9774 32.8083Z" fill="#939597"/>
<path d="M9.29628 18.443L8.90608 21.2863C8.81489 21.9508 9.27963 22.5634 9.9441 22.6546L14.6448 23.2997C15.3093 23.3908 15.9218 22.9261 16.013 22.2616L16.4032 19.4183C16.4944 18.7538 16.0297 18.1413 15.3652 18.0501L10.6645 17.405C10.0001 17.3138 9.38747 17.7785 9.29628 18.443Z" fill="#9297AB"/>
<path d="M14.8036 23.9695C14.7182 23.9699 14.6329 23.9642 14.5484 23.9525L9.84894 23.3074C9.35783 23.2393 8.91375 22.9792 8.61408 22.5842C8.31441 22.1892 8.1836 21.6915 8.25032 21.2001L8.64079 18.3573C8.70824 17.8658 8.96814 17.4213 9.36332 17.1215C9.7585 16.8217 10.2566 16.6912 10.748 16.7586L15.4468 17.4037C15.9382 17.4712 16.3827 17.7311 16.6825 18.1263C16.9823 18.5214 17.1128 19.0195 17.0454 19.511L16.6556 22.3532C16.5934 22.8005 16.3718 23.2104 16.0316 23.5073C15.6913 23.8043 15.2553 23.9684 14.8036 23.9695ZM10.4927 18.0534C10.3581 18.0538 10.2282 18.1028 10.1268 18.1914C10.0255 18.2801 9.95969 18.4024 9.94148 18.5358L9.55101 21.3786C9.53119 21.5252 9.57028 21.6737 9.6597 21.7915C9.74912 21.9094 9.88159 21.987 10.0281 22.0073L14.7269 22.6524C14.8734 22.6719 15.0217 22.6327 15.1394 22.5433C15.2572 22.4539 15.3348 22.3217 15.3555 22.1753L15.7454 19.3331C15.7553 19.2605 15.7509 19.1866 15.7323 19.1157C15.7138 19.0448 15.6814 18.9783 15.6371 18.9199C15.5928 18.8615 15.5374 18.8124 15.4741 18.7755C15.4108 18.7385 15.3409 18.7143 15.2683 18.7044L10.5689 18.0593C10.5436 18.0559 10.5182 18.0541 10.4927 18.0541V18.0534Z" fill="#939597"/>
<path d="M15.616 22.9938L16.9029 25.4042L15.616 22.9938Z" fill="#9297AB"/>
<path d="M15.0344 23.3002L16.1927 22.6817L17.4799 25.0921L16.3216 25.7107L15.0344 23.3002Z" fill="#939597"/>
<path d="M31.9112 38.0289L56.6327 41.4216L55.798 47.5042L31.0764 44.1116L31.9112 38.0289Z" fill="#F0F5F9"/>
<path d="M55.7812 48.1465C55.7513 48.1466 55.7215 48.1447 55.6919 48.1406L30.9776 44.7485C30.8053 44.7247 30.6495 44.6335 30.5445 44.495C30.4394 44.3564 30.3936 44.1818 30.4171 44.0095L31.2512 37.9287C31.2629 37.8433 31.2913 37.7611 31.3347 37.6866C31.3782 37.6122 31.4359 37.5471 31.5045 37.4949C31.6437 37.3909 31.8179 37.3452 31.9902 37.3676L56.7065 40.7591C56.7919 40.7708 56.8742 40.7992 56.9486 40.8427C57.023 40.8862 57.0882 40.944 57.1403 41.0127C57.1924 41.0814 57.2304 41.1596 57.2523 41.243C57.2741 41.3264 57.2793 41.4133 57.2676 41.4987L56.4328 47.5782C56.4113 47.7354 56.3335 47.8794 56.2139 47.9836C56.0944 48.0879 55.9411 48.1453 55.7825 48.1452L55.7812 48.1465ZM31.8077 43.537L55.2221 46.7527L55.8783 41.9712L32.464 38.7556L31.8077 43.537Z" fill="#939597"/>
<g clip-path="url(#clip1_77_2596)">
<path d="M6.75085 45.3652H11.3965V60.0016H6.75085V45.3652Z" fill="#EF5361"/>
<path d="M11.3965 60.6578H6.75085C6.57681 60.6578 6.40989 60.5887 6.28682 60.4656C6.16375 60.3425 6.0946 60.1756 6.0946 60.0016V45.3672C6.0946 45.1931 6.16375 45.0262 6.28682 44.9032C6.40989 44.7801 6.57681 44.7109 6.75085 44.7109H11.3965C11.5705 44.7109 11.7374 44.7801 11.8605 44.9032C11.9836 45.0262 12.0527 45.1931 12.0527 45.3672V60.0016C12.0527 60.1756 11.9836 60.3425 11.8605 60.4656C11.7374 60.5887 11.5705 60.6578 11.3965 60.6578ZM7.4071 59.3453H10.7402V46.0234H7.4071V59.3453Z" fill="#2F3A5A"/>
<path d="M4.66272 52.668H13.4834V67.9356H4.66272V52.668Z" fill="#EF5361"/>
<path d="M13.484 68.5919H4.66272C4.48867 68.5919 4.32175 68.5227 4.19868 68.3997C4.07561 68.2766 4.00647 68.1097 4.00647 67.9356V52.668C4.00647 52.4939 4.07561 52.327 4.19868 52.2039C4.32175 52.0809 4.48867 52.0117 4.66272 52.0117H13.484C13.6581 52.0117 13.825 52.0809 13.9481 52.2039C14.0711 52.327 14.1403 52.4939 14.1403 52.668V67.9356C14.1403 68.1097 14.0711 68.2766 13.9481 68.3997C13.825 68.5227 13.6581 68.5919 13.484 68.5919ZM5.31963 67.2794H12.8278V53.3242H5.31897L5.31963 67.2794Z" fill="#2F3A5A"/>
<path d="M14.9061 67.9357H3.24063C2.89926 67.9433 2.57444 68.0843 2.33572 68.3284C2.09699 68.5726 1.96332 68.9005 1.96332 69.2419C1.96332 69.5834 2.09699 69.9113 2.33572 70.1554C2.57444 70.3996 2.89926 70.5405 3.24063 70.5482H14.9061C15.2475 70.5405 15.5723 70.3996 15.811 70.1554C16.0498 69.9113 16.1834 69.5834 16.1834 69.2419C16.1834 68.9005 16.0498 68.5726 15.811 68.3284C15.5723 68.0843 15.2475 67.9433 14.9061 67.9357Z" fill="#EF5361"/>
<path d="M14.9061 71.2031H3.24059C2.7201 71.2031 2.22093 70.9963 1.85288 70.6283C1.48484 70.2603 1.27808 69.7611 1.27808 69.2406C1.27808 68.7201 1.48484 68.2209 1.85288 67.8529C2.22093 67.4848 2.7201 67.2781 3.24059 67.2781H14.9061C15.4266 67.2781 15.9258 67.4848 16.2938 67.8529C16.6618 68.2209 16.8686 68.7201 16.8686 69.2406C16.8686 69.7611 16.6618 70.2603 16.2938 70.6283C15.9258 70.9963 15.4266 71.2031 14.9061 71.2031ZM3.24059 68.5919C3.0682 68.5919 2.90286 68.6604 2.78096 68.7823C2.65906 68.9042 2.59058 69.0695 2.59058 69.2419C2.59058 69.4143 2.65906 69.5796 2.78096 69.7015C2.90286 69.8234 3.0682 69.8919 3.24059 69.8919H14.9061C15.0785 69.8919 15.2438 69.8234 15.3657 69.7015C15.4876 69.5796 15.5561 69.4143 15.5561 69.2419C15.5561 69.0695 15.4876 68.9042 15.3657 68.7823C15.2438 68.6604 15.0785 68.5919 14.9061 68.5919H3.24059Z" fill="#2F3A5A"/>
<path d="M0.65625 60.3015H4.66266V63.527H0.65625V60.3015Z" fill="#EF5361"/>
<path d="M4.66266 64.1813H0.65625C0.482202 64.1813 0.315282 64.1121 0.192211 63.9891C0.0691404 63.866 0 63.6991 0 63.525V60.3015C0 60.1275 0.0691404 59.9605 0.192211 59.8375C0.315282 59.7144 0.482202 59.6453 0.65625 59.6453H4.66266C4.8367 59.6453 5.00362 59.7144 5.1267 59.8375C5.24977 59.9605 5.31891 60.1275 5.31891 60.3015V63.525C5.31891 63.6991 5.24977 63.866 5.1267 63.9891C5.00362 64.1121 4.8367 64.1813 4.66266 64.1813ZM1.3125 62.8688H4.00641V60.9578H1.3125V62.8688Z" fill="#2F3A5A"/>
<path d="M63.081 54.6361L61.4132 66.9698C61.2531 68.154 62.0833 69.2438 63.2675 69.4039L69.4789 70.2438C70.6631 70.404 71.7529 69.5738 71.913 68.3896L73.5808 56.0558C73.7409 54.8716 72.9107 53.7818 71.7265 53.6217L65.5151 52.7818C64.3309 52.6217 63.2411 53.4519 63.081 54.6361Z" fill="#3A556A"/>
<path d="M69.7909 70.9452C69.6622 70.9452 69.5337 70.9364 69.4063 70.9189L63.1969 70.0776C62.456 69.9767 61.7855 69.5859 61.3326 68.9909C60.8796 68.396 60.6813 67.6457 60.7812 66.9047L62.4533 54.5718C62.5543 53.8312 62.9449 53.1609 63.5396 52.708C64.1342 52.2551 64.8842 52.0566 65.625 52.1561L71.8351 52.9981C72.5759 53.099 73.2465 53.4898 73.6994 54.0848C74.1523 54.6797 74.3506 55.43 74.2507 56.171L72.5812 68.5039C72.4895 69.179 72.1567 69.7981 71.6442 70.2469C71.1317 70.6957 70.4741 70.944 69.7928 70.9459L69.7909 70.9452ZM65.2457 53.4424C64.8812 53.443 64.5292 53.5755 64.2548 53.8154C63.9803 54.0553 63.802 54.3865 63.7527 54.7476L62.0812 67.0805C62.028 67.4767 62.1341 67.8778 62.3762 68.1958C62.6184 68.5138 62.9767 68.7228 63.3727 68.7769L69.5828 69.6189C69.979 69.6721 70.3801 69.566 70.6981 69.3239C71.0161 69.0818 71.2251 68.7234 71.2792 68.3274L72.9514 55.9945C73.0046 55.5988 72.8989 55.198 72.6573 54.8801C72.4157 54.5621 72.058 54.3529 71.6625 54.2981L65.4524 53.4561C65.3839 53.447 65.3148 53.4424 65.2457 53.4424Z" fill="#2F3A5A"/>
<path d="M11.5667 47.5689L9.89894 59.9027C9.73881 61.0869 10.569 62.1767 11.7532 62.3368L17.9646 63.1767C19.1488 63.3368 20.2386 62.5066 20.3987 61.3224L22.0665 48.9887C22.2266 47.8045 21.3964 46.7147 20.2122 46.5546L14.0008 45.7147C12.8166 45.5545 11.7268 46.3847 11.5667 47.5689Z" fill="#3A556A"/>
<path d="M18.2595 63.8728C18.1309 63.8728 18.0024 63.8641 17.875 63.8466L11.6649 63.0046C10.924 62.9037 10.2535 62.5129 9.80059 61.9179C9.34766 61.323 9.14936 60.5727 9.24924 59.8317L10.9214 47.4987C11.0226 46.7581 11.4136 46.0879 12.0085 45.6353C12.6033 45.1826 13.3535 44.9845 14.0943 45.0844L20.3044 45.9244C21.0453 46.0253 21.7158 46.4162 22.1687 47.0111C22.6217 47.606 22.82 48.3564 22.7201 49.0974L21.048 61.4303C20.9562 62.1054 20.6233 62.7246 20.1106 63.1734C19.598 63.6223 18.9403 63.8705 18.2589 63.8722L18.2595 63.8728ZM13.7124 46.3693C13.3482 46.3704 12.9967 46.5032 12.7227 46.743C12.4487 46.9829 12.2706 47.3138 12.2214 47.6746L10.5493 60.0075C10.4961 60.4037 10.6021 60.8047 10.8443 61.1228C11.0864 61.4408 11.4448 61.6498 11.8408 61.7039L18.0509 62.5459C18.447 62.5991 18.8481 62.493 19.1661 62.2509C19.4841 62.0088 19.6931 61.6504 19.7473 61.2544L21.4187 48.9222C21.4719 48.526 21.3659 48.1249 21.1237 47.8069C20.8816 47.4889 20.5233 47.2799 20.1272 47.2257L13.9171 46.3838C13.8493 46.3744 13.7809 46.3696 13.7124 46.3693Z" fill="#2F3A5A"/>
<path d="M77.5627 50.7668C76.991 53.8883 76.0891 56.9402 74.872 59.8709C74.4608 60.8511 73.7372 61.6679 72.8137 62.1941C71.8902 62.7204 70.8186 62.9266 69.7657 62.7808L41.6776 58.9627L41.612 58.9535L13.5028 55.1473C12.4507 55.0099 11.4739 54.5276 10.7252 53.7758C9.97651 53.024 9.49821 52.0452 9.36517 50.9925C8.96036 47.7376 8.91415 44.448 9.22735 41.1829C9.38092 39.6453 9.60207 38.3098 9.82388 37.2001C10.2476 35.1503 11.1083 33.2159 12.3472 31.5288L16.7814 25.4211C16.7814 25.4211 24.9793 11.9378 27.7763 11.1444C29.1334 10.7578 33.8853 11.0289 38.46 11.42C43.019 11.8085 47.385 12.2987 47.9244 12.3584L47.9559 12.363L47.9874 12.3676C49.0729 12.5376 65.3328 15.0976 67.732 16.5473C70.2166 18.0731 74.5295 33.2488 74.5295 33.2488L77.1781 40.3121C77.923 42.2745 78.2353 44.3747 78.0936 46.469C78.0006 47.9107 77.8233 49.3458 77.5627 50.7668Z" fill="#C1CDD3"/>
<path d="M77.5594 50.7688C76.9908 53.8915 76.0888 56.9441 74.8688 59.8743C74.4578 60.8534 73.735 61.6693 72.8128 62.1956C71.8906 62.7219 70.8204 62.929 69.7684 62.7848L41.677 58.9615L41.6114 58.9529L13.5088 55.1519C12.4562 55.0157 11.4786 54.5337 10.7296 53.7817C9.98062 53.0297 9.50254 52.0503 9.37044 50.9972C8.9611 47.7422 8.91356 44.4518 9.22869 41.1863C9.38291 39.646 9.60735 38.3106 9.82456 37.2015C9.87969 36.916 9.95122 36.6332 10.0306 36.3484C9.80819 39.2968 9.88096 42.26 10.2478 45.194C10.3797 46.2473 10.8576 47.2271 11.6067 47.9793C12.3557 48.7315 13.3334 49.2137 14.3862 49.35L42.4973 53.1595L42.5531 53.1674L70.6471 56.9829C71.7004 57.1302 72.7729 56.9246 73.697 56.3982C74.6211 55.8718 75.3449 55.0542 75.7554 54.0731C76.7248 51.72 77.4987 49.2911 78.0693 46.811C77.9695 48.1384 77.7992 49.4595 77.5594 50.7688Z" fill="#84879C"/>
<path d="M70.4224 63.4811C70.1746 63.4809 69.927 63.4643 69.6815 63.4312L41.5224 59.6039L13.4179 55.7977C12.2211 55.6432 11.1097 55.0951 10.2586 54.2397C9.40746 53.3843 8.86497 52.2702 8.71649 51.0727C8.30604 47.7702 8.25938 44.4327 8.57736 41.12C8.71321 39.7609 8.9114 38.4372 9.18308 37.0736C9.62824 34.9312 10.5274 32.9092 11.8199 31.1437L16.2529 25.0406C17.6139 22.7968 24.7001 11.3387 27.5981 10.5171C28.0509 10.3858 29.4317 9.99209 38.5168 10.7697C42.5416 11.113 46.4574 11.5382 47.9537 11.7049L48.0482 11.7167C51.0013 12.1761 65.6495 14.5255 68.073 15.9889C70.6488 17.5711 74.4307 30.4973 75.1605 33.0724L77.7927 40.0844C78.5717 42.1356 78.8966 44.3314 78.7449 46.5203C78.6513 47.9851 78.4719 49.4432 78.2075 50.887C77.6286 54.0538 76.7146 57.1502 75.4807 60.1237C75.064 61.1207 74.3611 61.9719 73.4607 62.5695C72.5603 63.1671 71.503 63.4843 70.4224 63.4811ZM30.2074 11.6156C29.4532 11.5801 28.6975 11.635 27.9564 11.7791C26.0992 12.3041 20.4614 20.6384 17.3442 25.7664L12.8817 31.9187C11.7002 33.5313 10.8781 35.3783 10.4706 37.3354C10.2081 38.6531 10.0159 39.9355 9.88396 41.2519C9.57537 44.4691 9.62115 47.7106 10.0205 50.9178C10.134 51.8269 10.5467 52.6724 11.1936 53.3211C11.8406 53.9699 12.6849 54.3849 13.5937 54.5009L41.7711 58.3151L69.8586 62.1331C70.7678 62.2593 71.6931 62.0816 72.4909 61.6277C73.2886 61.1738 73.914 60.469 74.27 59.623C75.4683 56.7356 76.3562 53.7291 76.9186 50.654C77.1741 49.257 77.3475 47.8463 77.4377 46.4291C77.5764 44.4262 77.2789 42.4171 76.5655 40.5405L73.9169 33.4786C72.2599 27.6551 69.0416 18.1224 67.3905 17.1058C65.553 15.9981 53.8304 13.9453 47.8881 13.0154L47.8093 13.0056C46.3176 12.8396 42.4156 12.415 38.4059 12.0737C34.2932 11.7226 31.7627 11.6156 30.2074 11.6156Z" fill="#2F3A5A"/>
<path d="M69.6729 31.5591L45.9212 28.3395L45.8654 28.3316L39.295 27.4385L36.2107 27.0237L34.2629 26.7566L32.6492 26.5434H32.6413L22.1157 25.1127L28.6395 14.6718C28.8069 14.4079 29.0449 14.1963 29.3266 14.061C29.6083 13.9258 29.9223 13.8723 30.2329 13.9066L43.0028 15.2906H43.0107L44.6454 15.4665L46.6404 15.6837L47.5933 15.79L47.6176 15.7933L49.7025 16.128L64.833 18.587C65.1423 18.6378 65.431 18.7749 65.6658 18.9827C65.9005 19.1904 66.0718 19.4602 66.16 19.761L69.6729 31.5591Z" fill="#CEE7FD"/>
<path d="M31.5479 50.089L53.7061 53.1307L31.5479 50.089Z" fill="#D9E2E9"/>
<path d="M53.7075 53.7869C53.6774 53.787 53.6474 53.785 53.6176 53.781L31.4593 50.7393C31.3724 50.7294 31.2883 50.7023 31.212 50.6596C31.1357 50.6168 31.0687 50.5592 31.015 50.4901C30.9613 50.4211 30.9219 50.342 30.8992 50.2575C30.8765 50.173 30.8709 50.0849 30.8828 49.9982C30.8946 49.9115 30.9237 49.8281 30.9682 49.7528C31.0128 49.6776 31.072 49.612 31.1423 49.5599C31.2125 49.5078 31.2925 49.4703 31.3775 49.4496C31.4625 49.4289 31.5508 49.4253 31.6371 49.4392L53.7954 52.4803C53.9603 52.5026 54.1106 52.5867 54.2159 52.7156C54.3212 52.8445 54.3735 53.0086 54.3623 53.1747C54.3511 53.3408 54.2773 53.4964 54.1557 53.61C54.0341 53.7237 53.8739 53.7869 53.7075 53.7869Z" fill="#2F3A5A"/>
<path d="M31.1351 53.0952L53.2941 56.1369L31.1351 53.0952Z" fill="#D9E2E9"/>
<path d="M53.2948 56.7931C53.2647 56.7932 53.2346 56.7913 53.2048 56.7872L31.0466 53.7468C30.9596 53.737 30.8756 53.7099 30.7993 53.6671C30.723 53.6243 30.656 53.5667 30.6023 53.4977C30.5486 53.4286 30.5092 53.3496 30.4865 53.2651C30.4638 53.1806 30.4582 53.0924 30.47 53.0058C30.4819 52.9191 30.511 52.8357 30.5555 52.7604C30.6001 52.6851 30.6592 52.6195 30.7295 52.5675C30.7998 52.5154 30.8798 52.4779 30.9648 52.4572C31.0498 52.4364 31.138 52.4329 31.2244 52.4468L53.3833 55.4879C53.5483 55.5101 53.6986 55.5942 53.8039 55.7232C53.9091 55.8521 53.9614 56.0162 53.9503 56.1823C53.9391 56.3483 53.8652 56.5039 53.7437 56.6176C53.6221 56.7313 53.4618 56.7945 53.2954 56.7944L53.2948 56.7931Z" fill="#2F3A5A"/>
<g opacity="0.75">
<path opacity="0.75" d="M44.646 15.4697L34.2648 26.7559L32.6517 26.5427L43.0028 15.2932L43.0113 15.2945L44.646 15.4697Z" fill="white"/>
<path opacity="0.75" d="M49.7031 16.1312L39.2949 27.4384L36.2125 27.023L46.641 15.687L47.5945 15.7933L47.6181 15.7965L49.7031 16.1312Z" fill="white"/>
</g>
<path d="M69.6741 32.2167C69.6447 32.2167 69.6153 32.2148 69.5862 32.2107L22.0218 25.7618C21.9132 25.747 21.81 25.7052 21.7217 25.6403C21.6333 25.5754 21.5627 25.4893 21.5161 25.3901C21.4696 25.2908 21.4487 25.1815 21.4553 25.072C21.4619 24.9626 21.4958 24.8566 21.5539 24.7636L28.0823 14.3292C28.3138 13.9602 28.6444 13.6636 29.0364 13.4733C29.4283 13.283 29.8659 13.2067 30.2991 13.253L47.6635 15.1404C47.6845 15.1426 47.705 15.1458 47.7252 15.1502L64.9386 17.9498C65.3683 18.0211 65.7694 18.2114 66.0965 18.499C66.4236 18.7867 66.6636 19.1602 66.7892 19.5773L70.3028 31.376C70.332 31.4739 70.338 31.5774 70.3202 31.678C70.3024 31.7787 70.2613 31.8738 70.2002 31.9557C70.1392 32.0377 70.0598 32.1043 69.9685 32.1501C69.8771 32.196 69.7763 32.2199 69.6741 32.2199V32.2167ZM23.205 24.5982L68.7554 30.7736L65.5312 19.95C65.4766 19.769 65.3724 19.607 65.2305 19.4822C65.0885 19.3574 64.9144 19.2748 64.7279 19.2439L47.5125 16.4424H47.506L30.1573 14.555C29.9694 14.5348 29.7795 14.5678 29.6094 14.6503C29.4393 14.7328 29.2958 14.8615 29.1953 15.0216L23.205 24.5982Z" fill="#2F3A5A"/>
<path d="M61.4608 55.078L61.2457 56.6453C61.1307 57.4833 61.7168 58.2558 62.5547 58.3708L69.2012 59.283C70.0392 59.3979 70.8117 58.8119 70.9267 57.9739L71.1418 56.4066C71.2568 55.5686 70.6707 54.7961 69.8328 54.6811L63.1863 53.769C62.3483 53.654 61.5758 54.2401 61.4608 55.078Z" fill="#D9E2E9"/>
<path d="M69.3919 59.9715C69.292 59.9715 69.1922 59.9647 69.0933 59.9511L62.4488 59.0383C62.1642 58.9993 61.89 58.9047 61.642 58.7597C61.394 58.6148 61.177 58.4224 61.0034 58.1935C60.8297 57.9647 60.7029 57.7039 60.6301 57.426C60.5573 57.1481 60.54 56.8586 60.5791 56.5741L60.7943 55.0069C60.8334 54.7224 60.9281 54.4483 61.0731 54.2004C61.2181 53.9525 61.4105 53.7355 61.6393 53.562C61.8681 53.3884 62.1289 53.2616 62.4067 53.1889C62.6846 53.1161 62.974 53.0988 63.2586 53.1379L69.9031 54.0501C70.4774 54.1298 70.9967 54.4339 71.3472 54.8958C71.6977 55.3578 71.8507 55.9398 71.7728 56.5143L71.5575 58.0782C71.4858 58.602 71.227 59.0821 70.829 59.4301C70.431 59.7781 69.9205 59.9703 69.3919 59.9715ZM62.9606 54.4301C62.7497 54.4305 62.546 54.5072 62.3871 54.646C62.2283 54.7849 62.125 54.9764 62.0963 55.1854L61.8811 56.7532C61.8656 56.867 61.8726 56.9827 61.9018 57.0937C61.931 57.2048 61.9818 57.309 62.0512 57.4004C62.1207 57.4918 62.2075 57.5686 62.3067 57.6265C62.4059 57.6843 62.5155 57.7221 62.6292 57.7376L69.2738 58.6498C69.5034 58.681 69.736 58.6198 69.9206 58.4797C70.1051 58.3395 70.2265 58.1319 70.2581 57.9023L70.4734 56.3352C70.5042 56.1055 70.4428 55.873 70.3026 55.6885C70.1624 55.504 69.9548 55.3826 69.7253 55.3508L63.0807 54.4386C63.0405 54.4331 62.9999 54.4302 62.9593 54.4301H62.9606Z" fill="#2F3A5A"/>
<path d="M13.9019 48.5647L13.6868 50.132C13.5718 50.97 14.1579 51.7425 14.9958 51.8575L21.6423 52.7696C22.4803 52.8846 23.2528 52.2986 23.3678 51.4606L23.5829 49.8933C23.6979 49.0553 23.1118 48.2828 22.2739 48.1678L15.6274 47.2557C14.7894 47.1407 14.0169 47.7268 13.9019 48.5647Z" fill="#D9E2E9"/>
<path d="M21.8394 53.4438C21.7384 53.4436 21.6376 53.4366 21.5375 53.4228L14.893 52.5106C14.3184 52.4315 13.7986 52.1276 13.448 51.6655C13.0974 51.2034 12.9447 50.621 13.0233 50.0464L13.2386 48.4792C13.2776 48.1947 13.3723 47.9206 13.5173 47.6727C13.6623 47.4248 13.8547 47.2078 14.0835 47.0343C14.3124 46.8607 14.5731 46.7339 14.851 46.6612C15.1288 46.5884 15.4183 46.5711 15.7028 46.6102L22.3473 47.5224C22.9214 47.6024 23.4404 47.9067 23.7906 48.3685C24.1408 48.8304 24.2936 49.4123 24.2157 49.9866L24.0004 51.5544C23.9286 52.0772 23.6702 52.5563 23.273 52.9036C22.8758 53.2509 22.3664 53.443 21.8387 53.4444L21.8394 53.4438ZM15.4029 47.9024C15.192 47.9031 14.9885 47.9799 14.8297 48.1186C14.6709 48.2574 14.5675 48.4488 14.5386 48.6577L14.3234 50.2255C14.2922 50.4552 14.3534 50.6879 14.4937 50.8725C14.634 51.0571 14.8418 51.1784 15.0715 51.2099L21.716 52.1221C21.9457 52.1535 22.1784 52.0923 22.363 51.9522C22.5476 51.812 22.6689 51.6042 22.7004 51.3746L22.9163 49.8094C22.9471 49.5798 22.8857 49.3473 22.7455 49.1628C22.6053 48.9783 22.3977 48.8569 22.1682 48.8251L15.5236 47.9129C15.4839 47.9067 15.4438 47.9032 15.4035 47.9024H15.4029Z" fill="#2F3A5A"/>
<path d="M72.8826 42.6857L65.5818 42.2624C65.3327 42.248 65.0846 42.3055 64.8672 42.4281C64.6499 42.5508 64.4724 42.7334 64.356 42.9541L62.4128 46.639C62.3114 46.8322 62.2603 47.0479 62.2642 47.2661C62.268 47.4842 62.3267 47.698 62.4348 47.8875C62.5429 48.0771 62.697 48.2364 62.8828 48.3508C63.0687 48.4652 63.2803 48.531 63.4982 48.5421L71.8326 48.9588C72.1337 48.974 72.4307 48.8842 72.6729 48.7046C72.915 48.525 73.0873 48.267 73.1602 47.9744L74.0724 44.2994C74.1188 44.1136 74.1236 43.9198 74.0864 43.7319C74.0492 43.5441 73.971 43.3667 73.8573 43.2125C73.7437 43.0584 73.5974 42.9312 73.4289 42.8402C73.2604 42.7491 73.0738 42.6964 72.8826 42.6857Z" fill="#D9E2E9"/>
<path d="M71.8956 49.6184C71.8635 49.6184 71.83 49.6184 71.7978 49.6184L63.4635 49.2017C63.1347 49.1852 62.8154 49.0861 62.5351 48.9135C62.2549 48.7409 62.0227 48.5004 61.86 48.2142C61.6974 47.928 61.6095 47.6054 61.6046 47.2763C61.5998 46.9472 61.678 46.6221 61.832 46.3313L63.7758 42.6464C63.9537 42.3166 64.2213 42.0439 64.5476 41.8597C64.8739 41.6755 65.2456 41.5874 65.6199 41.6056L72.9207 42.0295C73.2081 42.0462 73.4882 42.126 73.7412 42.2633C73.9942 42.4005 74.2139 42.5919 74.3844 42.8238C74.555 43.0557 74.6724 43.3223 74.7281 43.6047C74.7839 43.8871 74.7767 44.1784 74.707 44.4577L73.7948 48.1327C73.689 48.5565 73.4446 48.9328 73.1006 49.202C72.7565 49.4711 72.3324 49.6177 71.8956 49.6184ZM65.507 42.9188C65.3897 42.9189 65.2746 42.9509 65.1741 43.0115C65.0737 43.0721 64.9916 43.1589 64.9367 43.2626L62.9929 46.9475C62.9426 47.0433 62.9171 47.1503 62.919 47.2586C62.9208 47.3668 62.9499 47.4729 63.0035 47.567C63.0571 47.661 63.1335 47.7401 63.2257 47.7969C63.3179 47.8536 63.4229 47.8863 63.5311 47.8918L71.8654 48.3085C72.0145 48.3155 72.1613 48.2706 72.281 48.1815C72.4007 48.0923 72.4857 47.9644 72.5217 47.8196L73.4339 44.1446C73.4568 44.0525 73.4591 43.9565 73.4406 43.8634C73.4221 43.7703 73.3833 43.6824 73.3268 43.6061C73.2704 43.5297 73.1978 43.4669 73.1142 43.4219C73.0306 43.3769 72.938 43.351 72.8432 43.346L65.5438 42.9188H65.507Z" fill="#2F3A5A"/>
<path d="M15.8952 34.8639L23.0405 36.4219C23.2843 36.4751 23.5077 36.5973 23.684 36.7739C23.8603 36.9505 23.982 37.1741 24.0347 37.4181L24.9134 41.4868C24.9595 41.7005 24.951 41.9224 24.8887 42.132C24.8264 42.3416 24.7123 42.532 24.5568 42.6858C24.4014 42.8396 24.2098 42.9517 23.9996 43.0118C23.7893 43.0719 23.5674 43.0781 23.3542 43.0297L15.2167 41.1856C14.9225 41.1189 14.6606 40.9521 14.4759 40.7136C14.2912 40.4751 14.1951 40.1799 14.2041 39.8784L14.3176 36.0938C14.3236 35.9029 14.3715 35.7158 14.458 35.5455C14.5445 35.3753 14.6674 35.2262 14.818 35.1088C14.9686 34.9915 15.1431 34.9087 15.3293 34.8663C15.5155 34.824 15.7087 34.8232 15.8952 34.8639Z" fill="#D9E2E9"/>
<path d="M23.6454 43.7226C23.4986 43.7225 23.3522 43.706 23.209 43.6734L15.0715 41.8293C14.6288 41.7284 14.2349 41.477 13.957 41.1179C13.679 40.7589 13.5344 40.3144 13.5477 39.8606L13.6599 36.0734C13.6686 35.786 13.7404 35.5042 13.8703 35.2477C14.0002 34.9913 14.1849 34.7666 14.4115 34.5896C14.638 34.4127 14.9007 34.2878 15.1809 34.2238C15.4612 34.1598 15.7521 34.1583 16.0329 34.2195L23.1782 35.7781C23.5448 35.8586 23.8807 36.0426 24.1459 36.3083C24.4111 36.574 24.5945 36.9101 24.6744 37.2769L25.5532 41.3496C25.6147 41.6348 25.6117 41.9301 25.5444 42.214C25.4771 42.4978 25.3472 42.7631 25.1642 42.9903C24.9812 43.2175 24.7498 43.4009 24.4868 43.5272C24.2238 43.6534 23.9359 43.7193 23.6441 43.72L23.6454 43.7226ZM15.6143 35.49C15.4473 35.4912 15.2872 35.5572 15.1678 35.6739C15.0484 35.7906 14.9788 35.9491 14.9738 36.116L14.8615 39.9C14.8575 40.0493 14.9053 40.1954 14.9968 40.3135C15.0883 40.4316 15.2179 40.5144 15.3636 40.5477L23.5011 42.3917C23.6067 42.4157 23.7167 42.4126 23.8208 42.3828C23.925 42.353 24.0199 42.2975 24.0969 42.2213C24.1739 42.1451 24.2304 42.0507 24.2613 41.9469C24.2922 41.843 24.2963 41.7331 24.2735 41.6272L23.3928 37.5571C23.3664 37.4364 23.306 37.3257 23.2186 37.2382C23.1313 37.1508 23.0207 37.0902 22.8999 37.0636L15.7553 35.5031C15.7089 35.4937 15.6616 35.4893 15.6143 35.49Z" fill="#2F3A5A"/>
<path d="M76.5698 27.6574L76.1796 30.5007C76.0884 31.1652 76.5532 31.7778 77.2177 31.869L81.9183 32.5141C82.5828 32.6053 83.1954 32.1405 83.2866 31.476L83.6768 28.6327C83.768 27.9683 83.3032 27.3557 82.6388 27.2645L77.9381 26.6194C77.2736 26.5282 76.661 26.9929 76.5698 27.6574Z" fill="#9297AB"/>
<path d="M82.074 33.2063C81.9884 33.2062 81.9029 33.2003 81.818 33.1886L77.1193 32.5441C76.6281 32.4762 76.1838 32.2162 75.884 31.8211C75.5842 31.4261 75.4533 30.9283 75.52 30.4369L75.9105 27.594C75.9779 27.1026 76.2378 26.6581 76.633 26.3583C77.0282 26.0585 77.5263 25.928 78.0177 25.9954L82.7164 26.6405C82.9598 26.6738 83.1943 26.7548 83.4064 26.8787C83.6185 27.0026 83.8041 27.1671 83.9526 27.3628C84.1011 27.5585 84.2096 27.7815 84.2719 28.0191C84.3342 28.2568 84.3491 28.5043 84.3157 28.7477L83.9259 31.5899C83.8639 32.0373 83.6424 32.4473 83.3021 32.7443C82.9618 33.0413 82.5257 33.2053 82.074 33.2063ZM77.7624 27.2902C77.6279 27.2905 77.498 27.3394 77.3967 27.4279C77.2954 27.5165 77.2295 27.6386 77.2112 27.7719L76.8207 30.6147C76.8009 30.7613 76.84 30.9098 76.9294 31.0276C77.0188 31.1455 77.1513 31.2231 77.2978 31.2434L81.9965 31.8879C82.1431 31.9075 82.2915 31.8684 82.4093 31.779C82.5271 31.6896 82.6047 31.5572 82.6252 31.4108L83.015 28.5686C83.025 28.4959 83.0206 28.4221 83.002 28.3512C82.9835 28.2803 82.9511 28.2137 82.9068 28.1553C82.8625 28.097 82.8071 28.0479 82.7438 28.0109C82.6805 27.9739 82.6106 27.9498 82.538 27.9399L77.8392 27.2948C77.8149 27.2908 77.7903 27.2884 77.7657 27.2876L77.7624 27.2902Z" fill="#2F3A5A"/>
<path d="M76.3502 31.3301L74.4608 33.3041L76.3502 31.3301Z" fill="#9297AB"/>
<path d="M73.9774 32.8083L75.8655 30.8329L76.8143 31.7397L74.9263 33.7152L73.9774 32.8083Z" fill="#2F3A5A"/>
<path d="M9.29634 18.4429L8.90614 21.2862C8.81495 21.9507 9.27969 22.5633 9.94416 22.6545L14.6448 23.2996C15.3093 23.3908 15.9219 22.926 16.0131 22.2616L16.4033 19.4183C16.4945 18.7538 16.0297 18.1412 15.3653 18.05L10.6646 17.4049C10.0001 17.3137 9.38753 17.7785 9.29634 18.4429Z" fill="#9297AB"/>
<path d="M14.8038 23.9695C14.7184 23.9699 14.6331 23.9642 14.5485 23.9525L9.84907 23.3074C9.35795 23.2393 8.91388 22.9792 8.61421 22.5842C8.31454 22.1892 8.18372 21.6915 8.25044 21.2001L8.64091 18.3573C8.70836 17.8658 8.96826 17.4213 9.36344 17.1215C9.75862 16.8217 10.2567 16.6912 10.7481 16.7586L15.4469 17.4037C15.9383 17.4712 16.3828 17.7311 16.6826 18.1263C16.9824 18.5214 17.1129 19.0195 17.0455 19.511L16.6557 22.3532C16.5935 22.8005 16.372 23.2104 16.0317 23.5073C15.6914 23.8043 15.2554 23.9684 14.8038 23.9695ZM10.4928 18.0534C10.3582 18.0538 10.2283 18.1028 10.127 18.1914C10.0256 18.2801 9.95981 18.4024 9.9416 18.5358L9.55113 21.3786C9.53132 21.5252 9.5704 21.6737 9.65982 21.7915C9.74924 21.9094 9.88171 21.987 10.0282 22.0073L14.727 22.6524C14.8735 22.6719 15.0218 22.6327 15.1395 22.5433C15.2573 22.454 15.335 22.3217 15.3557 22.1753L15.7455 19.3331C15.7555 19.2605 15.751 19.1866 15.7325 19.1157C15.7139 19.0448 15.6815 18.9783 15.6372 18.9199C15.5929 18.8615 15.5375 18.8124 15.4742 18.7755C15.411 18.7385 15.341 18.7143 15.2684 18.7044L10.569 18.0593C10.5437 18.0559 10.5183 18.0541 10.4928 18.0541V18.0534Z" fill="#2F3A5A"/>
<path d="M15.6161 22.9937L16.903 25.4041L15.6161 22.9937Z" fill="#9297AB"/>
<path d="M15.0344 23.3002L16.1927 22.6816L17.4799 25.0921L16.3216 25.7106L15.0344 23.3002Z" fill="#2F3A5A"/>
<path d="M31.9113 38.0288L56.6328 41.4215L55.798 47.5041L31.0765 44.1115L31.9113 38.0288Z" fill="#F0F5F9"/>
<path d="M55.7811 48.1464C55.7513 48.1465 55.7214 48.1445 55.6919 48.1405L30.9775 44.7484C30.8052 44.7246 30.6495 44.6334 30.5444 44.4948C30.4393 44.3563 30.3935 44.1817 30.4171 44.0094L31.2512 37.9286C31.2628 37.8432 31.2912 37.7609 31.3347 37.6865C31.3781 37.6121 31.4358 37.5469 31.5045 37.4948C31.6436 37.3908 31.8178 37.3451 31.9901 37.3675L56.7064 40.759C56.7918 40.7707 56.8741 40.7991 56.9485 40.8426C57.023 40.8861 57.0881 40.9439 57.1402 41.0125C57.1923 41.0812 57.2304 41.1595 57.2522 41.2429C57.2741 41.3263 57.2793 41.4132 57.2675 41.4986L56.4328 47.5781C56.4112 47.7352 56.3334 47.8793 56.2139 47.9835C56.0943 48.0877 55.9411 48.1451 55.7824 48.1451L55.7811 48.1464ZM31.8077 43.5369L55.222 46.7525L55.8782 41.9711L32.4639 38.7555L31.8077 43.5369Z" fill="#2F3A5A"/>
</g>
</g>
<defs>
<clipPath id="clip0_77_2596">
<rect width="84" height="84" fill="white"/>
</clipPath>
<clipPath id="clip1_77_2596">
<rect width="84" height="84" fill="white"/>
</clipPath>
</defs>
</svg>
