<svg width="86" height="86" viewBox="0 0 86 86" fill="none" xmlns="http://www.w3.org/2000/svg">
<g clip-path="url(#clip0_77_2685)">
<path d="M30.8512 3.52734H55.0206C56.3424 3.52734 57.6101 4.05244 58.5448 4.98711C59.4794 5.92179 60.0045 7.18948 60.0045 8.51131V77.3456C60.0045 78.6674 59.4794 79.9351 58.5448 80.8698C57.6101 81.8044 56.3424 82.3295 55.0206 82.3295H30.8512C29.5296 82.3295 28.262 81.8045 27.3275 80.87C26.3929 79.9354 25.8679 78.6679 25.8679 77.3462V8.51131C25.8679 7.1896 26.3929 5.92201 27.3275 4.98735C28.262 4.0527 29.5295 3.52752 30.8512 3.52734Z" fill="#84879C"/>
<g opacity="0.5">
<path opacity="0.5" d="M60.0023 8.51061V77.3442C60.0027 77.9985 59.8743 78.6464 59.6243 79.251C59.3744 79.8556 59.0078 80.405 58.5455 80.868C58.0832 81.3309 57.5342 81.6982 56.93 81.949C56.3257 82.1998 55.6779 82.3291 55.0237 82.3295H30.8496C29.6774 82.3289 28.5429 81.9149 27.6458 81.1604C26.7486 80.4058 26.1464 79.359 25.9449 78.2042C26.1386 78.231 26.3339 78.2444 26.5295 78.2445H50.7035C51.3578 78.2441 52.0055 78.1148 52.6098 77.864C53.2141 77.6132 53.763 77.2459 54.2253 76.783C54.6876 76.32 55.0542 75.7706 55.3042 75.166C55.5541 74.5614 55.6826 73.9135 55.6821 73.2592V4.42561C55.6826 4.13704 55.6556 3.84907 55.6015 3.56561C56.8142 3.70584 57.9329 4.28732 58.7445 5.19925C59.5561 6.11119 60.0038 7.28984 60.0023 8.51061Z" fill="#707583"/>
</g>
<path d="M55.0205 83.0014H30.8512C29.3517 82.9998 27.9142 82.4035 26.8539 81.3433C25.7936 80.2831 25.1971 78.8457 25.1953 77.3462V8.51131C25.1971 7.01184 25.7935 5.57428 26.8538 4.51399C27.9141 3.4537 29.3517 2.85725 30.8512 2.85547H55.0205C56.5199 2.85725 57.9574 3.45372 59.0176 4.51403C60.0778 5.57434 60.6741 7.0119 60.6757 8.51131V77.3462C60.6739 78.8455 60.0775 80.2829 59.0174 81.3431C57.9572 82.4033 56.5198 82.9996 55.0205 83.0014ZM30.8512 4.19922C29.7079 4.20046 28.6118 4.65517 27.8034 5.46358C26.995 6.27198 26.5403 7.36806 26.5391 8.51131V77.3462C26.5405 78.4894 26.9953 79.5853 27.8037 80.3935C28.612 81.2018 29.708 81.6564 30.8512 81.6577H55.0205C56.1635 81.6562 57.2593 81.2015 58.0676 80.3933C58.8758 79.5851 59.3305 78.4893 59.3319 77.3462V8.51131C59.3307 7.36817 58.8761 6.2722 58.0678 5.46381C57.2596 4.65543 56.1637 4.20064 55.0205 4.19922H30.8512Z" fill="#2F3A5A"/>
<path d="M54.0295 14.0496C53.8625 14.0495 53.7016 13.9872 53.578 13.8749L48.4193 9.18384C48.3521 9.12266 48.2979 9.04847 48.2602 8.96575C48.2225 8.88304 48.2019 8.79352 48.1998 8.70263C48.1976 8.61174 48.214 8.52136 48.2478 8.43696C48.2816 8.35257 48.3322 8.27591 48.3965 8.21164L53.5552 3.05231C53.6819 2.92992 53.8516 2.8622 54.0277 2.86373C54.2039 2.86526 54.3724 2.93593 54.497 3.0605C54.6216 3.18507 54.6922 3.35358 54.6938 3.52975C54.6953 3.70591 54.6276 3.87563 54.5052 4.00234L49.8444 8.66381L54.4803 12.8812C54.5807 12.9724 54.6511 13.0919 54.6823 13.2239C54.7135 13.3559 54.704 13.4942 54.6551 13.6207C54.6061 13.7472 54.5201 13.856 54.4082 13.9326C54.2963 14.0093 54.1638 14.0503 54.0282 14.0502L54.0295 14.0496Z" fill="#2F3A5A"/>
<path d="M54.0295 23.9C53.8625 23.8999 53.7016 23.8376 53.578 23.7253L48.4193 19.0342C48.3521 18.9731 48.2979 18.8989 48.2602 18.8162C48.2225 18.7334 48.2019 18.6439 48.1998 18.553C48.1976 18.4621 48.214 18.3718 48.2478 18.2874C48.2816 18.203 48.3322 18.1263 48.3965 18.062L53.5552 12.9034C53.6819 12.781 53.8516 12.7133 54.0277 12.7148C54.2039 12.7163 54.3724 12.787 54.497 12.9116C54.6216 13.0361 54.6922 13.2047 54.6938 13.3808C54.6953 13.557 54.6276 13.7267 54.5052 13.8534L49.8444 18.5142L54.4803 22.7316C54.5807 22.8228 54.6511 22.9423 54.6823 23.0743C54.7135 23.2063 54.704 23.3446 54.6551 23.4711C54.6061 23.5976 54.5201 23.7064 54.4082 23.783C54.2963 23.8597 54.1638 23.9007 54.0282 23.9006L54.0295 23.9Z" fill="#2F3A5A"/>
<path d="M54.0295 33.7529C53.8625 33.7528 53.7016 33.6906 53.578 33.5782L48.4193 28.8872C48.3521 28.826 48.2979 28.7518 48.2602 28.6691C48.2225 28.5864 48.2019 28.4969 48.1998 28.406C48.1976 28.3151 48.214 28.2247 48.2478 28.1403C48.2816 28.0559 48.3322 27.9793 48.3965 27.915L53.5552 22.7557C53.6819 22.6333 53.8516 22.5656 54.0277 22.5671C54.2039 22.5686 54.3724 22.6393 54.497 22.7639C54.6216 22.8884 54.6922 23.057 54.6938 23.2331C54.6953 23.4093 54.6276 23.579 54.5052 23.7057L49.8444 28.3672L54.4803 32.5845C54.5807 32.6758 54.6511 32.7952 54.6823 32.9272C54.7135 33.0592 54.704 33.1976 54.6551 33.3241C54.6061 33.4506 54.5201 33.5593 54.4082 33.636C54.2963 33.7127 54.1638 33.7537 54.0282 33.7536L54.0295 33.7529Z" fill="#2F3A5A"/>
<path d="M54.0295 43.6C53.8625 43.5999 53.7016 43.5376 53.578 43.4253L48.4193 38.7343C48.3521 38.6731 48.2979 38.5989 48.2602 38.5162C48.2225 38.4335 48.2019 38.3439 48.1998 38.2531C48.1976 38.1622 48.214 38.0718 48.2478 37.9874C48.2816 37.903 48.3322 37.8263 48.3965 37.7621L53.5552 32.6034C53.6831 32.4889 53.85 32.4277 54.0216 32.4324C54.1932 32.4371 54.3565 32.5073 54.478 32.6286C54.5995 32.7499 54.67 32.9131 54.6749 33.0847C54.6798 33.2564 54.6188 33.4233 54.5045 33.5514L49.8444 38.2142L54.4803 42.4316C54.5807 42.5228 54.6511 42.6423 54.6823 42.7743C54.7135 42.9063 54.704 43.0447 54.6551 43.1712C54.6061 43.2977 54.5201 43.4064 54.4082 43.483C54.2963 43.5597 54.1638 43.6007 54.0282 43.6007L54.0295 43.6Z" fill="#2F3A5A"/>
<path d="M54.0295 53.451C53.8625 53.4509 53.7016 53.3886 53.578 53.2763L48.4193 48.5853C48.3521 48.5241 48.2979 48.4499 48.2602 48.3672C48.2225 48.2845 48.2019 48.195 48.1998 48.1041C48.1976 48.0132 48.214 47.9228 48.2478 47.8384C48.2816 47.754 48.3322 47.6773 48.3965 47.6131L53.5552 42.4537C53.6819 42.3314 53.8516 42.2636 54.0277 42.2652C54.2039 42.2667 54.3724 42.3374 54.497 42.4619C54.6216 42.5865 54.6922 42.755 54.6938 42.9312C54.6953 43.1073 54.6276 43.2771 54.5052 43.4038L49.8444 48.0639L54.4803 52.2813C54.5807 52.3725 54.6511 52.492 54.6823 52.624C54.7135 52.756 54.704 52.8943 54.6551 53.0208C54.6061 53.1473 54.5201 53.2561 54.4082 53.3327C54.2963 53.4094 54.1638 53.4504 54.0282 53.4503L54.0295 53.451Z" fill="#2F3A5A"/>
<path d="M54.0295 63.3007C53.8625 63.3006 53.7016 63.2383 53.578 63.126L48.4193 58.4349C48.3521 58.3738 48.2979 58.2996 48.2602 58.2169C48.2225 58.1341 48.2019 58.0446 48.1998 57.9537C48.1976 57.8628 48.214 57.7725 48.2478 57.6881C48.2816 57.6037 48.3322 57.527 48.3965 57.4627L53.5552 52.3041C53.6819 52.1817 53.8516 52.114 54.0277 52.1155C54.2039 52.117 54.3724 52.1877 54.497 52.3123C54.6216 52.4368 54.6922 52.6054 54.6938 52.7815C54.6953 52.9577 54.6276 53.1274 54.5052 53.2541L49.8444 57.9149L54.4803 62.1323C54.5807 62.2235 54.6511 62.343 54.6823 62.475C54.7135 62.607 54.704 62.7453 54.6551 62.8718C54.6061 62.9983 54.5201 63.1071 54.4082 63.1837C54.2963 63.2604 54.1638 63.3014 54.0282 63.3013L54.0295 63.3007Z" fill="#2F3A5A"/>
<path d="M54.0294 73.1511C53.8625 73.151 53.7015 73.0887 53.5779 72.9764L48.4186 68.2874C48.3514 68.2262 48.2972 68.152 48.2595 68.0693C48.2217 67.9866 48.2012 67.8971 48.199 67.8062C48.1969 67.7153 48.2132 67.6249 48.2471 67.5405C48.2809 67.4561 48.3315 67.3795 48.3958 67.3152L53.5544 62.1559C53.6811 62.0335 53.8509 61.9658 54.027 61.9673C54.2032 61.9688 54.3717 62.0395 54.4963 62.1641C54.6208 62.2886 54.6915 62.4572 54.693 62.6333C54.6946 62.8095 54.6268 62.9792 54.5045 63.1059L49.8437 67.7667L54.4796 71.9841C54.58 72.0753 54.6504 72.1948 54.6816 72.3268C54.7127 72.4588 54.7032 72.5971 54.6543 72.7236C54.6054 72.8501 54.5193 72.9589 54.4074 73.0355C54.2955 73.1122 54.1631 73.1532 54.0274 73.1531L54.0294 73.1511Z" fill="#2F3A5A"/>
<path d="M54.0295 83.0015C53.8625 83.0014 53.7016 82.9391 53.578 82.8268L48.4193 78.1358C48.3521 78.0746 48.2979 78.0004 48.2602 77.9177C48.2225 77.8349 48.2019 77.7454 48.1998 77.6545C48.1976 77.5636 48.214 77.4733 48.2478 77.3889C48.2816 77.3045 48.3322 77.2278 48.3965 77.1635L53.5552 72.0049C53.6819 71.8825 53.8516 71.8148 54.0277 71.8163C54.2039 71.8178 54.3724 71.8885 54.497 72.0131C54.6216 72.1376 54.6922 72.3062 54.6938 72.4823C54.6953 72.6585 54.6276 72.8282 54.5052 72.9549L49.8444 77.6157L54.4803 81.8331C54.5804 81.9243 54.6505 82.0436 54.6816 82.1753C54.7127 82.3071 54.7032 82.4452 54.6545 82.5715C54.6058 82.6978 54.52 82.8064 54.4085 82.8831C54.297 82.9598 54.1649 83.0011 54.0295 83.0015Z" fill="#2F3A5A"/>
<path d="M45.5148 14.0496C45.3478 14.0495 45.1868 13.9872 45.0633 13.8749L39.904 9.18384C39.8367 9.12266 39.7826 9.04847 39.7448 8.96575C39.7071 8.88304 39.6865 8.79352 39.6844 8.70263C39.6823 8.61174 39.6986 8.52136 39.7324 8.43696C39.7662 8.35257 39.8168 8.27591 39.8811 8.21164L45.0404 3.05231C45.1672 2.92992 45.3369 2.8622 45.513 2.86373C45.6892 2.86526 45.8577 2.93593 45.9823 3.0605C46.1069 3.18507 46.1775 3.35358 46.1791 3.52975C46.1806 3.70591 46.1129 3.87563 45.9905 4.00234L41.3297 8.66381L45.9656 12.8812C46.066 12.9724 46.1364 13.0919 46.1676 13.2239C46.1988 13.3559 46.1893 13.4942 46.1403 13.6207C46.0914 13.7472 46.0053 13.856 45.8934 13.9326C45.7816 14.0093 45.6491 14.0503 45.5134 14.0502L45.5148 14.0496Z" fill="#2F3A5A"/>
<path d="M45.5148 23.9C45.3478 23.8999 45.1868 23.8376 45.0633 23.7253L39.904 19.0342C39.8367 18.9731 39.7826 18.8989 39.7448 18.8162C39.7071 18.7334 39.6865 18.6439 39.6844 18.553C39.6823 18.4621 39.6986 18.3718 39.7324 18.2874C39.7662 18.203 39.8168 18.1263 39.8811 18.062L45.0404 12.9034C45.1672 12.781 45.3369 12.7133 45.513 12.7148C45.6892 12.7163 45.8577 12.787 45.9823 12.9116C46.1069 13.0361 46.1775 13.2047 46.1791 13.3808C46.1806 13.557 46.1129 13.7267 45.9905 13.8534L41.3297 18.5142L45.9656 22.7316C46.066 22.8228 46.1364 22.9423 46.1676 23.0743C46.1988 23.2063 46.1893 23.3446 46.1403 23.4711C46.0914 23.5976 46.0053 23.7064 45.8934 23.783C45.7816 23.8597 45.6491 23.9007 45.5134 23.9006L45.5148 23.9Z" fill="#2F3A5A"/>
<path d="M45.5148 33.7529C45.3478 33.7528 45.1868 33.6906 45.0633 33.5782L39.904 28.8872C39.8367 28.826 39.7826 28.7518 39.7448 28.6691C39.7071 28.5864 39.6865 28.4969 39.6844 28.406C39.6823 28.3151 39.6986 28.2247 39.7324 28.1403C39.7662 28.0559 39.8168 27.9793 39.8811 27.915L45.0404 22.7557C45.1672 22.6333 45.3369 22.5656 45.513 22.5671C45.6892 22.5686 45.8577 22.6393 45.9823 22.7639C46.1069 22.8884 46.1775 23.057 46.1791 23.2331C46.1806 23.4093 46.1129 23.579 45.9905 23.7057L41.3297 28.3672L45.9656 32.5845C46.066 32.6758 46.1364 32.7952 46.1676 32.9272C46.1988 33.0592 46.1893 33.1976 46.1403 33.3241C46.0914 33.4506 46.0053 33.5593 45.8934 33.636C45.7816 33.7127 45.6491 33.7537 45.5134 33.7536L45.5148 33.7529Z" fill="#2F3A5A"/>
<path d="M45.5148 43.6C45.3478 43.5999 45.1868 43.5376 45.0633 43.4253L39.904 38.7343C39.8367 38.6731 39.7826 38.5989 39.7448 38.5162C39.7071 38.4335 39.6865 38.344 39.6844 38.2531C39.6823 38.1622 39.6986 38.0718 39.7324 37.9874C39.7662 37.903 39.8168 37.8264 39.8811 37.7621L45.0404 32.6034C45.1681 32.4875 45.3355 32.4251 45.5079 32.4291C45.6804 32.4332 45.8446 32.5034 45.9667 32.6252C46.0888 32.7471 46.1593 32.9112 46.1638 33.0836C46.1682 33.256 46.1061 33.4235 45.9905 33.5514L41.3297 38.2143L45.9656 42.4316C46.066 42.5228 46.1364 42.6423 46.1676 42.7743C46.1988 42.9063 46.1893 43.0447 46.1403 43.1712C46.0914 43.2977 46.0053 43.4064 45.8934 43.4831C45.7816 43.5597 45.6491 43.6007 45.5134 43.6007L45.5148 43.6Z" fill="#2F3A5A"/>
<path d="M45.5148 53.451C45.3478 53.4509 45.1868 53.3886 45.0633 53.2763L39.904 48.5853C39.8367 48.5241 39.7826 48.4499 39.7448 48.3672C39.7071 48.2845 39.6865 48.195 39.6844 48.1041C39.6823 48.0132 39.6986 47.9228 39.7324 47.8384C39.7662 47.754 39.8168 47.6773 39.8811 47.6131L45.0404 42.4537C45.1672 42.3314 45.3369 42.2636 45.513 42.2652C45.6892 42.2667 45.8577 42.3374 45.9823 42.4619C46.1069 42.5865 46.1775 42.755 46.1791 42.9312C46.1806 43.1073 46.1129 43.2771 45.9905 43.4038L41.3297 48.0639L45.9656 52.2813C46.066 52.3725 46.1364 52.492 46.1676 52.624C46.1988 52.756 46.1893 52.8943 46.1403 53.0208C46.0914 53.1473 46.0053 53.2561 45.8934 53.3327C45.7816 53.4094 45.6491 53.4504 45.5134 53.4503L45.5148 53.451Z" fill="#2F3A5A"/>
<path d="M45.5148 63.3007C45.3478 63.3006 45.1868 63.2383 45.0633 63.126L39.904 58.4349C39.8367 58.3738 39.7826 58.2996 39.7448 58.2169C39.7071 58.1341 39.6865 58.0446 39.6844 57.9537C39.6823 57.8628 39.6986 57.7725 39.7324 57.6881C39.7662 57.6037 39.8168 57.527 39.8811 57.4627L45.0404 52.3041C45.1672 52.1817 45.3369 52.114 45.513 52.1155C45.6892 52.117 45.8577 52.1877 45.9823 52.3123C46.1069 52.4368 46.1775 52.6054 46.1791 52.7815C46.1806 52.9577 46.1129 53.1274 45.9905 53.2541L41.3297 57.9149L45.9656 62.1323C46.066 62.2235 46.1364 62.343 46.1676 62.475C46.1988 62.607 46.1893 62.7453 46.1403 62.8718C46.0914 62.9983 46.0053 63.1071 45.8934 63.1837C45.7816 63.2604 45.6491 63.3014 45.5134 63.3013L45.5148 63.3007Z" fill="#2F3A5A"/>
<path d="M45.5148 73.1511C45.3478 73.151 45.1868 73.0887 45.0633 72.9764L39.904 68.2874C39.8367 68.2262 39.7826 68.152 39.7448 68.0693C39.7071 67.9866 39.6865 67.8971 39.6844 67.8062C39.6823 67.7153 39.6986 67.6249 39.7324 67.5405C39.7662 67.4561 39.8168 67.3795 39.8811 67.3152L45.0404 62.1559C45.1672 62.0335 45.3369 61.9658 45.513 61.9673C45.6892 61.9688 45.8577 62.0395 45.9823 62.1641C46.1069 62.2886 46.1775 62.4572 46.1791 62.6333C46.1806 62.8095 46.1129 62.9792 45.9905 63.1059L41.3297 67.7667L45.9656 71.9841C46.066 72.0753 46.1364 72.1948 46.1676 72.3268C46.1988 72.4588 46.1893 72.5971 46.1403 72.7236C46.0914 72.8501 46.0053 72.9589 45.8934 73.0355C45.7816 73.1122 45.6491 73.1532 45.5134 73.1531L45.5148 73.1511Z" fill="#2F3A5A"/>
<path d="M45.5148 83.0015C45.3478 83.0014 45.1868 82.9391 45.0633 82.8268L39.904 78.1357C39.8367 78.0746 39.7826 78.0004 39.7448 77.9177C39.7071 77.8349 39.6865 77.7454 39.6844 77.6545C39.6823 77.5636 39.6986 77.4733 39.7324 77.3889C39.7662 77.3045 39.8168 77.2278 39.8811 77.1635L45.0404 72.0049C45.1672 71.8825 45.3369 71.8148 45.513 71.8163C45.6892 71.8178 45.8577 71.8885 45.9823 72.0131C46.1069 72.1376 46.1775 72.3062 46.1791 72.4823C46.1806 72.6585 46.1129 72.8282 45.9905 72.9549L41.3297 77.6157L45.9656 81.8331C46.066 81.9243 46.1364 82.0438 46.1676 82.1758C46.1988 82.3078 46.1893 82.4461 46.1403 82.5726C46.0914 82.6991 46.0053 82.8079 45.8934 82.8845C45.7816 82.9612 45.6491 83.0022 45.5134 83.0021L45.5148 83.0015Z" fill="#2F3A5A"/>
<path d="M37.0002 14.0496C36.8332 14.0495 36.6723 13.9872 36.5487 13.8749L31.39 9.18385C31.3228 9.12267 31.2687 9.04848 31.2309 8.96576C31.1932 8.88305 31.1726 8.79353 31.1705 8.70264C31.1683 8.61175 31.1847 8.52137 31.2185 8.43697C31.2523 8.35258 31.3029 8.27592 31.3672 8.21165L36.5259 3.05232C36.6535 2.935 36.8216 2.87156 36.9949 2.87528C37.1682 2.87899 37.3334 2.94956 37.4559 3.07225C37.5784 3.19493 37.6488 3.36022 37.6522 3.53356C37.6557 3.7069 37.592 3.87487 37.4745 4.00235L32.8137 8.66382L37.4497 12.8812C37.5501 12.9724 37.6205 13.0919 37.6516 13.2239C37.6828 13.3559 37.6733 13.4942 37.6244 13.6207C37.5755 13.7472 37.4894 13.856 37.3775 13.9326C37.2656 14.0093 37.1331 14.0503 36.9975 14.0502L37.0002 14.0496Z" fill="#2F3A5A"/>
<path d="M37.0002 23.9C36.8332 23.8999 36.6723 23.8376 36.5487 23.7253L31.39 19.0342C31.3228 18.9731 31.2687 18.8989 31.2309 18.8161C31.1932 18.7334 31.1726 18.6439 31.1705 18.553C31.1683 18.4621 31.1847 18.3718 31.2185 18.2874C31.2523 18.203 31.3029 18.1263 31.3672 18.062L36.5259 12.9034C36.6537 12.7876 36.8212 12.7255 36.9936 12.7298C37.166 12.7341 37.3302 12.8045 37.4521 12.9265C37.574 13.0485 37.6443 13.2127 37.6485 13.3851C37.6527 13.5575 37.5904 13.725 37.4745 13.8527L32.8137 18.5135L37.4497 22.7309C37.5501 22.8221 37.6205 22.9416 37.6516 23.0736C37.6828 23.2056 37.6733 23.3439 37.6244 23.4705C37.5755 23.597 37.4894 23.7057 37.3775 23.7823C37.2656 23.859 37.1331 23.9 36.9975 23.9H37.0002Z" fill="#2F3A5A"/>
<path d="M37.0002 33.753C36.8332 33.7529 36.6723 33.6906 36.5487 33.5783L31.39 28.8872C31.3228 28.8261 31.2687 28.7519 31.2309 28.6692C31.1932 28.5864 31.1726 28.4969 31.1705 28.406C31.1683 28.3151 31.1847 28.2248 31.2185 28.1404C31.2523 28.056 31.3029 27.9793 31.3672 27.915L36.5259 22.7557C36.6541 22.6436 36.8201 22.5843 36.9904 22.5899C37.1606 22.5955 37.3224 22.6656 37.443 22.786C37.5635 22.9064 37.6338 23.068 37.6397 23.2383C37.6456 23.4085 37.5865 23.5747 37.4745 23.7031L32.8137 28.3645L37.4497 32.5819C37.5501 32.6731 37.6205 32.7926 37.6516 32.9246C37.6828 33.0566 37.6733 33.1949 37.6244 33.3214C37.5755 33.4479 37.4894 33.5567 37.3775 33.6333C37.2656 33.71 37.1331 33.751 36.9975 33.7509L37.0002 33.753Z" fill="#2F3A5A"/>
<path d="M37.0002 43.6C36.8332 43.5999 36.6723 43.5376 36.5487 43.4253L31.39 38.7342C31.3228 38.6731 31.2687 38.5989 31.2309 38.5161C31.1932 38.4334 31.1726 38.3439 31.1705 38.253C31.1683 38.1621 31.1847 38.0718 31.2185 37.9874C31.2523 37.903 31.3029 37.8263 31.3672 37.762L36.5259 32.6034C36.654 32.4901 36.8205 32.43 36.9914 32.4353C37.1623 32.4405 37.3248 32.5107 37.4457 32.6316C37.5667 32.7524 37.637 32.9149 37.6423 33.0858C37.6477 33.2567 37.5877 33.4232 37.4745 33.5514L32.8151 38.2142L37.451 42.4316C37.5514 42.5228 37.6218 42.6423 37.653 42.7743C37.6842 42.9063 37.6747 43.0446 37.6258 43.1711C37.5768 43.2976 37.4908 43.4064 37.3789 43.483C37.267 43.5597 37.1345 43.6007 36.9989 43.6006L37.0002 43.6Z" fill="#2F3A5A"/>
<path d="M37.0002 53.451C36.8332 53.4509 36.6723 53.3886 36.5487 53.2763L31.39 48.5853C31.3228 48.5241 31.2687 48.4499 31.2309 48.3672C31.1932 48.2845 31.1726 48.1949 31.1705 48.1041C31.1683 48.0132 31.1847 47.9228 31.2185 47.8384C31.2523 47.754 31.3029 47.6773 31.3672 47.6131L36.5259 42.4537C36.6537 42.338 36.8212 42.2758 36.9936 42.2801C37.166 42.2844 37.3302 42.3549 37.4521 42.4769C37.574 42.5989 37.6443 42.7631 37.6485 42.9355C37.6527 43.1079 37.5904 43.2753 37.4745 43.4031L32.8151 48.0639L37.451 52.2812C37.5514 52.3725 37.6218 52.492 37.653 52.624C37.6842 52.756 37.6747 52.8943 37.6258 53.0208C37.5768 53.1473 37.4908 53.256 37.3789 53.3327C37.267 53.4094 37.1345 53.4504 36.9989 53.4503L37.0002 53.451Z" fill="#2F3A5A"/>
<path d="M37.0002 63.3006C36.8332 63.3005 36.6723 63.2382 36.5487 63.1259L31.39 58.4349C31.3228 58.3737 31.2687 58.2995 31.2309 58.2168C31.1932 58.1341 31.1726 58.0446 31.1705 57.9537C31.1683 57.8628 31.1847 57.7724 31.2185 57.688C31.2523 57.6036 31.3029 57.527 31.3672 57.4627L36.5259 52.304C36.6535 52.1867 36.8216 52.1233 36.9949 52.127C37.1682 52.1307 37.3334 52.2013 37.4559 52.324C37.5784 52.4466 37.6488 52.6119 37.6522 52.7853C37.6557 52.9586 37.592 53.1266 37.4745 53.2541L32.8137 57.9149L37.4497 62.1322C37.5501 62.2234 37.6205 62.3429 37.6516 62.4749C37.6828 62.6069 37.6733 62.7453 37.6244 62.8718C37.5755 62.9983 37.4894 63.107 37.3775 63.1837C37.2656 63.2603 37.1331 63.3013 36.9975 63.3013L37.0002 63.3006Z" fill="#2F3A5A"/>
<path d="M37.0002 73.1511C36.8332 73.151 36.6723 73.0887 36.5487 72.9764L31.39 68.2874C31.3228 68.2262 31.2687 68.152 31.2309 68.0693C31.1932 67.9866 31.1726 67.8971 31.1705 67.8062C31.1683 67.7153 31.1847 67.6249 31.2185 67.5405C31.2523 67.4561 31.3029 67.3795 31.3672 67.3152L36.5259 62.1559C36.654 62.0426 36.8205 61.9825 36.9914 61.9877C37.1623 61.993 37.3248 62.0632 37.4457 62.184C37.5667 62.3049 37.637 62.4673 37.6423 62.6383C37.6477 62.8092 37.5877 62.9757 37.4745 63.1039L32.8137 67.7647L37.4497 71.982C37.5501 72.0733 37.6205 72.1927 37.6516 72.3247C37.6828 72.4567 37.6733 72.5951 37.6244 72.7216C37.5755 72.8481 37.4894 72.9568 37.3775 73.0335C37.2656 73.1102 37.1331 73.1512 36.9975 73.1511H37.0002Z" fill="#2F3A5A"/>
<path d="M37.0002 83.0015C36.8332 83.0014 36.6723 82.9391 36.5487 82.8268L31.39 78.1357C31.3228 78.0746 31.2687 78.0004 31.2309 77.9177C31.1932 77.8349 31.1726 77.7454 31.1705 77.6545C31.1683 77.5636 31.1847 77.4733 31.2185 77.3889C31.2523 77.3045 31.3029 77.2278 31.3672 77.1635L36.5259 72.0049C36.6537 71.8891 36.8212 71.827 36.9936 71.8313C37.166 71.8356 37.3302 71.906 37.4521 72.028C37.574 72.15 37.6443 72.3142 37.6485 72.4866C37.6527 72.6591 37.5904 72.8265 37.4745 72.9542L32.8137 77.615L37.4497 81.8324C37.5501 81.9236 37.6205 82.0431 37.6516 82.1751C37.6828 82.3071 37.6733 82.4455 37.6244 82.572C37.5755 82.6985 37.4894 82.8072 37.3775 82.8839C37.2656 82.9605 37.1331 83.0015 36.9975 83.0015H37.0002Z" fill="#2F3A5A"/>
<g clip-path="url(#clip1_77_2685)">
<path d="M11.2781 62.2983L11.866 62.2983L11.866 61.7105L11.866 57.367L20.1732 65.6039L11.8661 73.8169L11.8661 69.4555L11.8661 68.8676L11.2782 68.8676L0.58789 68.8676L0.58789 62.2983L11.2781 62.2983Z" fill="#D9E2E9" stroke="#2F3A5A" stroke-width="1.17578"/>
</g>
</g>
<g clip-path="url(#clip2_77_2685)">
<path d="M73.9818 10.3311L65.2994 18.9151M73.9818 10.3311L65.2985 19.5244C65.2178 19.4435 65.1718 19.3342 65.1718 19.2197C65.1718 19.1053 65.2178 18.996 65.2994 18.9151M73.9818 10.3311C74.1059 10.208 74.2924 10.1719 74.4546 10.2382L73.9818 10.3311ZM65.2994 18.9151L65.6005 19.2197L65.6006 19.2198L65.6022 19.2214L65.7127 19.3332L65.7134 19.3325M65.2994 18.9151L65.6011 19.2193L65.7124 19.1069L65.7147 19.1092M65.7147 19.1092L65.6039 19.2197L65.6027 19.2209L65.7134 19.3325M65.7147 19.1092L65.8268 19.2203M65.7147 19.1092C65.7421 19.1366 65.7597 19.1759 65.7597 19.2197C65.7597 19.2639 65.7418 19.3043 65.7134 19.3325M65.7134 19.3325L65.8268 19.2203M65.8268 19.2203L74.134 27.4572L74.134 23.1138L74.134 22.5259L74.7219 22.5259L85.4121 22.5259L85.4121 15.9566L74.7218 15.9566L74.1339 15.9566L74.1339 15.3688L74.1339 11.0074L65.8268 19.2203Z" fill="#D9E2E9" stroke="#2F3A5A" stroke-width="1.17578"/>
</g>
<defs>
<clipPath id="clip0_77_2685">
<rect width="86" height="86" fill="white"/>
</clipPath>
<clipPath id="clip1_77_2685">
<rect width="20.6602" height="20.8281" fill="white" transform="translate(0 75.9219) rotate(-90)"/>
</clipPath>
<clipPath id="clip2_77_2685">
<rect width="20.6602" height="20.8281" fill="white" transform="translate(65.1719 31.4102) rotate(-90)"/>
</clipPath>
</defs>
</svg>
