<svg width="64" height="64" viewBox="0 0 64 64" fill="none" xmlns="http://www.w3.org/2000/svg">
<path d="M13.1251 53.876C12.8931 53.876 12.6705 53.9682 12.5064 54.1323C12.3423 54.2964 12.2501 54.5189 12.2501 54.751V55.56C12.2501 55.792 12.3423 56.0146 12.5064 56.1787C12.6705 56.3428 12.8931 56.435 13.1251 56.435C13.3572 56.435 13.5797 56.3428 13.7438 56.1787C13.9079 56.0146 14.0001 55.792 14.0001 55.56V54.751C14.0001 54.5189 13.9079 54.2964 13.7438 54.1323C13.5797 53.9682 13.3572 53.876 13.1251 53.876V53.876Z" fill="#B3ACA2"/>
<path d="M20.7357 9.625H23.914C24.1461 9.625 24.3687 9.53281 24.5328 9.36872C24.6968 9.20462 24.789 8.98206 24.789 8.75C24.789 8.51794 24.6968 8.29538 24.5328 8.13128C24.3687 7.96719 24.1461 7.875 23.914 7.875H20.7357C20.5036 7.875 20.281 7.96719 20.1169 8.13128C19.9528 8.29538 19.8607 8.51794 19.8607 8.75C19.8607 8.98206 19.9528 9.20462 20.1169 9.36872C20.281 9.53281 20.5036 9.625 20.7357 9.625V9.625Z" fill="#B3ACA2"/>
<path d="M20.7357 6.625H23.914C24.1461 6.625 24.3687 6.53281 24.5328 6.36872C24.6968 6.20462 24.789 5.98206 24.789 5.75C24.789 5.51794 24.6968 5.29538 24.5328 5.13128C24.3687 4.96719 24.1461 4.875 23.914 4.875H20.7357C20.5036 4.875 20.281 4.96719 20.1169 5.13128C19.9528 5.29538 19.8607 5.51794 19.8607 5.75C19.8607 5.98206 19.9528 6.20462 20.1169 6.36872C20.281 6.53281 20.5036 6.625 20.7357 6.625V6.625Z" fill="#B3ACA2"/>
<path d="M5.98818 60H30.2521C30.2541 60 30.2561 59.9931 30.2581 59.9938L30.2696 61.7091C30.2733 62.1194 30.4389 62.5115 30.7305 62.8001C31.022 63.0887 31.4158 63.2504 31.8261 63.25H31.8377L33.9076 63.2348C34.3201 63.2313 34.7145 63.0643 35.0041 62.7704C35.2938 62.4766 35.455 62.0798 35.4526 61.6673L35.4418 60.0568L51.4231 59.9331L51.4337 61.5599C51.4365 61.9726 51.6011 62.3678 51.8921 62.6605C52.1832 62.9531 52.5775 63.1199 52.9902 63.125H53.0018L55.0717 63.0896C55.4853 63.0839 55.8799 62.9148 56.1693 62.6193C56.4588 62.3238 56.6196 61.9258 56.6168 61.5121L56.6052 59.7736C57.031 59.6218 57.4011 59.345 57.6672 58.9796C57.9333 58.6141 58.083 58.1769 58.0968 57.725L58.8763 52.7076C58.8836 52.6609 58.887 52.6138 58.8867 52.5665C58.8854 51.6713 58.56 50.8069 57.9707 50.1331C57.4915 49.5813 56.8365 49.2119 56.1163 49.0875L53.6354 44.6181C52.8047 43.1535 51.5883 41.5 49.5311 41.5H49.5029L37.1828 41.5759C35.5037 41.5884 34.0363 42.7173 33.0483 44.7776L32.5881 45.6026L28.3749 43.798V39.75H29.0729C29.5662 39.7472 30.046 39.5885 30.4438 39.2967C30.8415 39.0048 31.1368 38.5947 31.2874 38.125H32.6342C34.6534 38.125 36.2499 36.4239 36.2499 34.405V33.625H36.5762C36.9913 33.6296 37.4031 33.5518 37.788 33.3961C38.1728 33.2405 38.5229 33.01 38.8181 32.7181C39.1132 32.4262 39.3476 32.0787 39.5075 31.6957C39.6675 31.3126 39.7499 30.9016 39.7499 30.4865V29.75H40.4526C40.6846 29.75 40.9072 29.6578 41.0713 29.4937C41.2354 29.3296 41.3276 29.1071 41.3276 28.875C41.3276 28.6429 41.2354 28.4204 41.0713 28.2563C40.9072 28.0922 40.6846 28 40.4526 28H39.7499V27.4058C39.7447 26.6802 39.4951 25.9776 39.0415 25.4113C38.588 24.845 37.9568 24.448 37.2499 24.2844V21.1688C37.4344 21.1185 37.5965 21.0074 37.7099 20.8535C37.8234 20.6996 37.8815 20.512 37.8749 20.3209V16.8933C37.8758 16.6594 37.7846 16.4345 37.621 16.2673C37.4574 16.1002 37.2346 16.0041 37.0007 16H36.0702C35.9255 12.9812 34.8974 10.0714 33.1136 7.63175C31.4112 5.3106 29.0338 3.57158 26.3061 2.65225L26.4038 1.713C26.4164 1.59126 26.4033 1.46822 26.3653 1.35188C26.3273 1.23554 26.2652 1.12849 26.1832 1.03768C26.1011 0.946867 26.0009 0.874328 25.889 0.824768C25.777 0.775209 25.656 0.749735 25.5336 0.750002H18.8038C18.6813 0.750012 18.5601 0.775753 18.4482 0.82556C18.3362 0.875367 18.236 0.948128 18.154 1.03913C18.0719 1.13014 18.0099 1.23736 17.972 1.35385C17.934 1.47034 17.9209 1.59351 17.9336 1.71538L18.0312 2.657C15.3017 3.57738 12.9237 5.31949 11.2232 7.6445C9.44382 10.0816 8.41668 12.9861 8.26844 16H7.33656C7.2227 16.0029 7.11055 16.0283 7.00664 16.0749C6.90272 16.1215 6.80911 16.1884 6.73125 16.2715C6.65339 16.3546 6.59285 16.4524 6.55314 16.5591C6.51343 16.6659 6.49534 16.7795 6.49993 16.8933V20.3209C6.49993 20.8043 6.85331 21.25 7.33656 21.25H8.90868L8.99619 22.497C8.51445 22.6708 8.08343 22.9616 7.74185 23.3431C7.40027 23.7247 7.15882 24.1852 7.03918 24.6831C6.96509 24.9844 6.92765 25.2936 6.92769 25.6039C6.93011 26.3946 7.17318 27.1659 7.62457 27.8151C8.07597 28.4643 8.7143 28.9607 9.45469 29.2384C9.56484 31.3951 10.2238 33.4881 11.3693 35.3188C12.5147 37.1496 14.1086 38.6576 15.9999 39.7V43.7976L9.13281 46.7211C9.11669 46.728 9.09156 46.7354 9.07581 46.7431C7.97471 47.2984 7.03387 48.126 6.34268 49.1473C5.65149 50.1686 5.2329 51.3496 5.12668 52.5783C5.12468 52.6024 5.12493 52.6268 5.12493 52.651V59.1081C5.12166 59.3407 5.21064 59.5651 5.37242 59.7323C5.5342 59.8994 5.75561 59.9957 5.98818 60V60ZM32.0182 61.4986L32.0088 60.0834L33.6918 60.0709L33.7013 61.4868L32.0182 61.4986ZM53.1824 61.3334L53.1731 59.9196L54.8561 59.9071L54.8654 61.3215L53.1824 61.3334ZM34.5916 45.5911C34.6004 45.5753 34.6087 45.5591 34.6166 45.5428C35.0128 44.71 35.8748 43.3356 37.1963 43.3259L49.5166 43.25H49.5303C50.4436 43.25 51.2171 43.9015 52.1084 45.4724L54.0987 49.0653L52.6237 49.0706C52.4403 48.2441 51.979 47.5055 51.3168 46.9779C50.6546 46.4504 49.8316 46.1658 48.985 46.1718C48.1384 46.1777 47.3194 46.4738 46.6647 47.0106C46.01 47.5473 45.5591 48.2924 45.3873 49.1214L32.5793 49.2201L34.5916 45.5911ZM50.7933 49.0786L47.2172 49.1064C47.3663 48.7571 47.6141 48.4589 47.9301 48.2482C48.2462 48.0376 48.6168 47.9237 48.9966 47.9204C49.2531 47.9165 49.5077 47.9642 49.7454 48.0606C49.9832 48.157 50.1991 48.3002 50.3804 48.4816C50.5542 48.6531 50.6943 48.8556 50.7933 49.0788V49.0786ZM30.7499 46.706L31.7548 47.1349L30.7499 48.9466V46.706ZM29.6036 52.6461C29.6502 51.8669 30.1579 51.0488 31.0106 50.9858C31.0356 50.9879 31.0606 51 31.0867 51H31.0936L55.5593 50.78C55.5631 50.78 55.5667 50.75 55.5704 50.75H55.5882C55.794 50.7542 55.9964 50.803 56.1815 50.893C56.3666 50.983 56.53 51.1121 56.6604 51.2714C56.9533 51.6167 57.1207 52.051 57.1354 52.5035L56.3581 57.5108C56.3509 57.5582 56.3474 57.6062 56.3477 57.6543C56.3478 57.7837 56.297 57.9081 56.2063 58.0004C56.1156 58.0928 55.9921 58.1458 55.8627 58.148L30.9384 58.3413C30.874 58.3429 30.81 58.3305 30.7509 58.3049C30.6618 58.2684 30.5854 58.2064 30.5312 58.1267C30.4771 58.047 30.4477 57.9531 30.4467 57.8568C30.4461 57.8107 30.442 57.7647 30.4342 57.7193L29.5999 52.727C29.6008 52.7 29.602 52.673 29.6036 52.6461V52.6461ZM29.6249 37.5866C29.6249 37.7294 29.5682 37.8664 29.4672 37.9673C29.3663 38.0683 29.2293 38.125 29.0866 38.125H25.0383C24.8955 38.125 24.7586 38.0683 24.6576 37.9673C24.5567 37.8664 24.4999 37.7294 24.4999 37.5866V36.9134C24.4999 36.7706 24.5567 36.6337 24.6576 36.5327C24.7586 36.4317 24.8955 36.375 25.0383 36.375H29.0866C29.2293 36.375 29.3663 36.4317 29.4672 36.5327C29.5682 36.6337 29.6249 36.7706 29.6249 36.9134V37.5866ZM26.6249 40.4875V43.84C23.7499 45.0661 20.4999 45.0663 17.7499 43.84V40.5081C20.6133 41.5751 23.7665 41.5679 26.6249 40.4876V40.4875ZM34.4999 34.4049C34.4999 35.4588 33.6884 36.3749 32.6346 36.3749H32.2374C32.8545 35.5334 33.3792 34.6278 33.8022 33.6739C33.8272 33.6761 33.8536 33.6249 33.8798 33.6249H34.4999V34.4049ZM32.9999 23.779L32.8738 23.7996C32.1178 23.0646 31.498 22.2013 31.0432 21.25H32.9999V23.779ZM37.9999 27.4056V30.4864C38.0001 30.6718 37.9632 30.8553 37.8913 31.0262C37.8194 31.1971 37.7139 31.3518 37.5812 31.4813C37.4485 31.6107 37.2912 31.7122 37.1186 31.7799C36.9459 31.8475 36.7615 31.8798 36.5762 31.875H34.7499V30.193C34.8524 29.677 34.8944 29.1508 34.8749 28.625H34.7499V26H36.5762C36.7624 25.9971 36.9474 26.0313 37.1203 26.1007C37.2932 26.1701 37.4505 26.2733 37.583 26.4041C37.7156 26.535 37.8207 26.691 37.8923 26.863C37.9639 27.035 38.0005 27.2195 37.9999 27.4058V27.4056ZM34.7499 24.25V21.25H35.4999V24.25H34.7499ZM17.4999 4.7605C18.0521 4.49337 18.6301 4.2834 19.2249 4.13388C19.4252 4.07966 19.5993 3.95535 19.7157 3.78357C19.832 3.61179 19.8828 3.40395 19.8588 3.19788L19.7749 2.5H24.5624L24.4901 3.19788C24.4676 3.40471 24.5198 3.61277 24.6373 3.78444C24.7549 3.95611 24.93 4.08006 25.1309 4.13388C25.7318 4.28342 26.3161 4.4931 26.8749 4.75975V5.97663C26.8803 7.42039 26.4489 8.83203 25.6374 10.0261C24.8259 11.2203 23.6722 12.141 22.3278 12.6675C20.9128 12.1836 19.6856 11.2675 18.8193 10.0486C17.9531 8.82964 17.4916 7.36939 17.4999 5.874V4.7605ZM12.6539 8.68413C13.5189 7.51363 14.4999 6.52575 15.7499 5.74V5.874C15.7418 7.7579 16.3325 9.59566 17.4368 11.122C18.541 12.6483 20.1018 13.7843 21.8937 14.3659L22.0654 14.4256C22.1509 14.454 22.2403 14.4685 22.3303 14.4685C22.4247 14.4685 22.5184 14.4524 22.6073 14.4209C24.3648 13.8153 25.8894 12.6761 26.9682 11.1623C28.047 9.64844 28.6262 7.83553 28.6249 5.97663V5.7375C29.802 6.54462 30.8412 7.53616 31.7027 8.674C33.2651 10.8114 34.1734 13.3564 34.3174 16H10.0212C10.1752 13.3586 11.0895 10.818 12.6539 8.68413V8.68413ZM8.24993 19.5V17.75H36.1249V19.5H30.2069C30.122 19.4446 30.0262 19.4077 29.926 19.3918C29.8258 19.3759 29.7234 19.3813 29.6254 19.4078C29.5327 19.4253 29.4463 19.375 29.3677 19.5H8.24993ZM11.5827 21.25L11.4139 23.3344L10.8389 23.0254C10.8067 23.0089 10.7852 22.9965 10.7827 22.9604L10.6624 21.25H11.5827ZM11.1249 28.5845V28.5666C11.1298 28.363 11.0619 28.1643 10.9333 28.0063C10.8047 27.8483 10.624 27.7413 10.4236 27.7048C9.92886 27.6177 9.48098 27.3583 9.15936 26.9725C8.83775 26.5867 8.6632 26.0994 8.66668 25.5971C8.6685 25.4246 8.69103 25.253 8.73381 25.0859C8.78047 24.8814 8.87417 24.6906 9.00746 24.5286C9.14076 24.3667 9.30998 24.238 9.50169 24.1529C9.65317 24.3233 9.83485 24.4642 10.0376 24.5685L11.4571 25.297C11.6208 25.3813 11.8029 25.4237 11.987 25.4206C12.1711 25.4175 12.3517 25.3688 12.5124 25.279C12.6722 25.1952 12.8083 25.0725 12.908 24.9221C13.0076 24.7717 13.0677 24.5986 13.0826 24.4188L13.3383 21.25H29.1612C29.7047 22.7653 30.6177 24.1211 31.8174 25.1945L31.9408 25.2931C32.0912 25.4283 32.2845 25.5062 32.4867 25.5131L32.9999 25.53V30.0594C32.7483 31.9977 31.9763 33.8317 30.7659 35.3665C30.5519 35.1306 30.2904 34.9426 29.9987 34.8148C29.7069 34.687 29.3914 34.6224 29.0729 34.625H25.0636C24.4575 34.6176 23.8734 34.8512 23.4395 35.2744C23.0056 35.6977 22.7576 36.2758 22.7499 36.8819V37.5008C22.7527 37.8842 22.8513 38.2609 23.0369 38.5964C23.2225 38.932 23.4891 39.2157 23.8124 39.4219C23.2492 39.5088 22.6801 39.5527 22.1102 39.5531C16.0624 39.5531 11.1249 34.6326 11.1249 28.5845ZM15.3749 45.9595L16.8027 45.347C18.4914 46.1136 20.3245 46.5103 22.1791 46.5103C24.0337 46.5103 25.8668 46.1136 27.5556 45.347L28.9999 45.9595V50.0706C28.4999 50.4985 28.1759 51.1254 27.9938 51.7504H15.3749V45.9595ZM12.6249 47.1105L13.6249 46.7064V51.75H12.6249V47.1105ZM11.3749 53.5H27.9499L28.6986 57.9718C28.7027 58.0684 28.7138 58.125 28.7299 58.25H11.3749V53.5ZM6.87493 52.6888C6.94732 51.7691 7.25596 50.8836 7.77097 50.1182C8.28597 49.3528 8.98989 48.7334 9.81456 48.3199L10.8749 47.8574V51.75H10.4374C10.3275 51.7478 10.2182 51.7683 10.1166 51.8103C10.0149 51.8523 9.92303 51.9149 9.84672 51.9941C9.77042 52.0733 9.71132 52.1674 9.67315 52.2706C9.63498 52.3738 9.61857 52.4837 9.62494 52.5935V58.25H6.87493V52.6888Z" fill="#B3ACA2"/>
<path d="M32.9475 57.5H32.9648C33.2652 57.498 33.5623 57.4368 33.839 57.3199C34.1158 57.203 34.3668 57.0328 34.5777 56.8189C34.7886 56.6049 34.9553 56.3516 35.0682 56.0732C35.1812 55.7948 35.2382 55.4969 35.2359 55.1965C35.2332 54.5821 34.9881 53.9936 34.5539 53.559C34.1296 53.1288 33.5528 52.883 32.9485 52.875H32.9312C32.6275 52.8761 32.327 52.937 32.0468 53.0542C31.7667 53.1714 31.5123 53.3426 31.2984 53.5581C30.8662 53.9933 30.6247 54.5824 30.6268 55.1957C30.629 55.809 30.8747 56.3963 31.31 56.8285C31.7452 57.2606 32.3342 57.5022 32.9475 57.5V57.5ZM32.5649 54.8105C32.6621 54.7013 32.7982 54.6347 32.944 54.625H32.9482C33.0567 54.6322 33.1609 54.67 33.2488 54.734C33.3367 54.798 33.4047 54.8856 33.4447 54.9867C33.4848 55.0878 33.4955 55.1982 33.4754 55.3051C33.4552 55.4119 33.4053 55.5109 33.3312 55.5905C33.2818 55.6411 33.2228 55.6812 33.1577 55.7086C33.0925 55.736 33.0226 55.7501 32.9519 55.75H32.9478C32.806 55.7503 32.6698 55.6945 32.5691 55.5947C32.4683 55.4948 32.4112 55.3592 32.4103 55.2174C32.4086 55.0671 32.4638 54.9217 32.5649 54.8105V54.8105Z" fill="#B3ACA2"/>
<path d="M53.824 57.375H53.8415C54.1433 57.3713 54.4414 57.3074 54.7182 57.1873C54.9951 57.0671 55.2452 56.8929 55.454 56.675C55.7706 56.3513 55.9851 55.9417 56.0708 55.4971C56.1565 55.0525 56.1096 54.5926 55.9361 54.1744C55.7625 53.7562 55.4699 53.3983 55.0946 53.145C54.7193 52.8918 54.2778 52.7544 53.825 52.75H53.8079C53.5071 52.7526 53.2097 52.8144 52.9327 52.932C52.6558 53.0495 52.4047 53.2205 52.1939 53.4351C51.983 53.6498 51.8165 53.9038 51.7039 54.1828C51.5913 54.4618 51.5348 54.7603 51.5375 55.0611C51.5401 55.6746 51.7853 56.2621 52.2195 56.6954C52.6441 57.1242 53.2206 57.3684 53.824 57.375V57.375ZM53.8207 54.5H53.8248C53.9687 54.5009 54.1067 54.5578 54.2094 54.6587C54.312 54.7596 54.3714 54.8965 54.3748 55.0404V55.0469C54.3738 55.1958 54.3163 55.3387 54.2139 55.4469C54.1136 55.5542 53.9753 55.6182 53.8285 55.625H53.825C53.6816 55.6186 53.5463 55.5566 53.4478 55.4521C53.3453 55.3462 53.2879 55.2047 53.2874 55.0573C53.2855 54.913 53.3402 54.7737 53.44 54.6695C53.5397 54.5653 53.6765 54.5044 53.8207 54.5V54.5Z" fill="#B3ACA2"/>
<path d="M39.2404 56.1254H39.247C39.3612 56.1264 39.4745 56.1047 39.5803 56.0616C39.686 56.0184 39.7821 55.9546 39.8629 55.8739C39.9438 55.7932 40.0077 55.6972 40.0511 55.5915C40.0945 55.4859 40.1164 55.3726 40.1155 55.2584L40.1059 53.9751C40.1047 53.8617 40.0811 53.7497 40.0364 53.6455C39.9917 53.5413 39.9268 53.4469 39.8454 53.3679C39.7641 53.2889 39.6679 53.2267 39.5624 53.1851C39.457 53.1434 39.3443 53.123 39.2309 53.1251H39.2243C39.1099 53.1243 38.9965 53.1463 38.8906 53.1898C38.7848 53.2332 38.6887 53.2973 38.6079 53.3782C38.5271 53.4592 38.4631 53.5554 38.4199 53.6613C38.3766 53.7672 38.3548 53.8806 38.3558 53.995L38.3654 55.2769C38.3666 55.3902 38.3903 55.5022 38.435 55.6063C38.4797 55.7104 38.5447 55.8047 38.626 55.8836C38.7074 55.9624 38.8036 56.0244 38.909 56.0659C39.0145 56.1075 39.1271 56.1277 39.2404 56.1254V56.1254Z" fill="#B3ACA2"/>
<path d="M47.5483 56.125H47.5549C48.038 56 48.4269 55.6968 48.4234 55.2135L48.4138 53.89C48.4129 53.6568 48.3209 53.4332 48.1574 53.2669C47.9939 53.1007 47.7719 53.0049 47.5388 53H47.5322C47.2993 53.0026 47.0771 53.0976 46.9142 53.264C46.7514 53.4304 46.6613 53.6547 46.6637 53.8875L46.6733 55.2228C46.6736 55.4573 46.7651 55.6825 46.9283 55.8508C47.0916 56.0192 47.3139 56.1175 47.5483 56.125V56.125Z" fill="#B3ACA2"/>
<path d="M42.0095 56.1248H42.0162C42.1313 56.124 42.2452 56.1004 42.3513 56.0554C42.4573 56.0105 42.5535 55.945 42.6341 55.8628C42.7148 55.7806 42.7785 55.6833 42.8215 55.5764C42.8645 55.4695 42.886 55.3553 42.8847 55.2401L42.875 53.9651C42.8736 53.8522 42.8497 53.7408 42.8047 53.6372C42.7598 53.5337 42.6947 53.4401 42.6133 53.3619C42.5319 53.2837 42.4358 53.2225 42.3305 53.1818C42.2252 53.1411 42.1129 53.1217 42 53.1248H41.9935C41.8801 53.1221 41.7673 53.1422 41.6618 53.1838C41.5563 53.2255 41.4602 53.2879 41.3792 53.3674C41.2982 53.4468 41.234 53.5417 41.1904 53.6464C41.1467 53.7511 41.1245 53.8635 41.125 53.977L41.1347 55.2676C41.1357 55.3813 41.1592 55.4938 41.2038 55.5984C41.2483 55.7031 41.3131 55.798 41.3943 55.8776C41.4756 55.9572 41.5718 56.02 41.6773 56.0625C41.7829 56.1049 41.8958 56.1261 42.0095 56.1248V56.1248Z" fill="#B3ACA2"/>
<path d="M44.779 56.125H44.7856C45.02 56.1191 45.2426 56.021 45.4052 55.8521C45.5678 55.6831 45.6572 55.4568 45.6541 55.2224L45.6446 53.8945C45.6438 53.6608 45.552 53.4367 45.3886 53.2697C45.2252 53.1026 45.0032 53.0059 44.7696 53H44.7627C44.5289 53.0046 44.3063 53.1015 44.1437 53.2695C43.981 53.4375 43.8913 53.663 43.8942 53.8969L43.9037 55.2276C43.9043 55.4616 43.996 55.6862 44.1594 55.8537C44.3228 56.0213 44.545 56.1186 44.779 56.125Z" fill="#B3ACA2"/>
</svg>
