<svg width="86" height="86" viewBox="0 0 86 86" fill="none" xmlns="http://www.w3.org/2000/svg">
<path d="M85.328 65.6031V52.4733C85.2938 51.7227 84.9634 51.0163 84.4093 50.5089C83.8551 50.0015 83.1224 49.7345 82.3717 49.7664H41.5694C40.8187 49.7345 40.086 50.0015 39.5319 50.5089C38.9777 51.0163 38.6473 51.7227 38.6132 52.4733V65.6031C38.6473 66.3537 38.9777 67.0601 39.5319 67.5676C40.086 68.075 40.8187 68.342 41.5694 68.3101H82.3717C83.1224 68.342 83.8551 68.075 84.4093 67.5676C84.9634 67.0601 85.2938 66.3537 85.328 65.6031Z" fill="#9297AB"/>
<path d="M85.3282 52.4789V65.6067C85.2928 66.3554 84.9627 67.0598 84.4098 67.5661C83.857 68.0724 83.1263 68.3394 82.3773 68.3089H41.571C40.8212 68.3403 40.0895 68.0738 39.5356 67.5675C38.9817 67.0611 38.6507 66.3562 38.6147 65.6067V63.2658H77.9752C78.7257 63.2974 79.458 63.0297 80.0113 62.5216C80.5646 62.0135 80.8936 61.3066 80.9261 60.5562V49.7692H82.3787C83.1286 49.7393 83.8599 50.0076 84.4126 50.5154C84.9653 51.0231 85.2945 51.7291 85.3282 52.4789Z" fill="#84879C"/>
<path d="M82.3716 68.9812H41.5693C40.6406 69.0124 39.7374 68.6744 39.0574 68.0411C38.3774 67.4079 37.976 66.5309 37.9412 65.6024V52.4733C37.976 51.5447 38.3774 50.6678 39.0574 50.0345C39.7374 49.4012 40.6406 49.0632 41.5693 49.0944H82.3716C83.3002 49.0633 84.2033 49.4014 84.8833 50.0347C85.5633 50.6679 85.9647 51.5447 85.9997 52.4733V65.603C85.9645 66.5314 85.563 67.4081 84.8831 68.0412C84.2031 68.6743 83.3001 69.0123 82.3716 68.9812ZM41.5679 50.4375C40.9957 50.4066 40.4344 50.6032 40.0065 50.9844C39.5786 51.3656 39.3187 51.9006 39.2836 52.4726V65.603C39.3187 66.175 39.5786 66.71 40.0065 67.0912C40.4344 67.4724 40.9957 67.669 41.5679 67.6381H82.3716C82.9438 67.6688 83.505 67.4722 83.9328 67.091C84.3607 66.7098 84.6206 66.175 84.656 65.603V52.4733C84.6206 51.9013 84.3607 51.3665 83.9328 50.9853C83.505 50.6041 82.9438 50.4075 82.3716 50.4381L41.5679 50.4375Z" fill="#2F3A5A"/>
<path d="M85.328 65.4003C85.2439 65.4004 85.1629 65.369 85.1009 65.3123L82.279 62.7283L79.7259 65.3009C79.6962 65.3367 79.6593 65.3659 79.6177 65.3867C79.576 65.4075 79.5305 65.4194 79.4841 65.4217C79.4376 65.424 79.3911 65.4166 79.3477 65.4C79.3042 65.3834 79.2646 65.3579 79.2315 65.3252C79.1984 65.2925 79.1724 65.2533 79.1553 65.21C79.1381 65.1668 79.1301 65.1204 79.1318 65.0739C79.1335 65.0274 79.1449 64.9818 79.1651 64.9399C79.1854 64.898 79.2141 64.8608 79.2495 64.8306L82.0304 62.0288C82.0915 61.9673 82.174 61.9318 82.2606 61.9297C82.3472 61.9275 82.4314 61.959 82.4954 62.0174L85.5537 64.8191C85.6037 64.8649 85.6388 64.9246 85.6542 64.9906C85.6696 65.0566 85.6647 65.1257 85.6401 65.1888C85.6156 65.252 85.5725 65.3062 85.5165 65.3444C85.4606 65.3827 85.3944 65.4031 85.3266 65.403L85.328 65.4003Z" fill="#2F3A5A"/>
<path d="M79.4894 65.4003C79.4053 65.4004 79.3243 65.369 79.2623 65.3123L76.4404 62.7283L73.8873 65.3009C73.8575 65.3367 73.8207 65.3659 73.779 65.3867C73.7374 65.4075 73.6919 65.4194 73.6454 65.4217C73.599 65.424 73.5525 65.4166 73.509 65.4C73.4656 65.3834 73.426 65.3579 73.3929 65.3252C73.3598 65.2925 73.3338 65.2533 73.3166 65.21C73.2995 65.1668 73.2915 65.1204 73.2932 65.0739C73.2949 65.0274 73.3062 64.9818 73.3265 64.9399C73.3468 64.898 73.3755 64.8608 73.4109 64.8306L76.1925 62.0288C76.2535 61.9673 76.336 61.9318 76.4227 61.9297C76.5093 61.9275 76.5934 61.959 76.6574 62.0174L79.7158 64.8191C79.7658 64.8649 79.8008 64.9246 79.8162 64.9906C79.8316 65.0566 79.8267 65.1257 79.8022 65.1888C79.7776 65.252 79.7345 65.3062 79.6786 65.3444C79.6227 65.3827 79.5565 65.4031 79.4887 65.403L79.4894 65.4003Z" fill="#2F3A5A"/>
<path d="M73.6495 65.4003C73.5655 65.4004 73.4844 65.369 73.4224 65.3123L70.6006 62.7283L68.0474 65.3009C68.0177 65.3367 67.9808 65.3659 67.9392 65.3867C67.8976 65.4075 67.8521 65.4194 67.8056 65.4217C67.7591 65.424 67.7127 65.4166 67.6692 65.4C67.6257 65.3834 67.5862 65.3579 67.553 65.3252C67.5199 65.2925 67.494 65.2533 67.4768 65.21C67.4596 65.1668 67.4517 65.1204 67.4533 65.0739C67.455 65.0274 67.4664 64.9818 67.4866 64.9399C67.5069 64.898 67.5357 64.8608 67.5711 64.8306L70.3526 62.0288C70.4137 61.9673 70.4962 61.9318 70.5828 61.9297C70.6694 61.9275 70.7536 61.959 70.8176 62.0174L73.8753 64.8191C73.9253 64.8649 73.9603 64.9246 73.9757 64.9906C73.9911 65.0566 73.9862 65.1257 73.9617 65.1888C73.9371 65.252 73.894 65.3062 73.8381 65.3444C73.7821 65.3827 73.7159 65.4031 73.6482 65.403L73.6495 65.4003Z" fill="#2F3A5A"/>
<path d="M67.8109 65.4003C67.7269 65.4004 67.6458 65.369 67.5838 65.3123L64.7619 62.7283L62.2088 65.3009C62.1791 65.3367 62.1422 65.3659 62.1006 65.3867C62.0589 65.4075 62.0134 65.4194 61.967 65.4217C61.9205 65.424 61.874 65.4166 61.8306 65.4C61.7871 65.3834 61.7475 65.3579 61.7144 65.3252C61.6813 65.2925 61.6553 65.2533 61.6382 65.21C61.621 65.1668 61.613 65.1204 61.6147 65.0739C61.6164 65.0274 61.6278 64.9818 61.648 64.9399C61.6683 64.898 61.697 64.8608 61.7324 64.8306L64.5133 62.0288C64.5744 61.9673 64.6569 61.9318 64.7435 61.9297C64.8302 61.9275 64.9143 61.959 64.9783 62.0174L68.0367 64.8191C68.0867 64.8649 68.1217 64.9246 68.1371 64.9906C68.1525 65.0566 68.1476 65.1257 68.1231 65.1888C68.0985 65.252 68.0554 65.3062 67.9995 65.3444C67.9435 65.3827 67.8773 65.4031 67.8096 65.403L67.8109 65.4003Z" fill="#2F3A5A"/>
<path d="M61.9717 65.4003C61.8876 65.4004 61.8066 65.369 61.7446 65.3123L58.9227 62.7283L56.3696 65.3009C56.3398 65.3367 56.303 65.3659 56.2613 65.3867C56.2197 65.4075 56.1742 65.4194 56.1277 65.4217C56.0813 65.424 56.0348 65.4166 55.9913 65.4C55.9479 65.3834 55.9083 65.3579 55.8752 65.3252C55.8421 65.2925 55.8161 65.2533 55.7989 65.21C55.7818 65.1668 55.7738 65.1204 55.7755 65.0739C55.7772 65.0274 55.7885 64.9818 55.8088 64.9399C55.8291 64.898 55.8578 64.8608 55.8932 64.8306L58.6741 62.0288C58.7352 61.9673 58.8176 61.9318 58.9043 61.9297C58.9909 61.9275 59.075 61.959 59.139 62.0174L62.1974 64.8191C62.2474 64.8649 62.2824 64.9246 62.2979 64.9906C62.3133 65.0566 62.3084 65.1257 62.2838 65.1888C62.2593 65.252 62.2162 65.3062 62.1602 65.3444C62.1043 65.3827 62.0381 65.4031 61.9703 65.403L61.9717 65.4003Z" fill="#2F3A5A"/>
<path d="M56.1332 65.4003C56.0491 65.4004 55.9681 65.369 55.9061 65.3123L53.0842 62.7283L50.5311 65.3009C50.5013 65.3367 50.4645 65.3659 50.4228 65.3867C50.3812 65.4075 50.3357 65.4194 50.2892 65.4217C50.2428 65.424 50.1963 65.4166 50.1528 65.4C50.1094 65.3834 50.0698 65.3579 50.0367 65.3252C50.0036 65.2925 49.9776 65.2533 49.9604 65.21C49.9433 65.1668 49.9353 65.1204 49.937 65.0739C49.9387 65.0274 49.95 64.9818 49.9703 64.9399C49.9906 64.898 50.0193 64.8608 50.0547 64.8306L52.8363 62.0288C52.8973 61.9673 52.9798 61.9318 53.0665 61.9297C53.1531 61.9275 53.2372 61.959 53.3012 62.0174L56.3596 64.8191C56.4096 64.8649 56.4446 64.9246 56.46 64.9906C56.4754 65.0566 56.4706 65.1257 56.446 65.1888C56.4214 65.252 56.3784 65.3062 56.3224 65.3444C56.2665 65.3827 56.2003 65.4031 56.1325 65.403L56.1332 65.4003Z" fill="#2F3A5A"/>
<path d="M50.2932 65.4003C50.2092 65.4004 50.1281 65.369 50.0661 65.3123L47.2442 62.7283L44.6911 65.3009C44.6614 65.3367 44.6245 65.3659 44.5829 65.3867C44.5412 65.4075 44.4957 65.4194 44.4493 65.4217C44.4028 65.424 44.3563 65.4166 44.3129 65.4C44.2694 65.3834 44.2298 65.3579 44.1967 65.3252C44.1636 65.2925 44.1376 65.2533 44.1205 65.21C44.1033 65.1668 44.0953 65.1204 44.097 65.0739C44.0987 65.0274 44.1101 64.9818 44.1303 64.9399C44.1506 64.898 44.1793 64.8608 44.2147 64.8306L46.9956 62.0288C47.0567 61.9673 47.1392 61.9318 47.2258 61.9297C47.3125 61.9275 47.3966 61.959 47.4606 62.0174L50.519 64.8191C50.569 64.8649 50.604 64.9246 50.6194 64.9906C50.6348 65.0566 50.6299 65.1257 50.6054 65.1888C50.5808 65.252 50.5377 65.3062 50.4818 65.3444C50.4258 65.3827 50.3596 65.4031 50.2919 65.403L50.2932 65.4003Z" fill="#2F3A5A"/>
<path d="M44.4546 65.4003C44.3705 65.4004 44.2895 65.369 44.2275 65.3123L41.4056 62.7283L38.8525 65.3009C38.8227 65.3367 38.7859 65.3659 38.7443 65.3867C38.7026 65.4075 38.6571 65.4194 38.6106 65.4217C38.5642 65.424 38.5177 65.4166 38.4742 65.4C38.4308 65.3834 38.3912 65.3579 38.3581 65.3252C38.325 65.2925 38.299 65.2533 38.2819 65.21C38.2647 65.1668 38.2567 65.1204 38.2584 65.0739C38.2601 65.0274 38.2714 64.9818 38.2917 64.9399C38.312 64.898 38.3407 64.8608 38.3761 64.8306L41.157 62.0288C41.2181 61.9673 41.3005 61.9318 41.3872 61.9297C41.4738 61.9275 41.558 61.959 41.622 62.0174L44.6803 64.8191C44.7303 64.8649 44.7653 64.9246 44.7808 64.9906C44.7962 65.0566 44.7913 65.1257 44.7667 65.1888C44.7422 65.252 44.6991 65.3062 44.6431 65.3444C44.5872 65.3827 44.521 65.4031 44.4532 65.403L44.4546 65.4003Z" fill="#2F3A5A"/>
<path d="M85.328 60.7764C85.2439 60.7765 85.1629 60.7451 85.1009 60.6884L82.279 58.1044L79.7259 60.677C79.6962 60.7128 79.6593 60.742 79.6177 60.7628C79.576 60.7836 79.5305 60.7955 79.4841 60.7978C79.4376 60.8001 79.3911 60.7927 79.3477 60.7761C79.3042 60.7595 79.2646 60.734 79.2315 60.7013C79.1984 60.6686 79.1724 60.6294 79.1553 60.5861C79.1381 60.5429 79.1301 60.4965 79.1318 60.45C79.1335 60.4035 79.1449 60.3579 79.1651 60.316C79.1854 60.2741 79.2141 60.2369 79.2495 60.2067L82.0304 57.4049C82.0915 57.3434 82.174 57.3079 82.2606 57.3058C82.3472 57.3036 82.4314 57.3351 82.4954 57.3935L85.5537 60.1952C85.6037 60.241 85.6388 60.3007 85.6542 60.3667C85.6696 60.4327 85.6647 60.5018 85.6401 60.5649C85.6156 60.6281 85.5725 60.6823 85.5165 60.7205C85.4606 60.7588 85.3944 60.7792 85.3266 60.7791L85.328 60.7764Z" fill="#2F3A5A"/>
<path d="M79.4894 60.7764C79.4053 60.7765 79.3243 60.7451 79.2623 60.6884L76.4404 58.1044L73.8873 60.677C73.8575 60.7128 73.8207 60.742 73.779 60.7628C73.7374 60.7836 73.6919 60.7955 73.6454 60.7978C73.599 60.8001 73.5525 60.7927 73.509 60.7761C73.4656 60.7595 73.426 60.734 73.3929 60.7013C73.3598 60.6686 73.3338 60.6294 73.3166 60.5861C73.2995 60.5429 73.2915 60.4965 73.2932 60.45C73.2949 60.4035 73.3062 60.3579 73.3265 60.316C73.3468 60.2741 73.3755 60.2369 73.4109 60.2067L76.1925 57.4049C76.2535 57.3434 76.336 57.3079 76.4227 57.3058C76.5093 57.3036 76.5934 57.3351 76.6574 57.3935L79.7158 60.1952C79.7658 60.241 79.8008 60.3007 79.8162 60.3667C79.8316 60.4327 79.8267 60.5018 79.8022 60.5649C79.7776 60.6281 79.7345 60.6823 79.6786 60.7205C79.6227 60.7588 79.5565 60.7792 79.4887 60.7791L79.4894 60.7764Z" fill="#2F3A5A"/>
<path d="M73.6495 60.7764C73.5655 60.7765 73.4844 60.7451 73.4224 60.6884L70.6006 58.1044L68.0474 60.677C68.0177 60.7128 67.9808 60.742 67.9392 60.7628C67.8976 60.7836 67.8521 60.7955 67.8056 60.7978C67.7591 60.8001 67.7127 60.7927 67.6692 60.7761C67.6257 60.7595 67.5862 60.734 67.553 60.7013C67.5199 60.6686 67.494 60.6294 67.4768 60.5861C67.4596 60.5429 67.4517 60.4965 67.4533 60.45C67.455 60.4035 67.4664 60.3579 67.4866 60.316C67.5069 60.2741 67.5357 60.2369 67.5711 60.2067L70.3526 57.4049C70.4137 57.3434 70.4962 57.3079 70.5828 57.3058C70.6694 57.3036 70.7536 57.3351 70.8176 57.3935L73.8753 60.1952C73.9253 60.241 73.9603 60.3007 73.9757 60.3667C73.9911 60.4327 73.9862 60.5018 73.9617 60.5649C73.9371 60.6281 73.894 60.6823 73.8381 60.7205C73.7821 60.7588 73.7159 60.7792 73.6482 60.7791L73.6495 60.7764Z" fill="#2F3A5A"/>
<path d="M67.8109 60.7764C67.7269 60.7765 67.6458 60.7451 67.5838 60.6884L64.7619 58.1044L62.2088 60.677C62.1791 60.7128 62.1422 60.742 62.1006 60.7628C62.0589 60.7836 62.0134 60.7955 61.967 60.7978C61.9205 60.8001 61.874 60.7927 61.8306 60.7761C61.7871 60.7595 61.7475 60.734 61.7144 60.7013C61.6813 60.6686 61.6553 60.6294 61.6382 60.5861C61.621 60.5429 61.613 60.4965 61.6147 60.45C61.6164 60.4035 61.6278 60.3579 61.648 60.316C61.6683 60.2741 61.697 60.2369 61.7324 60.2067L64.5133 57.4049C64.5744 57.3434 64.6569 57.3079 64.7435 57.3058C64.8302 57.3036 64.9143 57.3351 64.9783 57.3935L68.0367 60.1952C68.0867 60.241 68.1217 60.3007 68.1371 60.3667C68.1525 60.4327 68.1476 60.5018 68.1231 60.5649C68.0985 60.6281 68.0554 60.6823 67.9995 60.7205C67.9435 60.7588 67.8773 60.7792 67.8096 60.7791L67.8109 60.7764Z" fill="#2F3A5A"/>
<path d="M61.9716 60.7764C61.8876 60.7765 61.8065 60.7451 61.7445 60.6884L58.9233 58.1037L56.3702 60.677C56.3404 60.7128 56.3036 60.742 56.262 60.7628C56.2203 60.7836 56.1748 60.7955 56.1283 60.7978C56.0819 60.8001 56.0354 60.7927 55.9919 60.7761C55.9485 60.7595 55.9089 60.734 55.8758 60.7013C55.8427 60.6686 55.8167 60.6294 55.7996 60.5861C55.7824 60.5429 55.7744 60.4965 55.7761 60.45C55.7778 60.4035 55.7891 60.3579 55.8094 60.316C55.8297 60.2741 55.8584 60.2369 55.8938 60.2067L58.6747 57.4049C58.7358 57.3434 58.8183 57.3079 58.9049 57.3058C58.9915 57.3036 59.0757 57.3351 59.1397 57.3935L62.198 60.1952C62.248 60.241 62.283 60.3007 62.2985 60.3667C62.3139 60.4327 62.309 60.5018 62.2844 60.5649C62.2599 60.6281 62.2168 60.6823 62.1608 60.7205C62.1049 60.7588 62.0387 60.7792 61.9709 60.7791L61.9716 60.7764Z" fill="#2F3A5A"/>
<path d="M56.1332 60.7764C56.0491 60.7765 55.9681 60.7451 55.9061 60.6884L53.0842 58.1044L50.5311 60.677C50.5013 60.7128 50.4645 60.742 50.4228 60.7628C50.3812 60.7836 50.3357 60.7955 50.2892 60.7978C50.2428 60.8001 50.1963 60.7927 50.1528 60.7761C50.1094 60.7595 50.0698 60.734 50.0367 60.7013C50.0036 60.6686 49.9776 60.6294 49.9604 60.5861C49.9433 60.5429 49.9353 60.4965 49.937 60.45C49.9387 60.4035 49.95 60.3579 49.9703 60.316C49.9906 60.2741 50.0193 60.2369 50.0547 60.2067L52.8363 57.4049C52.8973 57.3434 52.9798 57.3079 53.0665 57.3058C53.1531 57.3036 53.2372 57.3351 53.3012 57.3935L56.3596 60.1952C56.4096 60.241 56.4446 60.3007 56.46 60.3667C56.4754 60.4327 56.4706 60.5018 56.446 60.5649C56.4214 60.6281 56.3784 60.6823 56.3224 60.7205C56.2665 60.7588 56.2003 60.7792 56.1325 60.7791L56.1332 60.7764Z" fill="#2F3A5A"/>
<path d="M50.2932 60.7764C50.2092 60.7765 50.1281 60.7451 50.0661 60.6884L47.2442 58.1044L44.6911 60.677C44.6614 60.7128 44.6245 60.742 44.5829 60.7628C44.5412 60.7836 44.4957 60.7955 44.4493 60.7978C44.4028 60.8001 44.3563 60.7927 44.3129 60.7761C44.2694 60.7595 44.2298 60.734 44.1967 60.7013C44.1636 60.6686 44.1376 60.6294 44.1205 60.5861C44.1033 60.5429 44.0953 60.4965 44.097 60.45C44.0987 60.4035 44.1101 60.3579 44.1303 60.316C44.1506 60.2741 44.1793 60.2369 44.2147 60.2067L46.9956 57.4049C47.0567 57.3434 47.1392 57.3079 47.2258 57.3058C47.3125 57.3036 47.3966 57.3351 47.4606 57.3935L50.519 60.1952C50.569 60.241 50.604 60.3007 50.6194 60.3667C50.6348 60.4327 50.6299 60.5018 50.6054 60.5649C50.5808 60.6281 50.5377 60.6823 50.4818 60.7205C50.4258 60.7588 50.3596 60.7792 50.2919 60.7791L50.2932 60.7764Z" fill="#2F3A5A"/>
<path d="M44.4546 60.7764C44.3705 60.7765 44.2895 60.7451 44.2275 60.6884L41.4056 58.1044L38.8525 60.677C38.8227 60.7128 38.7859 60.742 38.7443 60.7628C38.7026 60.7836 38.6571 60.7955 38.6106 60.7978C38.5642 60.8001 38.5177 60.7927 38.4742 60.7761C38.4308 60.7595 38.3912 60.734 38.3581 60.7013C38.325 60.6686 38.299 60.6294 38.2819 60.5861C38.2647 60.5429 38.2567 60.4965 38.2584 60.45C38.2601 60.4035 38.2714 60.3579 38.2917 60.316C38.312 60.2741 38.3407 60.2369 38.3761 60.2067L41.157 57.4049C41.2181 57.3434 41.3005 57.3079 41.3872 57.3058C41.4738 57.3036 41.558 57.3351 41.622 57.3935L44.6803 60.1952C44.7303 60.241 44.7653 60.3007 44.7808 60.3667C44.7962 60.4327 44.7913 60.5018 44.7667 60.5649C44.7422 60.6281 44.6991 60.6823 44.6431 60.7205C44.5872 60.7588 44.521 60.7792 44.4532 60.7791L44.4546 60.7764Z" fill="#2F3A5A"/>
<path d="M85.328 56.1519C85.2439 56.152 85.1629 56.1206 85.1009 56.0639L82.279 53.4798L79.7259 56.0525C79.6962 56.0883 79.6593 56.1175 79.6177 56.1383C79.576 56.1591 79.5305 56.171 79.4841 56.1733C79.4376 56.1756 79.3911 56.1682 79.3477 56.1516C79.3042 56.135 79.2646 56.1095 79.2315 56.0768C79.1984 56.0441 79.1724 56.0049 79.1553 55.9616C79.1381 55.9184 79.1301 55.872 79.1318 55.8255C79.1335 55.779 79.1449 55.7334 79.1651 55.6915C79.1854 55.6496 79.2141 55.6123 79.2495 55.5821L82.0304 52.7804C82.0915 52.7189 82.174 52.6834 82.2606 52.6813C82.3472 52.6791 82.4314 52.7106 82.4954 52.769L85.5537 55.5707C85.6037 55.6164 85.6388 55.6762 85.6542 55.7422C85.6696 55.8082 85.6647 55.8773 85.6401 55.9404C85.6156 56.0036 85.5725 56.0578 85.5165 56.096C85.4606 56.1343 85.3944 56.1547 85.3266 56.1546L85.328 56.1519Z" fill="#2F3A5A"/>
<path d="M79.4894 56.1519C79.4053 56.152 79.3243 56.1206 79.2623 56.0639L76.4404 53.4798L73.8873 56.0525C73.8575 56.0883 73.8207 56.1175 73.779 56.1383C73.7374 56.1591 73.6919 56.171 73.6454 56.1733C73.599 56.1756 73.5525 56.1682 73.509 56.1516C73.4656 56.135 73.426 56.1095 73.3929 56.0768C73.3598 56.0441 73.3338 56.0049 73.3166 55.9616C73.2995 55.9184 73.2915 55.872 73.2932 55.8255C73.2949 55.779 73.3062 55.7334 73.3265 55.6915C73.3468 55.6496 73.3755 55.6123 73.4109 55.5821L76.1925 52.7804C76.2535 52.7189 76.336 52.6834 76.4227 52.6813C76.5093 52.6791 76.5934 52.7106 76.6574 52.769L79.7158 55.5707C79.7658 55.6164 79.8008 55.6762 79.8162 55.7422C79.8316 55.8082 79.8267 55.8773 79.8022 55.9404C79.7776 56.0036 79.7345 56.0578 79.6786 56.096C79.6227 56.1343 79.5565 56.1547 79.4887 56.1546L79.4894 56.1519Z" fill="#2F3A5A"/>
<path d="M73.6495 56.1519C73.5655 56.152 73.4844 56.1206 73.4224 56.0639L70.6006 53.4798L68.0474 56.0525C68.0177 56.0883 67.9808 56.1175 67.9392 56.1383C67.8976 56.1591 67.8521 56.171 67.8056 56.1733C67.7591 56.1756 67.7127 56.1682 67.6692 56.1516C67.6257 56.135 67.5862 56.1095 67.553 56.0768C67.5199 56.0441 67.494 56.0049 67.4768 55.9616C67.4596 55.9184 67.4517 55.872 67.4533 55.8255C67.455 55.779 67.4664 55.7334 67.4866 55.6915C67.5069 55.6496 67.5357 55.6123 67.5711 55.5821L70.3526 52.7804C70.4137 52.7189 70.4962 52.6834 70.5828 52.6813C70.6694 52.6791 70.7536 52.7106 70.8176 52.769L73.8753 55.5707C73.9253 55.6164 73.9603 55.6762 73.9757 55.7422C73.9911 55.8082 73.9862 55.8773 73.9617 55.9404C73.9371 56.0036 73.894 56.0578 73.8381 56.096C73.7821 56.1343 73.7159 56.1547 73.6482 56.1546L73.6495 56.1519Z" fill="#2F3A5A"/>
<path d="M67.8109 56.1519C67.7269 56.152 67.6458 56.1206 67.5838 56.0639L64.7619 53.4798L62.2088 56.0525C62.1791 56.0883 62.1422 56.1175 62.1006 56.1383C62.0589 56.1591 62.0134 56.171 61.967 56.1733C61.9205 56.1756 61.874 56.1682 61.8306 56.1516C61.7871 56.135 61.7475 56.1095 61.7144 56.0768C61.6813 56.0441 61.6553 56.0049 61.6382 55.9616C61.621 55.9184 61.613 55.872 61.6147 55.8255C61.6164 55.779 61.6278 55.7334 61.648 55.6915C61.6683 55.6496 61.697 55.6123 61.7324 55.5821L64.5133 52.7804C64.5744 52.7189 64.6569 52.6834 64.7435 52.6813C64.8302 52.6791 64.9143 52.7106 64.9783 52.769L68.0367 55.5707C68.0867 55.6164 68.1217 55.6762 68.1371 55.7422C68.1525 55.8082 68.1476 55.8773 68.1231 55.9404C68.0985 56.0036 68.0554 56.0578 67.9995 56.096C67.9435 56.1343 67.8773 56.1547 67.8096 56.1546L67.8109 56.1519Z" fill="#2F3A5A"/>
<path d="M61.9716 56.1519C61.8876 56.152 61.8065 56.1206 61.7445 56.0639L58.9233 53.4812L56.3702 56.0538C56.3404 56.0896 56.3036 56.1188 56.262 56.1396C56.2203 56.1604 56.1748 56.1723 56.1283 56.1746C56.0819 56.1769 56.0354 56.1695 55.9919 56.1529C55.9485 56.1363 55.9089 56.1109 55.8758 56.0782C55.8427 56.0455 55.8167 56.0062 55.7996 55.963C55.7824 55.9197 55.7744 55.8734 55.7761 55.8269C55.7778 55.7804 55.7891 55.7347 55.8094 55.6928C55.8297 55.6509 55.8584 55.6137 55.8938 55.5835L58.6747 52.7818C58.7358 52.7203 58.8183 52.6847 58.9049 52.6826C58.9915 52.6805 59.0757 52.7119 59.1397 52.7703L62.198 55.5721C62.248 55.6178 62.283 55.6776 62.2985 55.7435C62.3139 55.8095 62.309 55.8786 62.2844 55.9418C62.2599 56.0049 62.2168 56.0592 62.1608 56.0974C62.1049 56.1356 62.0387 56.156 61.9709 56.1559L61.9716 56.1519Z" fill="#2F3A5A"/>
<path d="M56.1332 56.1519C56.0491 56.152 55.9681 56.1206 55.9061 56.0639L53.0842 53.4798L50.5311 56.0525C50.5013 56.0883 50.4645 56.1175 50.4228 56.1383C50.3812 56.1591 50.3357 56.171 50.2892 56.1733C50.2428 56.1756 50.1963 56.1682 50.1528 56.1516C50.1094 56.135 50.0698 56.1095 50.0367 56.0768C50.0036 56.0441 49.9776 56.0049 49.9604 55.9616C49.9433 55.9184 49.9353 55.872 49.937 55.8255C49.9387 55.779 49.95 55.7334 49.9703 55.6915C49.9906 55.6496 50.0193 55.6123 50.0547 55.5821L52.8363 52.7804C52.8973 52.7189 52.9798 52.6834 53.0665 52.6813C53.1531 52.6791 53.2372 52.7106 53.3012 52.769L56.3596 55.5707C56.4096 55.6164 56.4446 55.6762 56.46 55.7422C56.4754 55.8082 56.4706 55.8773 56.446 55.9404C56.4214 56.0036 56.3784 56.0578 56.3224 56.096C56.2665 56.1343 56.2003 56.1547 56.1325 56.1546L56.1332 56.1519Z" fill="#2F3A5A"/>
<path d="M50.2931 56.1519C50.2091 56.152 50.1281 56.1206 50.066 56.0639L47.2462 53.4812L44.6931 56.0538C44.6633 56.0896 44.6265 56.1188 44.5848 56.1396C44.5432 56.1604 44.4977 56.1723 44.4512 56.1746C44.4047 56.1769 44.3583 56.1695 44.3148 56.1529C44.2713 56.1363 44.2318 56.1109 44.1987 56.0782C44.1656 56.0455 44.1396 56.0062 44.1224 55.963C44.1053 55.9197 44.0973 55.8734 44.099 55.8269C44.1007 55.7804 44.112 55.7347 44.1323 55.6928C44.1525 55.6509 44.1813 55.6137 44.2167 55.5835L46.9976 52.7818C47.0587 52.7203 47.1411 52.6847 47.2278 52.6826C47.3144 52.6805 47.3985 52.7119 47.4625 52.7703L50.5209 55.5721C50.5709 55.6178 50.6059 55.6776 50.6213 55.7435C50.6368 55.8095 50.6319 55.8786 50.6073 55.9418C50.5827 56.0049 50.5397 56.0592 50.4837 56.0974C50.4278 56.1356 50.3616 56.156 50.2938 56.1559L50.2931 56.1519Z" fill="#2F3A5A"/>
<path d="M44.4546 56.1519C44.3706 56.152 44.2896 56.1206 44.2276 56.0639L41.4077 53.4812L38.8546 56.0538C38.8248 56.0896 38.788 56.1188 38.7463 56.1396C38.7047 56.1604 38.6592 56.1723 38.6127 56.1746C38.5662 56.1769 38.5198 56.1695 38.4763 56.1529C38.4328 56.1363 38.3933 56.1109 38.3602 56.0782C38.3271 56.0455 38.3011 56.0062 38.2839 55.963C38.2668 55.9197 38.2588 55.8734 38.2605 55.8269C38.2622 55.7804 38.2735 55.7347 38.2938 55.6928C38.314 55.6509 38.3428 55.6137 38.3782 55.5835L41.1591 52.7818C41.2202 52.7203 41.3026 52.6847 41.3893 52.6826C41.4759 52.6805 41.56 52.7119 41.624 52.7703L44.6824 55.5721C44.7324 55.6178 44.7674 55.6776 44.7828 55.7435C44.7983 55.8095 44.7934 55.8786 44.7688 55.9418C44.7442 56.0049 44.7012 56.0592 44.6452 56.0974C44.5893 56.1356 44.5231 56.156 44.4553 56.1559L44.4546 56.1519Z" fill="#2F3A5A"/>
<path d="M85.328 47.0619V33.9348C85.2938 33.1842 84.9634 32.4778 84.4093 31.9703C83.8551 31.4629 83.1224 31.1959 82.3717 31.2278H41.5694C40.8187 31.1959 40.086 31.4629 39.5319 31.9703C38.9777 32.4778 38.6473 33.1842 38.6132 33.9348V47.0619C38.6473 47.8124 38.9777 48.5189 39.5319 49.0263C40.086 49.5337 40.8187 49.8007 41.5694 49.7688H82.3717C83.1224 49.8007 83.8551 49.5337 84.4093 49.0263C84.9634 48.5189 85.2938 47.8124 85.328 47.0619Z" fill="#9297AB"/>
<path d="M85.3282 33.9376V47.0654C85.2928 47.8142 84.9627 48.5186 84.4098 49.0248C83.857 49.5311 83.1263 49.7981 82.3773 49.7677H41.571C40.8212 49.7991 40.0895 49.5325 39.5356 49.0262C38.9817 48.5199 38.6507 47.815 38.6147 47.0654V44.7246H77.9752C78.7257 44.7561 79.458 44.4884 80.0113 43.9803C80.5646 43.4723 80.8936 42.7654 80.9261 42.0149V31.228H82.3787C83.1286 31.1981 83.8599 31.4663 84.4126 31.9741C84.9653 32.4819 85.2945 33.1878 85.3282 33.9376Z" fill="#84879C"/>
<path d="M82.3716 50.441H41.5693C40.6406 50.4722 39.7374 50.1342 39.0574 49.5009C38.3774 48.8676 37.976 47.9907 37.9412 47.0621V33.935C37.976 33.0065 38.3774 32.1296 39.0574 31.4963C39.7374 30.863 40.6406 30.525 41.5693 30.5562H82.3716C83.3002 30.5251 84.2033 30.8632 84.8833 31.4965C85.5633 32.1297 85.9647 33.0065 85.9997 33.935V47.0621C85.9647 47.9906 85.5633 48.8675 84.8833 49.5007C84.2033 50.1339 83.3002 50.472 82.3716 50.441ZM41.5679 31.8972C40.9957 31.8664 40.4344 32.063 40.0065 32.4442C39.5786 32.8254 39.3187 33.3603 39.2836 33.9324V47.0621C39.3187 47.6341 39.5786 48.1691 40.0065 48.5503C40.4344 48.9315 40.9957 49.1281 41.5679 49.0972H82.3716C82.9438 49.1279 83.505 48.9313 83.9328 48.5501C84.3607 48.1689 84.6206 47.6341 84.656 47.0621V33.935C84.6206 33.3631 84.3607 32.8283 83.9328 32.4471C83.505 32.0659 82.9438 31.8692 82.3716 31.8999L41.5679 31.8972Z" fill="#2F3A5A"/>
<path d="M85.3281 46.8597C85.2441 46.8598 85.163 46.8284 85.101 46.7716L82.2791 44.1876L79.726 46.7602C79.6963 46.796 79.6594 46.8252 79.6178 46.846C79.5762 46.8668 79.5307 46.8788 79.4842 46.881C79.4377 46.8833 79.3912 46.8759 79.3478 46.8593C79.3043 46.8427 79.2647 46.8173 79.2316 46.7846C79.1985 46.7519 79.1725 46.7127 79.1554 46.6694C79.1382 46.6261 79.1302 46.5798 79.1319 46.5333C79.1336 46.4868 79.145 46.4411 79.1652 46.3992C79.1855 46.3573 79.2143 46.3201 79.2497 46.2899L82.0306 43.4882C82.0916 43.4267 82.1741 43.3911 82.2607 43.389C82.3474 43.3869 82.4315 43.4183 82.4955 43.4768L85.5539 46.2785C85.6039 46.3242 85.6389 46.384 85.6543 46.45C85.6697 46.5159 85.6648 46.585 85.6403 46.6482C85.6157 46.7113 85.5726 46.7656 85.5167 46.8038C85.4607 46.842 85.3945 46.8624 85.3268 46.8623L85.3281 46.8597Z" fill="#2F3A5A"/>
<path d="M79.4894 46.8597C79.4053 46.8598 79.3243 46.8284 79.2623 46.7716L76.4404 44.1876L73.8873 46.7602C73.8575 46.796 73.8207 46.8252 73.779 46.846C73.7374 46.8668 73.6919 46.8788 73.6454 46.881C73.599 46.8833 73.5525 46.8759 73.509 46.8593C73.4656 46.8427 73.426 46.8173 73.3929 46.7846C73.3598 46.7519 73.3338 46.7127 73.3166 46.6694C73.2995 46.6261 73.2915 46.5798 73.2932 46.5333C73.2949 46.4868 73.3062 46.4411 73.3265 46.3992C73.3468 46.3573 73.3755 46.3201 73.4109 46.2899L76.1925 43.4882C76.2535 43.4267 76.336 43.3911 76.4227 43.389C76.5093 43.3869 76.5934 43.4183 76.6574 43.4768L79.7158 46.2785C79.7658 46.3242 79.8008 46.384 79.8162 46.45C79.8316 46.5159 79.8267 46.585 79.8022 46.6482C79.7776 46.7113 79.7345 46.7656 79.6786 46.8038C79.6227 46.842 79.5565 46.8624 79.4887 46.8623L79.4894 46.8597Z" fill="#2F3A5A"/>
<path d="M73.6495 46.8597C73.5655 46.8598 73.4844 46.8284 73.4224 46.7716L70.6006 44.1876L68.0474 46.7602C68.0177 46.796 67.9808 46.8252 67.9392 46.846C67.8976 46.8668 67.8521 46.8788 67.8056 46.881C67.7591 46.8833 67.7127 46.8759 67.6692 46.8593C67.6257 46.8427 67.5862 46.8173 67.553 46.7846C67.5199 46.7519 67.494 46.7127 67.4768 46.6694C67.4596 46.6261 67.4517 46.5798 67.4533 46.5333C67.455 46.4868 67.4664 46.4411 67.4866 46.3992C67.5069 46.3573 67.5357 46.3201 67.5711 46.2899L70.3526 43.4882C70.4137 43.4267 70.4962 43.3911 70.5828 43.389C70.6694 43.3869 70.7536 43.4183 70.8176 43.4768L73.8753 46.2785C73.9253 46.3242 73.9603 46.384 73.9757 46.45C73.9911 46.5159 73.9862 46.585 73.9617 46.6482C73.9371 46.7113 73.894 46.7656 73.8381 46.8038C73.7821 46.842 73.7159 46.8624 73.6482 46.8623L73.6495 46.8597Z" fill="#2F3A5A"/>
<path d="M67.8109 46.8597C67.7269 46.8598 67.6458 46.8284 67.5838 46.7716L64.7619 44.1876L62.2088 46.7602C62.1791 46.796 62.1422 46.8252 62.1006 46.846C62.0589 46.8668 62.0134 46.8788 61.967 46.881C61.9205 46.8833 61.874 46.8759 61.8306 46.8593C61.7871 46.8427 61.7475 46.8173 61.7144 46.7846C61.6813 46.7519 61.6553 46.7127 61.6382 46.6694C61.621 46.6261 61.613 46.5798 61.6147 46.5333C61.6164 46.4868 61.6278 46.4411 61.648 46.3992C61.6683 46.3573 61.697 46.3201 61.7324 46.2899L64.5133 43.4882C64.5744 43.4267 64.6569 43.3911 64.7435 43.389C64.8302 43.3869 64.9143 43.4183 64.9783 43.4768L68.0367 46.2785C68.0867 46.3242 68.1217 46.384 68.1371 46.45C68.1525 46.5159 68.1476 46.585 68.1231 46.6482C68.0985 46.7113 68.0554 46.7656 67.9995 46.8038C67.9435 46.842 67.8773 46.8624 67.8096 46.8623L67.8109 46.8597Z" fill="#2F3A5A"/>
<path d="M61.9717 46.8596C61.8877 46.8597 61.8067 46.8283 61.7446 46.7716L58.9228 44.1876L56.3703 46.7622C56.3406 46.798 56.3037 46.8272 56.2621 46.848C56.2204 46.8688 56.1749 46.8807 56.1285 46.883C56.082 46.8853 56.0355 46.8779 55.9921 46.8613C55.9486 46.8447 55.909 46.8192 55.8759 46.7865C55.8428 46.7538 55.8168 46.7146 55.7997 46.6714C55.7825 46.6281 55.7745 46.5817 55.7762 46.5352C55.7779 46.4887 55.7893 46.4431 55.8095 46.4012C55.8298 46.3593 55.8585 46.3221 55.894 46.2919L58.6748 43.4901C58.7359 43.4286 58.8184 43.3931 58.905 43.391C58.9917 43.3888 59.0758 43.4203 59.1398 43.4787L62.1982 46.2804C62.2482 46.3262 62.2832 46.3859 62.2986 46.4519C62.314 46.5179 62.3091 46.587 62.2846 46.6501C62.26 46.7133 62.2169 46.7675 62.161 46.8058C62.105 46.844 62.0388 46.8644 61.9711 46.8643L61.9717 46.8596Z" fill="#2F3A5A"/>
<path d="M56.1331 46.8596C56.0491 46.8597 55.968 46.8283 55.906 46.7716L53.0841 44.1876L50.5317 46.7622C50.5019 46.798 50.4651 46.8272 50.4235 46.848C50.3818 46.8688 50.3363 46.8807 50.2898 46.883C50.2434 46.8853 50.1969 46.8779 50.1534 46.8613C50.11 46.8447 50.0704 46.8192 50.0373 46.7865C50.0042 46.7538 49.9782 46.7146 49.9611 46.6714C49.9439 46.6281 49.9359 46.5817 49.9376 46.5352C49.9393 46.4887 49.9506 46.4431 49.9709 46.4012C49.9912 46.3593 50.0199 46.3221 50.0553 46.2919L52.8369 43.4901C52.898 43.4286 52.9804 43.3931 53.0671 43.391C53.1537 43.3888 53.2378 43.4203 53.3018 43.4787L56.3602 46.2804C56.4102 46.3262 56.4452 46.3859 56.4606 46.4519C56.4761 46.5179 56.4712 46.587 56.4466 46.6501C56.422 46.7133 56.379 46.7675 56.323 46.8058C56.2671 46.844 56.2009 46.8644 56.1331 46.8643V46.8596Z" fill="#2F3A5A"/>
<path d="M50.2931 46.8596C50.2091 46.8597 50.1281 46.8283 50.066 46.7716L47.2442 44.1876L44.6931 46.7622C44.6633 46.798 44.6265 46.8272 44.5848 46.848C44.5432 46.8688 44.4977 46.8807 44.4512 46.883C44.4047 46.8853 44.3583 46.8779 44.3148 46.8613C44.2713 46.8447 44.2318 46.8192 44.1987 46.7865C44.1656 46.7538 44.1396 46.7146 44.1224 46.6714C44.1053 46.6281 44.0973 46.5817 44.099 46.5352C44.1007 46.4887 44.112 46.4431 44.1323 46.4012C44.1525 46.3593 44.1813 46.3221 44.2167 46.2919L46.9976 43.4901C47.0587 43.4286 47.1411 43.3931 47.2278 43.391C47.3144 43.3888 47.3985 43.4203 47.4625 43.4787L50.5209 46.2804C50.5709 46.3262 50.6059 46.3859 50.6213 46.4519C50.6368 46.5179 50.6319 46.587 50.6073 46.6501C50.5827 46.7133 50.5397 46.7675 50.4837 46.8058C50.4278 46.844 50.3616 46.8644 50.2938 46.8643L50.2931 46.8596Z" fill="#2F3A5A"/>
<path d="M44.4547 46.8597C44.3707 46.8598 44.2896 46.8284 44.2276 46.7716L41.4057 44.1876L38.8526 46.7602C38.8229 46.796 38.786 46.8252 38.7444 46.846C38.7027 46.8668 38.6572 46.8788 38.6108 46.881C38.5643 46.8833 38.5178 46.8759 38.4744 46.8593C38.4309 46.8427 38.3913 46.8173 38.3582 46.7846C38.3251 46.7519 38.2991 46.7127 38.282 46.6694C38.2648 46.6261 38.2568 46.5798 38.2585 46.5333C38.2602 46.4868 38.2716 46.4411 38.2918 46.3992C38.3121 46.3573 38.3408 46.3201 38.3763 46.2899L41.1571 43.4882C41.2182 43.4267 41.3007 43.3911 41.3873 43.389C41.474 43.3869 41.5581 43.4183 41.6221 43.4768L44.6805 46.2785C44.7305 46.3242 44.7655 46.384 44.7809 46.45C44.7963 46.5159 44.7914 46.585 44.7669 46.6482C44.7423 46.7113 44.6992 46.7656 44.6433 46.8038C44.5873 46.842 44.5211 46.8624 44.4534 46.8623L44.4547 46.8597Z" fill="#2F3A5A"/>
<path d="M85.3281 42.2354C85.2441 42.2355 85.163 42.2041 85.101 42.1474L82.2791 39.5633L79.726 42.136C79.6963 42.1718 79.6594 42.201 79.6178 42.2218C79.5762 42.2426 79.5307 42.2545 79.4842 42.2568C79.4377 42.2591 79.3912 42.2517 79.3478 42.2351C79.3043 42.2185 79.2647 42.193 79.2316 42.1603C79.1985 42.1276 79.1725 42.0884 79.1554 42.0451C79.1382 42.0019 79.1302 41.9555 79.1319 41.909C79.1336 41.8625 79.145 41.8169 79.1652 41.775C79.1855 41.7331 79.2143 41.6958 79.2497 41.6656L82.0306 38.8639C82.0916 38.8024 82.1741 38.7669 82.2607 38.7647C82.3474 38.7626 82.4315 38.7941 82.4955 38.8525L85.5539 41.6542C85.6039 41.6999 85.6389 41.7597 85.6543 41.8257C85.6697 41.8917 85.6648 41.9608 85.6403 42.0239C85.6157 42.0871 85.5726 42.1413 85.5167 42.1795C85.4607 42.2178 85.3945 42.2382 85.3268 42.2381L85.3281 42.2354Z" fill="#2F3A5A"/>
<path d="M79.4894 42.2354C79.4053 42.2355 79.3243 42.2041 79.2623 42.1474L76.4404 39.5633L73.8873 42.136C73.8575 42.1718 73.8207 42.201 73.779 42.2218C73.7374 42.2426 73.6919 42.2545 73.6454 42.2568C73.599 42.2591 73.5525 42.2517 73.509 42.2351C73.4656 42.2185 73.426 42.193 73.3929 42.1603C73.3598 42.1276 73.3338 42.0884 73.3166 42.0451C73.2995 42.0019 73.2915 41.9555 73.2932 41.909C73.2949 41.8625 73.3062 41.8169 73.3265 41.775C73.3468 41.7331 73.3755 41.6958 73.4109 41.6656L76.1925 38.8639C76.2535 38.8024 76.336 38.7669 76.4227 38.7647C76.5093 38.7626 76.5934 38.7941 76.6574 38.8525L79.7158 41.6542C79.7658 41.6999 79.8008 41.7597 79.8162 41.8257C79.8316 41.8917 79.8267 41.9608 79.8022 42.0239C79.7776 42.0871 79.7345 42.1413 79.6786 42.1795C79.6227 42.2178 79.5565 42.2382 79.4887 42.2381L79.4894 42.2354Z" fill="#2F3A5A"/>
<path d="M73.6495 42.2354C73.5655 42.2355 73.4844 42.2041 73.4224 42.1474L70.6006 39.5633L68.0474 42.136C68.0177 42.1718 67.9808 42.201 67.9392 42.2218C67.8976 42.2426 67.8521 42.2545 67.8056 42.2568C67.7591 42.2591 67.7127 42.2517 67.6692 42.2351C67.6257 42.2185 67.5862 42.193 67.553 42.1603C67.5199 42.1276 67.494 42.0884 67.4768 42.0451C67.4596 42.0019 67.4517 41.9555 67.4533 41.909C67.455 41.8625 67.4664 41.8169 67.4866 41.775C67.5069 41.7331 67.5357 41.6958 67.5711 41.6656L70.3526 38.8639C70.4137 38.8024 70.4962 38.7669 70.5828 38.7647C70.6694 38.7626 70.7536 38.7941 70.8176 38.8525L73.8753 41.6542C73.9253 41.6999 73.9603 41.7597 73.9757 41.8257C73.9911 41.8917 73.9862 41.9608 73.9617 42.0239C73.9371 42.0871 73.894 42.1413 73.8381 42.1795C73.7821 42.2178 73.7159 42.2382 73.6482 42.2381L73.6495 42.2354Z" fill="#2F3A5A"/>
<path d="M67.8109 42.2354C67.7269 42.2355 67.6458 42.2041 67.5838 42.1474L64.7619 39.5633L62.2088 42.136C62.1791 42.1718 62.1422 42.201 62.1006 42.2218C62.0589 42.2426 62.0134 42.2545 61.967 42.2568C61.9205 42.2591 61.874 42.2517 61.8306 42.2351C61.7871 42.2185 61.7475 42.193 61.7144 42.1603C61.6813 42.1276 61.6553 42.0884 61.6382 42.0451C61.621 42.0019 61.613 41.9555 61.6147 41.909C61.6164 41.8625 61.6278 41.8169 61.648 41.775C61.6683 41.7331 61.697 41.6958 61.7324 41.6656L64.5133 38.8639C64.5744 38.8024 64.6569 38.7669 64.7435 38.7647C64.8302 38.7626 64.9143 38.7941 64.9783 38.8525L68.0367 41.6542C68.0867 41.6999 68.1217 41.7597 68.1371 41.8257C68.1525 41.8917 68.1476 41.9608 68.1231 42.0239C68.0985 42.0871 68.0554 42.1413 67.9995 42.1795C67.9435 42.2178 67.8773 42.2382 67.8096 42.2381L67.8109 42.2354Z" fill="#2F3A5A"/>
<path d="M61.9717 42.2354C61.8876 42.2355 61.8066 42.2041 61.7446 42.1474L58.9227 39.5633L56.3696 42.136C56.3398 42.1718 56.303 42.201 56.2613 42.2218C56.2197 42.2426 56.1742 42.2545 56.1277 42.2568C56.0813 42.2591 56.0348 42.2517 55.9913 42.2351C55.9479 42.2185 55.9083 42.193 55.8752 42.1603C55.8421 42.1276 55.8161 42.0884 55.7989 42.0451C55.7818 42.0019 55.7738 41.9555 55.7755 41.909C55.7772 41.8625 55.7885 41.8169 55.8088 41.775C55.8291 41.7331 55.8578 41.6958 55.8932 41.6656L58.6741 38.8639C58.7352 38.8024 58.8176 38.7669 58.9043 38.7647C58.9909 38.7626 59.075 38.7941 59.139 38.8525L62.1974 41.6542C62.2474 41.6999 62.2824 41.7597 62.2979 41.8257C62.3133 41.8917 62.3084 41.9608 62.2838 42.0239C62.2593 42.0871 62.2162 42.1413 62.1602 42.1795C62.1043 42.2178 62.0381 42.2382 61.9703 42.2381L61.9717 42.2354Z" fill="#2F3A5A"/>
<path d="M56.1332 42.2354C56.0491 42.2355 55.9681 42.2041 55.9061 42.1474L53.0842 39.5633L50.5311 42.136C50.5013 42.1718 50.4645 42.201 50.4228 42.2218C50.3812 42.2426 50.3357 42.2545 50.2892 42.2568C50.2428 42.2591 50.1963 42.2517 50.1528 42.2351C50.1094 42.2185 50.0698 42.193 50.0367 42.1603C50.0036 42.1276 49.9776 42.0884 49.9604 42.0451C49.9433 42.0019 49.9353 41.9555 49.937 41.909C49.9387 41.8625 49.95 41.8169 49.9703 41.775C49.9906 41.7331 50.0193 41.6958 50.0547 41.6656L52.8363 38.8639C52.8973 38.8024 52.9798 38.7669 53.0665 38.7647C53.1531 38.7626 53.2372 38.7941 53.3012 38.8525L56.3596 41.6542C56.4096 41.6999 56.4446 41.7597 56.46 41.8257C56.4754 41.8917 56.4706 41.9608 56.446 42.0239C56.4214 42.0871 56.3784 42.1413 56.3224 42.1795C56.2665 42.2178 56.2003 42.2382 56.1325 42.2381L56.1332 42.2354Z" fill="#2F3A5A"/>
<path d="M50.2932 42.2354C50.2092 42.2355 50.1281 42.2041 50.0661 42.1474L47.2442 39.5633L44.6911 42.136C44.6614 42.1718 44.6245 42.201 44.5829 42.2218C44.5412 42.2426 44.4957 42.2545 44.4493 42.2568C44.4028 42.2591 44.3563 42.2517 44.3129 42.2351C44.2694 42.2185 44.2298 42.193 44.1967 42.1603C44.1636 42.1276 44.1376 42.0884 44.1205 42.0451C44.1033 42.0019 44.0953 41.9555 44.097 41.909C44.0987 41.8625 44.1101 41.8169 44.1303 41.775C44.1506 41.7331 44.1793 41.6958 44.2147 41.6656L46.9956 38.8639C47.0567 38.8024 47.1392 38.7669 47.2258 38.7647C47.3125 38.7626 47.3966 38.7941 47.4606 38.8525L50.519 41.6542C50.569 41.6999 50.604 41.7597 50.6194 41.8257C50.6348 41.8917 50.6299 41.9608 50.6054 42.0239C50.5808 42.0871 50.5377 42.1413 50.4818 42.1795C50.4258 42.2178 50.3596 42.2382 50.2919 42.2381L50.2932 42.2354Z" fill="#2F3A5A"/>
<path d="M44.4547 42.2354C44.3707 42.2355 44.2896 42.2041 44.2276 42.1474L41.4057 39.5633L38.8526 42.136C38.8229 42.1718 38.786 42.201 38.7444 42.2218C38.7027 42.2426 38.6572 42.2545 38.6108 42.2568C38.5643 42.2591 38.5178 42.2517 38.4744 42.2351C38.4309 42.2185 38.3913 42.193 38.3582 42.1603C38.3251 42.1276 38.2991 42.0884 38.282 42.0451C38.2648 42.0019 38.2568 41.9555 38.2585 41.909C38.2602 41.8625 38.2716 41.8169 38.2918 41.775C38.3121 41.7331 38.3408 41.6958 38.3763 41.6656L41.1571 38.8639C41.2182 38.8024 41.3007 38.7669 41.3873 38.7647C41.474 38.7626 41.5581 38.7941 41.6221 38.8525L44.6805 41.6542C44.7305 41.6999 44.7655 41.7597 44.7809 41.8257C44.7963 41.8917 44.7914 41.9608 44.7669 42.0239C44.7423 42.0871 44.6992 42.1413 44.6433 42.1795C44.5873 42.2178 44.5211 42.2382 44.4534 42.2381L44.4547 42.2354Z" fill="#2F3A5A"/>
<path d="M85.3281 37.6109C85.244 37.611 85.163 37.5796 85.101 37.5229L82.2811 34.9375L79.728 37.5101C79.6982 37.5459 79.6614 37.5751 79.6197 37.5959C79.5781 37.6167 79.5326 37.6286 79.4861 37.6309C79.4397 37.6332 79.3932 37.6258 79.3497 37.6092C79.3063 37.5926 79.2667 37.5672 79.2336 37.5345C79.2005 37.5018 79.1745 37.4625 79.1573 37.4193C79.1402 37.376 79.1322 37.3297 79.1339 37.2832C79.1356 37.2367 79.1469 37.191 79.1672 37.1491C79.1875 37.1072 79.2162 37.07 79.2516 37.0398L82.0325 34.2381C82.0936 34.1766 82.176 34.141 82.2627 34.1389C82.3493 34.1368 82.4334 34.1682 82.4974 34.2266L85.5558 37.0284C85.6058 37.0741 85.6408 37.1339 85.6563 37.1998C85.6717 37.2658 85.6668 37.3349 85.6422 37.3981C85.6177 37.4612 85.5746 37.5155 85.5186 37.5537C85.4627 37.5919 85.3965 37.6123 85.3287 37.6122L85.3281 37.6109Z" fill="#2F3A5A"/>
<path d="M79.4894 37.6109C79.4053 37.611 79.3243 37.5796 79.2623 37.5229L76.4418 34.9375L73.8886 37.5101C73.8589 37.5459 73.822 37.5751 73.7804 37.5959C73.7388 37.6167 73.6933 37.6286 73.6468 37.6309C73.6003 37.6332 73.5538 37.6258 73.5104 37.6092C73.4669 37.5926 73.4273 37.5672 73.3942 37.5345C73.3611 37.5018 73.3352 37.4625 73.318 37.4193C73.3008 37.376 73.2928 37.3297 73.2945 37.2832C73.2962 37.2367 73.3076 37.191 73.3278 37.1491C73.3481 37.1072 73.3769 37.07 73.4123 37.0398L76.1938 34.2381C76.2549 34.1766 76.3374 34.141 76.424 34.1389C76.5106 34.1368 76.5948 34.1682 76.6588 34.2266L79.7171 37.0284C79.7671 37.0741 79.8022 37.1339 79.8176 37.1998C79.833 37.2658 79.8281 37.3349 79.8035 37.3981C79.779 37.4612 79.7359 37.5155 79.68 37.5537C79.624 37.5919 79.5578 37.6123 79.49 37.6122L79.4894 37.6109Z" fill="#2F3A5A"/>
<path d="M73.6495 37.6109C73.5655 37.611 73.4845 37.5796 73.4224 37.5229L70.6032 34.9375L68.0501 37.5101C68.0204 37.5459 67.9835 37.5751 67.9419 37.5959C67.9003 37.6167 67.8548 37.6286 67.8083 37.6309C67.7618 37.6332 67.7153 37.6258 67.6719 37.6092C67.6284 37.5926 67.5888 37.5672 67.5557 37.5345C67.5226 37.5018 67.4966 37.4625 67.4795 37.4193C67.4623 37.376 67.4543 37.3297 67.456 37.2832C67.4577 37.2367 67.4691 37.191 67.4893 37.1491C67.5096 37.1072 67.5383 37.07 67.5738 37.0398L70.3553 34.2381C70.4164 34.1766 70.4988 34.141 70.5855 34.1389C70.6721 34.1368 70.7563 34.1682 70.8203 34.2266L73.878 37.0284C73.928 37.0741 73.963 37.1339 73.9784 37.1998C73.9938 37.2658 73.9889 37.3349 73.9644 37.3981C73.9398 37.4612 73.8967 37.5155 73.8408 37.5537C73.7848 37.5919 73.7186 37.6123 73.6509 37.6122L73.6495 37.6109Z" fill="#2F3A5A"/>
<path d="M67.811 37.6109C67.7269 37.611 67.6459 37.5796 67.5839 37.5229L64.764 34.9375L62.2109 37.5101C62.1811 37.5459 62.1443 37.5751 62.1027 37.5959C62.061 37.6167 62.0155 37.6286 61.969 37.6309C61.9226 37.6332 61.8761 37.6258 61.8326 37.6092C61.7892 37.5926 61.7496 37.5672 61.7165 37.5345C61.6834 37.5018 61.6574 37.4625 61.6403 37.4193C61.6231 37.376 61.6151 37.3297 61.6168 37.2832C61.6185 37.2367 61.6298 37.191 61.6501 37.1491C61.6704 37.1072 61.6991 37.07 61.7345 37.0398L64.5154 34.2381C64.5765 34.1766 64.6589 34.141 64.7456 34.1389C64.8322 34.1368 64.9163 34.1682 64.9803 34.2266L68.0387 37.0284C68.0887 37.0741 68.1237 37.1339 68.1392 37.1998C68.1546 37.2658 68.1497 37.3349 68.1251 37.3981C68.1006 37.4612 68.0575 37.5155 68.0015 37.5537C67.9456 37.5919 67.8794 37.6123 67.8116 37.6122L67.811 37.6109Z" fill="#2F3A5A"/>
<path d="M61.9717 37.6109C61.8877 37.611 61.8067 37.5796 61.7446 37.5229L58.9234 34.9375L56.3703 37.5101C56.3406 37.5459 56.3037 37.5751 56.2621 37.5959C56.2204 37.6167 56.1749 37.6286 56.1285 37.6309C56.082 37.6332 56.0355 37.6258 55.9921 37.6092C55.9486 37.5926 55.909 37.5672 55.8759 37.5345C55.8428 37.5018 55.8168 37.4625 55.7997 37.4193C55.7825 37.376 55.7745 37.3297 55.7762 37.2832C55.7779 37.2367 55.7893 37.191 55.8095 37.1491C55.8298 37.1072 55.8585 37.07 55.894 37.0398L58.6748 34.2381C58.7359 34.1766 58.8184 34.141 58.905 34.1389C58.9917 34.1368 59.0758 34.1682 59.1398 34.2266L62.1982 37.0284C62.2482 37.0741 62.2832 37.1339 62.2986 37.1998C62.314 37.2658 62.3091 37.3349 62.2846 37.3981C62.26 37.4612 62.2169 37.5155 62.161 37.5537C62.105 37.5919 62.0388 37.6123 61.9711 37.6122L61.9717 37.6109Z" fill="#2F3A5A"/>
<path d="M56.133 37.6109C56.0489 37.611 55.9679 37.5796 55.9059 37.5229L53.086 34.9375L50.5329 37.5101C50.5032 37.5459 50.4663 37.5751 50.4247 37.5959C50.383 37.6167 50.3375 37.6286 50.2911 37.6309C50.2446 37.6332 50.1981 37.6258 50.1547 37.6092C50.1112 37.5926 50.0716 37.5672 50.0385 37.5345C50.0054 37.5018 49.9794 37.4625 49.9623 37.4193C49.9451 37.376 49.9371 37.3297 49.9388 37.2832C49.9405 37.2367 49.9519 37.191 49.9721 37.1491C49.9924 37.1072 50.0211 37.07 50.0565 37.0398L52.8381 34.2381C52.8992 34.1766 52.9816 34.141 53.0683 34.1389C53.1549 34.1368 53.239 34.1682 53.303 34.2266L56.3614 37.0284C56.4114 37.0741 56.4464 37.1339 56.4619 37.1998C56.4773 37.2658 56.4724 37.3349 56.4478 37.3981C56.4233 37.4612 56.3802 37.5155 56.3242 37.5537C56.2683 37.5919 56.2021 37.6123 56.1343 37.6122L56.133 37.6109Z" fill="#2F3A5A"/>
<path d="M50.2931 37.6109C50.2091 37.611 50.1281 37.5796 50.066 37.5229L47.2462 34.9375L44.6931 37.5101C44.6633 37.5459 44.6265 37.5751 44.5848 37.5959C44.5432 37.6167 44.4977 37.6286 44.4512 37.6309C44.4047 37.6332 44.3583 37.6258 44.3148 37.6092C44.2713 37.5926 44.2318 37.5672 44.1987 37.5345C44.1656 37.5018 44.1396 37.4625 44.1224 37.4193C44.1053 37.376 44.0973 37.3297 44.099 37.2832C44.1007 37.2367 44.112 37.191 44.1323 37.1491C44.1525 37.1072 44.1813 37.07 44.2167 37.0398L46.9976 34.2381C47.0587 34.1766 47.1411 34.141 47.2278 34.1389C47.3144 34.1368 47.3985 34.1682 47.4625 34.2266L50.5209 37.0284C50.5709 37.0741 50.6059 37.1339 50.6213 37.1998C50.6368 37.2658 50.6319 37.3349 50.6073 37.3981C50.5827 37.4612 50.5397 37.5155 50.4837 37.5537C50.4278 37.5919 50.3616 37.6123 50.2938 37.6122L50.2931 37.6109Z" fill="#2F3A5A"/>
<path d="M44.4546 37.6109C44.3706 37.611 44.2896 37.5796 44.2276 37.5229L41.4077 34.9375L38.8546 37.5101C38.8248 37.5459 38.788 37.5751 38.7463 37.5959C38.7047 37.6167 38.6592 37.6286 38.6127 37.6309C38.5662 37.6332 38.5198 37.6258 38.4763 37.6092C38.4328 37.5926 38.3933 37.5672 38.3602 37.5345C38.3271 37.5018 38.3011 37.4625 38.2839 37.4193C38.2668 37.376 38.2588 37.3297 38.2605 37.2832C38.2622 37.2367 38.2735 37.191 38.2938 37.1491C38.314 37.1072 38.3428 37.07 38.3782 37.0398L41.1591 34.2381C41.2202 34.1766 41.3026 34.141 41.3893 34.1389C41.4759 34.1368 41.56 34.1682 41.624 34.2266L44.6797 37.027C44.7297 37.0727 44.7647 37.1325 44.7802 37.1985C44.7956 37.2645 44.7907 37.3336 44.7661 37.3967C44.7416 37.4599 44.6985 37.5141 44.6425 37.5523C44.5866 37.5906 44.5204 37.611 44.4526 37.6109H44.4546Z" fill="#2F3A5A"/>
<path d="M85.328 28.521V15.3939C85.2938 14.6433 84.9634 13.9369 84.4093 13.4294C83.8551 12.922 83.1224 12.655 82.3717 12.6869H41.5694C40.8187 12.655 40.086 12.922 39.5319 13.4294C38.9777 13.9369 38.6473 14.6433 38.6132 15.3939V28.521C38.6473 29.2716 38.9777 29.978 39.5319 30.4854C40.086 30.9928 40.8187 31.2599 41.5694 31.228H82.3717C83.1224 31.2599 83.8551 30.9928 84.4093 30.4854C84.9634 29.978 85.2938 29.2716 85.328 28.521Z" fill="#9297AB"/>
<path d="M85.3282 15.3966V28.5244C85.2928 29.2732 84.9627 29.9776 84.4098 30.4838C83.857 30.9901 83.1263 31.2571 82.3773 31.2267H41.571C40.8212 31.2581 40.0895 30.9915 39.5356 30.4852C38.9817 29.9789 38.6507 29.274 38.6147 28.5244V26.1836H77.9752C78.7257 26.2151 79.458 25.9474 80.0113 25.4393C80.5646 24.9313 80.8936 24.2244 80.9261 23.4739V12.6869H82.3787C83.1286 12.6571 83.8599 12.9253 84.4126 13.4331C84.9653 13.9409 85.2945 14.6468 85.3282 15.3966Z" fill="#84879C"/>
<path d="M82.3716 31.8999H41.5693C40.6406 31.9311 39.7374 31.5931 39.0574 30.9598C38.3774 30.3265 37.976 29.4496 37.9412 28.521V15.3939C37.976 14.4653 38.3774 13.5884 39.0574 12.9551C39.7374 12.3219 40.6406 11.9838 41.5693 12.015H82.3716C83.3002 11.984 84.2033 12.3221 84.8833 12.9553C85.5633 13.5886 85.9647 14.4654 85.9997 15.3939V28.521C85.9647 29.4495 85.5633 30.3263 84.8833 30.9596C84.2033 31.5928 83.3002 31.9309 82.3716 31.8999ZM41.5679 13.3561C40.9957 13.3252 40.4344 13.5218 40.0065 13.9031C39.5786 14.2843 39.3187 14.8192 39.2836 15.3912V28.521C39.3187 29.093 39.5786 29.6279 40.0065 30.0092C40.4344 30.3904 40.9957 30.587 41.5679 30.5561H82.3716C82.9438 30.5868 83.505 30.3901 83.9328 30.009C84.3607 29.6278 84.6206 29.093 84.656 28.521V15.3939C84.6206 14.822 84.3607 14.2871 83.9328 13.906C83.505 13.5248 82.9438 13.3281 82.3716 13.3588L41.5679 13.3561Z" fill="#2F3A5A"/>
<path d="M85.328 28.3187C85.2439 28.3188 85.1629 28.2874 85.1009 28.2307L82.279 25.6467L79.7272 28.2186C79.6975 28.2544 79.6606 28.2836 79.619 28.3044C79.5774 28.3252 79.5319 28.3371 79.4854 28.3394C79.4389 28.3417 79.3925 28.3343 79.349 28.3177C79.3055 28.3011 79.266 28.2756 79.2329 28.2429C79.1997 28.2103 79.1738 28.171 79.1566 28.1278C79.1394 28.0845 79.1315 28.0382 79.1332 27.9917C79.1349 27.9451 79.1462 27.8995 79.1665 27.8576C79.1867 27.8157 79.2155 27.7785 79.2509 27.7483L82.0318 24.9466C82.0928 24.8851 82.1753 24.8495 82.2619 24.8474C82.3486 24.8453 82.4327 24.8767 82.4967 24.9351L85.5551 27.7369C85.6051 27.7826 85.6401 27.8424 85.6555 27.9083C85.6709 27.9743 85.666 28.0434 85.6415 28.1066C85.6169 28.1697 85.5738 28.224 85.5179 28.2622C85.4619 28.3004 85.3957 28.3208 85.328 28.3207V28.3187Z" fill="#2F3A5A"/>
<path d="M79.4894 28.3187C79.4054 28.3188 79.3244 28.2874 79.2623 28.2307L76.4405 25.6467L73.888 28.2186C73.8583 28.2544 73.8214 28.2836 73.7798 28.3044C73.7381 28.3252 73.6926 28.3371 73.6462 28.3394C73.5997 28.3417 73.5532 28.3343 73.5098 28.3177C73.4663 28.3011 73.4267 28.2756 73.3936 28.2429C73.3605 28.2103 73.3345 28.171 73.3174 28.1278C73.3002 28.0845 73.2922 28.0382 73.2939 27.9917C73.2956 27.9451 73.307 27.8995 73.3272 27.8576C73.3475 27.8157 73.3762 27.7785 73.4117 27.7483L76.1932 24.9466C76.2543 24.8851 76.3367 24.8495 76.4234 24.8474C76.51 24.8453 76.5941 24.8767 76.6582 24.9351L79.7165 27.7369C79.7665 27.7826 79.8015 27.8424 79.817 27.9083C79.8324 27.9743 79.8275 28.0434 79.8029 28.1066C79.7784 28.1697 79.7353 28.224 79.6793 28.2622C79.6234 28.3004 79.5572 28.3208 79.4894 28.3207V28.3187Z" fill="#2F3A5A"/>
<path d="M73.6495 28.3187C73.5655 28.3188 73.4844 28.2874 73.4224 28.2307L70.6006 25.6467L68.0488 28.2186C68.019 28.2544 67.9822 28.2836 67.9405 28.3044C67.8989 28.3252 67.8534 28.3371 67.8069 28.3394C67.7604 28.3417 67.714 28.3343 67.6705 28.3177C67.627 28.3011 67.5875 28.2756 67.5544 28.2429C67.5213 28.2103 67.4953 28.171 67.4781 28.1278C67.461 28.0845 67.453 28.0382 67.4547 27.9917C67.4564 27.9451 67.4677 27.8995 67.488 27.8576C67.5083 27.8157 67.537 27.7785 67.5724 27.7483L70.354 24.9466C70.415 24.8851 70.4975 24.8495 70.5841 24.8474C70.6708 24.8453 70.7549 24.8767 70.8189 24.9351L73.8766 27.7369C73.9266 27.7826 73.9616 27.8424 73.977 27.9083C73.9925 27.9743 73.9876 28.0434 73.963 28.1066C73.9385 28.1697 73.8954 28.224 73.8394 28.2622C73.7835 28.3004 73.7173 28.3208 73.6495 28.3207V28.3187Z" fill="#2F3A5A"/>
<path d="M67.811 28.3187C67.727 28.3188 67.646 28.2874 67.5839 28.2307L64.7621 25.6467L62.2103 28.2186C62.1805 28.2544 62.1437 28.2836 62.102 28.3044C62.0604 28.3252 62.0149 28.3371 61.9684 28.3394C61.922 28.3417 61.8755 28.3343 61.832 28.3177C61.7886 28.3011 61.749 28.2756 61.7159 28.2429C61.6828 28.2103 61.6568 28.171 61.6396 28.1278C61.6225 28.0845 61.6145 28.0382 61.6162 27.9917C61.6179 27.9451 61.6292 27.8995 61.6495 27.8576C61.6698 27.8157 61.6985 27.7785 61.7339 27.7483L64.5148 24.9466C64.5759 24.8851 64.6583 24.8495 64.745 24.8474C64.8316 24.8453 64.9157 24.8767 64.9797 24.9351L68.0381 27.7369C68.0881 27.7826 68.1231 27.8424 68.1386 27.9083C68.154 27.9743 68.1491 28.0434 68.1245 28.1066C68.1 28.1697 68.0569 28.224 68.0009 28.2622C67.945 28.3004 67.8788 28.3208 67.811 28.3207V28.3187Z" fill="#2F3A5A"/>
<path d="M61.9717 28.3187C61.8877 28.3188 61.8067 28.2874 61.7446 28.2307L58.9228 25.6467L56.3703 28.2186C56.3406 28.2544 56.3037 28.2836 56.2621 28.3044C56.2204 28.3252 56.1749 28.3371 56.1285 28.3394C56.082 28.3417 56.0355 28.3343 55.9921 28.3177C55.9486 28.3011 55.909 28.2756 55.8759 28.2429C55.8428 28.2103 55.8168 28.171 55.7997 28.1278C55.7825 28.0845 55.7745 28.0382 55.7762 27.9917C55.7779 27.9451 55.7893 27.8995 55.8095 27.8576C55.8298 27.8157 55.8585 27.7785 55.894 27.7483L58.6748 24.9466C58.7359 24.8851 58.8184 24.8495 58.905 24.8474C58.9917 24.8453 59.0758 24.8767 59.1398 24.9351L62.1982 27.7369C62.2482 27.7826 62.2832 27.8424 62.2986 27.9083C62.314 27.9743 62.3091 28.0434 62.2846 28.1066C62.26 28.1697 62.2169 28.224 62.161 28.2622C62.105 28.3004 62.0388 28.3208 61.9711 28.3207L61.9717 28.3187Z" fill="#2F3A5A"/>
<path d="M56.1331 28.3187C56.0491 28.3188 55.968 28.2874 55.906 28.2307L53.0841 25.6467L50.5317 28.2186C50.5019 28.2544 50.4651 28.2836 50.4235 28.3044C50.3818 28.3252 50.3363 28.3371 50.2898 28.3394C50.2434 28.3417 50.1969 28.3343 50.1534 28.3177C50.11 28.3011 50.0704 28.2756 50.0373 28.2429C50.0042 28.2103 49.9782 28.171 49.9611 28.1278C49.9439 28.0845 49.9359 28.0382 49.9376 27.9917C49.9393 27.9451 49.9506 27.8995 49.9709 27.8576C49.9912 27.8157 50.0199 27.7785 50.0553 27.7483L52.8369 24.9466C52.898 24.8851 52.9804 24.8495 53.0671 24.8474C53.1537 24.8453 53.2378 24.8767 53.3018 24.9351L56.3602 27.7369C56.4102 27.7826 56.4452 27.8424 56.4606 27.9083C56.4761 27.9743 56.4712 28.0434 56.4466 28.1066C56.422 28.1697 56.379 28.224 56.323 28.2622C56.2671 28.3004 56.2009 28.3208 56.1331 28.3207V28.3187Z" fill="#2F3A5A"/>
<path d="M50.2931 28.3187C50.2091 28.3188 50.1281 28.2874 50.066 28.2307L47.2442 25.6467L44.6931 28.2186C44.6633 28.2544 44.6265 28.2836 44.5848 28.3044C44.5432 28.3252 44.4977 28.3371 44.4512 28.3394C44.4047 28.3417 44.3583 28.3343 44.3148 28.3177C44.2713 28.3011 44.2318 28.2756 44.1987 28.2429C44.1656 28.2103 44.1396 28.171 44.1224 28.1278C44.1053 28.0845 44.0973 28.0382 44.099 27.9917C44.1007 27.9451 44.112 27.8995 44.1323 27.8576C44.1525 27.8157 44.1813 27.7785 44.2167 27.7483L46.9976 24.9466C47.0587 24.8851 47.1411 24.8495 47.2278 24.8474C47.3144 24.8453 47.3985 24.8767 47.4625 24.9351L50.5209 27.7369C50.5709 27.7826 50.6059 27.8424 50.6213 27.9083C50.6368 27.9743 50.6319 28.0434 50.6073 28.1066C50.5827 28.1697 50.5397 28.224 50.4837 28.2622C50.4278 28.3004 50.3616 28.3208 50.2938 28.3207L50.2931 28.3187Z" fill="#2F3A5A"/>
<path d="M44.4546 28.3187C44.3705 28.3188 44.2895 28.2874 44.2275 28.2307L41.4056 25.6467L38.8538 28.2186C38.8241 28.2544 38.7872 28.2836 38.7456 28.3044C38.704 28.3252 38.6585 28.3371 38.612 28.3394C38.5655 28.3417 38.5191 28.3343 38.4756 28.3177C38.4321 28.3011 38.3926 28.2756 38.3594 28.2429C38.3263 28.2103 38.3004 28.171 38.2832 28.1278C38.266 28.0845 38.258 28.0382 38.2597 27.9917C38.2614 27.9451 38.2728 27.8995 38.293 27.8576C38.3133 27.8157 38.3421 27.7785 38.3775 27.7483L41.1584 24.9466C41.2194 24.8851 41.3019 24.8495 41.3885 24.8474C41.4752 24.8453 41.5593 24.8767 41.6233 24.9351L44.6797 27.7348C44.7297 27.7806 44.7647 27.8403 44.7801 27.9063C44.7955 27.9723 44.7906 28.0414 44.7661 28.1045C44.7415 28.1677 44.6984 28.2219 44.6425 28.2602C44.5865 28.2984 44.5203 28.3188 44.4526 28.3187H44.4546Z" fill="#2F3A5A"/>
<path d="M85.3281 23.6941C85.2441 23.6942 85.163 23.6628 85.101 23.6061L82.2791 21.0221L79.726 23.5947C79.6963 23.6305 79.6594 23.6597 79.6178 23.6805C79.5762 23.7013 79.5307 23.7132 79.4842 23.7155C79.4377 23.7178 79.3912 23.7104 79.3478 23.6938C79.3043 23.6772 79.2647 23.6517 79.2316 23.619C79.1985 23.5863 79.1725 23.5471 79.1554 23.5039C79.1382 23.4606 79.1302 23.4143 79.1319 23.3678C79.1336 23.3212 79.145 23.2756 79.1652 23.2337C79.1855 23.1918 79.2143 23.1546 79.2497 23.1244L82.0306 20.3227C82.0916 20.2612 82.1741 20.2256 82.2607 20.2235C82.3474 20.2214 82.4315 20.2528 82.4955 20.3112L85.5539 23.113C85.6039 23.1587 85.6389 23.2185 85.6543 23.2844C85.6697 23.3504 85.6648 23.4195 85.6403 23.4827C85.6157 23.5458 85.5726 23.6001 85.5167 23.6383C85.4607 23.6765 85.3945 23.6969 85.3268 23.6968L85.3281 23.6941Z" fill="#2F3A5A"/>
<path d="M79.4894 23.6941C79.4053 23.6942 79.3243 23.6628 79.2623 23.6061L76.4404 21.0221L73.8873 23.5947C73.8575 23.6305 73.8207 23.6597 73.779 23.6805C73.7374 23.7013 73.6919 23.7132 73.6454 23.7155C73.599 23.7178 73.5525 23.7104 73.509 23.6938C73.4656 23.6772 73.426 23.6517 73.3929 23.619C73.3598 23.5863 73.3338 23.5471 73.3166 23.5039C73.2995 23.4606 73.2915 23.4143 73.2932 23.3678C73.2949 23.3212 73.3062 23.2756 73.3265 23.2337C73.3468 23.1918 73.3755 23.1546 73.4109 23.1244L76.1925 20.3227C76.2535 20.2612 76.336 20.2256 76.4227 20.2235C76.5093 20.2214 76.5934 20.2528 76.6574 20.3112L79.7158 23.113C79.7658 23.1587 79.8008 23.2185 79.8162 23.2844C79.8316 23.3504 79.8267 23.4195 79.8022 23.4827C79.7776 23.5458 79.7345 23.6001 79.6786 23.6383C79.6227 23.6765 79.5565 23.6969 79.4887 23.6968L79.4894 23.6941Z" fill="#2F3A5A"/>
<path d="M73.6495 23.6941C73.5655 23.6942 73.4844 23.6628 73.4224 23.6061L70.6006 21.0221L68.0474 23.5947C68.0177 23.6305 67.9808 23.6597 67.9392 23.6805C67.8976 23.7013 67.8521 23.7132 67.8056 23.7155C67.7591 23.7178 67.7127 23.7104 67.6692 23.6938C67.6257 23.6772 67.5862 23.6517 67.553 23.619C67.5199 23.5863 67.494 23.5471 67.4768 23.5039C67.4596 23.4606 67.4517 23.4143 67.4533 23.3678C67.455 23.3212 67.4664 23.2756 67.4866 23.2337C67.5069 23.1918 67.5357 23.1546 67.5711 23.1244L70.3526 20.3227C70.4137 20.2612 70.4962 20.2256 70.5828 20.2235C70.6694 20.2214 70.7536 20.2528 70.8176 20.3112L73.8753 23.113C73.9253 23.1587 73.9603 23.2185 73.9757 23.2844C73.9911 23.3504 73.9862 23.4195 73.9617 23.4827C73.9371 23.5458 73.894 23.6001 73.8381 23.6383C73.7821 23.6765 73.7159 23.6969 73.6482 23.6968L73.6495 23.6941Z" fill="#2F3A5A"/>
<path d="M67.8109 23.6941C67.7269 23.6942 67.6458 23.6628 67.5838 23.6061L64.7619 21.0221L62.2088 23.5947C62.1791 23.6305 62.1422 23.6597 62.1006 23.6805C62.0589 23.7013 62.0134 23.7132 61.967 23.7155C61.9205 23.7178 61.874 23.7104 61.8306 23.6938C61.7871 23.6772 61.7475 23.6517 61.7144 23.619C61.6813 23.5863 61.6553 23.5471 61.6382 23.5039C61.621 23.4606 61.613 23.4143 61.6147 23.3678C61.6164 23.3212 61.6278 23.2756 61.648 23.2337C61.6683 23.1918 61.697 23.1546 61.7324 23.1244L64.5133 20.3227C64.5744 20.2612 64.6569 20.2256 64.7435 20.2235C64.8302 20.2214 64.9143 20.2528 64.9783 20.3112L68.0367 23.113C68.0867 23.1587 68.1217 23.2185 68.1371 23.2844C68.1525 23.3504 68.1476 23.4195 68.1231 23.4827C68.0985 23.5458 68.0554 23.6001 67.9995 23.6383C67.9435 23.6765 67.8773 23.6969 67.8096 23.6968L67.8109 23.6941Z" fill="#2F3A5A"/>
<path d="M61.9717 23.6941C61.8876 23.6942 61.8066 23.6628 61.7446 23.6061L58.9227 21.0221L56.3696 23.5947C56.3398 23.6305 56.303 23.6597 56.2613 23.6805C56.2197 23.7013 56.1742 23.7132 56.1277 23.7155C56.0813 23.7178 56.0348 23.7104 55.9913 23.6938C55.9479 23.6772 55.9083 23.6517 55.8752 23.619C55.8421 23.5863 55.8161 23.5471 55.7989 23.5039C55.7818 23.4606 55.7738 23.4143 55.7755 23.3678C55.7772 23.3212 55.7885 23.2756 55.8088 23.2337C55.8291 23.1918 55.8578 23.1546 55.8932 23.1244L58.6741 20.3227C58.7352 20.2612 58.8176 20.2256 58.9043 20.2235C58.9909 20.2214 59.075 20.2528 59.139 20.3112L62.1974 23.113C62.2474 23.1587 62.2824 23.2185 62.2979 23.2844C62.3133 23.3504 62.3084 23.4195 62.2838 23.4827C62.2593 23.5458 62.2162 23.6001 62.1602 23.6383C62.1043 23.6765 62.0381 23.6969 61.9703 23.6968L61.9717 23.6941Z" fill="#2F3A5A"/>
<path d="M56.1332 23.6941C56.0491 23.6942 55.9681 23.6628 55.9061 23.6061L53.0842 21.0221L50.5311 23.5947C50.5013 23.6305 50.4645 23.6597 50.4228 23.6805C50.3812 23.7013 50.3357 23.7132 50.2892 23.7155C50.2428 23.7178 50.1963 23.7104 50.1528 23.6938C50.1094 23.6772 50.0698 23.6517 50.0367 23.619C50.0036 23.5863 49.9776 23.5471 49.9604 23.5039C49.9433 23.4606 49.9353 23.4143 49.937 23.3678C49.9387 23.3212 49.95 23.2756 49.9703 23.2337C49.9906 23.1918 50.0193 23.1546 50.0547 23.1244L52.8363 20.3227C52.8973 20.2612 52.9798 20.2256 53.0665 20.2235C53.1531 20.2214 53.2372 20.2528 53.3012 20.3112L56.3596 23.113C56.4096 23.1587 56.4446 23.2185 56.46 23.2844C56.4754 23.3504 56.4706 23.4195 56.446 23.4827C56.4214 23.5458 56.3784 23.6001 56.3224 23.6383C56.2665 23.6765 56.2003 23.6969 56.1325 23.6968L56.1332 23.6941Z" fill="#2F3A5A"/>
<path d="M50.2932 23.6941C50.2092 23.6942 50.1281 23.6628 50.0661 23.6061L47.2442 21.0221L44.6911 23.5947C44.6614 23.6305 44.6245 23.6597 44.5829 23.6805C44.5412 23.7013 44.4957 23.7132 44.4493 23.7155C44.4028 23.7178 44.3563 23.7104 44.3129 23.6938C44.2694 23.6772 44.2298 23.6517 44.1967 23.619C44.1636 23.5863 44.1376 23.5471 44.1205 23.5039C44.1033 23.4606 44.0953 23.4143 44.097 23.3678C44.0987 23.3212 44.1101 23.2756 44.1303 23.2337C44.1506 23.1918 44.1793 23.1546 44.2147 23.1244L46.9956 20.3227C47.0567 20.2612 47.1392 20.2256 47.2258 20.2235C47.3125 20.2214 47.3966 20.2528 47.4606 20.3112L50.519 23.113C50.569 23.1587 50.604 23.2185 50.6194 23.2844C50.6348 23.3504 50.6299 23.4195 50.6054 23.4827C50.5808 23.5458 50.5377 23.6001 50.4818 23.6383C50.4258 23.6765 50.3596 23.6969 50.2919 23.6968L50.2932 23.6941Z" fill="#2F3A5A"/>
<path d="M44.4547 23.6941C44.3707 23.6942 44.2896 23.6628 44.2276 23.6061L41.4057 21.0221L38.8526 23.5947C38.8229 23.6305 38.786 23.6597 38.7444 23.6805C38.7027 23.7013 38.6572 23.7132 38.6108 23.7155C38.5643 23.7178 38.5178 23.7104 38.4744 23.6938C38.4309 23.6772 38.3913 23.6517 38.3582 23.619C38.3251 23.5863 38.2991 23.5471 38.282 23.5039C38.2648 23.4606 38.2568 23.4143 38.2585 23.3678C38.2602 23.3212 38.2716 23.2756 38.2918 23.2337C38.3121 23.1918 38.3408 23.1546 38.3763 23.1244L41.1571 20.3227C41.2182 20.2612 41.3007 20.2256 41.3873 20.2235C41.474 20.2214 41.5581 20.2528 41.6221 20.3112L44.6798 23.1123C44.7298 23.158 44.7648 23.2178 44.7802 23.2838C44.7956 23.3497 44.7907 23.4188 44.7662 23.482C44.7416 23.5451 44.6985 23.5994 44.6426 23.6376C44.5866 23.6758 44.5204 23.6962 44.4527 23.6961L44.4547 23.6941Z" fill="#2F3A5A"/>
<path d="M85.3281 19.0699C85.2441 19.07 85.163 19.0386 85.101 18.9819L82.2791 16.3978L79.726 18.9704C79.6963 19.0062 79.6594 19.0354 79.6178 19.0562C79.5762 19.077 79.5307 19.089 79.4842 19.0913C79.4377 19.0935 79.3912 19.0862 79.3478 19.0695C79.3043 19.0529 79.2647 19.0275 79.2316 18.9948C79.1985 18.9621 79.1725 18.9229 79.1554 18.8796C79.1382 18.8363 79.1302 18.79 79.1319 18.7435C79.1336 18.697 79.145 18.6513 79.1652 18.6094C79.1855 18.5675 79.2143 18.5303 79.2497 18.5001L82.0306 15.6984C82.0916 15.6369 82.1741 15.6014 82.2607 15.5992C82.3474 15.5971 82.4315 15.6285 82.4955 15.687L85.5539 18.4887C85.6039 18.5344 85.6389 18.5942 85.6543 18.6602C85.6697 18.7261 85.6648 18.7952 85.6403 18.8584C85.6157 18.9215 85.5726 18.9758 85.5167 19.014C85.4607 19.0522 85.3945 19.0726 85.3268 19.0726L85.3281 19.0699Z" fill="#2F3A5A"/>
<path d="M79.4894 19.0699C79.4053 19.07 79.3243 19.0386 79.2623 18.9819L76.4404 16.3978L73.8873 18.9704C73.8575 19.0062 73.8207 19.0354 73.779 19.0562C73.7374 19.077 73.6919 19.089 73.6454 19.0913C73.599 19.0935 73.5525 19.0862 73.509 19.0695C73.4656 19.0529 73.426 19.0275 73.3929 18.9948C73.3598 18.9621 73.3338 18.9229 73.3166 18.8796C73.2995 18.8363 73.2915 18.79 73.2932 18.7435C73.2949 18.697 73.3062 18.6513 73.3265 18.6094C73.3468 18.5675 73.3755 18.5303 73.4109 18.5001L76.1925 15.6984C76.2535 15.6369 76.336 15.6014 76.4227 15.5992C76.5093 15.5971 76.5934 15.6285 76.6574 15.687L79.7158 18.4887C79.7658 18.5344 79.8008 18.5942 79.8162 18.6602C79.8316 18.7261 79.8267 18.7952 79.8022 18.8584C79.7776 18.9215 79.7345 18.9758 79.6786 19.014C79.6227 19.0522 79.5565 19.0726 79.4887 19.0726L79.4894 19.0699Z" fill="#2F3A5A"/>
<path d="M73.6495 19.0699C73.5655 19.07 73.4844 19.0386 73.4224 18.9819L70.6006 16.3978L68.0474 18.9704C68.0177 19.0062 67.9808 19.0354 67.9392 19.0562C67.8976 19.077 67.8521 19.089 67.8056 19.0913C67.7591 19.0935 67.7127 19.0862 67.6692 19.0695C67.6257 19.0529 67.5862 19.0275 67.553 18.9948C67.5199 18.9621 67.494 18.9229 67.4768 18.8796C67.4596 18.8363 67.4517 18.79 67.4533 18.7435C67.455 18.697 67.4664 18.6513 67.4866 18.6094C67.5069 18.5675 67.5357 18.5303 67.5711 18.5001L70.3526 15.6984C70.4137 15.6369 70.4962 15.6014 70.5828 15.5992C70.6694 15.5971 70.7536 15.6285 70.8176 15.687L73.8753 18.4887C73.9253 18.5344 73.9603 18.5942 73.9757 18.6602C73.9911 18.7261 73.9862 18.7952 73.9617 18.8584C73.9371 18.9215 73.894 18.9758 73.8381 19.014C73.7821 19.0522 73.7159 19.0726 73.6482 19.0726L73.6495 19.0699Z" fill="#2F3A5A"/>
<path d="M67.8109 19.0699C67.7269 19.07 67.6458 19.0386 67.5838 18.9819L64.7619 16.3978L62.2088 18.9704C62.1791 19.0062 62.1422 19.0354 62.1006 19.0562C62.0589 19.077 62.0134 19.089 61.967 19.0913C61.9205 19.0935 61.874 19.0862 61.8306 19.0695C61.7871 19.0529 61.7475 19.0275 61.7144 18.9948C61.6813 18.9621 61.6553 18.9229 61.6382 18.8796C61.621 18.8363 61.613 18.79 61.6147 18.7435C61.6164 18.697 61.6278 18.6513 61.648 18.6094C61.6683 18.5675 61.697 18.5303 61.7324 18.5001L64.5133 15.6984C64.5744 15.6369 64.6569 15.6014 64.7435 15.5992C64.8302 15.5971 64.9143 15.6285 64.9783 15.687L68.0367 18.4887C68.0867 18.5344 68.1217 18.5942 68.1371 18.6602C68.1525 18.7261 68.1476 18.7952 68.1231 18.8584C68.0985 18.9215 68.0554 18.9758 67.9995 19.014C67.9435 19.0522 67.8773 19.0726 67.8096 19.0726L67.8109 19.0699Z" fill="#2F3A5A"/>
<path d="M61.9717 19.0699C61.8876 19.07 61.8066 19.0386 61.7446 18.9819L58.9227 16.3978L56.3696 18.9704C56.3398 19.0062 56.303 19.0354 56.2613 19.0562C56.2197 19.077 56.1742 19.089 56.1277 19.0913C56.0813 19.0935 56.0348 19.0862 55.9913 19.0695C55.9479 19.0529 55.9083 19.0275 55.8752 18.9948C55.8421 18.9621 55.8161 18.9229 55.7989 18.8796C55.7818 18.8363 55.7738 18.79 55.7755 18.7435C55.7772 18.697 55.7885 18.6513 55.8088 18.6094C55.8291 18.5675 55.8578 18.5303 55.8932 18.5001L58.6741 15.6984C58.7352 15.6369 58.8176 15.6014 58.9043 15.5992C58.9909 15.5971 59.075 15.6285 59.139 15.687L62.1974 18.4887C62.2474 18.5344 62.2824 18.5942 62.2979 18.6602C62.3133 18.7261 62.3084 18.7952 62.2838 18.8584C62.2593 18.9215 62.2162 18.9758 62.1602 19.014C62.1043 19.0522 62.0381 19.0726 61.9703 19.0726L61.9717 19.0699Z" fill="#2F3A5A"/>
<path d="M56.1332 19.0699C56.0491 19.07 55.9681 19.0386 55.9061 18.9819L53.0842 16.3978L50.5311 18.9704C50.5013 19.0062 50.4645 19.0354 50.4228 19.0562C50.3812 19.077 50.3357 19.089 50.2892 19.0913C50.2428 19.0935 50.1963 19.0862 50.1528 19.0695C50.1094 19.0529 50.0698 19.0275 50.0367 18.9948C50.0036 18.9621 49.9776 18.9229 49.9604 18.8796C49.9433 18.8363 49.9353 18.79 49.937 18.7435C49.9387 18.697 49.95 18.6513 49.9703 18.6094C49.9906 18.5675 50.0193 18.5303 50.0547 18.5001L52.8363 15.6984C52.8973 15.6369 52.9798 15.6014 53.0665 15.5992C53.1531 15.5971 53.2372 15.6285 53.3012 15.687L56.3596 18.4887C56.4096 18.5344 56.4446 18.5942 56.46 18.6602C56.4754 18.7261 56.4706 18.7952 56.446 18.8584C56.4214 18.9215 56.3784 18.9758 56.3224 19.014C56.2665 19.0522 56.2003 19.0726 56.1325 19.0726L56.1332 19.0699Z" fill="#2F3A5A"/>
<path d="M50.2932 19.0699C50.2092 19.07 50.1281 19.0386 50.0661 18.9819L47.2442 16.3978L44.6911 18.9704C44.6614 19.0062 44.6245 19.0354 44.5829 19.0562C44.5412 19.077 44.4957 19.089 44.4493 19.0913C44.4028 19.0935 44.3563 19.0862 44.3129 19.0695C44.2694 19.0529 44.2298 19.0275 44.1967 18.9948C44.1636 18.9621 44.1376 18.9229 44.1205 18.8796C44.1033 18.8363 44.0953 18.79 44.097 18.7435C44.0987 18.697 44.1101 18.6513 44.1303 18.6094C44.1506 18.5675 44.1793 18.5303 44.2147 18.5001L46.9956 15.6984C47.0567 15.6369 47.1392 15.6014 47.2258 15.5992C47.3125 15.5971 47.3966 15.6285 47.4606 15.687L50.519 18.4887C50.569 18.5344 50.604 18.5942 50.6194 18.6602C50.6348 18.7261 50.6299 18.7952 50.6054 18.8584C50.5808 18.9215 50.5377 18.9758 50.4818 19.014C50.4258 19.0522 50.3596 19.0726 50.2919 19.0726L50.2932 19.0699Z" fill="#2F3A5A"/>
<path d="M44.4547 19.0699C44.3707 19.07 44.2896 19.0386 44.2276 18.9819L41.4057 16.3978L38.8526 18.9704C38.8229 19.0062 38.786 19.0354 38.7444 19.0562C38.7027 19.077 38.6572 19.089 38.6108 19.0913C38.5643 19.0935 38.5178 19.0862 38.4744 19.0695C38.4309 19.0529 38.3913 19.0275 38.3582 18.9948C38.3251 18.9621 38.2991 18.9229 38.282 18.8796C38.2648 18.8363 38.2568 18.79 38.2585 18.7435C38.2602 18.697 38.2716 18.6513 38.2918 18.6094C38.3121 18.5675 38.3408 18.5303 38.3763 18.5001L41.1571 15.6984C41.2182 15.6369 41.3007 15.6014 41.3873 15.5992C41.474 15.5971 41.5581 15.6285 41.6221 15.687L44.6805 18.4887C44.7305 18.5344 44.7655 18.5942 44.7809 18.6602C44.7963 18.7261 44.7914 18.7952 44.7669 18.8584C44.7423 18.9215 44.6992 18.9758 44.6433 19.014C44.5873 19.0522 44.5211 19.0726 44.4534 19.0726L44.4547 19.0699Z" fill="#2F3A5A"/>
<path d="M29.3622 73.3131C45.2074 73.3131 58.0526 60.4679 58.0526 44.6227C58.0526 28.7774 45.2074 15.9323 29.3622 15.9323C13.5169 15.9323 0.671753 28.7774 0.671753 44.6227C0.671753 60.4679 13.5169 73.3131 29.3622 73.3131Z" fill="#9297AB"/>
<path d="M58.05 44.6238C58.0503 50.4185 56.2959 56.0774 53.0177 60.8556C49.7395 65.6338 45.0912 69.3073 39.6847 71.3925C34.2782 73.4777 28.367 73.8769 22.7293 72.5374C17.0916 71.1979 11.9916 68.1826 8.10083 63.8885C13.6667 68.5771 20.8065 70.9752 28.0742 70.5972C35.3419 70.2191 42.1943 67.0932 47.2438 61.8525C52.2932 56.6117 55.1623 49.6478 55.2699 42.3711C55.3775 35.0944 52.7157 28.0487 47.8234 22.6609C51.0298 25.3517 53.6072 28.7128 55.3741 32.5074C57.141 36.3021 58.0544 40.438 58.05 44.6238Z" fill="#84879C"/>
<path d="M29.361 73.9848C23.5539 73.9848 17.8773 72.2628 13.0489 69.0366C8.22051 65.8104 4.45724 61.2248 2.23498 55.8598C0.0127216 50.4948 -0.568723 44.5913 0.564175 38.8959C1.69707 33.2004 4.49343 27.9688 8.59963 23.8626C12.7058 19.7564 17.9375 16.96 23.6329 15.8271C29.3284 14.6942 35.2319 15.2757 40.5969 17.4979C45.9619 19.7202 50.5475 23.4834 53.7737 28.3118C56.9999 33.1402 58.7219 38.8168 58.7219 44.6239C58.7128 52.4081 55.6165 59.8709 50.1123 65.3752C44.608 70.8795 37.1452 73.9758 29.361 73.9848ZM29.361 16.6067C23.8197 16.6067 18.4028 18.2499 13.7954 21.3285C9.18803 24.407 5.597 28.7827 3.47644 33.9022C1.35589 39.0217 0.801056 44.655 1.88211 50.0898C2.96316 55.5246 5.63153 60.5168 9.54981 64.435C13.4681 68.3533 18.4603 71.0217 23.8951 72.1027C29.3299 73.1838 34.9632 72.629 40.0827 70.5084C45.2021 68.3878 49.5778 64.7968 52.6564 60.1894C55.735 55.582 57.3781 50.1652 57.3781 44.6239C57.3701 37.1955 54.4159 30.0736 49.1634 24.8206C43.911 19.5677 36.7894 16.6127 29.361 16.604V16.6067Z" fill="#2F3A5A"/>
<path d="M29.3611 24.4878C25.3786 24.4879 21.4856 25.669 18.1744 27.8817C14.8632 30.0944 12.2825 33.2393 10.7587 36.9187C9.23482 40.5981 8.83628 44.6467 9.61345 48.5526C10.3906 52.4585 12.3086 56.0462 15.1248 58.8621C17.941 61.6779 21.529 63.5954 25.435 64.372C29.341 65.1487 33.3896 64.7496 37.0688 63.2253C40.748 61.7009 43.8925 59.1198 46.1048 55.8083C48.317 52.4968 49.4976 48.6037 49.4972 44.6212C49.4966 39.2812 47.3749 34.1601 43.5987 30.3844C39.8225 26.6087 34.7011 24.4876 29.3611 24.4878ZM32.1386 28.9302C34.4854 29.3431 36.7089 30.2799 38.6437 31.6708L30.85 41.2914L32.1386 28.9302ZM27.8782 41.2692L20.0798 31.6695C22.0146 30.2793 24.2378 29.3431 26.5842 28.9302L27.8782 41.2692ZM25.3171 43.047L13.6688 41.8417C14.0592 39.6198 14.9195 37.5069 16.1923 35.6443L25.3171 43.047ZM26.0628 46.1114L16.4308 53.9374C15.0286 51.996 14.0845 49.7621 13.6694 47.4034L26.0628 46.1114ZM27.7929 48.5974L26.5802 60.3155C24.3456 59.9228 22.2215 59.0549 20.3512 57.7705L27.7929 48.5974ZM30.9192 48.5832L38.3729 57.7711C36.5023 59.0562 34.3773 59.9244 32.142 60.3169L30.9192 48.5832ZM32.623 46.1081L45.0527 47.4034C44.6375 49.7631 43.6929 51.9979 42.29 53.9401L32.623 46.1081ZM33.3782 43.0672L42.5298 35.6443C43.803 37.5079 44.6634 39.622 45.0534 41.845L33.3782 43.0672Z" fill="#D9E2E9"/>
<path d="M29.3644 65.4305C25.2491 65.4309 21.2261 64.211 17.8041 61.925C14.3822 59.639 11.7149 56.3896 10.1397 52.5877C8.56447 48.7858 8.15201 44.6022 8.95448 40.5659C9.75694 36.5296 11.7383 32.8219 14.648 29.9117C17.5576 27.0014 21.2649 25.0194 25.3011 24.2161C29.3372 23.4129 33.5209 23.8245 37.3231 25.399C41.1253 26.9735 44.3752 29.6401 46.6619 33.0616C48.9485 36.4832 50.1693 40.5059 50.1697 44.6212C50.1633 50.1375 47.9693 55.4261 44.0691 59.3271C40.1689 63.2281 34.8807 65.4231 29.3644 65.4305ZM29.3644 25.1597C25.5147 25.1593 21.7513 26.3005 18.5502 28.439C15.3492 30.5776 12.8542 33.6173 11.3808 37.1739C9.90737 40.7305 9.52176 44.6441 10.2727 48.4199C11.0236 52.1956 12.8774 55.6639 15.5996 58.386C18.3217 61.1082 21.79 62.9619 25.5657 63.7129C29.3414 64.4638 33.2551 64.0782 36.8117 62.6048C40.3682 61.1314 43.408 58.6364 45.5465 55.4353C47.6851 52.2343 48.8263 48.4709 48.8259 44.6212C48.8199 39.4615 46.7675 34.5149 43.1191 30.8665C39.4706 27.2181 34.524 25.1657 29.3644 25.1597ZM32.1419 60.9881C31.9755 60.9879 31.815 60.926 31.6916 60.8143C31.5682 60.7025 31.4907 60.549 31.4741 60.3834L30.2513 48.6525C30.2355 48.5079 30.2671 48.3621 30.3413 48.2369C30.4155 48.1118 30.5283 48.0142 30.6627 47.9587C30.7972 47.9032 30.946 47.8928 31.0868 47.9291C31.2277 47.9654 31.353 48.0464 31.4438 48.16L38.8943 57.3472C38.9527 57.4192 38.9955 57.5025 39.0202 57.5919C39.0448 57.6812 39.0507 57.7748 39.0375 57.8665C39.0242 57.9583 38.9921 58.0463 38.9432 58.125C38.8942 58.2038 38.8296 58.2716 38.7532 58.3241C36.8047 59.6664 34.5891 60.5717 32.2581 60.978C32.2198 60.9848 32.1809 60.9882 32.1419 60.9881ZM31.8221 50.7615L32.7338 59.5133C34.3785 59.1456 35.9497 58.5042 37.3819 57.6159L31.8221 50.7615ZM26.5815 60.9867C26.5423 60.9868 26.5032 60.9834 26.4646 60.9767C24.1347 60.5699 21.9201 59.6649 19.9722 58.3234C19.8958 58.2709 19.8311 58.2031 19.7822 58.1244C19.7333 58.0456 19.7012 57.9576 19.6879 57.8658C19.6747 57.7741 19.6806 57.6806 19.7052 57.5912C19.7299 57.5018 19.7727 57.4185 19.8311 57.3465L27.2715 48.1734C27.3627 48.0611 27.4878 47.9812 27.628 47.9457C27.7683 47.9101 27.9163 47.9208 28.05 47.9762C28.1837 48.0315 28.296 48.1285 28.3701 48.2528C28.4442 48.3771 28.4762 48.522 28.4614 48.6659L27.252 60.3841C27.2353 60.5504 27.1572 60.7045 27.033 60.8163C26.9087 60.9281 26.7473 60.9896 26.5801 60.9888L26.5815 60.9867ZM21.3408 57.6146C22.7723 58.5022 24.3425 59.1434 25.9862 59.5113L26.8905 50.7736L21.3408 57.6146ZM42.2899 54.6113C42.1358 54.6114 41.9864 54.5585 41.8666 54.4615L32.1997 46.6281C32.0874 46.5369 32.0075 46.4118 31.9719 46.2716C31.9364 46.1313 31.9471 45.9833 32.0024 45.8496C32.0578 45.7159 32.1548 45.6036 32.2791 45.5295C32.4033 45.4554 32.5482 45.4234 32.6922 45.4382L45.1219 46.7336C45.2136 46.7431 45.3025 46.7714 45.3828 46.8167C45.4632 46.862 45.5333 46.9234 45.5889 46.997C45.6445 47.0706 45.6844 47.1549 45.706 47.2446C45.7275 47.3343 45.7304 47.4275 45.7145 47.5183C45.2777 49.9768 44.2933 52.3055 42.8341 54.3318C42.7719 54.4181 42.69 54.4884 42.5953 54.5369C42.5005 54.5854 42.3957 54.6106 42.2892 54.6106L42.2899 54.6113ZM34.8032 47.0104L42.1481 52.9605C43.1422 51.4454 43.8542 49.7631 44.2498 47.9947L34.8032 47.0104ZM16.4308 54.6093C16.3243 54.6094 16.2192 54.5842 16.1244 54.5357C16.0295 54.4872 15.9475 54.4169 15.8852 54.3305C14.4208 52.3085 13.4366 49.9792 13.0076 47.5197C12.9916 47.4289 12.9945 47.3357 13.016 47.2461C13.0376 47.1564 13.0774 47.0722 13.1329 46.9986C13.1884 46.925 13.2585 46.8636 13.3388 46.8182C13.419 46.7729 13.5078 46.7445 13.5995 46.7349L25.9936 45.4436C26.1376 45.4286 26.2826 45.4605 26.407 45.5345C26.5314 45.6086 26.6285 45.7208 26.684 45.8546C26.7394 45.9883 26.7501 46.1364 26.7146 46.2768C26.6791 46.4171 26.5991 46.5422 26.4867 46.6335L16.8547 54.4588C16.7349 54.5562 16.5852 54.6093 16.4308 54.6093ZM14.4723 47.9954C14.8679 49.7622 15.5791 51.443 16.5719 52.9572L23.8873 47.0138L14.4723 47.9954ZM33.3782 43.739C33.2394 43.7389 33.1041 43.6959 32.9908 43.6158C32.8775 43.5357 32.7918 43.4225 32.7454 43.2918C32.6991 43.161 32.6943 43.0191 32.7318 42.8856C32.7693 42.752 32.8472 42.6333 32.9549 42.5458L42.1092 35.1222C42.1813 35.0637 42.2648 35.0207 42.3543 34.996C42.4439 34.9714 42.5376 34.9655 42.6295 34.9789C42.7215 34.9923 42.8096 35.0246 42.8884 35.0738C42.9672 35.123 43.035 35.188 43.0874 35.2647C44.4167 37.2061 45.3137 39.4102 45.7178 41.7281C45.7338 41.8189 45.7309 41.9121 45.7094 42.0017C45.6878 42.0914 45.648 42.1756 45.5925 42.2492C45.537 42.3228 45.4669 42.3842 45.3866 42.4296C45.3064 42.4749 45.2176 42.5033 45.1259 42.5129L33.448 43.739C33.4245 43.739 33.401 43.739 33.3782 43.739ZM42.3752 36.6366L35.5597 42.1655L44.2525 41.2531C43.8873 39.6207 43.2529 38.0606 42.3752 36.6366ZM25.3177 43.7189C25.2948 43.7189 25.272 43.7189 25.2505 43.7155L13.6002 42.5102C13.5083 42.5008 13.4194 42.4725 13.339 42.4273C13.2586 42.382 13.1883 42.3206 13.1327 42.247C13.077 42.1733 13.0371 42.089 13.0155 41.9993C12.9938 41.9096 12.9909 41.8163 13.0069 41.7254C13.4109 39.4087 14.3077 37.2056 15.6366 35.2653C15.689 35.1887 15.7568 35.1237 15.8356 35.0745C15.9144 35.0253 16.0026 34.993 16.0945 34.9796C16.1864 34.9662 16.2802 34.972 16.3697 34.9967C16.4593 35.0214 16.5428 35.0643 16.6149 35.1229L25.741 42.5256C25.8486 42.6131 25.9265 42.7318 25.964 42.8654C26.0015 42.999 25.9968 43.1409 25.9504 43.2716C25.904 43.4024 25.8183 43.5156 25.705 43.5956C25.5917 43.6757 25.4564 43.7188 25.3177 43.7189ZM14.4729 41.2497L23.1401 42.1467L16.3488 36.6373C15.4715 38.0598 14.8375 39.6187 14.4729 41.2497ZM30.8539 41.9633C30.7601 41.9632 30.6673 41.9434 30.5816 41.9053C30.4958 41.8672 30.419 41.8115 30.3561 41.7419C30.2932 41.6722 30.2455 41.5902 30.2163 41.501C30.187 41.4119 30.1767 41.3176 30.1861 41.2242L31.4741 28.8617C31.4836 28.7701 31.512 28.6814 31.5573 28.6012C31.6026 28.5209 31.6639 28.4509 31.7375 28.3954C31.811 28.3399 31.8952 28.3001 31.9848 28.2785C32.0743 28.2569 32.1674 28.2539 32.2581 28.2698C34.7045 28.6962 37.022 29.6726 39.036 31.1253C39.1103 31.1786 39.1729 31.2466 39.22 31.325C39.2671 31.4034 39.2976 31.4906 39.3098 31.5812C39.322 31.6719 39.3156 31.7641 39.2909 31.8521C39.2663 31.9402 39.2239 32.0223 39.1664 32.0934L31.3766 41.7133C31.3136 41.7912 31.234 41.854 31.1435 41.8972C31.0531 41.9403 30.9541 41.9627 30.8539 41.9626V41.9633ZM32.7352 29.7351L31.7569 39.1085L37.6694 31.8133C36.162 30.83 34.4903 30.1255 32.7338 29.7331L32.7352 29.7351ZM27.8782 41.9411C27.7783 41.941 27.6796 41.9187 27.5894 41.8757C27.4992 41.8327 27.4198 41.7701 27.3568 41.6925L19.5577 32.0934C19.4999 32.0223 19.4573 31.9402 19.4324 31.852C19.4076 31.7638 19.401 31.6715 19.4132 31.5807C19.4253 31.4899 19.4559 31.4025 19.5031 31.324C19.5502 31.2454 19.6129 31.1773 19.6874 31.1239C21.7021 29.6713 24.0203 28.695 26.4673 28.2684C26.558 28.2526 26.651 28.2555 26.7405 28.277C26.83 28.2986 26.9142 28.3383 26.9877 28.3938C27.0612 28.4492 27.1226 28.5192 27.1679 28.5994C27.2133 28.6795 27.2417 28.7681 27.2513 28.8597L28.546 41.1987C28.5554 41.292 28.5451 41.3864 28.5159 41.4755C28.4866 41.5647 28.4389 41.6467 28.376 41.7163C28.3131 41.786 28.2363 41.8416 28.1506 41.8798C28.0648 41.9179 27.972 41.9376 27.8782 41.9377V41.9411ZM21.0613 31.8126L26.9738 39.091L25.9929 29.7331C24.2379 30.1258 22.5676 30.8301 21.0613 31.8126Z" fill="#2F3A5A"/>
<path d="M29.5791 51.0758C33.0085 51.0758 35.7886 48.2957 35.7886 44.8663C35.7886 41.4369 33.0085 38.6569 29.5791 38.6569C26.1497 38.6569 23.3696 41.4369 23.3696 44.8663C23.3696 48.2957 26.1497 51.0758 29.5791 51.0758Z" fill="#C1CDD3"/>
<path d="M29.5784 51.7477C28.2175 51.7475 26.8871 51.3439 25.7556 50.5877C24.6241 49.8315 23.7422 48.7568 23.2214 47.4994C22.7007 46.242 22.5645 44.8585 22.83 43.5237C23.0956 42.1889 23.7509 40.9628 24.7133 40.0005C25.6756 39.0382 26.9017 38.3828 28.2365 38.1172C29.5712 37.8517 30.9548 37.9879 32.2122 38.5087C33.4695 39.0294 34.5443 39.9113 35.3004 41.0428C36.0566 42.1744 36.4603 43.5047 36.4604 44.8657C36.4587 46.6903 35.733 48.4398 34.4428 49.73C33.1525 51.0203 31.4031 51.7459 29.5784 51.7477ZM29.5784 39.3287C28.4832 39.3287 27.4126 39.6535 26.5019 40.262C25.5913 40.8705 24.8815 41.7353 24.4624 42.7472C24.0432 43.7591 23.9336 44.8725 24.1472 45.9467C24.3609 47.0209 24.8883 48.0076 25.6628 48.782C26.4372 49.5564 27.4239 50.0839 28.4981 50.2975C29.5723 50.5112 30.6857 50.4015 31.6976 49.9824C32.7094 49.5633 33.5743 48.8535 34.1828 47.9429C34.7912 47.0322 35.116 45.9616 35.116 44.8663C35.1144 43.3982 34.5305 41.9906 33.4923 40.9524C32.4542 39.9143 31.0466 39.3303 29.5784 39.3287Z" fill="#2F3A5A"/>
</svg>
