<svg width="64" height="64" viewBox="0 0 64 64" fill="none" xmlns="http://www.w3.org/2000/svg">
<path d="M3.51937 59.125H8.49212C8.72382 59.125 8.94606 59.0331 9.11009 58.8695C9.27413 58.7058 9.36656 58.4838 9.36712 58.2521L9.39213 47.875H16.0193C16.1332 47.8746 16.2459 47.8516 16.3508 47.8073C16.4557 47.7629 16.5508 47.6982 16.6304 47.6167C16.7101 47.5353 16.7727 47.4388 16.8147 47.333C16.8568 47.2271 16.8773 47.1139 16.8751 47V44.5C16.8773 44.3861 16.8568 44.273 16.8148 44.1671C16.7728 44.0612 16.7101 43.9647 16.6305 43.8833C16.5508 43.8019 16.4558 43.7371 16.3509 43.6928C16.246 43.6484 16.1333 43.6254 16.0194 43.625H7.50012V5.75C7.49576 5.51597 7.39954 5.29304 7.23223 5.12933C7.06492 4.96562 6.83995 4.87427 6.60587 4.875H3.51937C3.2853 4.87427 3.06032 4.96562 2.89301 5.12933C2.72571 5.29304 2.62949 5.51597 2.62512 5.75V58.25C2.62949 58.484 2.72571 58.707 2.89301 58.8707C3.06032 59.0344 3.2853 59.1257 3.51937 59.125V59.125ZM4.37512 6.625H5.75012V43.625H4.37512V6.625ZM4.37512 45.375H15.1251V46.125H8.51937C8.28768 46.125 8.06544 46.2169 7.90141 46.3805C7.73737 46.5442 7.64494 46.7662 7.64437 46.9979L7.61912 57.375H4.37512V45.375Z" fill="#B3ACA2"/>
<path d="M47.1249 44.5V47C47.1228 47.1139 47.1433 47.2271 47.1853 47.3329C47.2273 47.4388 47.2899 47.5353 47.3696 47.6167C47.4492 47.6981 47.5442 47.7629 47.6492 47.8072C47.7541 47.8516 47.8668 47.8746 47.9807 47.875H54.6078L54.6328 58.2521C54.6333 58.4838 54.7258 58.7058 54.8898 58.8695C55.0539 59.0331 55.2761 59.125 55.5078 59.125H60.4805C60.7146 59.1258 60.9396 59.0344 61.107 58.8707C61.2743 58.707 61.3706 58.4841 61.3749 58.25V5.75C61.3706 5.51597 61.2743 5.29304 61.107 5.12933C60.9397 4.96562 60.7147 4.87427 60.4807 4.875H57.3942C57.1601 4.87427 56.9351 4.96562 56.7678 5.12933C56.6005 5.29304 56.5043 5.51597 56.4999 5.75V43.625H47.9807C47.8668 43.6254 47.7541 43.6484 47.6492 43.6928C47.5442 43.7371 47.4492 43.8019 47.3696 43.8833C47.2899 43.9647 47.2273 44.0612 47.1853 44.1671C47.1433 44.273 47.1228 44.3861 47.1249 44.5V44.5ZM58.2499 6.625H59.6249V43.625H58.2499V6.625ZM48.8749 45.375H59.6249V57.375H56.3809L56.3559 46.9979C56.3554 46.7662 56.2629 46.5442 56.0989 46.3805C55.9348 46.2169 55.7126 46.125 55.4809 46.125H48.8749V45.375Z" fill="#B3ACA2"/>
<path d="M21.1529 28.6259C21.6102 30.0256 23.1218 31.125 24.594 31.125H39.3545C40.8224 31.125 42.342 30.0334 42.8154 28.6435L43.4745 26.704C43.5193 26.5684 43.5321 26.4242 43.5118 26.2829C43.4915 26.1415 43.4387 26.0068 43.3575 25.8892C43.2778 25.7731 43.1719 25.6774 43.0483 25.6098C42.9247 25.5422 42.787 25.5046 42.6462 25.5H21.3544C21.2146 25.5052 21.0778 25.5427 20.9549 25.6095C20.8319 25.6763 20.726 25.7706 20.6455 25.885C20.565 25.9995 20.512 26.131 20.4907 26.2693C20.4694 26.4076 20.4803 26.549 20.5227 26.6824L21.1529 28.6259ZM41.4244 27.25L41.1587 28.0571C40.9287 28.7333 40.0687 29.375 39.3545 29.375H24.594C23.8715 29.375 23.0408 28.7465 22.8164 28.0597L22.5605 27.25H41.4244Z" fill="#B3ACA2"/>
<path d="M12.2501 37.3225V40.5285C12.2506 40.7727 12.2994 41.0144 12.3937 41.2397C12.488 41.4649 12.626 41.6693 12.7997 41.841C12.9734 42.0126 13.1794 42.1482 13.4058 42.2399C13.6321 42.3315 13.8744 42.3774 14.1186 42.375H17.1902C17.4314 42.3762 17.6703 42.329 17.8928 42.2362C18.1154 42.1434 18.317 42.0068 18.4858 41.8346C18.6546 41.6624 18.7871 41.4581 18.8754 41.2337C18.9638 41.0094 19.0062 40.7696 19.0001 40.5285V37.625H44.7501V40.5285C44.7476 40.7713 44.7934 41.0121 44.885 41.2369C44.9766 41.4618 45.112 41.6661 45.2835 41.838C45.4549 42.0099 45.6588 42.146 45.8834 42.2382C46.108 42.3304 46.3487 42.3769 46.5915 42.375H49.8819C50.1261 42.3774 50.3683 42.3315 50.5946 42.2398C50.821 42.1481 51.0269 42.0125 51.2006 41.8409C51.3743 41.6692 51.5122 41.4649 51.6066 41.2396C51.7009 41.0144 51.7497 40.7727 51.7501 40.5285V37.3225C52.635 36.9605 53.3924 36.344 53.9265 35.5511C54.4606 34.7582 54.7472 33.8245 54.7501 32.8685V26.8099C54.7501 25.5808 54.0821 24.1599 52.9626 23.0079C52.3482 22.3759 50.6667 21.1138 49.9501 20.5841C49.7451 19.307 49.0171 14.9249 48.4221 13.3281C47.4585 10.7392 45.4376 9.125 43.148 9.125H20.9001C18.5654 9.125 16.4216 10.8229 15.5657 13.3413C15.0262 14.9295 14.2805 19.2268 14.0589 20.5413C13.3872 21.0493 11.6075 22.4116 11.0339 22.9947C10.1751 23.8681 9.25012 25.4358 9.25012 26.8099V32.8685C9.25297 33.8245 9.53961 34.7582 10.0737 35.5511C10.6078 36.344 11.3653 36.9606 12.2501 37.3225V37.3225ZM17.2501 40.5285C17.2501 40.595 17.2567 40.625 17.1902 40.625H14.1186C14.0521 40.625 14.0001 40.595 14.0001 40.5285V37.6764C14.0001 37.6764 14.0389 37.625 14.0595 37.625H17.2501V40.5285ZM50.0001 40.5285C50.0001 40.595 49.9484 40.625 49.8819 40.625H46.5915C46.525 40.625 46.5001 40.595 46.5001 40.5285V37.625H49.9407C49.9615 37.625 50.0001 37.6766 50.0001 37.6764V40.5285ZM53.0001 27.2965V29.375H46.0644C46.1159 29.1354 46.209 28.9066 46.3394 28.699C46.9644 27.7951 47.9874 27.3374 49.4654 27.3005C50.0207 27.2864 51.9021 27.2916 53.0001 27.2965ZM17.2229 13.9043C17.8376 12.096 19.3152 10.875 20.9001 10.875H43.148C44.7105 10.875 46.0696 12.0241 46.7827 13.9391C47.2511 15.196 47.854 18.6312 48.1285 20.2839C45.6555 20.5201 38.5936 21.1339 31.817 21.1339C25.0805 21.1339 18.2926 20.5265 15.8779 20.2879C16.1645 18.6307 16.7866 15.1884 17.2229 13.9043ZM11.0001 27.2966C12.0799 27.2919 13.9736 27.286 14.5355 27.3002C16.0132 27.3377 17.0355 27.7951 17.6612 28.699C17.7927 28.906 17.8858 29.135 17.9362 29.375H11.0001V27.2966ZM11.0001 31.125H18.9269C19.1589 31.125 19.3815 31.0328 19.5456 30.8687C19.7097 30.7046 19.8019 30.4821 19.8019 30.25C19.8019 30.0931 19.7822 28.6887 19.1002 27.7034C18.1475 26.3266 16.6264 25.6026 14.5794 25.5514C14.0514 25.538 12.4675 25.5413 11.3604 25.5456C11.5987 25.0608 11.9093 24.6151 12.2816 24.2237C12.7182 23.78 14.2582 22.5894 15.0764 21.9692C16.6934 22.138 24.2836 22.8854 31.817 22.8854C39.315 22.8854 47.1545 22.145 48.8834 21.972C49.6949 22.572 51.226 23.7319 51.7084 24.228C52.0899 24.6162 52.4099 25.0605 52.6571 25.5455C51.5379 25.5412 49.9469 25.538 49.4211 25.5513C47.374 25.6024 45.8529 26.3262 44.9001 27.703C44.2181 28.6885 44.1985 30.0931 44.1985 30.25C44.1985 30.4821 44.2907 30.7046 44.4548 30.8687C44.6189 31.0328 44.8414 31.125 45.0735 31.125H53.0001V32.8685C52.9986 33.2674 52.9181 33.662 52.7632 34.0295C52.6082 34.3971 52.382 34.7303 52.0975 35.0099C51.813 35.2894 51.4759 35.5098 51.1057 35.6583C50.7355 35.8068 50.3396 35.8805 49.9407 35.875H14.0595C13.6607 35.8805 13.2647 35.8068 12.8945 35.6583C12.5243 35.5098 12.1872 35.2894 11.9027 35.0099C11.6182 34.7303 11.392 34.3971 11.2371 34.0295C11.0821 33.662 11.0016 33.2674 11.0001 32.8685V31.125Z" fill="#B3ACA2"/>
<path d="M38.4525 31.875H25.548C25.316 31.875 25.0934 31.9672 24.9293 32.1313C24.7652 32.2954 24.673 32.5179 24.673 32.75C24.673 32.9821 24.7652 33.2046 24.9293 33.3687C25.0934 33.5328 25.316 33.625 25.548 33.625H38.4525C38.6846 33.625 38.9071 33.5328 39.0712 33.3687C39.2353 33.2046 39.3275 32.9821 39.3275 32.75C39.3275 32.5179 39.2353 32.2954 39.0712 32.1313C38.9071 31.9672 38.6846 31.875 38.4525 31.875V31.875Z" fill="#B3ACA2"/>
</svg>
