<svg width="64" height="64" viewBox="0 0 64 64" fill="none" xmlns="http://www.w3.org/2000/svg">
<path d="M32.0001 6C17.7326 6 6.12512 17.6074 6.12512 31.875C6.12512 32.1071 6.21731 32.3296 6.3814 32.4937C6.5455 32.6578 6.76806 32.75 7.00012 32.75H27.924C28.1561 32.75 28.3786 32.6578 28.5427 32.4937C28.7068 32.3296 28.799 32.1071 28.799 31.875C28.799 31.026 29.1363 30.2118 29.7366 29.6115C30.3369 29.0111 31.1511 28.6739 32.0001 28.6739C32.8491 28.6739 33.6633 29.0111 34.2637 29.6115C34.864 30.2118 35.2012 31.026 35.2012 31.875C35.2012 32.1071 35.2934 32.3296 35.4575 32.4937C35.6216 32.6578 35.8442 32.75 36.0762 32.75H57.0001C57.2322 32.75 57.4547 32.6578 57.6188 32.4937C57.7829 32.3296 57.8751 32.1071 57.8751 31.875C57.8751 17.6074 46.2676 6 32.0001 6ZM49.2202 20.008C49.2818 20.105 49.3619 20.1889 49.456 20.255C49.55 20.321 49.6561 20.3679 49.7683 20.393C49.8804 20.418 49.9964 20.4207 50.1096 20.4009C50.2228 20.3811 50.331 20.3392 50.428 20.2776L52.4065 19.021C53.4431 20.6602 54.2775 22.4188 54.8914 24.2585L52.3789 24.8676C52.2672 24.8947 52.162 24.9435 52.0691 25.0113C51.9763 25.079 51.8978 25.1644 51.838 25.2625C51.7782 25.3607 51.7383 25.4696 51.7206 25.5831C51.7028 25.6967 51.7077 25.8126 51.7347 25.9242C51.7618 26.0359 51.8106 26.1412 51.8784 26.234C51.9462 26.3268 52.0315 26.4053 52.1297 26.4651C52.2278 26.525 52.3367 26.5649 52.4502 26.5826C52.5638 26.6003 52.6797 26.5955 52.7914 26.5684L55.3851 25.9396C55.806 27.596 56.049 29.2925 56.1101 31.0004H36.8737C36.6684 29.8573 36.0678 28.8227 35.1769 28.0776C34.286 27.3324 33.1615 26.9242 32.0001 26.9242C30.8387 26.9242 29.7142 27.3324 28.8233 28.0776C27.9325 28.8227 27.3318 29.8573 27.1265 31.0004H7.89075C7.95183 29.2925 8.19487 27.596 8.61575 25.9396L11.2095 26.5684C11.3212 26.5955 11.4371 26.6003 11.5506 26.5826C11.6642 26.5649 11.7731 26.525 11.8712 26.4651C11.9693 26.4053 12.0547 26.3268 12.1225 26.234C12.1902 26.1412 12.239 26.0359 12.2661 25.9242C12.2932 25.8126 12.298 25.6967 12.2803 25.5831C12.2626 25.4696 12.2227 25.3607 12.1629 25.2625C12.1031 25.1644 12.0245 25.079 11.9317 25.0113C11.8389 24.9435 11.7337 24.8947 11.622 24.8676L9.1095 24.2585C9.7447 22.3551 10.6157 20.5387 11.7021 18.8517L13.9479 20.278C14.1437 20.3975 14.3786 20.4352 14.602 20.3832C14.8254 20.3312 15.0195 20.1935 15.1424 19.9998C15.2653 19.8062 15.3072 19.572 15.2591 19.3477C15.2111 19.1234 15.0769 18.9269 14.8854 18.8006L12.7026 17.4141C13.927 15.784 15.3514 14.3141 16.9422 13.0391L18.5852 15.0834C18.7307 15.2643 18.942 15.38 19.1727 15.4051C19.4034 15.4302 19.6347 15.3626 19.8156 15.2172C19.9965 15.0718 20.1122 14.8605 20.1373 14.6297C20.1624 14.399 20.0948 14.1678 19.9494 13.9869L18.348 11.9948C19.9444 10.8947 21.6678 9.99141 23.4807 9.30462L24.2942 11.5394C24.3336 11.6474 24.3937 11.7465 24.4714 11.8313C24.549 11.916 24.6426 11.9846 24.7467 12.0331C24.8509 12.0817 24.9636 12.1093 25.0784 12.1143C25.1932 12.1193 25.3078 12.1016 25.4158 12.0623C25.5238 12.023 25.623 11.9628 25.7077 11.8852C25.7924 11.8075 25.861 11.714 25.9096 11.6098C25.9581 11.5057 25.9857 11.393 25.9907 11.2782C25.9957 11.1634 25.9781 11.0487 25.9387 10.9408L25.1274 8.745C27.117 8.15322 29.1752 7.82295 31.2501 7.7625V10C31.2501 10.2321 31.3423 10.4546 31.5064 10.6187C31.6705 10.7828 31.8931 10.875 32.1251 10.875C32.3572 10.875 32.5797 10.7828 32.7438 10.6187C32.9079 10.4546 33.0001 10.2321 33.0001 10V7.77313C35.1296 7.85433 37.2381 8.22468 39.2677 8.874L38.4302 11.1908C38.3509 11.4096 38.3617 11.6509 38.4602 11.8618C38.5588 12.0726 38.7371 12.2357 38.9559 12.3151C39.1747 12.3944 39.4161 12.3837 39.627 12.2851C39.8378 12.1865 40.0009 12.0082 40.0802 11.7894L40.9271 9.46437C42.7124 10.1785 44.4058 11.1037 45.9712 12.2203L44.5509 13.9875C44.4055 14.1684 44.3379 14.3996 44.363 14.6303C44.388 14.861 44.5037 15.0723 44.6846 15.2177C44.8655 15.3632 45.0967 15.4308 45.3274 15.4057C45.5582 15.3806 45.7695 15.2649 45.9149 15.084L47.3594 13.2869C48.8814 14.5462 50.2444 15.9862 51.4184 17.575L49.4899 18.8C49.3928 18.8616 49.3089 18.9417 49.2428 19.0358C49.1767 19.1298 49.1298 19.236 49.1048 19.3481C49.0798 19.4603 49.0771 19.5763 49.0969 19.6896C49.1167 19.8028 49.1586 19.911 49.2202 20.008V20.008Z" fill="#B3ACA2"/>
<path d="M32.0002 2.37511C26.1409 2.37513 20.4132 4.11261 15.5414 7.36785C10.6696 10.6231 6.87253 15.2499 4.63029 20.6631C2.38805 26.0764 1.80138 32.033 2.94446 37.7796C4.08754 43.5263 6.90903 48.805 11.0521 52.9481C13.8012 55.7077 17.0674 57.8981 20.664 59.3938C24.2605 60.8896 28.1167 61.6615 32.0119 61.6652C35.9071 61.6689 39.7648 60.9045 43.3642 59.4156C46.9635 57.9267 50.234 55.7426 52.9883 52.9883C55.7426 50.2339 57.9267 46.9635 59.4156 43.3641C60.9045 39.7647 61.669 35.907 61.6652 32.0119C61.6615 28.1167 60.8897 24.2605 59.3939 20.6639C57.8981 17.0674 55.7077 13.8011 52.9482 11.0521C50.2036 8.29253 46.939 6.10471 43.3433 4.6153C39.7476 3.12589 35.8921 2.36447 32.0002 2.37511V2.37511ZM51.7108 51.7107C46.4832 56.9383 39.3931 59.8751 32.0002 59.8751C24.6072 59.8751 17.5171 56.9383 12.2895 51.7107C7.06194 46.4832 4.12512 39.393 4.12512 32.0001C4.12512 24.6072 7.06194 17.5171 12.2895 12.2895C17.5171 7.0619 24.6072 4.12508 32.0002 4.12508C39.3931 4.12508 46.4832 7.0619 51.7108 12.2895C56.9384 17.5171 59.8752 24.6072 59.8752 32.0001C59.8752 39.393 56.9384 46.4832 51.7108 51.7107V51.7107Z" fill="#B3ACA2"/>
<path d="M32.0001 30.875C31.4562 30.875 30.9245 31.0363 30.4723 31.3385C30.0201 31.6406 29.6676 32.0701 29.4595 32.5726C29.2513 33.0751 29.1969 33.6281 29.303 34.1615C29.4091 34.6949 29.671 35.185 30.0556 35.5695C30.4402 35.9541 30.9302 36.2161 31.4636 36.3222C31.9971 36.4283 32.55 36.3738 33.0525 36.1657C33.555 35.9575 33.9845 35.6051 34.2867 35.1528C34.5888 34.7006 34.7501 34.1689 34.7501 33.625C34.7493 32.8959 34.4593 32.1969 33.9438 31.6814C33.4282 31.1658 32.7292 30.8758 32.0001 30.875V30.875ZM32.0001 34.625C31.8023 34.625 31.609 34.5664 31.4446 34.4565C31.2801 34.3466 31.1519 34.1904 31.0762 34.0077C31.0006 33.825 30.9808 33.6239 31.0193 33.4299C31.0579 33.2359 31.1532 33.0577 31.293 32.9179C31.4329 32.778 31.6111 32.6828 31.805 32.6442C31.999 32.6056 32.2001 32.6254 32.3828 32.7011C32.5655 32.7768 32.7217 32.905 32.8316 33.0694C32.9415 33.2339 33.0001 33.4272 33.0001 33.625C32.9998 33.8901 32.8944 34.1443 32.7069 34.3318C32.5194 34.5193 32.2652 34.6247 32.0001 34.625Z" fill="#B3ACA2"/>
<path d="M47.1493 22.7593C47.3082 22.6274 47.4154 22.4436 47.4518 22.2403C47.4882 22.037 47.4515 21.8274 47.3482 21.6486C47.245 21.4697 47.0818 21.3332 46.8875 21.263C46.6933 21.1929 46.4805 21.1938 46.2868 21.2654L36.6433 24.8124C36.5236 24.8564 36.415 24.9261 36.325 25.0165C36.2351 25.1069 36.166 25.2159 36.1226 25.3359C36.0792 25.4558 36.0626 25.5838 36.0738 25.7108C36.0851 25.8378 36.124 25.9609 36.1878 26.0713L37.9378 29.1024C38.0015 29.2129 38.0886 29.3081 38.193 29.3814C38.2974 29.4546 38.4166 29.5042 38.5421 29.5266C38.6677 29.549 38.7966 29.5436 38.9199 29.5109C39.0432 29.4783 39.1578 29.419 39.2558 29.3374L47.1493 22.7593ZM38.2229 26.0963L42.1398 24.6556L38.9337 27.3274L38.2229 26.0963Z" fill="#B3ACA2"/>
</svg>
