<svg width="64" height="64" viewBox="0 0 64 64" fill="none" xmlns="http://www.w3.org/2000/svg">
<path d="M19.2128 42.2431C19.2345 42.2448 19.2562 42.2455 19.2778 42.2455C19.5098 42.2454 19.7324 42.1533 19.8965 41.9893L26.8965 34.9893C27.0189 34.8673 27.1022 34.7117 27.136 34.5423C27.1697 34.3728 27.1524 34.1972 27.0862 34.0376C27.0199 33.8781 26.9078 33.7418 26.764 33.6461C26.6202 33.5504 26.4512 33.4995 26.2784 33.5H16.3753C16.2495 33.4995 16.1252 33.5262 16.0107 33.5783C15.8962 33.6303 15.7944 33.7066 15.7122 33.8017C15.63 33.8969 15.5694 34.0087 15.5345 34.1295C15.4996 34.2504 15.4912 34.3773 15.51 34.5016C15.9154 37.1776 16.9676 39.7142 18.5753 41.8914C18.6501 41.9923 18.7457 42.076 18.8557 42.1367C18.9657 42.1974 19.0875 42.2337 19.2128 42.2431V42.2431ZM24.1659 35.25L19.4034 40.0125C18.484 38.5463 17.8165 36.9366 17.4284 35.25H24.1659Z" fill="#B3ACA2"/>
<path d="M29.9625 36.9137C29.8028 36.8475 29.6271 36.8302 29.4576 36.864C29.288 36.8977 29.1323 36.981 29.0101 37.1034L22.0101 44.1034C21.9212 44.1924 21.8525 44.2996 21.8087 44.4176C21.7649 44.5356 21.7471 44.6617 21.7565 44.7872C21.7659 44.9127 21.8023 45.0347 21.8631 45.1449C21.924 45.2551 22.0079 45.3508 22.1091 45.4256C24.2868 47.0331 26.8238 48.0852 29.5 48.4905C29.5431 48.497 29.5867 48.5002 29.6303 48.5002C29.7449 48.5 29.8583 48.4772 29.9641 48.4331C30.0698 48.389 30.1659 48.3244 30.2467 48.2432C30.3275 48.1619 30.3914 48.0655 30.4349 47.9594C30.4784 47.8534 30.5005 47.7398 30.5 47.6252V37.7221C30.5006 37.5493 30.4497 37.3802 30.3541 37.2363C30.2584 37.0924 30.1221 36.9801 29.9625 36.9137V36.9137ZM28.75 46.5727C27.0635 46.1846 25.4537 45.5171 23.9875 44.5977L28.75 39.8352V46.5727Z" fill="#B3ACA2"/>
<path d="M34.9891 37.1028C34.8671 36.9805 34.7114 36.8972 34.542 36.8634C34.3725 36.8297 34.1969 36.8471 34.0373 36.9134C33.8777 36.9797 33.7415 37.0919 33.6458 37.2358C33.5502 37.3797 33.4994 37.5488 33.5001 37.7216V47.6247C33.4995 47.7504 33.5261 47.8748 33.5782 47.9892C33.6302 48.1037 33.7064 48.2055 33.8015 48.2877C33.8966 48.3699 34.0084 48.4305 34.1291 48.4655C34.2499 48.5004 34.3768 48.5087 34.5011 48.49C37.177 48.0847 39.7136 47.0328 41.8911 45.4255C41.9923 45.3506 42.0761 45.2548 42.1369 45.1446C42.1977 45.0344 42.234 44.9124 42.2433 44.7869C42.2527 44.6614 42.2348 44.5353 42.191 44.4173C42.1472 44.2994 42.0784 44.1922 41.9894 44.1032L34.9891 37.1028ZM35.2501 46.5722V39.834L40.0126 44.5965C38.5464 45.5161 36.9367 46.1839 35.2501 46.5722V46.5722Z" fill="#B3ACA2"/>
<path d="M16.3751 30.4998H26.2782C26.4511 30.5003 26.6203 30.4494 26.7642 30.3537C26.9081 30.2579 27.0204 30.1215 27.0867 29.9618C27.1529 29.8022 27.1703 29.6264 27.1365 29.4569C27.1028 29.2873 27.0194 29.1316 26.897 29.0095L19.897 22.0095C19.808 21.9205 19.7008 21.8518 19.5828 21.808C19.4648 21.7643 19.3387 21.7465 19.2132 21.7559C19.0877 21.7652 18.9657 21.8016 18.8555 21.8624C18.7453 21.9233 18.6495 22.0072 18.5747 22.1084C16.967 24.2862 15.915 26.8233 15.5099 29.4998C15.4913 29.624 15.4998 29.7508 15.5348 29.8714C15.5698 29.992 15.6305 30.1036 15.7127 30.1986C15.7949 30.2936 15.8966 30.3697 16.011 30.4217C16.1253 30.4736 16.2495 30.5003 16.3751 30.4998V30.4998ZM19.403 23.9873L24.1655 28.7498H17.428C17.816 27.0632 18.4836 25.4535 19.403 23.9873V23.9873Z" fill="#B3ACA2"/>
<path d="M29.011 26.8968C29.0923 26.9781 29.1888 27.0426 29.295 27.0866C29.4012 27.1306 29.5151 27.1532 29.63 27.1532C29.744 27.1531 29.8569 27.1305 29.9621 27.0865C30.1217 27.0201 30.258 26.9079 30.3536 26.764C30.4493 26.6201 30.5001 26.451 30.4996 26.2782V16.375C30.5002 16.2493 30.4735 16.1249 30.4214 16.0105C30.3693 15.896 30.2931 15.7942 30.1979 15.712C30.1027 15.6298 29.9909 15.5691 29.8701 15.5342C29.7493 15.4993 29.6223 15.491 29.498 15.5098C26.8222 15.9151 24.2856 16.967 22.1083 18.5743C22.0071 18.6492 21.9233 18.745 21.8625 18.8552C21.8017 18.9654 21.7655 19.0874 21.7562 19.213C21.7469 19.3385 21.7648 19.4645 21.8086 19.5825C21.8525 19.7004 21.9212 19.8076 22.0103 19.8965L29.011 26.8968ZM28.75 17.4275V24.1657L23.9875 19.4032C25.4537 18.4836 27.0634 17.8158 28.75 17.4275V17.4275Z" fill="#B3ACA2"/>
<path d="M34.0376 27.0863C34.1972 27.1526 34.3728 27.1699 34.5423 27.1361C34.7117 27.1023 34.8673 27.019 34.9893 26.8966L41.9893 19.8966C42.0783 19.8076 42.1471 19.7004 42.1909 19.5824C42.2346 19.4644 42.2525 19.3383 42.2431 19.2128C42.2338 19.0873 42.1974 18.9653 42.1366 18.8551C42.0758 18.7449 41.9919 18.6491 41.8907 18.5743C39.7131 16.9669 37.1762 15.9149 34.5001 15.5096C34.3758 15.491 34.2491 15.4995 34.1285 15.5345C34.0078 15.5695 33.8962 15.6302 33.8012 15.7124C33.7063 15.7946 33.6302 15.8963 33.5782 16.0107C33.5262 16.125 33.4996 16.2492 33.5001 16.3748V26.2779C33.4996 26.4508 33.5504 26.6198 33.6461 26.7637C33.7417 26.9077 33.878 27.0199 34.0376 27.0863V27.0863ZM35.2501 17.4273C36.9366 17.8154 38.5463 18.483 40.0126 19.4023L35.2501 24.1648V17.4273Z" fill="#B3ACA2"/>
<path d="M36.9138 29.9623C36.9802 30.1218 37.0925 30.2581 37.2364 30.3537C37.3802 30.4494 37.5493 30.5002 37.7221 30.4998H47.6252C47.751 30.5003 47.8753 30.4736 47.9898 30.4215C48.1043 30.3694 48.2061 30.2932 48.2883 30.198C48.3705 30.1029 48.4311 29.991 48.466 29.8702C48.5009 29.7494 48.5093 29.6225 48.4905 29.4981C48.0853 26.8223 47.0333 24.2856 45.4258 22.1084C45.351 22.0072 45.2552 21.9234 45.1449 21.8626C45.0347 21.8019 44.9127 21.7656 44.7872 21.7563C44.6617 21.747 44.5356 21.7649 44.4177 21.8087C44.2997 21.8526 44.1926 21.9214 44.1036 22.0104L37.1036 29.0095C36.9812 29.1317 36.8978 29.2874 36.864 29.4571C36.8302 29.6267 36.8476 29.8025 36.9138 29.9623V29.9623ZM44.5973 23.9873C45.5167 25.4535 46.1843 27.0632 46.5723 28.7498H39.8348L44.5973 23.9873Z" fill="#B3ACA2"/>
<path d="M47.6249 33.5H37.7218C37.5489 33.4995 37.3798 33.5503 37.2358 33.6461C37.0919 33.7419 36.9797 33.8783 36.9134 34.0379C36.8471 34.1976 36.8297 34.3734 36.8635 34.5429C36.8973 34.7125 36.9806 34.8682 37.103 34.9903L44.103 41.9903C44.2672 42.1543 44.4898 42.2463 44.7218 42.2463C44.7434 42.2463 44.765 42.2453 44.7868 42.2436C44.9123 42.2343 45.0343 42.1979 45.1445 42.1371C45.2547 42.0763 45.3505 41.9925 45.4253 41.8913C47.033 39.7135 48.0851 37.1764 48.4902 34.5C48.5087 34.3758 48.5002 34.249 48.4652 34.1284C48.4302 34.0077 48.3696 33.8961 48.2874 33.8011C48.2052 33.7061 48.1034 33.6301 47.9891 33.5781C47.8748 33.5261 47.7505 33.4995 47.6249 33.5V33.5ZM44.597 40.0125L39.8345 35.25H46.572C46.184 36.9366 45.5164 38.5463 44.597 40.0125Z" fill="#B3ACA2"/>
<path d="M28.6251 32C28.6251 32.6675 28.8231 33.32 29.1939 33.8751C29.5648 34.4301 30.0919 34.8627 30.7086 35.1181C31.3253 35.3735 32.0039 35.4404 32.6586 35.3102C33.3132 35.1799 33.9146 34.8585 34.3866 34.3865C34.8586 33.9145 35.1801 33.3131 35.3103 32.6584C35.4405 32.0037 35.3737 31.3251 35.1182 30.7084C34.8628 30.0917 34.4302 29.5646 33.8752 29.1938C33.3202 28.8229 32.6676 28.625 32.0001 28.625C31.1053 28.626 30.2475 28.9819 29.6147 29.6146C28.982 30.2473 28.6261 31.1052 28.6251 32V32ZM32.0001 30.375C32.3215 30.375 32.6357 30.4703 32.9029 30.6489C33.1702 30.8274 33.3784 31.0812 33.5014 31.3781C33.6244 31.6751 33.6566 32.0018 33.5939 32.317C33.5312 32.6322 33.3764 32.9218 33.1492 33.1491C32.9219 33.3763 32.6324 33.5311 32.3171 33.5938C32.0019 33.6565 31.6752 33.6243 31.3783 33.5013C31.0813 33.3783 30.8275 33.17 30.649 32.9028C30.4704 32.6356 30.3751 32.3214 30.3751 32C30.3756 31.5692 30.547 31.1561 30.8516 30.8515C31.1563 30.5469 31.5693 30.3755 32.0001 30.375V30.375Z" fill="#B3ACA2"/>
<path d="M32.0001 61.6251C37.8593 61.6251 43.587 59.8876 48.4588 56.6323C53.3306 53.3771 57.1277 48.7503 59.3699 43.3371C61.6122 37.9238 62.1988 31.9672 61.0558 26.2205C59.9127 20.4739 57.0912 15.1952 52.9481 11.0521C50.199 8.29249 46.9328 6.10212 43.3362 4.60634C39.7397 3.11055 35.8835 2.3387 31.9883 2.33497C28.0931 2.33125 24.2355 3.09571 20.6361 4.58461C17.0367 6.07351 13.7662 8.25761 11.0119 11.0119C8.25761 13.7662 6.07351 17.0367 4.58461 20.6361C3.09571 24.2355 2.33125 28.0931 2.33497 31.9883C2.3387 35.8835 3.11055 39.7397 4.60634 43.3363C6.10212 46.9328 8.29249 50.199 11.0521 52.9481C13.7966 55.7077 17.0612 57.8955 20.6569 59.3849C24.2526 60.8743 28.1081 61.6357 32.0001 61.6251V61.6251ZM6.75007 31.1251H4.14007C4.33353 24.3363 7.01776 17.856 11.6813 12.9188L13.5268 14.7643C13.6909 14.9284 13.9135 15.0206 14.1456 15.0206C14.3776 15.0206 14.6002 14.9284 14.7643 14.7643C14.9284 14.6002 15.0206 14.3776 15.0206 14.1456C15.0206 13.9135 14.9284 13.6909 14.7643 13.5268L12.9189 11.6813C17.856 7.01772 24.3363 4.33348 31.1251 4.14007V6.75007C31.1251 6.98213 31.2173 7.20469 31.3813 7.36879C31.5454 7.53288 31.768 7.62507 32.0001 7.62507C32.2321 7.62507 32.4547 7.53288 32.6188 7.36879C32.7829 7.20469 32.8751 6.98213 32.8751 6.75007V4.14007C39.6638 4.33348 46.1441 7.01772 51.0812 11.6813L49.2358 13.5269C49.1546 13.6082 49.0901 13.7047 49.0461 13.8108C49.0022 13.917 48.9795 14.0308 48.9795 14.1457C48.9795 14.2606 49.0022 14.3744 49.0461 14.4806C49.0901 14.5867 49.1546 14.6832 49.2358 14.7644C49.3171 14.8457 49.4135 14.9102 49.5197 14.9541C49.6259 14.9981 49.7397 15.0207 49.8546 15.0207C49.9695 15.0207 50.0833 14.9981 50.1894 14.9541C50.2956 14.9102 50.3921 14.8457 50.4733 14.7644L52.3188 12.9188C56.9824 17.856 59.6666 24.3363 59.8601 31.1251H57.2501C57.018 31.1251 56.7954 31.2173 56.6313 31.3813C56.4673 31.5454 56.3751 31.768 56.3751 32.0001C56.3751 32.2321 56.4673 32.4547 56.6313 32.6188C56.7954 32.7829 57.018 32.8751 57.2501 32.8751H59.8601C59.6666 39.6638 56.9824 46.1441 52.3188 51.0813L50.4733 49.2358C50.3092 49.0717 50.0866 48.9795 49.8546 48.9795C49.6225 48.9795 49.3999 49.0717 49.2358 49.2358C49.0717 49.3999 48.9795 49.6225 48.9795 49.8546C48.9795 50.0866 49.0717 50.3092 49.2358 50.4733L51.0812 52.3189C46.1441 56.9825 39.6638 59.6667 32.8751 59.8601V57.2501C32.8751 57.018 32.7829 56.7954 32.6188 56.6314C32.4547 56.4673 32.2321 56.3751 32.0001 56.3751C31.768 56.3751 31.5454 56.4673 31.3813 56.6314C31.2173 56.7954 31.1251 57.018 31.1251 57.2501V59.8601C24.3363 59.6667 17.856 56.9824 12.9189 52.3188L14.7643 50.4732C14.9284 50.3091 15.0206 50.0865 15.0206 49.8544C15.0206 49.6224 14.9284 49.3998 14.7643 49.2357C14.6002 49.0716 14.3776 48.9794 14.1456 48.9794C13.9135 48.9794 13.6909 49.0716 13.5268 49.2357L11.6813 51.0813C7.01776 46.1441 4.33353 39.6638 4.14007 32.8751H6.75007C6.98213 32.8751 7.20469 32.7829 7.36879 32.6188C7.53288 32.4547 7.62507 32.2321 7.62507 32.0001C7.62507 31.768 7.53288 31.5454 7.36879 31.3813C7.20469 31.2173 6.98213 31.1251 6.75007 31.1251Z" fill="#B3ACA2"/>
<path d="M32.0001 52.875C43.5106 52.875 52.8751 43.5105 52.8751 32C52.8751 20.4895 43.5106 11.125 32.0001 11.125C20.4896 11.125 11.1251 20.4895 11.1251 32C11.1251 43.5105 20.4896 52.875 32.0001 52.875ZM32.0001 12.875C42.5456 12.875 51.1251 21.4545 51.1251 32C51.1251 42.5455 42.5456 51.125 32.0001 51.125C21.4546 51.125 12.8751 42.5455 12.8751 32C12.8751 21.4545 21.4546 12.875 32.0001 12.875Z" fill="#B3ACA2"/>
</svg>
