<svg width="36" height="36" viewBox="0 0 36 36" fill="none" xmlns="http://www.w3.org/2000/svg">
<path d="M27 12H28.5C30.0913 12 31.6174 12.6321 32.7426 13.7574C33.8679 14.8826 34.5 16.4087 34.5 18C34.5 19.5913 33.8679 21.1174 32.7426 22.2426C31.6174 23.3679 30.0913 24 28.5 24H27" stroke="#FACA30" stroke-width="3" stroke-linecap="round" stroke-linejoin="round"/>
<path d="M3 12H27V25.5C27 27.0913 26.3679 28.6174 25.2426 29.7426C24.1174 30.8679 22.5913 31.5 21 31.5H9C7.4087 31.5 5.88258 30.8679 4.75736 29.7426C3.63214 28.6174 3 27.0913 3 25.5V12Z" stroke="#FACA30" stroke-width="3" stroke-linecap="round" stroke-linejoin="round"/>
<path d="M9 1.5V6" stroke="#FACA30" stroke-width="3" stroke-linecap="round" stroke-linejoin="round"/>
<path d="M15 1.5V6" stroke="#FACA30" stroke-width="3" stroke-linecap="round" stroke-linejoin="round"/>
<path d="M21 1.5V6" stroke="#FACA30" stroke-width="3" stroke-linecap="round" stroke-linejoin="round"/>
</svg>
