<svg width="86" height="87" viewBox="0 0 86 87" fill="none" xmlns="http://www.w3.org/2000/svg">
<path d="M47.7397 13.0045L54.9133 1.04517H31.2929C18.2445 1.04382 7.67188 19.994 7.67188 43.3685C7.67188 66.743 18.2445 85.6966 31.2929 85.6966H54.9147L47.7344 73.7466C52.16 66.0537 54.9147 55.2916 54.9147 43.3685C54.9147 31.4454 52.1627 20.6968 47.7397 13.0045Z" fill="#84879C"/>
<path d="M54.9147 86.3687H31.2929C17.8978 86.3687 7 67.0799 7 43.3688C7 19.6577 17.8978 0.368896 31.2929 0.368896H54.9147C55.0335 0.36899 55.1502 0.400592 55.2528 0.46048C55.3554 0.520367 55.4403 0.606398 55.4988 0.709801C55.5574 0.813203 55.5874 0.930278 55.586 1.04909C55.5845 1.1679 55.5515 1.28419 55.4905 1.38611L48.5191 13.0142C53.0791 21.1231 55.5866 31.8798 55.5866 43.3688C55.5866 54.8579 53.0764 65.6273 48.5124 73.7375L55.4905 85.3508C55.5517 85.4528 55.5848 85.5691 55.5864 85.6881C55.5879 85.807 55.5579 85.9242 55.4993 86.0277C55.4408 86.1312 55.3558 86.2173 55.2531 86.2772C55.1504 86.3371 55.0336 86.3687 54.9147 86.3687ZM31.2929 1.716C18.6389 1.716 8.34375 20.4022 8.34375 43.3722C8.34375 66.3422 18.6389 85.0283 31.2929 85.0283H53.7268L47.1586 74.0963C47.0968 73.9936 47.0636 73.8764 47.0624 73.7566C47.0613 73.6368 47.0921 73.5189 47.1518 73.415C51.7246 65.4641 54.2428 54.7954 54.2428 43.3688C54.2428 31.9423 51.7266 21.285 47.1586 13.3361C47.099 13.2323 47.0682 13.1145 47.0694 12.9948C47.0705 12.8752 47.1037 12.758 47.1653 12.6555L53.7281 1.716H31.2929Z" fill="#2F3A5A"/>
<path d="M54.914 85.6969C67.9596 85.6969 78.5351 66.7469 78.5351 43.3708C78.5351 19.9948 67.9596 1.0448 54.914 1.0448C41.8685 1.0448 31.293 19.9948 31.293 43.3708C31.293 66.7469 41.8685 85.6969 54.914 85.6969Z" fill="#9297AB"/>
<path d="M78.5385 43.3686C78.5385 66.7498 67.9632 85.6966 54.9154 85.6966C46.8395 85.6966 39.7109 78.4404 35.4579 67.3679C39.7176 74.8459 45.5562 79.4549 51.986 79.4549C65.0338 79.4549 75.6091 60.5081 75.6091 37.1336C75.6868 28.9475 74.2753 20.8154 71.4435 13.1343C75.8241 20.8138 78.5385 31.5235 78.5385 43.3686Z" fill="#84879C"/>
<path d="M54.9148 86.3687C41.5196 86.3687 30.6218 67.0799 30.6218 43.3688C30.6218 19.6577 41.5196 0.368896 54.9148 0.368896C68.3099 0.368896 79.2077 19.6577 79.2077 43.3688C79.2077 67.0799 68.3099 86.3687 54.9148 86.3687ZM54.9148 1.716C42.2607 1.716 31.9656 20.4022 31.9656 43.3722C31.9656 66.3422 42.2607 85.0283 54.9148 85.0283C67.5688 85.0283 77.864 66.3422 77.864 43.3722C77.864 20.4022 67.5688 1.716 54.9148 1.716Z" fill="#2F3A5A"/>
<path d="M56.3735 68.3408C62.6344 68.3408 67.71 57.1612 67.71 43.3706C67.71 29.5799 62.6344 18.4004 56.3735 18.4004C50.1125 18.4004 45.0369 29.5799 45.0369 43.3706C45.0369 57.1612 50.1125 68.3408 56.3735 68.3408Z" fill="#D9E2E9"/>
<path d="M56.3735 69.0128C49.64 69.0128 44.3651 57.7468 44.3651 43.3687C44.3651 28.9906 49.64 17.728 56.3735 17.728C63.107 17.728 68.3826 28.9906 68.3826 43.3687C68.3826 57.7468 63.107 69.0128 56.3735 69.0128ZM56.3735 19.0718C50.5954 19.0718 45.7089 30.1993 45.7089 43.3701C45.7089 56.5408 50.5927 67.6691 56.3735 67.6691C62.1543 67.6691 67.0388 56.5415 67.0388 43.3687C67.0388 30.196 62.1543 19.0718 56.3735 19.0718Z" fill="#2F3A5A"/>
<path d="M67.7071 43.3686C67.7071 57.1621 62.6385 68.3381 56.3733 68.3381C54.138 68.3381 52.0525 66.909 50.3076 64.4493C53.7644 60.1782 56.1072 52.0102 56.1072 42.6456C56.1072 33.7769 54.013 25.9939 50.8478 21.5649C52.4845 19.554 54.3711 18.399 56.3733 18.399C62.6385 18.3984 67.7071 29.5831 67.7071 43.3686Z" fill="#F0F5F9"/>
<path d="M56.3733 69.0095C53.9828 69.0095 51.6957 67.567 49.7594 64.8379L49.4644 64.4226L49.7849 64.0269C53.2706 59.7209 55.4354 51.5301 55.4354 42.6459C55.4354 34.1883 53.5158 26.4537 50.3009 21.9562L50.0026 21.539L50.3264 21.1412C52.1445 18.9079 54.2354 17.7274 56.3733 17.7274C63.1055 17.7274 68.379 28.9907 68.379 43.3688C68.379 57.7469 63.1055 69.0095 56.3733 69.0095ZM51.1501 64.4609C52.7512 66.5599 54.5498 67.6658 56.3733 67.6658C62.1514 67.6658 67.0353 56.5389 67.0353 43.3681C67.0353 30.1974 62.1527 19.0705 56.3733 19.0705C54.7722 19.0705 53.1617 19.9439 51.693 21.6061C54.8844 26.3717 56.7791 34.1789 56.7791 42.6452C56.7791 51.5509 54.6318 59.8351 51.1501 64.4609Z" fill="#2F3A5A"/>
<path d="M39.5797 7.24686C39.4336 7.24671 39.2916 7.19895 39.1751 7.11081C39.0586 7.02267 38.9739 6.89895 38.9341 6.75841C38.4228 4.96451 38.0109 3.27609 37.675 1.59573C37.6404 1.42227 37.6756 1.24217 37.7729 1.0945C37.8703 0.946831 38.0219 0.843508 38.195 0.806951C38.9307 0.651748 39.6973 0.507967 40.4747 0.378295C40.6505 0.348983 40.8307 0.390702 40.9757 0.494274C41.1207 0.597847 41.2187 0.754789 41.248 0.930575C41.2773 1.10636 41.2356 1.28659 41.132 1.43162C41.0284 1.57665 40.8715 1.67459 40.6957 1.7039C40.1649 1.79259 39.6402 1.888 39.1276 1.98878C39.4306 3.41852 39.7914 4.86574 40.2267 6.39089C40.2552 6.49088 40.2601 6.59611 40.241 6.69831C40.222 6.80051 40.1794 6.89689 40.1168 6.97986C40.0541 7.06283 39.9731 7.13013 39.88 7.17646C39.7869 7.22279 39.6844 7.24689 39.5804 7.24686H39.5797Z" fill="#2F3A5A"/>
<path d="M36.0653 13.6188C35.9322 13.6186 35.802 13.5788 35.6915 13.5045C35.581 13.4303 35.495 13.3248 35.4445 13.2015C34.7888 11.5843 34.1841 9.90601 33.6466 8.21221C33.6197 8.12779 33.6099 8.03888 33.6175 7.95061C33.6251 7.86235 33.6502 7.77646 33.6911 7.69791C33.7321 7.61935 33.7882 7.54967 33.8562 7.49288C33.9242 7.43609 34.0027 7.39331 34.0873 7.367C35.8443 6.82076 37.6422 6.33567 39.4314 5.92516C39.5181 5.90345 39.6083 5.89925 39.6966 5.91281C39.7849 5.92636 39.8696 5.9574 39.9458 6.00411C40.022 6.05081 40.0881 6.11224 40.1402 6.18481C40.1924 6.25737 40.2295 6.33961 40.2495 6.42671C40.2695 6.51381 40.2719 6.60401 40.2566 6.69205C40.2413 6.78009 40.2085 6.86419 40.1603 6.93942C40.1121 7.01466 40.0494 7.07952 39.9758 7.13021C39.9022 7.1809 39.8192 7.2164 39.7318 7.23464C38.1959 7.58737 36.6526 7.99587 35.1361 8.4514C35.6065 9.89257 36.1312 11.3176 36.6902 12.697C36.7316 12.7989 36.7473 12.9095 36.7359 13.019C36.7245 13.1284 36.6865 13.2334 36.625 13.3247C36.5636 13.416 36.4807 13.4908 36.3835 13.5426C36.2864 13.5943 36.1781 13.6214 36.068 13.6215L36.0653 13.6188Z" fill="#2F3A5A"/>
<path d="M33.2414 20.2805C33.1194 20.2807 32.9997 20.2476 32.8951 20.1849C32.7904 20.1222 32.7048 20.0321 32.6475 19.9244C31.8278 18.3845 31.0525 16.7814 30.343 15.1582C30.3074 15.0768 30.2883 14.9892 30.2868 14.9004C30.2853 14.8116 30.3014 14.7233 30.3342 14.6408C30.367 14.5583 30.4158 14.4831 30.4779 14.4195C30.5399 14.356 30.614 14.3054 30.6957 14.2706C32.3848 13.5531 34.1189 12.894 35.8497 12.3108C36.0189 12.2538 36.2039 12.2665 36.3639 12.3459C36.5238 12.4254 36.6457 12.5651 36.7026 12.7344C36.7595 12.9037 36.7469 13.0886 36.6674 13.2486C36.588 13.4085 36.4483 13.5304 36.279 13.5873C34.7948 14.0872 33.308 14.6442 31.8507 15.2469C32.4695 16.6249 33.1353 17.9847 33.8334 19.2962C33.8879 19.3986 33.9149 19.5133 33.912 19.6292C33.909 19.7451 33.8761 19.8583 33.8164 19.9577C33.7568 20.0571 33.6724 20.1394 33.5715 20.1966C33.4707 20.2537 33.3567 20.2838 33.2408 20.2839L33.2414 20.2805Z" fill="#2F3A5A"/>
<path d="M31.1157 27.1705C31.0054 27.1706 30.8968 27.1436 30.7994 27.0918C30.702 27.04 30.6189 26.9651 30.5574 26.8735C29.5865 25.429 28.6526 23.9173 27.7819 22.3801C27.738 22.3027 27.71 22.2174 27.6994 22.1291C27.6888 22.0408 27.6958 21.9513 27.72 21.8657C27.7443 21.7801 27.7853 21.7002 27.8406 21.6306C27.896 21.561 27.9646 21.5031 28.0425 21.4603C29.655 20.5747 31.3079 19.7463 32.964 18.9965C33.1257 18.9269 33.3083 18.9236 33.4725 18.9872C33.6366 19.0508 33.7693 19.1764 33.8418 19.3368C33.9144 19.4972 33.921 19.6797 33.8604 19.845C33.7998 20.0103 33.6767 20.1452 33.5176 20.2207C32.0986 20.863 30.679 21.5644 29.2902 22.3102C30.0461 23.6129 30.8456 24.8935 31.672 26.1237C31.74 26.2248 31.7792 26.3424 31.7854 26.4641C31.7917 26.5857 31.7648 26.7067 31.7076 26.8142C31.6504 26.9218 31.565 27.0117 31.4607 27.0745C31.3563 27.1372 31.2368 27.1704 31.115 27.1705H31.1157Z" fill="#2F3A5A"/>
<path d="M29.6945 34.2259C29.5957 34.226 29.4982 34.2043 29.4088 34.1623C29.3193 34.1204 29.2403 34.0593 29.1772 33.9833C28.0645 32.645 26.9842 31.2394 25.9656 29.8063C25.9143 29.7338 25.8778 29.6518 25.8584 29.5652C25.839 29.4785 25.8369 29.3888 25.8523 29.3014C25.8678 29.2139 25.9004 29.1303 25.9483 29.0556C25.9962 28.9808 26.0585 28.9162 26.1316 28.8657C27.6453 27.8196 29.2087 26.8286 30.7782 25.9188C30.8547 25.8702 30.9402 25.8376 31.0296 25.8229C31.119 25.8082 31.2105 25.8117 31.2985 25.8333C31.3865 25.8548 31.4693 25.894 31.5418 25.9483C31.6143 26.0027 31.675 26.0712 31.7204 26.1496C31.7657 26.2281 31.7947 26.3149 31.8056 26.4048C31.8166 26.4948 31.8092 26.586 31.7839 26.673C31.7587 26.7601 31.7161 26.8411 31.6587 26.9112C31.6014 26.9814 31.5304 27.0392 31.4501 27.0812C30.1064 27.8605 28.7626 28.7011 27.4585 29.5852C28.3393 30.7987 29.2625 31.9872 30.2092 33.126C30.2907 33.2242 30.3426 33.3435 30.3588 33.4701C30.375 33.5967 30.3548 33.7252 30.3006 33.8407C30.2464 33.9563 30.1604 34.0539 30.0527 34.1224C29.945 34.1908 29.8201 34.2272 29.6925 34.2272L29.6945 34.2259Z" fill="#2F3A5A"/>
<path d="M28.9825 41.3814C28.8066 41.3813 28.6377 41.3124 28.5122 41.1892C27.2719 39.9718 26.0571 38.6858 24.9022 37.3683C24.8434 37.3015 24.7985 37.2237 24.77 37.1394C24.7415 37.0551 24.7301 36.966 24.7363 36.8772C24.7426 36.7884 24.7664 36.7018 24.8064 36.6223C24.8464 36.5428 24.9018 36.4721 24.9694 36.4142C26.3689 35.2216 27.8248 34.0768 29.2976 33.0105C29.3691 32.9587 29.45 32.9216 29.5358 32.9011C29.6217 32.8807 29.7107 32.8773 29.7978 32.8913C29.8849 32.9052 29.9685 32.9362 30.0436 32.9824C30.1188 33.0286 30.1841 33.0892 30.2359 33.1607C30.2876 33.2321 30.3248 33.3131 30.3452 33.3989C30.3657 33.4847 30.369 33.5738 30.3551 33.6609C30.3412 33.748 30.3102 33.8315 30.264 33.9067C30.2177 33.9819 30.1572 34.0472 30.0857 34.0989C28.8239 35.012 27.5749 35.9849 26.3642 36.9961C27.3592 38.1087 28.3953 39.1944 29.4508 40.2305C29.546 40.3239 29.6113 40.4436 29.6383 40.5742C29.6653 40.7049 29.6528 40.8407 29.6024 40.9642C29.5519 41.0877 29.4658 41.1934 29.3551 41.2679C29.2443 41.3423 29.1139 41.382 28.9805 41.382L28.9825 41.3814Z" fill="#2F3A5A"/>
<path d="M28.9825 48.5691C28.8301 48.569 28.6822 48.5171 28.5632 48.4219C27.2094 47.3389 25.8757 46.1859 24.5945 44.9954C24.5295 44.9348 24.4772 44.8619 24.4406 44.781C24.404 44.7001 24.3838 44.6127 24.3812 44.5239C24.3785 44.4351 24.3935 44.3467 24.4253 44.2637C24.4571 44.1808 24.505 44.105 24.5662 44.0406C25.8428 42.7076 27.1778 41.4203 28.5357 40.211C28.6688 40.0925 28.8435 40.0317 29.0214 40.042C29.1993 40.0524 29.3659 40.1329 29.4844 40.2661C29.6029 40.3992 29.6636 40.5739 29.6533 40.7518C29.643 40.9297 29.5624 41.0962 29.4293 41.2147C28.2656 42.2501 27.1187 43.3459 26.0128 44.478C27.1133 45.4825 28.2515 46.4547 29.4017 47.3758C29.5105 47.4628 29.5895 47.5814 29.6279 47.7153C29.6663 47.8491 29.6622 47.9916 29.6161 48.123C29.57 48.2544 29.4842 48.3683 29.3705 48.4488C29.2569 48.5293 29.1211 48.5725 28.9818 48.5724L28.9825 48.5691Z" fill="#2F3A5A"/>
<path d="M29.6939 55.7241C29.5647 55.7243 29.4381 55.6869 29.3297 55.6166C27.8765 54.6759 26.4333 53.6681 25.0418 52.6146C24.9708 52.5609 24.9112 52.4937 24.8664 52.4167C24.8216 52.3398 24.7925 52.2547 24.7809 52.1664C24.7693 52.0782 24.7753 51.9885 24.7986 51.9025C24.822 51.8166 24.8622 51.7362 24.9169 51.6659C26.0517 50.2093 27.253 48.789 28.4872 47.4432C28.5469 47.3782 28.6188 47.3256 28.6988 47.2883C28.7789 47.2511 28.8654 47.23 28.9536 47.2262C29.0418 47.2224 29.1299 47.2361 29.2128 47.2663C29.2957 47.2966 29.3719 47.3429 29.4369 47.4026C29.5019 47.4623 29.5546 47.5342 29.5918 47.6142C29.629 47.6942 29.6501 47.7808 29.6539 47.869C29.6577 47.9572 29.6441 48.0452 29.6138 48.1282C29.5835 48.2111 29.5372 48.2872 29.4775 48.3523C28.42 49.5045 27.3873 50.7139 26.4004 51.9535C27.595 52.839 28.8225 53.6896 30.058 54.4878C30.1799 54.5665 30.273 54.6825 30.3234 54.8186C30.3739 54.9546 30.379 55.1032 30.3379 55.2424C30.2968 55.3815 30.2119 55.5036 30.0957 55.5904C29.9795 55.6772 29.8383 55.7241 29.6932 55.7241H29.6939Z" fill="#2F3A5A"/>
<path d="M31.1143 62.7792C31.0082 62.7792 30.9037 62.7541 30.8092 62.706C29.2693 61.9186 27.7327 61.0606 26.2405 60.1529C26.1644 60.1066 26.0982 60.0458 26.0459 59.9737C25.9935 59.9017 25.956 59.82 25.9355 59.7334C25.915 59.6467 25.9119 59.5569 25.9264 59.469C25.941 59.3812 25.9728 59.2971 26.0201 59.2217C27.0031 57.6548 28.0572 56.1163 29.1531 54.6475C29.206 54.577 29.2723 54.5175 29.3482 54.4725C29.4242 54.4276 29.5082 54.398 29.5955 54.3855C29.6829 54.3731 29.7718 54.3779 29.8573 54.3998C29.9428 54.4217 30.0231 54.4602 30.0937 54.5132C30.1643 54.5661 30.2237 54.6324 30.2687 54.7083C30.3136 54.7843 30.3432 54.8683 30.3557 54.9556C30.3682 55.043 30.3633 55.1319 30.3414 55.2174C30.3195 55.3029 30.281 55.3832 30.228 55.4538C29.2874 56.7122 28.3811 58.023 27.5238 59.3594C28.8003 60.1179 30.1064 60.8375 31.4159 61.5094C31.5505 61.578 31.658 61.6899 31.7212 61.8271C31.7844 61.9642 31.7994 62.1187 31.764 62.2655C31.7286 62.4124 31.6448 62.543 31.5261 62.6363C31.4073 62.7296 31.2606 62.7802 31.1095 62.7799L31.1143 62.7792Z" fill="#2F3A5A"/>
<path d="M33.2407 69.6699C33.1573 69.6698 33.0745 69.6541 32.9968 69.6236C31.3843 68.994 29.7665 68.2946 28.1956 67.5468C28.1153 67.5086 28.0433 67.4547 27.984 67.3884C27.9246 67.3221 27.879 67.2447 27.8498 67.1606C27.8206 67.0765 27.8084 66.9875 27.8139 66.8987C27.8194 66.8098 27.8425 66.723 27.8819 66.6432C28.7056 64.9722 29.5992 63.3301 30.5398 61.762C30.6361 61.6202 30.783 61.5206 30.9504 61.4836C31.1177 61.4466 31.2929 61.475 31.4401 61.5629C31.5872 61.6508 31.6952 61.7916 31.7419 61.9565C31.7886 62.1214 31.7706 62.298 31.6914 62.45C30.8851 63.7937 30.1138 65.1959 29.3929 66.6223C30.7367 67.2472 32.112 67.8317 33.4853 68.3692C33.6314 68.426 33.7531 68.5322 33.8292 68.6692C33.9053 68.8063 33.9311 68.9657 33.902 69.1198C33.873 69.2739 33.791 69.4129 33.6702 69.5129C33.5494 69.6129 33.3975 69.6675 33.2407 69.6673V69.6699Z" fill="#2F3A5A"/>
<path d="M36.0654 76.3316C36.0043 76.3315 35.9435 76.3231 35.8846 76.3067C34.2117 75.8404 32.5313 75.3063 30.8899 74.7204C30.8063 74.6904 30.7295 74.6442 30.6638 74.5843C30.5982 74.5244 30.5451 74.4521 30.5076 74.3715C30.4702 74.291 30.449 74.2038 30.4454 74.1151C30.4419 74.0263 30.4559 73.9377 30.4868 73.8544C31.1325 72.1075 31.8547 70.3808 32.6328 68.7146C32.7081 68.553 32.8446 68.4281 33.0121 68.3671C33.1796 68.3062 33.3645 68.3143 33.526 68.3897C33.6876 68.4651 33.8125 68.6015 33.8735 68.7691C33.9344 68.9366 33.9263 69.1214 33.8509 69.283C33.183 70.7127 32.5575 72.1895 31.9878 73.6824C33.3933 74.1695 34.8224 74.6163 36.2468 75.0127C36.4036 75.056 36.5394 75.1547 36.629 75.2905C36.7186 75.4263 36.7558 75.59 36.7338 75.7512C36.7118 75.9124 36.6321 76.0602 36.5094 76.167C36.3867 76.2739 36.2294 76.3326 36.0667 76.3323L36.0654 76.3316Z" fill="#2F3A5A"/>
<path d="M39.5799 82.7005C39.5409 82.7003 39.5021 82.697 39.4637 82.6904C37.747 82.3907 36.0163 82.0259 34.3185 81.6053C34.2324 81.584 34.1514 81.5459 34.0801 81.4932C34.0088 81.4405 33.9487 81.3742 33.9032 81.2981C33.8576 81.222 33.8276 81.1377 33.8148 81.05C33.802 80.9623 33.8067 80.8729 33.8287 80.787C34.2896 78.9796 34.8284 77.1797 35.4297 75.4395C35.4879 75.271 35.6106 75.1326 35.7709 75.0546C35.9312 74.9766 36.1159 74.9654 36.2844 75.0236C36.4528 75.0818 36.5913 75.2045 36.6693 75.3648C36.7473 75.5251 36.7584 75.7098 36.7002 75.8783C36.1836 77.3725 35.7139 78.9118 35.3021 80.4611C36.7567 80.8071 38.2314 81.1108 39.6948 81.3661C39.8603 81.3951 40.0089 81.4851 40.1114 81.6183C40.2138 81.7514 40.2627 81.9182 40.2482 82.0856C40.2338 82.253 40.1572 82.4089 40.0335 82.5226C39.9098 82.6363 39.7479 82.6995 39.5799 82.6998V82.7005Z" fill="#2F3A5A"/>
<path d="M38.8496 86.3685C38.812 86.3684 38.7745 86.3653 38.7374 86.3591C38.6504 86.3445 38.567 86.3129 38.4922 86.2661C38.4174 86.2193 38.3525 86.1582 38.3012 86.0864C38.25 86.0145 38.2135 85.9332 38.1937 85.8472C38.1738 85.7612 38.1712 85.6721 38.1858 85.5851C38.3874 84.3999 38.6333 83.1542 38.9249 81.8817C38.9682 81.7119 39.0762 81.5657 39.2259 81.4744C39.3755 81.383 39.5549 81.3538 39.7257 81.3929C39.8966 81.432 40.0455 81.5363 40.1405 81.6837C40.2355 81.831 40.2692 82.0096 40.2343 82.1814C39.9488 83.4284 39.7049 84.6478 39.5107 85.8095C39.4841 85.9656 39.4032 86.1074 39.2822 86.2097C39.1613 86.312 39.008 86.3682 38.8496 86.3685Z" fill="#2F3A5A"/>
<path d="M32.2093 6.85671C32.0631 6.85652 31.921 6.80866 31.8044 6.72039C31.6879 6.63212 31.6034 6.50826 31.5636 6.36759C31.0684 4.62072 30.6505 2.87384 30.3206 1.17736C30.2904 1.00401 30.3294 0.82573 30.4293 0.68083C30.5291 0.535929 30.6818 0.435975 30.8545 0.402448C31.0273 0.368921 31.2063 0.404498 31.3531 0.501532C31.4998 0.598566 31.6027 0.749314 31.6395 0.921377C31.962 2.58292 32.3719 4.29217 32.8563 6.00142C32.8847 6.10136 32.8895 6.20652 32.8703 6.30863C32.8512 6.41074 32.8086 6.50703 32.746 6.58991C32.6833 6.6728 32.6023 6.74003 32.5093 6.78632C32.4163 6.83261 32.3138 6.85671 32.21 6.85671H32.2093Z" fill="#2F3A5A"/>
<path d="M28.6955 13.2963C28.5612 13.2964 28.4299 13.2563 28.3187 13.181C28.2074 13.1058 28.1213 12.999 28.0713 12.8744C27.4135 11.2336 26.8095 9.53784 26.2754 7.83531C26.2221 7.6654 26.2385 7.4813 26.3209 7.32345C26.4033 7.1656 26.545 7.04691 26.7148 6.99345C28.4758 6.4405 30.2757 5.94936 32.0602 5.53414C32.1467 5.51263 32.2366 5.50855 32.3247 5.52212C32.4128 5.53569 32.4973 5.56665 32.5733 5.6132C32.6493 5.65975 32.7153 5.72095 32.7674 5.79324C32.8195 5.86554 32.8567 5.94748 32.8769 6.03429C32.897 6.12111 32.8997 6.21107 32.8847 6.29892C32.8698 6.38678 32.8375 6.47078 32.7897 6.54604C32.742 6.6213 32.6798 6.68631 32.6067 6.73728C32.5336 6.78826 32.451 6.82418 32.3639 6.84295C30.8287 7.19972 29.284 7.61359 27.7623 8.07584C28.2326 9.52977 28.756 10.973 29.3183 12.3758C29.3593 12.4778 29.3747 12.5883 29.363 12.6976C29.3514 12.8069 29.3131 12.9116 29.2516 13.0027C29.19 13.0937 29.1071 13.1683 29.01 13.2198C28.9129 13.2714 28.8047 13.2983 28.6948 13.2983L28.6955 13.2963Z" fill="#2F3A5A"/>
<path d="M25.8689 20.0271C25.7464 20.0273 25.6262 19.9939 25.5213 19.9307C25.4163 19.8675 25.3307 19.7767 25.2736 19.6683C24.4553 18.115 23.6806 16.4951 22.9711 14.855C22.936 14.7739 22.9172 14.6867 22.9159 14.5983C22.9146 14.5099 22.9307 14.4222 22.9633 14.34C22.996 14.2579 23.0445 14.183 23.1061 14.1197C23.1678 14.0563 23.2413 14.0057 23.3225 13.9709C25.0143 13.2446 26.7491 12.5774 28.4778 11.9882C28.6465 11.9307 28.8312 11.9426 28.9912 12.0213C29.1511 12.1 29.2733 12.239 29.3307 12.4077C29.3882 12.5765 29.3763 12.7612 29.2976 12.9211C29.2189 13.0811 29.0799 13.2032 28.9111 13.2607C27.4263 13.7659 25.9374 14.3303 24.4768 14.9404C25.0969 16.3372 25.7641 17.7139 26.4628 19.0388C26.5167 19.1411 26.5433 19.2557 26.54 19.3713C26.5366 19.487 26.5035 19.5998 26.4437 19.6988C26.384 19.7979 26.2997 19.8799 26.199 19.9368C26.0983 19.9937 25.9846 20.0237 25.8689 20.0238V20.0271Z" fill="#2F3A5A"/>
<path d="M23.7411 26.9887C23.6304 26.9887 23.5213 26.9614 23.4237 26.9091C23.326 26.8568 23.2428 26.7812 23.1814 26.689C22.2086 25.2284 21.2767 23.7025 20.4066 22.1505C20.3634 22.0734 20.3358 21.9885 20.3254 21.9007C20.315 21.8129 20.3221 21.7239 20.3462 21.6388C20.3703 21.5537 20.4109 21.4742 20.4658 21.4049C20.5207 21.3356 20.5887 21.2777 20.6659 21.2348C22.2717 20.3418 23.9272 19.504 25.5888 18.7441C25.6693 18.7047 25.757 18.6818 25.8465 18.6768C25.9361 18.6718 26.0257 18.6848 26.1102 18.715C26.1946 18.7452 26.2722 18.792 26.3383 18.8526C26.4043 18.9133 26.4576 18.9865 26.4949 19.0681C26.5323 19.1496 26.5529 19.2378 26.5556 19.3275C26.5583 19.4171 26.543 19.5064 26.5106 19.59C26.4783 19.6737 26.4295 19.75 26.3672 19.8145C26.3049 19.879 26.2303 19.9304 26.1478 19.9656C24.7227 20.6173 23.301 21.3281 21.915 22.082C22.6715 23.4016 23.473 24.6983 24.3021 25.9439C24.3695 26.0451 24.4081 26.1626 24.4139 26.284C24.4197 26.4054 24.3925 26.5261 24.3351 26.6333C24.2777 26.7404 24.1924 26.83 24.0881 26.8925C23.9839 26.9549 23.8647 26.9879 23.7431 26.988L23.7411 26.9887Z" fill="#2F3A5A"/>
<path d="M22.318 34.1165C22.2187 34.1165 22.1206 34.0946 22.0308 34.0522C21.941 34.0097 21.8617 33.948 21.7987 33.8712C20.6854 32.5174 19.605 31.0984 18.5878 29.6525C18.5364 29.5801 18.4999 29.4982 18.4804 29.4115C18.4609 29.3249 18.4588 29.2352 18.4742 29.1478C18.4896 29.0603 18.5221 28.9767 18.57 28.9019C18.6178 28.8271 18.6801 28.7625 18.7531 28.7119C20.2641 27.6578 21.8275 26.6553 23.4004 25.7335C23.4766 25.6889 23.5607 25.6597 23.6482 25.6477C23.7356 25.6356 23.8245 25.6409 23.9099 25.6632C23.9953 25.6855 24.0754 25.7244 24.1458 25.7777C24.2161 25.8309 24.2753 25.8976 24.3199 25.9737C24.3645 26.0498 24.3936 26.134 24.4057 26.2214C24.4178 26.3089 24.4125 26.3978 24.3902 26.4832C24.3679 26.5686 24.329 26.6487 24.2757 26.7191C24.2224 26.7894 24.1558 26.8486 24.0797 26.8932C22.7299 27.684 21.3875 28.5352 20.08 29.4281C20.9622 30.6557 21.8873 31.8597 22.8347 33.0139C22.9155 33.1123 22.9667 33.2315 22.9824 33.3578C22.9981 33.4842 22.9776 33.6123 22.9232 33.7274C22.8689 33.8425 22.7829 33.9398 22.6754 34.008C22.5679 34.0762 22.4433 34.1124 22.316 34.1124L22.318 34.1165Z" fill="#2F3A5A"/>
<path d="M21.6038 41.3444C21.4275 41.3437 21.2586 41.2737 21.1335 41.1496C19.8952 39.9221 18.6811 38.624 17.5242 37.291C17.4661 37.2243 17.4218 37.1468 17.3937 37.063C17.3657 36.9791 17.3544 36.8906 17.3607 36.8024C17.3669 36.7142 17.3905 36.6281 17.4301 36.549C17.4697 36.47 17.5245 36.3995 17.5914 36.3417C18.9936 35.1323 20.4502 33.9767 21.9209 32.9023C21.9922 32.8503 22.073 32.8128 22.1587 32.7919C22.2444 32.7711 22.3335 32.7674 22.4206 32.7809C22.5078 32.7945 22.5915 32.8251 22.6669 32.871C22.7422 32.9169 22.8078 32.9772 22.8599 33.0485C22.9119 33.1197 22.9494 33.2005 22.9703 33.2863C22.9911 33.372 22.9948 33.461 22.9812 33.5482C22.9677 33.6354 22.9371 33.7191 22.8912 33.7944C22.8453 33.8698 22.785 33.9354 22.7137 33.9874C21.4519 34.9099 20.1996 35.8942 18.9841 36.9201C19.9832 38.0489 21.0213 39.1481 22.0748 40.1955C22.1691 40.2891 22.2336 40.4085 22.2601 40.5388C22.2865 40.669 22.2738 40.8041 22.2234 40.9271C22.1731 41.0501 22.0874 41.1554 21.9772 41.2296C21.8671 41.3039 21.7373 41.3439 21.6045 41.3444H21.6038Z" fill="#2F3A5A"/>
<path d="M21.6039 48.6055C21.4503 48.6055 21.3014 48.5528 21.182 48.4564C19.8281 47.3619 18.4945 46.1975 17.2132 44.9942C17.1486 44.9335 17.0966 44.8606 17.0603 44.7797C17.024 44.6989 17.004 44.6116 17.0016 44.523C16.9992 44.4343 17.0143 44.3461 17.0461 44.2634C17.0779 44.1806 17.1258 44.105 17.187 44.0408C18.4568 42.6971 19.7925 41.397 21.1564 40.1708C21.2895 40.0554 21.4625 39.9969 21.6383 40.0078C21.8141 40.0187 21.9786 40.0982 22.0963 40.2291C22.2141 40.3601 22.2757 40.5321 22.2679 40.708C22.2601 40.884 22.1836 41.0498 22.0547 41.1699C20.8843 42.2227 19.7347 43.332 18.6282 44.4748C19.7314 45.4914 20.8709 46.4764 22.0252 47.4089C22.134 47.496 22.2131 47.6147 22.2515 47.7487C22.2898 47.8827 22.2856 48.0253 22.2393 48.1568C22.193 48.2882 22.107 48.402 21.9932 48.4824C21.8793 48.5629 21.7433 48.6059 21.6039 48.6055Z" fill="#2F3A5A"/>
<path d="M22.3173 55.8333C22.1871 55.8333 22.0599 55.7952 21.9511 55.7237C20.4958 54.7744 19.0533 53.7538 17.6625 52.6902C17.5923 52.6365 17.5334 52.5694 17.4891 52.4928C17.4449 52.4162 17.4162 52.3316 17.4047 52.2439C17.3932 52.1562 17.3991 52.0671 17.4222 51.9817C17.4452 51.8963 17.4849 51.8163 17.5389 51.7462C18.6811 50.2681 19.8804 48.8337 21.1086 47.4819C21.1676 47.4154 21.2392 47.3612 21.3193 47.3226C21.3994 47.284 21.4863 47.2616 21.5751 47.2568C21.6639 47.2521 21.7527 47.2649 21.8365 47.2948C21.9202 47.3246 21.9973 47.3707 22.063 47.4305C22.1288 47.4903 22.1821 47.5626 22.2198 47.6431C22.2575 47.7236 22.2788 47.8109 22.2825 47.8997C22.2862 47.9885 22.2722 48.0772 22.2414 48.1606C22.2106 48.244 22.1635 48.3205 22.103 48.3855C21.0474 49.5472 20.0121 50.772 19.0197 52.0325C20.2157 52.9281 21.4459 53.7894 22.6855 54.5983C22.8066 54.6775 22.8989 54.7937 22.9487 54.9296C22.9985 55.0655 23.003 55.2138 22.9617 55.3525C22.9204 55.4911 22.8355 55.6128 22.7195 55.6993C22.6035 55.7858 22.4627 55.8326 22.3179 55.8326L22.3173 55.8333Z" fill="#2F3A5A"/>
<path d="M23.7397 62.9614C23.6326 62.9614 23.5271 62.9358 23.432 62.8868C21.8941 62.0926 20.3582 61.2252 18.8632 60.3095C18.7878 60.2632 18.7223 60.2025 18.6704 60.1308C18.6185 60.0591 18.5813 59.9779 18.5609 59.8918C18.5405 59.8058 18.5373 59.7165 18.5515 59.6292C18.5656 59.5418 18.5969 59.4582 18.6435 59.383C19.6272 57.7993 20.6807 56.2446 21.7751 54.7631C21.8265 54.6895 21.8921 54.6269 21.968 54.579C22.044 54.5312 22.1288 54.499 22.2174 54.4845C22.3059 54.4699 22.3966 54.4733 22.4838 54.4943C22.5711 54.5154 22.6533 54.5537 22.7255 54.6071C22.7977 54.6604 22.8585 54.7277 22.9042 54.8049C22.95 54.8822 22.9798 54.9678 22.992 55.0568C23.0041 55.1457 22.9983 55.2362 22.9748 55.3229C22.9514 55.4095 22.9108 55.4906 22.8555 55.5613C21.9149 56.8345 21.0058 58.1622 20.1458 59.5167C21.4264 60.2859 22.7359 61.0163 24.0427 61.6929C24.1768 61.7619 24.2837 61.874 24.3463 62.0112C24.4089 62.1484 24.4235 62.3026 24.3879 62.4491C24.3522 62.5956 24.2683 62.7259 24.1496 62.8189C24.0309 62.9119 23.8844 62.9623 23.7336 62.962L23.7397 62.9614Z" fill="#2F3A5A"/>
<path d="M25.8675 69.9233C25.7833 69.9231 25.6999 69.9072 25.6216 69.8762C24.0091 69.2393 22.3906 68.5325 20.819 67.7766C20.7393 67.7382 20.668 67.6845 20.6091 67.6184C20.5502 67.5523 20.5049 67.4753 20.4759 67.3917C20.4469 67.3081 20.4346 67.2196 20.4399 67.1313C20.4452 67.043 20.4679 66.9565 20.5066 66.877C21.3276 65.1973 22.2212 63.5364 23.1625 61.9474C23.2075 61.8715 23.267 61.8052 23.3377 61.7523C23.4083 61.6994 23.4887 61.6609 23.5742 61.639C23.6597 61.6171 23.7486 61.6123 23.836 61.6248C23.9234 61.6374 24.0074 61.667 24.0833 61.712C24.1593 61.757 24.2256 61.8165 24.2785 61.8871C24.3314 61.9577 24.3699 62.0381 24.3918 62.1236C24.4137 62.2091 24.4185 62.2981 24.4059 62.3854C24.3934 62.4728 24.3638 62.5568 24.3188 62.6328C23.5126 63.9987 22.7366 65.4177 22.0156 66.8582C23.3634 67.4911 24.7401 68.085 26.1141 68.6272C26.2599 68.6844 26.3812 68.7907 26.457 68.9279C26.5327 69.065 26.5581 69.2243 26.5289 69.3782C26.4996 69.5321 26.4175 69.6709 26.2968 69.7707C26.176 69.8705 26.0242 69.9249 25.8675 69.9246V69.9233Z" fill="#2F3A5A"/>
<path d="M28.6954 76.6541C28.6336 76.6541 28.5721 76.6455 28.5126 76.6285C26.8424 76.1582 25.162 75.6207 23.5166 75.0234C23.4334 74.9934 23.3569 74.9473 23.2915 74.8876C23.2262 74.828 23.1733 74.756 23.1358 74.6758C23.0984 74.5957 23.0771 74.5089 23.0733 74.4205C23.0694 74.3321 23.0831 74.2438 23.1135 74.1607C23.7585 72.3978 24.4801 70.6515 25.2574 68.9692C25.3345 68.8113 25.4704 68.69 25.636 68.6311C25.8015 68.5723 25.9835 68.5806 26.143 68.6543C26.3025 68.728 26.4267 68.8613 26.4891 69.0255C26.5515 69.1897 26.5471 69.3719 26.4769 69.5329C25.8083 70.9794 25.1822 72.4743 24.6111 73.9867C26.022 74.4806 27.4524 74.9334 28.8761 75.3345C29.0326 75.3783 29.1678 75.4773 29.2569 75.6131C29.346 75.749 29.3828 75.9125 29.3606 76.0734C29.3384 76.2343 29.2586 76.3818 29.1361 76.4884C29.0135 76.595 28.8565 76.6536 28.694 76.6534L28.6954 76.6541Z" fill="#2F3A5A"/>
<path d="M32.2133 83.0901C32.1739 83.0901 32.1346 83.0868 32.0957 83.08C30.3825 82.7777 28.651 82.4081 26.9485 81.9815C26.8629 81.9601 26.7823 81.9219 26.7113 81.8693C26.6404 81.8167 26.5806 81.7507 26.5352 81.6749C26.4898 81.5991 26.4599 81.5152 26.447 81.4279C26.4341 81.3405 26.4385 81.2515 26.4601 81.1658C26.9203 79.337 27.4585 77.5196 28.0584 75.7646C28.1161 75.596 28.2384 75.4571 28.3984 75.3786C28.5584 75.3001 28.7431 75.2884 28.9117 75.3461C29.0804 75.4037 29.2192 75.526 29.2977 75.686C29.3762 75.846 29.3879 76.0307 29.3303 76.1993C28.813 77.7104 28.344 79.2678 27.9315 80.8393C29.3901 81.1907 30.8662 81.4984 32.3289 81.7571C32.4945 81.7861 32.6432 81.8762 32.7457 82.0095C32.8481 82.1428 32.8969 82.3097 32.8823 82.4772C32.8677 82.6447 32.7908 82.8007 32.6668 82.9143C32.5428 83.0279 32.3808 83.0908 32.2126 83.0908L32.2133 83.0901Z" fill="#2F3A5A"/>
<path d="M31.5543 86.3688C31.5158 86.3687 31.4774 86.3653 31.4394 86.3587C31.3525 86.3437 31.2693 86.3117 31.1948 86.2645C31.1202 86.2174 31.0556 86.156 31.0048 86.0838C30.9539 86.0117 30.9178 85.9303 30.8984 85.8442C30.879 85.7581 30.8768 85.669 30.8919 85.5821C31.0719 84.542 31.2883 83.4603 31.5543 82.2758C31.5964 82.1051 31.7037 81.9578 31.8532 81.8653C32.0026 81.7728 32.1824 81.7426 32.3538 81.7811C32.5253 81.8196 32.6749 81.9238 32.7705 82.0712C32.8661 82.2187 32.9001 82.3978 32.8652 82.5701C32.6038 83.7331 32.3915 84.7933 32.2155 85.8112C32.1886 85.9671 32.1075 86.1085 31.9866 86.2105C31.8656 86.3125 31.7126 86.3686 31.5543 86.3688Z" fill="#2F3A5A"/>
<path d="M24.8477 6.46638C24.7016 6.46624 24.5596 6.41847 24.4431 6.33033C24.3266 6.24219 24.242 6.11848 24.2021 5.97793C23.9521 5.09845 23.7183 4.18201 23.4872 3.17756C23.4661 3.09112 23.4624 3.00135 23.4763 2.91346C23.4902 2.82558 23.5214 2.74133 23.5682 2.66561C23.6149 2.58989 23.6762 2.5242 23.7485 2.47236C23.8208 2.42052 23.9027 2.38357 23.9894 2.36363C24.0762 2.3437 24.166 2.34119 24.2537 2.35625C24.3414 2.37131 24.4252 2.40363 24.5003 2.45135C24.5754 2.49907 24.6403 2.56123 24.6911 2.63423C24.742 2.70722 24.7779 2.78959 24.7967 2.87656C25.0224 3.85884 25.2509 4.75311 25.4948 5.61042C25.5232 5.71041 25.5281 5.81564 25.5091 5.91784C25.49 6.02004 25.4474 6.11642 25.3848 6.19938C25.3221 6.28235 25.2411 6.34965 25.148 6.39598C25.0549 6.44231 24.9524 6.46641 24.8484 6.46638H24.8477Z" fill="#2F3A5A"/>
<path d="M21.3251 12.9738C21.1904 12.9739 21.0588 12.9334 20.9474 12.8577C20.836 12.782 20.7499 12.6745 20.7003 12.5492C20.0446 10.8944 19.4412 9.18246 18.9077 7.45978C18.8552 7.29041 18.8718 7.10714 18.9539 6.94995C19.036 6.79275 19.1768 6.67437 19.3458 6.62061C21.1075 6.06094 22.9067 5.56375 24.6919 5.14249C24.8654 5.10168 25.048 5.13146 25.1995 5.22527C25.351 5.31907 25.459 5.46923 25.4998 5.6427C25.5406 5.81617 25.5109 5.99874 25.4171 6.15026C25.3233 6.30178 25.1731 6.40982 24.9996 6.45063C23.4631 6.81209 21.9164 7.23202 20.3926 7.70031C20.8629 9.17373 21.3876 10.6351 21.9493 12.0527C21.9898 12.1546 22.0047 12.2648 21.9927 12.3738C21.9808 12.4828 21.9424 12.5872 21.8808 12.6779C21.8193 12.7686 21.7364 12.8429 21.6396 12.8942C21.5427 12.9456 21.4348 12.9725 21.3251 12.9725V12.9738Z" fill="#2F3A5A"/>
<path d="M18.4957 19.774C18.3727 19.7741 18.252 19.7405 18.1468 19.6768C18.0416 19.613 17.9559 19.5216 17.8991 19.4125C17.0814 17.8437 16.3081 16.2084 15.5992 14.5522C15.5293 14.3889 15.5269 14.2046 15.5925 14.0395C15.6581 13.8745 15.7864 13.7421 15.9493 13.6714C17.6404 12.9363 19.3759 12.2604 21.1059 11.6665C21.1896 11.6369 21.2783 11.6241 21.3669 11.6289C21.4555 11.6338 21.5422 11.6561 21.6222 11.6946C21.7021 11.7332 21.7736 11.7872 21.8325 11.8535C21.8915 11.9198 21.9367 11.9972 21.9656 12.0811C21.9945 12.165 22.0064 12.2538 22.0008 12.3424C21.9952 12.4309 21.9721 12.5175 21.9328 12.5971C21.8936 12.6766 21.8389 12.7476 21.7721 12.806C21.7052 12.8643 21.6275 12.9089 21.5433 12.937C20.0558 13.4496 18.5642 14.0207 17.1016 14.6395C17.723 16.0505 18.3902 17.448 19.0903 18.7917C19.1436 18.8941 19.1697 19.0085 19.166 19.1238C19.1622 19.2392 19.1288 19.3516 19.069 19.4503C19.0092 19.5491 18.925 19.6307 18.8244 19.6874C18.7239 19.7441 18.6104 19.7739 18.495 19.774H18.4957Z" fill="#2F3A5A"/>
<path d="M16.3632 26.8065C16.2518 26.8066 16.1422 26.779 16.0441 26.7262C15.9461 26.6734 15.8627 26.5971 15.8015 26.5041C14.832 25.0314 13.8987 23.4894 13.0286 21.9213C12.9425 21.766 12.9214 21.5829 12.9698 21.412C13.0183 21.2412 13.1325 21.0965 13.2873 21.0096C14.8998 20.1052 16.554 19.258 18.2108 18.492C18.2912 18.4528 18.3786 18.4299 18.4679 18.4249C18.5572 18.4199 18.6466 18.4327 18.7309 18.4627C18.8152 18.4926 18.8926 18.5391 18.9587 18.5994C19.0248 18.6597 19.0781 18.7326 19.1157 18.8138C19.1532 18.895 19.1741 18.9828 19.1773 19.0722C19.1804 19.1616 19.1656 19.2508 19.1338 19.3344C19.1021 19.418 19.0539 19.4944 18.9922 19.5592C18.9305 19.6239 18.8565 19.6757 18.7745 19.7115C17.3501 20.3699 15.9264 21.0895 14.533 21.8548C15.2908 23.1911 16.0937 24.5033 16.9248 25.7651C16.9915 25.8663 17.0296 25.9837 17.0349 26.1048C17.0403 26.2259 17.0128 26.3462 16.9554 26.453C16.8979 26.5597 16.8127 26.6489 16.7087 26.7112C16.6046 26.7734 16.4857 26.8063 16.3645 26.8065H16.3632Z" fill="#2F3A5A"/>
<path d="M14.9416 34.0062C14.8418 34.0062 14.7432 33.984 14.653 33.9411C14.5628 33.8982 14.4833 33.8357 14.4203 33.7583C13.3023 32.3856 12.2226 30.9518 11.2107 29.4979C11.1093 29.3522 11.0696 29.1722 11.1005 28.9973C11.1313 28.8225 11.2302 28.6669 11.3753 28.5647C12.8891 27.4977 14.4532 26.4819 16.0234 25.556C16.0993 25.5111 16.1833 25.4815 16.2707 25.469C16.358 25.4566 16.447 25.4614 16.5324 25.4833C16.6179 25.5052 16.6982 25.5437 16.7688 25.5967C16.8394 25.6496 16.8989 25.7159 16.9438 25.7919C16.9888 25.8678 17.0183 25.9518 17.0308 26.0392C17.0433 26.1265 17.0385 26.2155 17.0166 26.3009C16.9947 26.3864 16.9561 26.4667 16.9032 26.5373C16.8503 26.6079 16.7839 26.6674 16.708 26.7123C15.3555 27.5125 14.0118 28.3739 12.7003 29.2795C13.5798 30.5178 14.5069 31.7366 15.463 32.9077C15.5431 33.0062 15.5937 33.1254 15.6089 33.2514C15.624 33.3775 15.6031 33.5053 15.5486 33.62C15.4941 33.7347 15.4083 33.8316 15.301 33.8994C15.1936 33.9673 15.0693 34.0034 14.9423 34.0035L14.9416 34.0062Z" fill="#2F3A5A"/>
<path d="M14.228 41.3075C14.1397 41.3076 14.0522 41.2902 13.9705 41.2565C13.8889 41.2227 13.8148 41.1731 13.7523 41.1107C12.5107 39.867 11.2966 38.5575 10.1437 37.2138C10.0279 37.0794 9.96994 36.9046 9.98253 36.7276C9.99512 36.5506 10.0772 36.3858 10.2109 36.2691C11.6097 35.0517 13.0663 33.8833 14.5397 32.7942C14.6831 32.6884 14.8626 32.6438 15.0388 32.6703C15.2151 32.6969 15.3735 32.7923 15.4794 32.9356C15.5852 33.079 15.6298 33.2585 15.6032 33.4347C15.5767 33.611 15.4813 33.7694 15.3379 33.8753C14.0701 34.8112 12.815 35.8082 11.6003 36.8443C12.5994 37.9865 13.6401 39.0977 14.701 40.1606C14.795 40.2546 14.8589 40.3744 14.8848 40.5048C14.9107 40.6352 14.8974 40.7703 14.8464 40.8931C14.7955 41.0158 14.7093 41.1208 14.5988 41.1945C14.4882 41.2683 14.3582 41.3076 14.2253 41.3075H14.228Z" fill="#2F3A5A"/>
<path d="M14.228 48.6422C14.0733 48.6422 13.9233 48.5888 13.8034 48.4911C12.455 47.3905 11.1199 46.2141 9.83464 44.9973C9.70598 44.8751 9.63087 44.707 9.62571 44.5297C9.62055 44.3523 9.68576 44.1801 9.8071 44.0506C11.0837 42.6921 12.4167 41.3773 13.7765 40.1417C13.9088 40.0244 14.082 39.9639 14.2585 39.9734C14.435 39.9829 14.6007 40.0616 14.7196 40.1924C14.8385 40.3233 14.9011 40.4957 14.8937 40.6723C14.8863 40.849 14.8096 41.0156 14.6802 41.1361C13.5098 42.199 12.3582 43.3223 11.2489 44.482C12.3582 45.5147 13.5011 46.5117 14.6533 47.4523C14.7609 47.54 14.8386 47.6588 14.8759 47.7925C14.9132 47.9261 14.9082 48.068 14.8616 48.1987C14.815 48.3294 14.729 48.4425 14.6156 48.5224C14.5022 48.6022 14.3668 48.6451 14.228 48.6449V48.6422Z" fill="#2F3A5A"/>
<path d="M14.941 55.9429C14.8098 55.943 14.6815 55.9044 14.5721 55.8321C13.1188 54.874 11.6757 53.8426 10.2829 52.7676C10.142 52.6591 10.0498 52.4992 10.0267 52.3229C10.0035 52.1466 10.0512 51.9682 10.1592 51.827C11.2961 50.3388 12.4967 48.8896 13.7289 47.5196C13.849 47.3908 14.0148 47.3142 14.1908 47.3064C14.3667 47.2987 14.5387 47.3603 14.6697 47.478C14.8007 47.5958 14.8801 47.7603 14.891 47.9361C14.902 48.1119 14.8434 48.2849 14.728 48.4179C13.6671 49.5977 12.6297 50.8367 11.6374 52.1132C12.8373 53.0216 14.0702 53.8937 15.3112 54.7114C15.4319 54.7909 15.5237 54.9073 15.573 55.0431C15.6223 55.179 15.6265 55.3272 15.585 55.4656C15.5434 55.6041 15.4583 55.7254 15.3423 55.8116C15.2262 55.8979 15.0855 55.9444 14.941 55.9443V55.9429Z" fill="#2F3A5A"/>
<path d="M16.3633 63.1435C16.2555 63.1436 16.1492 63.1175 16.0536 63.0676C14.519 62.2667 12.9825 61.3879 11.4848 60.4634C11.3337 60.3697 11.2258 60.22 11.1849 60.0469C11.144 59.8739 11.1733 59.6917 11.2665 59.5402C12.2474 57.9438 13.3009 56.3744 14.3967 54.8754C14.5025 54.7331 14.6603 54.6385 14.8356 54.612C15.0109 54.5856 15.1895 54.6295 15.3326 54.7342C15.4757 54.8388 15.5716 54.9958 15.5994 55.1709C15.6272 55.346 15.5847 55.525 15.4811 55.6689C14.5405 56.9596 13.6254 58.304 12.7661 59.6726C14.0521 60.4533 15.3636 61.193 16.6731 61.8763C16.8065 61.9458 16.9128 62.0581 16.9749 62.1952C17.0369 62.3323 17.0512 62.4862 17.0153 62.6324C16.9795 62.7785 16.8956 62.9084 16.7771 63.0012C16.6586 63.094 16.5125 63.1443 16.362 63.1441L16.3633 63.1435Z" fill="#2F3A5A"/>
<path d="M18.4952 70.1765C18.41 70.1764 18.3257 70.1603 18.2466 70.1288C16.6341 69.4864 15.0216 68.7722 13.4433 68.0063C13.2834 67.9285 13.1609 67.7905 13.1026 67.6224C13.0443 67.4544 13.0549 67.2702 13.1323 67.11C13.9486 65.4169 14.8415 63.7426 15.7862 62.1321C15.8308 62.056 15.89 61.9894 15.9604 61.9361C16.0308 61.8828 16.111 61.844 16.1964 61.8217C16.2818 61.7994 16.3708 61.7942 16.4582 61.8063C16.5456 61.8184 16.6298 61.8476 16.706 61.8922C16.7821 61.9369 16.8487 61.9961 16.902 62.0665C16.9552 62.1369 16.9941 62.2171 17.0164 62.3025C17.0387 62.3879 17.0439 62.4768 17.0318 62.5643C17.0197 62.6517 16.9905 62.7359 16.9458 62.812C16.1315 64.1968 15.3555 65.6346 14.6379 67.0858C15.9904 67.7275 17.3684 68.3288 18.7438 68.8771C18.8894 68.9346 19.0103 69.0412 19.0857 69.1784C19.1611 69.3157 19.1862 69.475 19.1566 69.6287C19.127 69.7825 19.0447 69.9211 18.9238 70.0206C18.8029 70.1201 18.6511 70.1743 18.4945 70.1738L18.4952 70.1765Z" fill="#2F3A5A"/>
<path d="M21.3251 76.9766C21.2626 76.9766 21.2004 76.9678 21.1403 76.9504C19.4606 76.4727 17.7809 75.9265 16.1436 75.3272C15.9761 75.2665 15.8396 75.1419 15.764 74.9806C15.6884 74.8194 15.68 74.6347 15.7405 74.4672C16.3855 72.686 17.1064 70.9217 17.8824 69.2266C17.9565 69.0645 18.092 68.9385 18.259 68.8763C18.426 68.8142 18.6109 68.8209 18.773 68.895C18.935 68.9691 19.061 69.1046 19.1232 69.2716C19.1854 69.4386 19.1787 69.6235 19.1045 69.7856C18.4327 71.2489 17.8085 72.7626 17.2367 74.2952C18.6436 74.7944 20.0774 75.2526 21.5072 75.6604C21.6632 75.7047 21.798 75.804 21.8865 75.9398C21.9751 76.0757 22.0116 76.2391 21.9891 76.3997C21.9667 76.5604 21.8869 76.7075 21.7645 76.8139C21.6421 76.9203 21.4853 76.9788 21.3231 76.9787L21.3251 76.9766Z" fill="#2F3A5A"/>
<path d="M24.8489 83.4836C24.8093 83.4836 24.7697 83.48 24.7307 83.4729C23.7437 83.2975 22.7433 83.0939 21.757 82.8682C21.5871 82.8248 21.4409 82.7168 21.3496 82.5672C21.2583 82.4176 21.229 82.2382 21.2682 82.0673C21.3073 81.8964 21.4116 81.7476 21.5589 81.6526C21.7062 81.5575 21.8848 81.5239 22.0566 81.5587C23.0214 81.7797 24.0003 81.9786 24.9658 82.1506C25.1307 82.1805 25.2785 82.2708 25.3801 82.404C25.4818 82.5372 25.5301 82.7035 25.5155 82.8704C25.5008 83.0374 25.4243 83.1928 25.301 83.3062C25.1777 83.4197 25.0165 83.4829 24.8489 83.4836Z" fill="#2F3A5A"/>
<path d="M20.037 81.2569C19.9343 81.2569 19.8329 81.2334 19.7407 81.1882C19.6484 81.1429 19.5678 81.0771 19.505 80.9958C19.4422 80.9145 19.3988 80.8198 19.3783 80.7191C19.3578 80.6185 19.3607 80.5144 19.3867 80.415C19.7649 78.9665 20.203 77.5105 20.6888 76.0888C20.7463 75.9202 20.8685 75.7813 21.0285 75.7027C21.1884 75.6242 21.373 75.6124 21.5417 75.6699C21.7104 75.7275 21.8492 75.8497 21.9278 76.0096C22.0064 76.1696 22.0182 76.3542 21.9606 76.5229C21.4856 77.9136 21.0569 79.338 20.6841 80.7557C20.6465 80.8988 20.5627 81.0255 20.4457 81.1162C20.3287 81.2068 20.185 81.2563 20.037 81.2569Z" fill="#2F3A5A"/>
<path d="M24.5991 84.6388C24.499 84.6388 24.4001 84.6165 24.3096 84.5735C24.2192 84.5304 24.1396 84.4677 24.0765 84.3899C24.0135 84.3121 23.9686 84.2212 23.9452 84.1238C23.9218 84.0264 23.9205 83.9251 23.9413 83.8271L24.1913 82.6688C24.2093 82.5819 24.2444 82.4994 24.2945 82.426C24.3447 82.3527 24.4088 82.2901 24.4833 82.2418C24.5578 82.1934 24.6411 82.1603 24.7285 82.1443C24.8158 82.1284 24.9055 82.1299 24.9923 82.1488C25.079 82.1678 25.1612 82.2037 25.234 82.2545C25.3068 82.3054 25.3687 82.3702 25.4163 82.4452C25.4639 82.5201 25.4962 82.6038 25.5113 82.6913C25.5263 82.7788 25.5239 82.8685 25.5041 82.955L25.2555 84.1066C25.2235 84.2571 25.1409 84.392 25.0214 84.4888C24.902 84.5856 24.7529 84.6386 24.5991 84.6388Z" fill="#2F3A5A"/>
</svg>
