<svg width="84" height="84" viewBox="0 0 84 84" fill="none" xmlns="http://www.w3.org/2000/svg">
<g clip-path="url(#clip0_77_2172)">
<g clip-path="url(#clip1_77_2172)">
<path d="M80.7392 67.9814V55.5577C80.7069 54.8475 80.3943 54.1791 79.8699 53.6989C79.3456 53.2188 78.6523 52.9661 77.942 52.9963H39.334C38.6237 52.9661 37.9303 53.2188 37.406 53.6989C36.8817 54.1791 36.5691 54.8475 36.5367 55.5577V67.9814C36.5691 68.6916 36.8817 69.3601 37.406 69.8402C37.9303 70.3203 38.6237 70.573 39.334 70.5428H77.942C78.6523 70.573 79.3456 70.3203 79.8699 69.8402C80.3943 69.3601 80.7069 68.6916 80.7392 67.9814Z" fill="#9297AB"/>
<path d="M80.7395 55.5629V67.9847C80.706 68.6932 80.3936 69.3597 79.8705 69.8387C79.3474 70.3178 78.656 70.5705 77.9473 70.5416H39.3355C38.626 70.5713 37.9337 70.3191 37.4095 69.84C36.8854 69.3609 36.5722 68.6939 36.5382 67.9847V65.7698H73.7819C74.4921 65.7996 75.185 65.5463 75.7085 65.0655C76.2321 64.5848 76.5434 63.9159 76.5741 63.2058V52.999H77.9486C78.6582 52.9707 79.3501 53.2245 79.8731 53.705C80.3961 54.1854 80.7076 54.8534 80.7395 55.5629Z" fill="#84879C"/>
<path d="M77.942 71.1779H39.334C38.4552 71.2074 37.6006 70.8875 36.9571 70.2883C36.3137 69.6891 35.9339 68.8593 35.901 67.9807V55.5577C35.9339 54.679 36.3137 53.8493 36.9571 53.2501C37.6006 52.6508 38.4552 52.331 39.334 52.3605H77.942C78.8207 52.3311 79.6752 52.6511 80.3186 53.2502C80.962 53.8494 81.3418 54.6791 81.375 55.5577V67.9813C81.3417 68.8598 80.9618 69.6893 80.3184 70.2884C79.675 70.8874 78.8206 71.2072 77.942 71.1779ZM39.3327 53.6314C38.7912 53.6022 38.2601 53.7882 37.8552 54.1489C37.4503 54.5096 37.2045 55.0158 37.1712 55.557V67.9813C37.2045 68.5226 37.4503 69.0287 37.8552 69.3895C38.2601 69.7502 38.7912 69.9362 39.3327 69.907H77.942C78.4834 69.936 79.0144 69.75 79.4193 69.3893C79.8241 69.0286 80.07 68.5225 80.1035 67.9813V55.5577C80.07 55.0165 79.8241 54.5104 79.4193 54.1497C79.0144 53.7891 78.4834 53.603 77.942 53.632L39.3327 53.6314Z" fill="#2F3A5A"/>
<path d="M80.7395 67.7896C80.66 67.7897 80.5833 67.76 80.5246 67.7063L77.8545 65.2612L75.4387 67.6955C75.4105 67.7294 75.3757 67.757 75.3363 67.7767C75.2969 67.7964 75.2538 67.8077 75.2099 67.8098C75.1659 67.812 75.1219 67.805 75.0808 67.7893C75.0396 67.7736 75.0022 67.7495 74.9709 67.7185C74.9396 67.6876 74.915 67.6505 74.8987 67.6095C74.8825 67.5686 74.8749 67.5248 74.8766 67.4808C74.8782 67.4367 74.8889 67.3936 74.9081 67.3539C74.9272 67.3143 74.9544 67.279 74.988 67.2505L77.6193 64.5994C77.6771 64.5412 77.7551 64.5076 77.8371 64.5056C77.9191 64.5036 77.9987 64.5333 78.0592 64.5886L80.9531 67.2397C81.0004 67.2829 81.0336 67.3395 81.0481 67.4019C81.0627 67.4643 81.0581 67.5297 81.0349 67.5895C81.0116 67.6492 80.9709 67.7006 80.9179 67.7367C80.865 67.7729 80.8023 67.7922 80.7382 67.7921L80.7395 67.7896Z" fill="#2F3A5A"/>
<path d="M75.2148 67.7896C75.1353 67.7897 75.0586 67.76 74.9999 67.7063L72.3298 65.2612L69.914 67.6955C69.8859 67.7294 69.851 67.757 69.8116 67.7767C69.7722 67.7964 69.7291 67.8077 69.6852 67.8098C69.6412 67.812 69.5972 67.805 69.5561 67.7893C69.515 67.7736 69.4775 67.7495 69.4462 67.7185C69.4149 67.6876 69.3903 67.6505 69.3741 67.6095C69.3578 67.5686 69.3503 67.5248 69.3519 67.4808C69.3535 67.4367 69.3642 67.3936 69.3834 67.3539C69.4026 67.3143 69.4298 67.279 69.4633 67.2505L72.0952 64.5994C72.153 64.5412 72.231 64.5076 72.313 64.5056C72.395 64.5036 72.4746 64.5333 72.5352 64.5886L75.4291 67.2397C75.4764 67.2829 75.5095 67.3395 75.5241 67.4019C75.5387 67.4643 75.5341 67.5297 75.5108 67.5895C75.4876 67.6492 75.4468 67.7006 75.3939 67.7367C75.3409 67.7729 75.2783 67.7922 75.2142 67.7921L75.2148 67.7896Z" fill="#2F3A5A"/>
<path d="M69.6888 67.7896C69.6093 67.7897 69.5326 67.76 69.4739 67.7063L66.8038 65.2612L64.388 67.6955C64.3599 67.7294 64.325 67.757 64.2856 67.7767C64.2462 67.7964 64.2031 67.8077 64.1592 67.8098C64.1152 67.812 64.0712 67.805 64.0301 67.7893C63.989 67.7736 63.9515 67.7495 63.9202 67.7185C63.8889 67.6876 63.8643 67.6505 63.8481 67.6095C63.8318 67.5686 63.8243 67.5248 63.8259 67.4808C63.8275 67.4367 63.8382 67.3936 63.8574 67.3539C63.8765 67.3143 63.9038 67.279 63.9373 67.2505L66.5692 64.5994C66.627 64.5412 66.705 64.5076 66.787 64.5056C66.869 64.5036 66.9486 64.5333 67.0092 64.5886L69.9024 67.2397C69.9497 67.2829 69.9829 67.3395 69.9975 67.4019C70.012 67.4643 70.0074 67.5297 69.9842 67.5895C69.9609 67.6492 69.9202 67.7006 69.8672 67.7367C69.8143 67.7729 69.7517 67.7922 69.6875 67.7921L69.6888 67.7896Z" fill="#2F3A5A"/>
<path d="M64.1641 67.7896C64.0846 67.7897 64.0079 67.76 63.9492 67.7063L61.2791 65.2612L58.8633 67.6955C58.8351 67.7294 58.8003 67.757 58.7609 67.7767C58.7215 67.7964 58.6784 67.8077 58.6344 67.8098C58.5905 67.812 58.5465 67.805 58.5054 67.7893C58.4642 67.7736 58.4268 67.7495 58.3955 67.7185C58.3641 67.6876 58.3396 67.6505 58.3233 67.6095C58.3071 67.5686 58.2995 67.5248 58.3011 67.4808C58.3027 67.4367 58.3135 67.3936 58.3327 67.3539C58.3518 67.3143 58.379 67.279 58.4125 67.2505L61.0439 64.5994C61.1016 64.5412 61.1797 64.5076 61.2617 64.5056C61.3437 64.5036 61.4232 64.5333 61.4838 64.5886L64.3777 67.2397C64.425 67.2829 64.4581 67.3395 64.4727 67.4019C64.4873 67.4643 64.4827 67.5297 64.4595 67.5895C64.4362 67.6492 64.3955 67.7006 64.3425 67.7367C64.2896 67.7729 64.2269 67.7922 64.1628 67.7921L64.1641 67.7896Z" fill="#2F3A5A"/>
<path d="M58.639 67.7896C58.5595 67.7897 58.4829 67.76 58.4242 67.7063L55.754 65.2612L53.3382 67.6955C53.3101 67.7294 53.2752 67.757 53.2358 67.7767C53.1964 67.7964 53.1534 67.8077 53.1094 67.8098C53.0654 67.812 53.0215 67.805 52.9803 67.7893C52.9392 67.7736 52.9018 67.7495 52.8704 67.7185C52.8391 67.6876 52.8145 67.6505 52.7983 67.6095C52.782 67.5686 52.7745 67.5248 52.7761 67.4808C52.7777 67.4367 52.7884 67.3936 52.8076 67.3539C52.8268 67.3143 52.854 67.279 52.8875 67.2505L55.5188 64.5994C55.5766 64.5412 55.6546 64.5076 55.7366 64.5056C55.8186 64.5036 55.8982 64.5333 55.9588 64.5886L58.8527 67.2397C58.9 67.2829 58.9331 67.3395 58.9477 67.4019C58.9623 67.4643 58.9576 67.5297 58.9344 67.5895C58.9112 67.6492 58.8704 67.7006 58.8175 67.7367C58.7645 67.7729 58.7019 67.7922 58.6378 67.7921L58.639 67.7896Z" fill="#2F3A5A"/>
<path d="M53.1147 67.7896C53.0351 67.7897 52.9585 67.76 52.8998 67.7063L50.2297 65.2612L47.8139 67.6955C47.7857 67.7294 47.7508 67.757 47.7114 67.7767C47.6721 67.7964 47.629 67.8077 47.585 67.8098C47.541 67.812 47.4971 67.805 47.4559 67.7893C47.4148 67.7736 47.3774 67.7495 47.3461 67.7185C47.3147 67.6876 47.2902 67.6505 47.2739 67.6095C47.2577 67.5686 47.2501 67.5248 47.2517 67.4808C47.2533 67.4367 47.2641 67.3936 47.2832 67.3539C47.3024 67.3143 47.3296 67.279 47.3631 67.2505L49.9951 64.5994C50.0529 64.5412 50.1309 64.5076 50.2129 64.5056C50.2949 64.5036 50.3745 64.5333 50.435 64.5886L53.3289 67.2397C53.3762 67.2829 53.4094 67.3395 53.4239 67.4019C53.4385 67.4643 53.4339 67.5297 53.4107 67.5895C53.3874 67.6492 53.3467 67.7006 53.2937 67.7367C53.2408 67.7729 53.1781 67.7922 53.114 67.7921L53.1147 67.7896Z" fill="#2F3A5A"/>
<path d="M47.5888 67.7896C47.5093 67.7897 47.4326 67.76 47.3739 67.7063L44.7038 65.2612L42.2879 67.6955C42.2598 67.7294 42.2249 67.757 42.1855 67.7767C42.1461 67.7964 42.1031 67.8077 42.0591 67.8098C42.0151 67.812 41.9712 67.805 41.93 67.7893C41.8889 67.7736 41.8515 67.7495 41.8201 67.7185C41.7888 67.6876 41.7642 67.6505 41.748 67.6095C41.7318 67.5686 41.7242 67.5248 41.7258 67.4808C41.7274 67.4367 41.7381 67.3936 41.7573 67.3539C41.7765 67.3143 41.8037 67.279 41.8372 67.2505L44.4685 64.5994C44.5263 64.5412 44.6044 64.5076 44.6863 64.5056C44.7683 64.5036 44.8479 64.5333 44.9085 64.5886L47.8024 67.2397C47.8497 67.2829 47.8828 67.3395 47.8974 67.4019C47.912 67.4643 47.9074 67.5297 47.8841 67.5895C47.8609 67.6492 47.8201 67.7006 47.7672 67.7367C47.7142 67.7729 47.6516 67.7922 47.5875 67.7921L47.5888 67.7896Z" fill="#2F3A5A"/>
<path d="M42.064 67.7896C41.9844 67.7897 41.9078 67.76 41.8491 67.7063L39.179 65.2612L36.7632 67.6955C36.735 67.7294 36.7001 67.757 36.6607 67.7767C36.6213 67.7964 36.5783 67.8077 36.5343 67.8098C36.4903 67.812 36.4464 67.805 36.4052 67.7893C36.3641 67.7736 36.3267 67.7495 36.2953 67.7185C36.264 67.6876 36.2394 67.6505 36.2232 67.6095C36.207 67.5686 36.1994 67.5248 36.201 67.4808C36.2026 67.4367 36.2134 67.3936 36.2325 67.3539C36.2517 67.3143 36.2789 67.279 36.3124 67.2505L38.9437 64.5994C39.0015 64.5412 39.0796 64.5076 39.1615 64.5056C39.2435 64.5036 39.3231 64.5333 39.3837 64.5886L42.2776 67.2397C42.3249 67.2829 42.358 67.3395 42.3726 67.4019C42.3872 67.4643 42.3826 67.5297 42.3593 67.5895C42.3361 67.6492 42.2953 67.7006 42.2424 67.7367C42.1894 67.7729 42.1268 67.7922 42.0627 67.7921L42.064 67.7896Z" fill="#2F3A5A"/>
<path d="M80.7395 63.4142C80.66 63.4143 80.5833 63.3846 80.5246 63.3309L77.8545 60.8859L75.4387 63.3201C75.4105 63.354 75.3757 63.3817 75.3363 63.4013C75.2969 63.421 75.2538 63.4323 75.2099 63.4345C75.1659 63.4366 75.1219 63.4296 75.0808 63.4139C75.0396 63.3982 75.0022 63.3741 74.9709 63.3432C74.9396 63.3122 74.915 63.2751 74.8987 63.2342C74.8825 63.1933 74.8749 63.1494 74.8766 63.1054C74.8782 63.0614 74.8889 63.0182 74.9081 62.9786C74.9272 62.9389 74.9544 62.9037 74.988 62.8751L77.6193 60.2241C77.6771 60.1659 77.7551 60.1322 77.8371 60.1302C77.9191 60.1282 77.9987 60.158 78.0592 60.2133L80.9531 62.8643C81.0004 62.9076 81.0336 62.9641 81.0481 63.0266C81.0627 63.089 81.0581 63.1544 81.0349 63.2141C81.0116 63.2739 80.9709 63.3252 80.9179 63.3614C80.865 63.3975 80.8023 63.4168 80.7382 63.4168L80.7395 63.4142Z" fill="#2F3A5A"/>
<path d="M75.2148 63.4142C75.1353 63.4143 75.0586 63.3846 74.9999 63.3309L72.3298 60.8859L69.914 63.3201C69.8859 63.354 69.851 63.3817 69.8116 63.4013C69.7722 63.421 69.7291 63.4323 69.6852 63.4345C69.6412 63.4366 69.5972 63.4296 69.5561 63.4139C69.515 63.3982 69.4775 63.3741 69.4462 63.3432C69.4149 63.3122 69.3903 63.2751 69.3741 63.2342C69.3578 63.1933 69.3503 63.1494 69.3519 63.1054C69.3535 63.0614 69.3642 63.0182 69.3834 62.9786C69.4026 62.9389 69.4298 62.9037 69.4633 62.8751L72.0952 60.2241C72.153 60.1659 72.231 60.1322 72.313 60.1302C72.395 60.1282 72.4746 60.158 72.5352 60.2133L75.4291 62.8643C75.4764 62.9076 75.5095 62.9641 75.5241 63.0266C75.5387 63.089 75.5341 63.1544 75.5108 63.2141C75.4876 63.2739 75.4468 63.3252 75.3939 63.3614C75.3409 63.3975 75.2783 63.4168 75.2142 63.4168L75.2148 63.4142Z" fill="#2F3A5A"/>
<path d="M69.6888 63.4142C69.6093 63.4143 69.5326 63.3846 69.4739 63.3309L66.8038 60.8859L64.388 63.3201C64.3599 63.354 64.325 63.3817 64.2856 63.4013C64.2462 63.421 64.2031 63.4323 64.1592 63.4345C64.1152 63.4366 64.0712 63.4296 64.0301 63.4139C63.989 63.3982 63.9515 63.3741 63.9202 63.3432C63.8889 63.3122 63.8643 63.2751 63.8481 63.2342C63.8318 63.1933 63.8243 63.1494 63.8259 63.1054C63.8275 63.0614 63.8382 63.0182 63.8574 62.9786C63.8765 62.9389 63.9038 62.9037 63.9373 62.8751L66.5692 60.2241C66.627 60.1659 66.705 60.1322 66.787 60.1302C66.869 60.1282 66.9486 60.158 67.0092 60.2133L69.9024 62.8643C69.9497 62.9076 69.9829 62.9641 69.9975 63.0266C70.012 63.089 70.0074 63.1544 69.9842 63.2141C69.9609 63.2739 69.9202 63.3252 69.8672 63.3614C69.8143 63.3975 69.7517 63.4168 69.6875 63.4168L69.6888 63.4142Z" fill="#2F3A5A"/>
<path d="M64.1641 63.4142C64.0846 63.4143 64.0079 63.3846 63.9492 63.3309L61.2791 60.8859L58.8633 63.3201C58.8351 63.354 58.8003 63.3817 58.7609 63.4013C58.7215 63.421 58.6784 63.4323 58.6344 63.4345C58.5905 63.4366 58.5465 63.4296 58.5054 63.4139C58.4642 63.3982 58.4268 63.3741 58.3955 63.3432C58.3641 63.3122 58.3396 63.2751 58.3233 63.2342C58.3071 63.1933 58.2995 63.1494 58.3011 63.1054C58.3027 63.0614 58.3135 63.0182 58.3327 62.9786C58.3518 62.9389 58.379 62.9037 58.4125 62.8751L61.0439 60.2241C61.1016 60.1659 61.1797 60.1322 61.2617 60.1302C61.3437 60.1282 61.4232 60.158 61.4838 60.2133L64.3777 62.8643C64.425 62.9076 64.4581 62.9641 64.4727 63.0266C64.4873 63.089 64.4827 63.1544 64.4595 63.2141C64.4362 63.2739 64.3955 63.3252 64.3425 63.3614C64.2896 63.3975 64.2269 63.4168 64.1628 63.4168L64.1641 63.4142Z" fill="#2F3A5A"/>
<path d="M58.6393 63.4142C58.5598 63.4143 58.4831 63.3846 58.4244 63.3309L55.7549 60.8852L53.3391 63.3201C53.311 63.354 53.2761 63.3817 53.2367 63.4013C53.1973 63.421 53.1543 63.4323 53.1103 63.4345C53.0663 63.4366 53.0223 63.4296 52.9812 63.4139C52.9401 63.3982 52.9026 63.3741 52.8713 63.3432C52.84 63.3122 52.8154 63.2751 52.7992 63.2342C52.7829 63.1933 52.7754 63.1494 52.777 63.1054C52.7786 63.0614 52.7893 63.0182 52.8085 62.9786C52.8277 62.9389 52.8549 62.9037 52.8884 62.8751L55.5197 60.2241C55.5775 60.1659 55.6555 60.1322 55.7375 60.1302C55.8195 60.1282 55.8991 60.158 55.9596 60.2133L58.8535 62.8643C58.9009 62.9076 58.934 62.9641 58.9486 63.0266C58.9632 63.089 58.9585 63.1544 58.9353 63.2141C58.9121 63.2739 58.8713 63.3252 58.8184 63.3614C58.7654 63.3975 58.7028 63.4168 58.6387 63.4168L58.6393 63.4142Z" fill="#2F3A5A"/>
<path d="M53.1147 63.4142C53.0351 63.4143 52.9585 63.3846 52.8998 63.3309L50.2297 60.8859L47.8139 63.3201C47.7857 63.354 47.7508 63.3817 47.7114 63.4013C47.6721 63.421 47.629 63.4323 47.585 63.4345C47.541 63.4366 47.4971 63.4296 47.4559 63.4139C47.4148 63.3982 47.3774 63.3741 47.3461 63.3432C47.3147 63.3122 47.2902 63.2751 47.2739 63.2342C47.2577 63.1933 47.2501 63.1494 47.2517 63.1054C47.2533 63.0614 47.2641 63.0182 47.2832 62.9786C47.3024 62.9389 47.3296 62.9037 47.3631 62.8751L49.9951 60.2241C50.0529 60.1659 50.1309 60.1322 50.2129 60.1302C50.2949 60.1282 50.3745 60.158 50.435 60.2133L53.3289 62.8643C53.3762 62.9076 53.4094 62.9641 53.4239 63.0266C53.4385 63.089 53.4339 63.1544 53.4107 63.2141C53.3874 63.2739 53.3467 63.3252 53.2937 63.3614C53.2408 63.3975 53.1781 63.4168 53.114 63.4168L53.1147 63.4142Z" fill="#2F3A5A"/>
<path d="M47.5888 63.4142C47.5093 63.4143 47.4326 63.3846 47.3739 63.3309L44.7038 60.8859L42.2879 63.3201C42.2598 63.354 42.2249 63.3817 42.1855 63.4013C42.1461 63.421 42.1031 63.4323 42.0591 63.4345C42.0151 63.4366 41.9712 63.4296 41.93 63.4139C41.8889 63.3982 41.8515 63.3741 41.8201 63.3432C41.7888 63.3122 41.7642 63.2751 41.748 63.2342C41.7318 63.1933 41.7242 63.1494 41.7258 63.1054C41.7274 63.0614 41.7381 63.0182 41.7573 62.9786C41.7765 62.9389 41.8037 62.9037 41.8372 62.8751L44.4685 60.2241C44.5263 60.1659 44.6044 60.1322 44.6863 60.1302C44.7683 60.1282 44.8479 60.158 44.9085 60.2133L47.8024 62.8643C47.8497 62.9076 47.8828 62.9641 47.8974 63.0266C47.912 63.089 47.9074 63.1544 47.8841 63.2141C47.8609 63.2739 47.8201 63.3252 47.7672 63.3614C47.7142 63.3975 47.6516 63.4168 47.5875 63.4168L47.5888 63.4142Z" fill="#2F3A5A"/>
<path d="M42.064 63.4142C41.9844 63.4143 41.9078 63.3846 41.8491 63.3309L39.179 60.8859L36.7632 63.3201C36.735 63.354 36.7001 63.3817 36.6607 63.4013C36.6213 63.421 36.5783 63.4323 36.5343 63.4345C36.4903 63.4366 36.4464 63.4296 36.4052 63.4139C36.3641 63.3982 36.3267 63.3741 36.2953 63.3432C36.264 63.3122 36.2394 63.2751 36.2232 63.2342C36.207 63.1933 36.1994 63.1494 36.201 63.1054C36.2026 63.0614 36.2134 63.0182 36.2325 62.9786C36.2517 62.9389 36.2789 62.9037 36.3124 62.8751L38.9437 60.2241C39.0015 60.1659 39.0796 60.1322 39.1615 60.1302C39.2435 60.1282 39.3231 60.158 39.3837 60.2133L42.2776 62.8643C42.3249 62.9076 42.358 62.9641 42.3726 63.0266C42.3872 63.089 42.3826 63.1544 42.3593 63.2141C42.3361 63.2739 42.2953 63.3252 42.2424 63.3614C42.1894 63.3975 42.1268 63.4168 42.0627 63.4168L42.064 63.4142Z" fill="#2F3A5A"/>
<path d="M80.7395 59.0385C80.66 59.0386 80.5833 59.0089 80.5246 58.9552L77.8545 56.5101L75.4387 58.9444C75.4105 58.9783 75.3757 59.0059 75.3363 59.0256C75.2969 59.0453 75.2538 59.0566 75.2099 59.0587C75.1659 59.0609 75.1219 59.0539 75.0808 59.0382C75.0396 59.0225 75.0022 58.9984 74.9709 58.9674C74.9396 58.9365 74.915 58.8994 74.8987 58.8585C74.8825 58.8175 74.8749 58.7737 74.8766 58.7297C74.8782 58.6857 74.8889 58.6425 74.9081 58.6028C74.9272 58.5632 74.9544 58.528 74.988 58.4994L77.6193 55.8483C77.6771 55.7901 77.7551 55.7565 77.8371 55.7545C77.9191 55.7525 77.9987 55.7822 78.0592 55.8375L80.9531 58.4886C81.0004 58.5318 81.0336 58.5884 81.0481 58.6508C81.0627 58.7133 81.0581 58.7786 81.0349 58.8384C81.0116 58.8981 80.9709 58.9495 80.9179 58.9856C80.865 59.0218 80.8023 59.0411 80.7382 59.041L80.7395 59.0385Z" fill="#2F3A5A"/>
<path d="M75.2148 59.0385C75.1353 59.0386 75.0586 59.0089 74.9999 58.9552L72.3298 56.5101L69.914 58.9444C69.8859 58.9783 69.851 59.0059 69.8116 59.0256C69.7722 59.0453 69.7291 59.0566 69.6852 59.0587C69.6412 59.0609 69.5972 59.0539 69.5561 59.0382C69.515 59.0225 69.4775 58.9984 69.4462 58.9674C69.4149 58.9365 69.3903 58.8994 69.3741 58.8585C69.3578 58.8175 69.3503 58.7737 69.3519 58.7297C69.3535 58.6857 69.3642 58.6425 69.3834 58.6028C69.4026 58.5632 69.4298 58.528 69.4633 58.4994L72.0952 55.8483C72.153 55.7901 72.231 55.7565 72.313 55.7545C72.395 55.7525 72.4746 55.7822 72.5352 55.8375L75.4291 58.4886C75.4764 58.5318 75.5095 58.5884 75.5241 58.6508C75.5387 58.7133 75.5341 58.7786 75.5108 58.8384C75.4876 58.8981 75.4468 58.9495 75.3939 58.9856C75.3409 59.0218 75.2783 59.0411 75.2142 59.041L75.2148 59.0385Z" fill="#2F3A5A"/>
<path d="M69.6888 59.0385C69.6093 59.0386 69.5326 59.0089 69.4739 58.9552L66.8038 56.5101L64.388 58.9444C64.3599 58.9783 64.325 59.0059 64.2856 59.0256C64.2462 59.0453 64.2031 59.0566 64.1592 59.0587C64.1152 59.0609 64.0712 59.0539 64.0301 59.0382C63.989 59.0225 63.9515 58.9984 63.9202 58.9674C63.8889 58.9365 63.8643 58.8994 63.8481 58.8585C63.8318 58.8175 63.8243 58.7737 63.8259 58.7297C63.8275 58.6857 63.8382 58.6425 63.8574 58.6028C63.8765 58.5632 63.9038 58.528 63.9373 58.4994L66.5692 55.8483C66.627 55.7901 66.705 55.7565 66.787 55.7545C66.869 55.7525 66.9486 55.7822 67.0092 55.8375L69.9024 58.4886C69.9497 58.5318 69.9829 58.5884 69.9975 58.6508C70.012 58.7133 70.0074 58.7786 69.9842 58.8384C69.9609 58.8981 69.9202 58.9495 69.8672 58.9856C69.8143 59.0218 69.7517 59.0411 69.6875 59.041L69.6888 59.0385Z" fill="#2F3A5A"/>
<path d="M64.1641 59.0385C64.0846 59.0386 64.0079 59.0089 63.9492 58.9552L61.2791 56.5101L58.8633 58.9444C58.8351 58.9783 58.8003 59.0059 58.7609 59.0256C58.7215 59.0453 58.6784 59.0566 58.6344 59.0587C58.5905 59.0609 58.5465 59.0539 58.5054 59.0382C58.4642 59.0225 58.4268 58.9984 58.3955 58.9674C58.3641 58.9365 58.3396 58.8994 58.3233 58.8585C58.3071 58.8175 58.2995 58.7737 58.3011 58.7297C58.3027 58.6857 58.3135 58.6425 58.3327 58.6028C58.3518 58.5632 58.379 58.528 58.4125 58.4994L61.0439 55.8483C61.1016 55.7901 61.1797 55.7565 61.2617 55.7545C61.3437 55.7525 61.4232 55.7822 61.4838 55.8375L64.3777 58.4886C64.425 58.5318 64.4581 58.5884 64.4727 58.6508C64.4873 58.7133 64.4827 58.7786 64.4595 58.8384C64.4362 58.8981 64.3955 58.9495 64.3425 58.9856C64.2896 59.0218 64.2269 59.0411 64.1628 59.041L64.1641 59.0385Z" fill="#2F3A5A"/>
<path d="M58.6393 59.0384C58.5598 59.0385 58.4831 59.0088 58.4244 58.9552L55.7549 56.5114L53.3391 58.9456C53.311 58.9795 53.2761 59.0072 53.2367 59.0268C53.1973 59.0465 53.1543 59.0578 53.1103 59.06C53.0663 59.0621 53.0223 59.0551 52.9812 59.0394C52.9401 59.0237 52.9026 58.9996 52.8713 58.9687C52.84 58.9377 52.8154 58.9006 52.7992 58.8597C52.7829 58.8188 52.7754 58.7749 52.777 58.7309C52.7786 58.6869 52.7893 58.6437 52.8085 58.6041C52.8277 58.5644 52.8549 58.5292 52.8884 58.5006L55.5197 55.8496C55.5775 55.7913 55.6555 55.7577 55.7375 55.7557C55.8195 55.7537 55.8991 55.7834 55.9596 55.8387L58.8535 58.4898C58.9009 58.5331 58.934 58.5896 58.9486 58.6521C58.9632 58.7145 58.9585 58.7799 58.9353 58.8396C58.9121 58.8994 58.8713 58.9507 58.8184 58.9869C58.7654 59.023 58.7028 59.0423 58.6387 59.0423L58.6393 59.0384Z" fill="#2F3A5A"/>
<path d="M53.1147 59.0385C53.0351 59.0386 52.9585 59.0089 52.8998 58.9552L50.2297 56.5101L47.8139 58.9444C47.7857 58.9783 47.7508 59.0059 47.7114 59.0256C47.6721 59.0453 47.629 59.0566 47.585 59.0587C47.541 59.0609 47.4971 59.0539 47.4559 59.0382C47.4148 59.0225 47.3774 58.9984 47.3461 58.9674C47.3147 58.9365 47.2902 58.8994 47.2739 58.8585C47.2577 58.8175 47.2501 58.7737 47.2517 58.7297C47.2533 58.6857 47.2641 58.6425 47.2832 58.6028C47.3024 58.5632 47.3296 58.528 47.3631 58.4994L49.9951 55.8483C50.0529 55.7901 50.1309 55.7565 50.2129 55.7545C50.2949 55.7525 50.3745 55.7822 50.435 55.8375L53.3289 58.4886C53.3762 58.5318 53.4094 58.5884 53.4239 58.6508C53.4385 58.7133 53.4339 58.7786 53.4107 58.8384C53.3874 58.8981 53.3467 58.9495 53.2937 58.9856C53.2408 59.0218 53.1781 59.0411 53.114 59.041L53.1147 59.0385Z" fill="#2F3A5A"/>
<path d="M47.5888 59.0384C47.5093 59.0385 47.4326 59.0088 47.3739 58.9552L44.7057 56.5114L42.2899 58.9456C42.2617 58.9795 42.2269 59.0072 42.1875 59.0268C42.1481 59.0465 42.105 59.0578 42.061 59.06C42.0171 59.0621 41.9731 59.0551 41.932 59.0394C41.8908 59.0237 41.8534 58.9996 41.8221 58.9687C41.7907 58.9377 41.7662 58.9006 41.7499 58.8597C41.7337 58.8188 41.7261 58.7749 41.7278 58.7309C41.7294 58.6869 41.7401 58.6437 41.7593 58.6041C41.7784 58.5644 41.8056 58.5292 41.8391 58.5006L44.4705 55.8496C44.5283 55.7913 44.6063 55.7577 44.6883 55.7557C44.7703 55.7537 44.8498 55.7834 44.9104 55.8387L47.8043 58.4898C47.8516 58.5331 47.8848 58.5896 47.8993 58.6521C47.9139 58.7145 47.9093 58.7799 47.8861 58.8396C47.8628 58.8994 47.8221 58.9507 47.7691 58.9869C47.7162 59.023 47.6535 59.0423 47.5894 59.0423L47.5888 59.0384Z" fill="#2F3A5A"/>
<path d="M42.064 59.0384C41.9845 59.0385 41.9078 59.0088 41.8491 58.9552L39.1809 56.5114L36.7651 58.9456C36.7369 58.9795 36.7021 59.0072 36.6627 59.0268C36.6233 59.0465 36.5802 59.0578 36.5363 59.06C36.4923 59.0621 36.4483 59.0551 36.4072 59.0394C36.366 59.0237 36.3286 58.9996 36.2973 58.9687C36.266 58.9377 36.2414 58.9006 36.2251 58.8597C36.2089 58.8188 36.2014 58.7749 36.203 58.7309C36.2046 58.6869 36.2153 58.6437 36.2345 58.6041C36.2536 58.5644 36.2808 58.5292 36.3143 58.5006L38.9457 55.8496C39.0035 55.7913 39.0815 55.7577 39.1635 55.7557C39.2455 55.7537 39.3251 55.7834 39.3856 55.8387L42.2795 58.4898C42.3268 58.5331 42.36 58.5896 42.3746 58.6521C42.3891 58.7145 42.3845 58.7799 42.3613 58.8396C42.338 58.8994 42.2973 58.9507 42.2443 58.9869C42.1914 59.023 42.1288 59.0423 42.0646 59.0423L42.064 59.0384Z" fill="#2F3A5A"/>
<path d="M80.7392 50.4375V38.0163C80.7069 37.3061 80.3943 36.6377 79.8699 36.1576C79.3456 35.6774 78.6523 35.4248 77.942 35.4549H39.334C38.6237 35.4248 37.9303 35.6774 37.406 36.1576C36.8817 36.6377 36.5691 37.3061 36.5367 38.0163V50.4375C36.5691 51.1477 36.8817 51.8161 37.406 52.2963C37.9303 52.7764 38.6237 53.0291 39.334 52.9989H77.942C78.6523 53.0291 79.3456 52.7764 79.8699 52.2963C80.3943 51.8161 80.7069 51.1477 80.7392 50.4375Z" fill="#9297AB"/>
<path d="M80.7395 38.0188V50.4406C80.706 51.1491 80.3936 51.8156 79.8705 52.2947C79.3474 52.7737 78.656 53.0264 77.9473 52.9976H39.3355C38.626 53.0273 37.9337 52.775 37.4095 52.296C36.8854 51.8169 36.5722 51.1499 36.5382 50.4406V48.2257H73.7819C74.4921 48.2555 75.185 48.0022 75.7085 47.5215C76.2321 47.0407 76.5434 46.3718 76.5741 45.6617V35.4549H77.9486C78.6582 35.4266 79.3501 35.6805 79.8731 36.1609C80.3961 36.6414 80.7076 37.3094 80.7395 38.0188Z" fill="#84879C"/>
<path d="M77.942 53.6347H39.334C38.4552 53.6642 37.6006 53.3444 36.9571 52.7452C36.3137 52.1459 35.9339 51.3162 35.901 50.4375V38.0164C35.9339 37.1378 36.3137 36.308 36.9571 35.7088C37.6006 35.1096 38.4552 34.7897 39.334 34.8193H77.942C78.8207 34.7899 79.6752 35.1098 80.3186 35.709C80.962 36.3082 81.3418 37.1378 81.375 38.0164V50.4375C81.3418 51.3161 80.962 52.1458 80.3186 52.745C79.6752 53.3442 78.8207 53.6641 77.942 53.6347ZM39.3327 36.0882C38.7912 36.059 38.2601 36.245 37.8552 36.6057C37.4503 36.9665 37.2045 37.4726 37.1712 38.0139V50.4375C37.2045 50.9788 37.4503 51.4849 37.8552 51.8457C38.2601 52.2064 38.7912 52.3924 39.3327 52.3632H77.942C78.4834 52.3922 79.0144 52.2062 79.4193 51.8455C79.8241 51.4848 80.07 50.9787 80.1035 50.4375V38.0164C80.07 37.4752 79.8241 36.9692 79.4193 36.6085C79.0144 36.2478 78.4834 36.0617 77.942 36.0907L39.3327 36.0882Z" fill="#2F3A5A"/>
<path d="M80.7395 50.246C80.6599 50.2461 80.5833 50.2164 80.5246 50.1627L77.8545 47.7177L75.4387 50.1519C75.4105 50.1858 75.3756 50.2134 75.3362 50.2331C75.2969 50.2528 75.2538 50.2641 75.2098 50.2662C75.1658 50.2684 75.1219 50.2614 75.0808 50.2457C75.0396 50.23 75.0022 50.2059 74.9709 50.175C74.9395 50.144 74.915 50.1069 74.8987 50.066C74.8825 50.025 74.8749 49.9812 74.8765 49.9372C74.8781 49.8932 74.8889 49.85 74.908 49.8103C74.9272 49.7707 74.9544 49.7355 74.9879 49.7069L77.6193 47.0558C77.677 46.9976 77.7551 46.964 77.837 46.962C77.919 46.96 77.9986 46.9897 78.0592 47.045L80.9531 49.6961C81.0004 49.7393 81.0335 49.7959 81.0481 49.8583C81.0627 49.9208 81.0581 49.9862 81.0348 50.0459C81.0116 50.1057 80.9708 50.157 80.9179 50.1931C80.8649 50.2293 80.8023 50.2486 80.7382 50.2485L80.7395 50.246Z" fill="#2F3A5A"/>
<path d="M75.2148 50.246C75.1353 50.2461 75.0586 50.2164 74.9999 50.1627L72.3298 47.7177L69.914 50.1519C69.8858 50.1858 69.851 50.2134 69.8116 50.2331C69.7722 50.2528 69.7291 50.2641 69.6851 50.2662C69.6412 50.2684 69.5972 50.2614 69.5561 50.2457C69.5149 50.23 69.4775 50.2059 69.4462 50.175C69.4148 50.144 69.3903 50.1069 69.374 50.066C69.3578 50.025 69.3502 49.9812 69.3518 49.9372C69.3534 49.8932 69.3642 49.85 69.3833 49.8103C69.4025 49.7707 69.4297 49.7355 69.4632 49.7069L72.0952 47.0558C72.153 46.9976 72.231 46.964 72.313 46.962C72.395 46.96 72.4746 46.9897 72.5351 47.045L75.429 49.6961C75.4763 49.7393 75.5095 49.7959 75.5241 49.8583C75.5387 49.9208 75.534 49.9862 75.5108 50.0459C75.4875 50.1057 75.4468 50.157 75.3938 50.1931C75.3409 50.2293 75.2783 50.2486 75.2142 50.2485L75.2148 50.246Z" fill="#2F3A5A"/>
<path d="M69.6888 50.246C69.6092 50.2461 69.5326 50.2164 69.4739 50.1627L66.8038 47.7177L64.388 50.1519C64.3598 50.1858 64.3249 50.2134 64.2855 50.2331C64.2461 50.2528 64.2031 50.2641 64.1591 50.2662C64.1151 50.2684 64.0712 50.2614 64.03 50.2457C63.9889 50.23 63.9515 50.2059 63.9201 50.175C63.8888 50.144 63.8642 50.1069 63.848 50.066C63.8318 50.025 63.8242 49.9812 63.8258 49.9372C63.8274 49.8932 63.8382 49.85 63.8573 49.8103C63.8765 49.7707 63.9037 49.7355 63.9372 49.7069L66.5692 47.0558C66.627 46.9976 66.705 46.964 66.787 46.962C66.869 46.96 66.9486 46.9897 67.0091 47.045L69.9024 49.6961C69.9497 49.7393 69.9828 49.7959 69.9974 49.8583C70.012 49.9208 70.0074 49.9862 69.9841 50.0459C69.9609 50.1057 69.9201 50.157 69.8672 50.1931C69.8142 50.2293 69.7516 50.2486 69.6875 50.2485L69.6888 50.246Z" fill="#2F3A5A"/>
<path d="M64.1641 50.246C64.0846 50.2461 64.0079 50.2164 63.9492 50.1627L61.2791 47.7177L58.8632 50.1519C58.8351 50.1858 58.8002 50.2134 58.7608 50.2331C58.7214 50.2528 58.6784 50.2641 58.6344 50.2662C58.5904 50.2684 58.5465 50.2614 58.5053 50.2457C58.4642 50.23 58.4268 50.2059 58.3954 50.175C58.3641 50.144 58.3395 50.1069 58.3233 50.066C58.3071 50.025 58.2995 49.9812 58.3011 49.9372C58.3027 49.8932 58.3134 49.85 58.3326 49.8103C58.3518 49.7707 58.379 49.7355 58.4125 49.7069L61.0438 47.0558C61.1016 46.9976 61.1797 46.964 61.2616 46.962C61.3436 46.96 61.4232 46.9897 61.4838 47.045L64.3777 49.6961C64.425 49.7393 64.4581 49.7959 64.4727 49.8583C64.4873 49.9208 64.4827 49.9862 64.4594 50.0459C64.4362 50.1057 64.3954 50.157 64.3425 50.1931C64.2896 50.2293 64.2269 50.2486 64.1628 50.2485L64.1641 50.246Z" fill="#2F3A5A"/>
<path d="M58.6393 50.2461C58.5597 50.2461 58.4831 50.2164 58.4244 50.1628L55.7543 47.7177L53.3391 50.1539C53.3109 50.1877 53.2761 50.2154 53.2367 50.2351C53.1973 50.2547 53.1542 50.266 53.1102 50.2682C53.0662 50.2704 53.0223 50.2634 52.9812 50.2477C52.94 50.2319 52.9026 50.2078 52.8713 50.1769C52.8399 50.146 52.8154 50.1089 52.7991 50.0679C52.7829 50.027 52.7753 49.9831 52.7769 49.9391C52.7785 49.8951 52.7893 49.8519 52.8084 49.8123C52.8276 49.7726 52.8548 49.7374 52.8883 49.7088L55.5197 47.0578C55.5774 46.9996 55.6555 46.966 55.7375 46.964C55.8194 46.9619 55.899 46.9917 55.9596 47.047L58.8535 49.698C58.9008 49.7413 58.9339 49.7979 58.9485 49.8603C58.9631 49.9227 58.9585 49.9881 58.9353 50.0479C58.912 50.1076 58.8712 50.1589 58.8183 50.1951C58.7654 50.2313 58.7027 50.2506 58.6386 50.2505L58.6393 50.2461Z" fill="#2F3A5A"/>
<path d="M53.1146 50.2461C53.035 50.2461 52.9584 50.2164 52.8997 50.1628L50.2296 47.7177L47.8144 50.1539C47.7862 50.1877 47.7513 50.2154 47.712 50.2351C47.6726 50.2547 47.6295 50.266 47.5855 50.2682C47.5415 50.2704 47.4976 50.2634 47.4565 50.2477C47.4153 50.2319 47.3779 50.2078 47.3466 50.1769C47.3152 50.146 47.2907 50.1089 47.2744 50.0679C47.2582 50.027 47.2506 49.9831 47.2522 49.9391C47.2538 49.8951 47.2646 49.8519 47.2837 49.8123C47.3029 49.7726 47.3301 49.7374 47.3636 49.7088L49.9956 47.0578C50.0534 46.9996 50.1314 46.966 50.2134 46.964C50.2954 46.9619 50.375 46.9917 50.4355 47.047L53.3294 49.698C53.3767 49.7413 53.4099 49.7979 53.4245 49.8603C53.4391 49.9227 53.4344 49.9881 53.4112 50.0479C53.3879 50.1076 53.3472 50.1589 53.2942 50.1951C53.2413 50.2313 53.1787 50.2506 53.1146 50.2505V50.2461Z" fill="#2F3A5A"/>
<path d="M47.5887 50.2461C47.5092 50.2461 47.4325 50.2164 47.3739 50.1628L44.7037 47.7177L42.2898 50.1539C42.2617 50.1877 42.2268 50.2154 42.1874 50.2351C42.148 50.2547 42.105 50.266 42.061 50.2682C42.017 50.2704 41.9731 50.2634 41.9319 50.2477C41.8908 50.2319 41.8534 50.2078 41.822 50.1769C41.7907 50.146 41.7661 50.1089 41.7499 50.0679C41.7337 50.027 41.7261 49.9831 41.7277 49.9391C41.7293 49.8951 41.74 49.8519 41.7592 49.8123C41.7784 49.7726 41.8056 49.7374 41.8391 49.7088L44.4704 47.0578C44.5282 46.9996 44.6062 46.966 44.6882 46.964C44.7702 46.9619 44.8498 46.9917 44.9104 47.047L47.8043 49.698C47.8516 49.7413 47.8847 49.7979 47.8993 49.8603C47.9139 49.9227 47.9093 49.9881 47.886 50.0479C47.8628 50.1076 47.822 50.1589 47.7691 50.1951C47.7161 50.2313 47.6535 50.2506 47.5894 50.2505L47.5887 50.2461Z" fill="#2F3A5A"/>
<path d="M42.0639 50.246C41.9844 50.2461 41.9077 50.2164 41.8491 50.1627L39.1789 47.7177L36.7631 50.1519C36.735 50.1858 36.7001 50.2134 36.6607 50.2331C36.6213 50.2528 36.5783 50.2641 36.5343 50.2662C36.4903 50.2684 36.4463 50.2614 36.4052 50.2457C36.3641 50.23 36.3267 50.2059 36.2953 50.175C36.264 50.144 36.2394 50.1069 36.2232 50.066C36.2069 50.025 36.1994 49.9812 36.201 49.9372C36.2026 49.8932 36.2133 49.85 36.2325 49.8103C36.2517 49.7707 36.2789 49.7355 36.3124 49.7069L38.9437 47.0558C39.0015 46.9976 39.0795 46.964 39.1615 46.962C39.2435 46.96 39.3231 46.9897 39.3837 47.045L42.2775 49.6961C42.3249 49.7393 42.358 49.7959 42.3726 49.8583C42.3872 49.9208 42.3825 49.9862 42.3593 50.0459C42.3361 50.1057 42.2953 50.157 42.2424 50.1931C42.1894 50.2293 42.1268 50.2486 42.0627 50.2485L42.0639 50.246Z" fill="#2F3A5A"/>
<path d="M80.7395 45.8703C80.6599 45.8704 80.5833 45.8406 80.5246 45.787L77.8545 43.3419L75.4387 45.7762C75.4105 45.81 75.3756 45.8377 75.3362 45.8574C75.2969 45.8771 75.2538 45.8883 75.2098 45.8905C75.1658 45.8927 75.1219 45.8857 75.0808 45.87C75.0396 45.8542 75.0022 45.8302 74.9709 45.7992C74.9395 45.7683 74.915 45.7312 74.8987 45.6902C74.8825 45.6493 74.8749 45.6054 74.8765 45.5614C74.8781 45.5174 74.8889 45.4742 74.908 45.4346C74.9272 45.395 74.9544 45.3597 74.9879 45.3312L77.6193 42.6801C77.677 42.6219 77.7551 42.5883 77.837 42.5863C77.919 42.5843 77.9986 42.614 78.0592 42.6693L80.9531 45.3204C81.0004 45.3636 81.0335 45.4202 81.0481 45.4826C81.0627 45.545 81.0581 45.6104 81.0348 45.6702C81.0116 45.7299 80.9708 45.7812 80.9179 45.8174C80.8649 45.8536 80.8023 45.8729 80.7382 45.8728L80.7395 45.8703Z" fill="#2F3A5A"/>
<path d="M75.2148 45.8703C75.1353 45.8704 75.0586 45.8406 74.9999 45.787L72.3298 43.3419L69.914 45.7762C69.8858 45.81 69.851 45.8377 69.8116 45.8574C69.7722 45.8771 69.7291 45.8883 69.6851 45.8905C69.6412 45.8927 69.5972 45.8857 69.5561 45.87C69.5149 45.8542 69.4775 45.8302 69.4462 45.7992C69.4148 45.7683 69.3903 45.7312 69.374 45.6902C69.3578 45.6493 69.3502 45.6054 69.3518 45.5614C69.3534 45.5174 69.3642 45.4742 69.3833 45.4346C69.4025 45.395 69.4297 45.3597 69.4632 45.3312L72.0952 42.6801C72.153 42.6219 72.231 42.5883 72.313 42.5863C72.395 42.5843 72.4746 42.614 72.5351 42.6693L75.429 45.3204C75.4763 45.3636 75.5095 45.4202 75.5241 45.4826C75.5387 45.545 75.534 45.6104 75.5108 45.6702C75.4875 45.7299 75.4468 45.7812 75.3938 45.8174C75.3409 45.8536 75.2783 45.8729 75.2142 45.8728L75.2148 45.8703Z" fill="#2F3A5A"/>
<path d="M69.6888 45.8703C69.6092 45.8704 69.5326 45.8406 69.4739 45.787L66.8038 43.3419L64.388 45.7762C64.3598 45.81 64.3249 45.8377 64.2855 45.8574C64.2461 45.8771 64.2031 45.8883 64.1591 45.8905C64.1151 45.8927 64.0712 45.8857 64.03 45.87C63.9889 45.8542 63.9515 45.8302 63.9201 45.7992C63.8888 45.7683 63.8642 45.7312 63.848 45.6902C63.8318 45.6493 63.8242 45.6054 63.8258 45.5614C63.8274 45.5174 63.8382 45.4742 63.8573 45.4346C63.8765 45.395 63.9037 45.3597 63.9372 45.3312L66.5692 42.6801C66.627 42.6219 66.705 42.5883 66.787 42.5863C66.869 42.5843 66.9486 42.614 67.0091 42.6693L69.9024 45.3204C69.9497 45.3636 69.9828 45.4202 69.9974 45.4826C70.012 45.545 70.0074 45.6104 69.9841 45.6702C69.9609 45.7299 69.9201 45.7812 69.8672 45.8174C69.8142 45.8536 69.7516 45.8729 69.6875 45.8728L69.6888 45.8703Z" fill="#2F3A5A"/>
<path d="M64.1641 45.8703C64.0846 45.8704 64.0079 45.8406 63.9492 45.787L61.2791 43.3419L58.8632 45.7762C58.8351 45.81 58.8002 45.8377 58.7608 45.8574C58.7214 45.8771 58.6784 45.8883 58.6344 45.8905C58.5904 45.8927 58.5465 45.8857 58.5053 45.87C58.4642 45.8542 58.4268 45.8302 58.3954 45.7992C58.3641 45.7683 58.3395 45.7312 58.3233 45.6902C58.3071 45.6493 58.2995 45.6054 58.3011 45.5614C58.3027 45.5174 58.3134 45.4742 58.3326 45.4346C58.3518 45.395 58.379 45.3597 58.4125 45.3312L61.0438 42.6801C61.1016 42.6219 61.1797 42.5883 61.2616 42.5863C61.3436 42.5843 61.4232 42.614 61.4838 42.6693L64.3777 45.3204C64.425 45.3636 64.4581 45.4202 64.4727 45.4826C64.4873 45.545 64.4827 45.6104 64.4594 45.6702C64.4362 45.7299 64.3954 45.7812 64.3425 45.8174C64.2896 45.8536 64.2269 45.8729 64.1628 45.8728L64.1641 45.8703Z" fill="#2F3A5A"/>
<path d="M58.6393 45.8703C58.5598 45.8704 58.4831 45.8406 58.4244 45.787L55.7543 43.3419L53.3385 45.7762C53.3104 45.81 53.2755 45.8377 53.2361 45.8574C53.1967 45.8771 53.1536 45.8883 53.1097 45.8905C53.0657 45.8927 53.0217 45.8857 52.9806 45.87C52.9395 45.8542 52.902 45.8302 52.8707 45.7992C52.8394 45.7683 52.8148 45.7312 52.7986 45.6902C52.7823 45.6493 52.7748 45.6054 52.7764 45.5614C52.778 45.5174 52.7887 45.4742 52.8079 45.4346C52.8271 45.395 52.8543 45.3597 52.8878 45.3312L55.5191 42.6801C55.5769 42.6219 55.6549 42.5883 55.7369 42.5863C55.8189 42.5843 55.8985 42.614 55.959 42.6693L58.8529 45.3204C58.9002 45.3636 58.9334 45.4202 58.948 45.4826C58.9626 45.545 58.9579 45.6104 58.9347 45.6702C58.9114 45.7299 58.8707 45.7812 58.8177 45.8174C58.7648 45.8536 58.7022 45.8729 58.6381 45.8728L58.6393 45.8703Z" fill="#2F3A5A"/>
<path d="M53.1146 45.8703C53.0351 45.8704 52.9584 45.8406 52.8998 45.787L50.2296 43.3419L47.8138 45.7762C47.7857 45.81 47.7508 45.8377 47.7114 45.8574C47.672 45.8771 47.629 45.8883 47.585 45.8905C47.541 45.8927 47.497 45.8857 47.4559 45.87C47.4148 45.8542 47.3773 45.8302 47.346 45.7992C47.3147 45.7683 47.2901 45.7312 47.2739 45.6902C47.2576 45.6493 47.2501 45.6054 47.2517 45.5614C47.2533 45.5174 47.264 45.4742 47.2832 45.4346C47.3024 45.395 47.3296 45.3597 47.3631 45.3312L49.995 42.6801C50.0528 42.6219 50.1309 42.5883 50.2128 42.5863C50.2948 42.5843 50.3744 42.614 50.435 42.6693L53.3289 45.3204C53.3762 45.3636 53.4093 45.4202 53.4239 45.4826C53.4385 45.545 53.4339 45.6104 53.4106 45.6702C53.3874 45.7299 53.3466 45.7812 53.2937 45.8174C53.2408 45.8536 53.1781 45.8729 53.114 45.8728L53.1146 45.8703Z" fill="#2F3A5A"/>
<path d="M47.5887 45.8703C47.5092 45.8704 47.4325 45.8406 47.3738 45.787L44.7037 43.3419L42.2879 45.7762C42.2598 45.81 42.2249 45.8377 42.1855 45.8574C42.1461 45.8771 42.103 45.8883 42.0591 45.8905C42.0151 45.8927 41.9711 45.8857 41.93 45.87C41.8889 45.8542 41.8514 45.8302 41.8201 45.7992C41.7888 45.7683 41.7642 45.7312 41.748 45.6902C41.7317 45.6493 41.7242 45.6054 41.7258 45.5614C41.7274 45.5174 41.7381 45.4742 41.7573 45.4346C41.7765 45.395 41.8037 45.3597 41.8372 45.3312L44.4685 42.6801C44.5263 42.6219 44.6043 42.5883 44.6863 42.5863C44.7683 42.5843 44.8479 42.614 44.9084 42.6693L47.8023 45.3204C47.8497 45.3636 47.8828 45.4202 47.8974 45.4826C47.912 45.545 47.9073 45.6104 47.8841 45.6702C47.8608 45.7299 47.8201 45.7812 47.7671 45.8174C47.7142 45.8536 47.6516 45.8729 47.5875 45.8728L47.5887 45.8703Z" fill="#2F3A5A"/>
<path d="M42.0639 45.8703C41.9844 45.8704 41.9077 45.8406 41.8491 45.787L39.1789 43.3419L36.7631 45.7762C36.735 45.81 36.7001 45.8377 36.6607 45.8574C36.6213 45.8771 36.5783 45.8883 36.5343 45.8905C36.4903 45.8927 36.4463 45.8857 36.4052 45.87C36.3641 45.8542 36.3267 45.8302 36.2953 45.7992C36.264 45.7683 36.2394 45.7312 36.2232 45.6902C36.2069 45.6493 36.1994 45.6054 36.201 45.5614C36.2026 45.5174 36.2133 45.4742 36.2325 45.4346C36.2517 45.395 36.2789 45.3597 36.3124 45.3312L38.9437 42.6801C39.0015 42.6219 39.0795 42.5883 39.1615 42.5863C39.2435 42.5843 39.3231 42.614 39.3837 42.6693L42.2775 45.3204C42.3249 45.3636 42.358 45.4202 42.3726 45.4826C42.3872 45.545 42.3825 45.6104 42.3593 45.6702C42.3361 45.7299 42.2953 45.7812 42.2424 45.8174C42.1894 45.8536 42.1268 45.8729 42.0627 45.8728L42.0639 45.8703Z" fill="#2F3A5A"/>
<path d="M80.7395 41.4945C80.66 41.4946 80.5833 41.4648 80.5246 41.4112L77.8564 38.9649L75.4406 41.3991C75.4124 41.433 75.3776 41.4606 75.3382 41.4803C75.2988 41.5 75.2557 41.5113 75.2117 41.5134C75.1678 41.5156 75.1238 41.5086 75.0827 41.4929C75.0415 41.4772 75.0041 41.4531 74.9728 41.4222C74.9414 41.3912 74.9169 41.3541 74.9006 41.3132C74.8844 41.2722 74.8768 41.2284 74.8784 41.1844C74.8801 41.1404 74.8908 41.0972 74.91 41.0575C74.9291 41.0179 74.9563 40.9827 74.9898 40.9541L77.6212 38.303C77.679 38.2448 77.757 38.2112 77.839 38.2092C77.921 38.2072 78.0006 38.2369 78.0611 38.2922L80.955 40.9433C81.0023 40.9865 81.0355 41.0431 81.05 41.1055C81.0646 41.168 81.06 41.2333 81.0368 41.2931C81.0135 41.3528 80.9728 41.4042 80.9198 41.4403C80.8669 41.4765 80.8042 41.4958 80.7401 41.4957L80.7395 41.4945Z" fill="#2F3A5A"/>
<path d="M75.2146 41.4945C75.1351 41.4946 75.0584 41.4648 74.9997 41.4112L72.3309 38.9649L69.9151 41.3991C69.8869 41.433 69.8521 41.4606 69.8127 41.4803C69.7733 41.5 69.7302 41.5113 69.6862 41.5134C69.6423 41.5156 69.5983 41.5086 69.5572 41.4929C69.516 41.4772 69.4786 41.4531 69.4473 41.4222C69.4159 41.3912 69.3914 41.3541 69.3751 41.3132C69.3589 41.2722 69.3513 41.2284 69.3529 41.1844C69.3545 41.1404 69.3653 41.0972 69.3844 41.0575C69.4036 41.0179 69.4308 40.9827 69.4643 40.9541L72.0963 38.303C72.1541 38.2448 72.2321 38.2112 72.3141 38.2092C72.3961 38.2072 72.4757 38.2369 72.5362 38.2922L75.4301 40.9433C75.4774 40.9865 75.5106 41.0431 75.5252 41.1055C75.5398 41.168 75.5351 41.2333 75.5119 41.2931C75.4886 41.3528 75.4479 41.4042 75.3949 41.4403C75.342 41.4765 75.2794 41.4958 75.2152 41.4957L75.2146 41.4945Z" fill="#2F3A5A"/>
<path d="M69.6887 41.4945C69.6092 41.4946 69.5325 41.4648 69.4738 41.4112L66.8063 38.9649L64.3904 41.3991C64.3623 41.433 64.3274 41.4606 64.288 41.4803C64.2486 41.5 64.2056 41.5113 64.1616 41.5134C64.1176 41.5156 64.0737 41.5086 64.0325 41.4929C63.9914 41.4772 63.954 41.4531 63.9226 41.4222C63.8913 41.3912 63.8667 41.3541 63.8505 41.3132C63.8343 41.2722 63.8267 41.2284 63.8283 41.1844C63.8299 41.1404 63.8406 41.0972 63.8598 41.0575C63.879 41.0179 63.9062 40.9827 63.9397 40.9541L66.5717 38.303C66.6294 38.2448 66.7075 38.2112 66.7895 38.2092C66.8714 38.2072 66.951 38.2369 67.0116 38.2922L69.9049 40.9433C69.9522 40.9865 69.9853 41.0431 69.9999 41.1055C70.0145 41.168 70.0099 41.2333 69.9866 41.2931C69.9634 41.3528 69.9226 41.4042 69.8697 41.4403C69.8167 41.4765 69.7541 41.4958 69.69 41.4957L69.6887 41.4945Z" fill="#2F3A5A"/>
<path d="M64.1641 41.4945C64.0846 41.4946 64.0079 41.4648 63.9492 41.4112L61.281 38.9649L58.8652 41.3991C58.837 41.433 58.8022 41.4606 58.7628 41.4803C58.7234 41.5 58.6803 41.5113 58.6364 41.5134C58.5924 41.5156 58.5484 41.5086 58.5073 41.4929C58.4661 41.4772 58.4287 41.4531 58.3974 41.4222C58.3661 41.3912 58.3415 41.3541 58.3252 41.3132C58.309 41.2722 58.3014 41.2284 58.3031 41.1844C58.3047 41.1404 58.3154 41.0972 58.3346 41.0575C58.3537 41.0179 58.3809 40.9827 58.4144 40.9541L61.0458 38.303C61.1036 38.2448 61.1816 38.2112 61.2636 38.2092C61.3456 38.2072 61.4252 38.2369 61.4857 38.2922L64.3796 40.9433C64.4269 40.9865 64.4601 41.0431 64.4746 41.1055C64.4892 41.168 64.4846 41.2333 64.4614 41.2931C64.4381 41.3528 64.3974 41.4042 64.3444 41.4403C64.2915 41.4765 64.2288 41.4958 64.1647 41.4957L64.1641 41.4945Z" fill="#2F3A5A"/>
<path d="M58.6393 41.4945C58.5597 41.4946 58.4831 41.4648 58.4244 41.4112L55.7549 38.9649L53.3391 41.3991C53.3109 41.433 53.2761 41.4606 53.2367 41.4803C53.1973 41.5 53.1542 41.5113 53.1102 41.5134C53.0662 41.5156 53.0223 41.5086 52.9812 41.4929C52.94 41.4772 52.9026 41.4531 52.8713 41.4222C52.8399 41.3912 52.8154 41.3541 52.7991 41.3132C52.7829 41.2722 52.7753 41.2284 52.7769 41.1844C52.7785 41.1404 52.7893 41.0972 52.8084 41.0575C52.8276 41.0179 52.8548 40.9827 52.8883 40.9541L55.5197 38.303C55.5774 38.2448 55.6555 38.2112 55.7375 38.2092C55.8194 38.2072 55.899 38.2369 55.9596 38.2922L58.8535 40.9433C58.9008 40.9865 58.9339 41.0431 58.9485 41.1055C58.9631 41.168 58.9585 41.2333 58.9353 41.2931C58.912 41.3528 58.8712 41.4042 58.8183 41.4403C58.7654 41.4765 58.7027 41.4958 58.6386 41.4957L58.6393 41.4945Z" fill="#2F3A5A"/>
<path d="M53.1144 41.4945C53.0349 41.4946 52.9582 41.4648 52.8995 41.4112L50.2313 38.9649L47.8155 41.3991C47.7873 41.433 47.7525 41.4606 47.7131 41.4803C47.6737 41.5 47.6306 41.5113 47.5866 41.5134C47.5427 41.5156 47.4987 41.5086 47.4576 41.4929C47.4164 41.4772 47.379 41.4531 47.3477 41.4222C47.3163 41.3912 47.2918 41.3541 47.2755 41.3132C47.2593 41.2722 47.2517 41.2284 47.2533 41.1844C47.2549 41.1404 47.2657 41.0972 47.2848 41.0575C47.304 41.0179 47.3312 40.9827 47.3647 40.9541L49.9967 38.303C50.0545 38.2448 50.1325 38.2112 50.2145 38.2092C50.2965 38.2072 50.3761 38.2369 50.4366 38.2922L53.3305 40.9433C53.3779 40.9865 53.411 41.0431 53.4256 41.1055C53.4402 41.168 53.4355 41.2333 53.4123 41.2931C53.389 41.3528 53.3483 41.4042 53.2953 41.4403C53.2424 41.4765 53.1798 41.4958 53.1157 41.4957L53.1144 41.4945Z" fill="#2F3A5A"/>
<path d="M47.5887 41.4945C47.5092 41.4946 47.4325 41.4648 47.3739 41.4112L44.7057 38.9649L42.2898 41.3991C42.2617 41.433 42.2268 41.4606 42.1874 41.4803C42.148 41.5 42.105 41.5113 42.061 41.5134C42.017 41.5156 41.9731 41.5086 41.9319 41.4929C41.8908 41.4772 41.8534 41.4531 41.822 41.4222C41.7907 41.3912 41.7661 41.3541 41.7499 41.3132C41.7337 41.2722 41.7261 41.2284 41.7277 41.1844C41.7293 41.1404 41.74 41.0972 41.7592 41.0575C41.7784 41.0179 41.8056 40.9827 41.8391 40.9541L44.4704 38.303C44.5282 38.2448 44.6062 38.2112 44.6882 38.2092C44.7702 38.2072 44.8498 38.2369 44.9104 38.2922L47.8043 40.9433C47.8516 40.9865 47.8847 41.0431 47.8993 41.1055C47.9139 41.168 47.9093 41.2333 47.886 41.2931C47.8628 41.3528 47.822 41.4042 47.7691 41.4403C47.7161 41.4765 47.6535 41.4958 47.5894 41.4957L47.5887 41.4945Z" fill="#2F3A5A"/>
<path d="M42.064 41.4945C41.9844 41.4946 41.9078 41.4648 41.8491 41.4112L39.1809 38.9649L36.765 41.3991C36.7369 41.433 36.702 41.4606 36.6626 41.4803C36.6232 41.5 36.5802 41.5113 36.5362 41.5134C36.4922 41.5156 36.4483 41.5086 36.4071 41.4929C36.366 41.4772 36.3286 41.4531 36.2972 41.4222C36.2659 41.3912 36.2413 41.3541 36.2251 41.3132C36.2089 41.2722 36.2013 41.2284 36.2029 41.1844C36.2045 41.1404 36.2152 41.0972 36.2344 41.0575C36.2536 41.0179 36.2808 40.9827 36.3143 40.9541L38.9456 38.303C39.0034 38.2448 39.0814 38.2112 39.1634 38.2092C39.2454 38.2072 39.325 38.2369 39.3856 38.2922L42.2769 40.942C42.3242 40.9853 42.3574 41.0418 42.372 41.1043C42.3865 41.1667 42.3819 41.2321 42.3587 41.2918C42.3354 41.3516 42.2947 41.4029 42.2417 41.4391C42.1888 41.4752 42.1262 41.4945 42.062 41.4945H42.064Z" fill="#2F3A5A"/>
<path d="M80.7392 32.8935V20.4724C80.7069 19.7622 80.3943 19.0937 79.8699 18.6136C79.3456 18.1335 78.6523 17.8808 77.942 17.911H39.334C38.6237 17.8808 37.9303 18.1335 37.406 18.6136C36.8817 19.0937 36.5691 19.7622 36.5367 20.4724V32.8935C36.5691 33.6038 36.8817 34.2722 37.406 34.7523C37.9303 35.2325 38.6237 35.4851 39.334 35.4549H77.942C78.6523 35.4851 79.3456 35.2325 79.8699 34.7523C80.3943 34.2722 80.7069 33.6038 80.7392 32.8935Z" fill="#9297AB"/>
<path d="M80.7395 20.475V32.8967C80.706 33.6052 80.3936 34.2717 79.8705 34.7508C79.3474 35.2298 78.656 35.4825 77.9473 35.4537H39.3355C38.626 35.4834 37.9337 35.2311 37.4095 34.7521C36.8854 34.273 36.5722 33.606 36.5382 32.8967V30.6818H73.7819C74.4921 30.7116 75.185 30.4583 75.7085 29.9776C76.2321 29.4968 76.5434 28.828 76.5741 28.1178V17.911H77.9486C78.6582 17.8827 79.3501 18.1366 79.8731 18.617C80.3961 19.0975 80.7076 19.7655 80.7395 20.475Z" fill="#84879C"/>
<path d="M77.942 36.0906H39.334C38.4552 36.1202 37.6006 35.8003 36.9571 35.2011C36.3137 34.6019 35.9339 33.7721 35.901 32.8935V20.4723C35.9339 19.5937 36.3137 18.764 36.9571 18.1647C37.6006 17.5655 38.4552 17.2456 39.334 17.2752H77.942C78.8207 17.2458 79.6752 17.5657 80.3186 18.1649C80.962 18.7641 81.3418 19.5938 81.375 20.4723V32.8935C81.3418 33.772 80.962 34.6017 80.3186 35.2009C79.6752 35.8001 78.8207 36.12 77.942 36.0906ZM39.3327 18.5441C38.7912 18.5149 38.2601 18.701 37.8552 19.0617C37.4503 19.4224 37.2045 19.9285 37.1712 20.4698V32.8935C37.2045 33.4347 37.4503 33.9409 37.8552 34.3016C38.2601 34.6623 38.7912 34.8483 39.3327 34.8191H77.942C78.4834 34.8482 79.0144 34.6621 79.4193 34.3014C79.8241 33.9407 80.07 33.4347 80.1035 32.8935V20.4723C80.07 19.9312 79.8241 19.4251 79.4193 19.0644C79.0144 18.7037 78.4834 18.5176 77.942 18.5467L39.3327 18.5441Z" fill="#2F3A5A"/>
<path d="M80.7393 32.7021C80.6598 32.7022 80.5831 32.6725 80.5244 32.6188L77.8543 30.1737L75.4398 32.6074C75.4116 32.6412 75.3767 32.6689 75.3374 32.6886C75.298 32.7082 75.2549 32.7195 75.2109 32.7217C75.1669 32.7239 75.123 32.7169 75.0818 32.7011C75.0407 32.6854 75.0033 32.6613 74.972 32.6304C74.9406 32.5995 74.9161 32.5624 74.8998 32.5214C74.8836 32.4805 74.876 32.4366 74.8776 32.3926C74.8792 32.3486 74.89 32.3054 74.9091 32.2658C74.9283 32.2261 74.9555 32.1909 74.989 32.1623L77.6204 29.5113C77.6781 29.4531 77.7562 29.4195 77.8381 29.4175C77.9201 29.4154 77.9997 29.4452 78.0603 29.5005L80.9542 32.1515C81.0015 32.1948 81.0346 32.2514 81.0492 32.3138C81.0638 32.3762 81.0592 32.4416 81.0359 32.5013C81.0127 32.5611 80.9719 32.6124 80.919 32.6486C80.8661 32.6848 80.8034 32.7041 80.7393 32.704V32.7021Z" fill="#2F3A5A"/>
<path d="M75.2148 32.7021C75.1353 32.7022 75.0586 32.6725 74.9999 32.6188L72.3298 30.1737L69.9146 32.6074C69.8864 32.6412 69.8516 32.6689 69.8122 32.6886C69.7728 32.7082 69.7297 32.7195 69.6857 32.7217C69.6418 32.7239 69.5978 32.7169 69.5567 32.7011C69.5155 32.6854 69.4781 32.6613 69.4468 32.6304C69.4154 32.5995 69.3909 32.5624 69.3746 32.5214C69.3584 32.4805 69.3508 32.4366 69.3524 32.3926C69.354 32.3486 69.3648 32.3054 69.384 32.2658C69.4031 32.2261 69.4303 32.1909 69.4638 32.1623L72.0958 29.5113C72.1536 29.4531 72.2316 29.4195 72.3136 29.4175C72.3956 29.4154 72.4752 29.4452 72.5358 29.5005L75.4297 32.1515C75.477 32.1948 75.5101 32.2514 75.5247 32.3138C75.5393 32.3762 75.5347 32.4416 75.5114 32.5013C75.4882 32.5611 75.4474 32.6124 75.3945 32.6486C75.3415 32.6848 75.2789 32.7041 75.2148 32.704V32.7021Z" fill="#2F3A5A"/>
<path d="M69.6889 32.7021C69.6093 32.7022 69.5327 32.6725 69.474 32.6188L66.8039 30.1737L64.3893 32.6074C64.3612 32.6412 64.3263 32.6689 64.2869 32.6886C64.2475 32.7082 64.2045 32.7195 64.1605 32.7217C64.1165 32.7239 64.0726 32.7169 64.0314 32.7011C63.9903 32.6854 63.9529 32.6613 63.9215 32.6304C63.8902 32.5995 63.8656 32.5624 63.8494 32.5214C63.8331 32.4805 63.8256 32.4366 63.8272 32.3926C63.8288 32.3486 63.8395 32.3054 63.8587 32.2658C63.8779 32.2261 63.9051 32.1909 63.9386 32.1623L66.5706 29.5113C66.6283 29.4531 66.7064 29.4195 66.7883 29.4175C66.8703 29.4154 66.9499 29.4452 67.0105 29.5005L69.9038 32.1515C69.9511 32.1948 69.9842 32.2514 69.9988 32.3138C70.0134 32.3762 70.0087 32.4416 69.9855 32.5013C69.9623 32.5611 69.9215 32.6124 69.8686 32.6486C69.8156 32.6848 69.753 32.7041 69.6889 32.704V32.7021Z" fill="#2F3A5A"/>
<path d="M64.1642 32.7021C64.0847 32.7022 64.008 32.6725 63.9493 32.6188L61.2792 30.1737L58.8646 32.6074C58.8365 32.6412 58.8016 32.6689 58.7622 32.6886C58.7228 32.7082 58.6798 32.7195 58.6358 32.7217C58.5918 32.7239 58.5479 32.7169 58.5067 32.7011C58.4656 32.6854 58.4282 32.6613 58.3968 32.6304C58.3655 32.5995 58.3409 32.5624 58.3247 32.5214C58.3085 32.4805 58.3009 32.4366 58.3025 32.3926C58.3041 32.3486 58.3148 32.3054 58.334 32.2658C58.3532 32.2261 58.3804 32.1909 58.4139 32.1623L61.0452 29.5113C61.103 29.4531 61.181 29.4195 61.263 29.4175C61.345 29.4154 61.4246 29.4452 61.4852 29.5005L64.3791 32.1515C64.4264 32.1948 64.4595 32.2514 64.4741 32.3138C64.4887 32.3762 64.4841 32.4416 64.4608 32.5013C64.4376 32.5611 64.3968 32.6124 64.3439 32.6486C64.2909 32.6848 64.2283 32.7041 64.1642 32.704V32.7021Z" fill="#2F3A5A"/>
<path d="M58.6393 32.7021C58.5597 32.7022 58.4831 32.6725 58.4244 32.6188L55.7543 30.1737L53.3391 32.6074C53.3109 32.6412 53.2761 32.6689 53.2367 32.6886C53.1973 32.7082 53.1542 32.7195 53.1102 32.7217C53.0662 32.7239 53.0223 32.7169 52.9812 32.7011C52.94 32.6854 52.9026 32.6613 52.8713 32.6304C52.8399 32.5995 52.8154 32.5624 52.7991 32.5214C52.7829 32.4805 52.7753 32.4366 52.7769 32.3926C52.7785 32.3486 52.7893 32.3054 52.8084 32.2658C52.8276 32.2261 52.8548 32.1909 52.8883 32.1623L55.5197 29.5113C55.5774 29.4531 55.6555 29.4195 55.7375 29.4175C55.8194 29.4154 55.899 29.4452 55.9596 29.5005L58.8535 32.1515C58.9008 32.1948 58.9339 32.2514 58.9485 32.3138C58.9631 32.3762 58.9585 32.4416 58.9353 32.5013C58.912 32.5611 58.8712 32.6124 58.8183 32.6486C58.7654 32.6848 58.7027 32.7041 58.6386 32.704L58.6393 32.7021Z" fill="#2F3A5A"/>
<path d="M53.1146 32.7021C53.035 32.7022 52.9584 32.6725 52.8997 32.6188L50.2296 30.1737L47.8144 32.6074C47.7862 32.6412 47.7513 32.6689 47.712 32.6886C47.6726 32.7082 47.6295 32.7195 47.5855 32.7217C47.5415 32.7239 47.4976 32.7169 47.4565 32.7011C47.4153 32.6854 47.3779 32.6613 47.3466 32.6304C47.3152 32.5995 47.2907 32.5624 47.2744 32.5214C47.2582 32.4805 47.2506 32.4366 47.2522 32.3926C47.2538 32.3486 47.2646 32.3054 47.2837 32.2658C47.3029 32.2261 47.3301 32.1909 47.3636 32.1623L49.9956 29.5113C50.0534 29.4531 50.1314 29.4195 50.2134 29.4175C50.2954 29.4154 50.375 29.4452 50.4355 29.5005L53.3294 32.1515C53.3767 32.1948 53.4099 32.2514 53.4245 32.3138C53.4391 32.3762 53.4344 32.4416 53.4112 32.5013C53.3879 32.5611 53.3472 32.6124 53.2942 32.6486C53.2413 32.6848 53.1787 32.7041 53.1146 32.704V32.7021Z" fill="#2F3A5A"/>
<path d="M47.5887 32.7021C47.5092 32.7022 47.4325 32.6725 47.3739 32.6188L44.7037 30.1737L42.2898 32.6074C42.2617 32.6412 42.2268 32.6689 42.1874 32.6886C42.148 32.7082 42.105 32.7195 42.061 32.7217C42.017 32.7239 41.9731 32.7169 41.9319 32.7011C41.8908 32.6854 41.8534 32.6613 41.822 32.6304C41.7907 32.5995 41.7661 32.5624 41.7499 32.5214C41.7337 32.4805 41.7261 32.4366 41.7277 32.3926C41.7293 32.3486 41.74 32.3054 41.7592 32.2658C41.7784 32.2261 41.8056 32.1909 41.8391 32.1623L44.4704 29.5113C44.5282 29.4531 44.6062 29.4195 44.6882 29.4175C44.7702 29.4154 44.8498 29.4452 44.9104 29.5005L47.8043 32.1515C47.8516 32.1948 47.8847 32.2514 47.8993 32.3138C47.9139 32.3762 47.9093 32.4416 47.886 32.5013C47.8628 32.5611 47.822 32.6124 47.7691 32.6486C47.7161 32.6848 47.6535 32.7041 47.5894 32.704L47.5887 32.7021Z" fill="#2F3A5A"/>
<path d="M42.064 32.7021C41.9845 32.7022 41.9078 32.6725 41.8491 32.6188L39.179 30.1737L36.7645 32.6074C36.7363 32.6412 36.7015 32.6689 36.6621 32.6886C36.6227 32.7082 36.5796 32.7195 36.5356 32.7217C36.4917 32.7239 36.4477 32.7169 36.4066 32.7011C36.3654 32.6854 36.328 32.6613 36.2967 32.6304C36.2653 32.5995 36.2408 32.5624 36.2245 32.5214C36.2083 32.4805 36.2007 32.4366 36.2023 32.3926C36.2039 32.3486 36.2147 32.3054 36.2339 32.2658C36.253 32.2261 36.2802 32.1909 36.3137 32.1623L38.9451 29.5113C39.0028 29.4531 39.0809 29.4195 39.1629 29.4175C39.2449 29.4154 39.3244 29.4452 39.385 29.5005L42.277 32.1496C42.3243 32.1929 42.3574 32.2494 42.372 32.3119C42.3866 32.3743 42.382 32.4397 42.3588 32.4994C42.3355 32.5592 42.2947 32.6105 42.2418 32.6467C42.1889 32.6829 42.1262 32.7022 42.0621 32.7021H42.064Z" fill="#2F3A5A"/>
<path d="M80.7395 28.3263C80.6599 28.3264 80.5833 28.2966 80.5246 28.243L77.8545 25.7979L75.4387 28.2322C75.4105 28.266 75.3756 28.2937 75.3362 28.3134C75.2969 28.3331 75.2538 28.3443 75.2098 28.3465C75.1658 28.3487 75.1219 28.3417 75.0808 28.326C75.0396 28.3102 75.0022 28.2862 74.9709 28.2552C74.9395 28.2243 74.915 28.1872 74.8987 28.1462C74.8825 28.1053 74.8749 28.0614 74.8765 28.0174C74.8781 27.9734 74.8889 27.9302 74.908 27.8906C74.9272 27.851 74.9544 27.8157 74.9879 27.7872L77.6193 25.1361C77.677 25.0779 77.7551 25.0443 77.837 25.0423C77.919 25.0403 77.9986 25.07 78.0592 25.1253L80.9531 27.7763C81.0004 27.8196 81.0335 27.8762 81.0481 27.9386C81.0627 28.001 81.0581 28.0664 81.0348 28.1262C81.0116 28.1859 80.9708 28.2372 80.9179 28.2734C80.8649 28.3096 80.8023 28.3289 80.7382 28.3288L80.7395 28.3263Z" fill="#2F3A5A"/>
<path d="M75.2148 28.3263C75.1353 28.3264 75.0586 28.2966 74.9999 28.243L72.3298 25.7979L69.914 28.2322C69.8858 28.266 69.851 28.2937 69.8116 28.3134C69.7722 28.3331 69.7291 28.3443 69.6851 28.3465C69.6412 28.3487 69.5972 28.3417 69.5561 28.326C69.5149 28.3102 69.4775 28.2862 69.4462 28.2552C69.4148 28.2243 69.3903 28.1872 69.374 28.1462C69.3578 28.1053 69.3502 28.0614 69.3518 28.0174C69.3534 27.9734 69.3642 27.9302 69.3833 27.8906C69.4025 27.851 69.4297 27.8157 69.4632 27.7872L72.0952 25.1361C72.153 25.0779 72.231 25.0443 72.313 25.0423C72.395 25.0403 72.4746 25.07 72.5351 25.1253L75.429 27.7763C75.4763 27.8196 75.5095 27.8762 75.5241 27.9386C75.5387 28.001 75.534 28.0664 75.5108 28.1262C75.4875 28.1859 75.4468 28.2372 75.3938 28.2734C75.3409 28.3096 75.2783 28.3289 75.2142 28.3288L75.2148 28.3263Z" fill="#2F3A5A"/>
<path d="M69.6888 28.3263C69.6092 28.3264 69.5326 28.2966 69.4739 28.243L66.8038 25.7979L64.388 28.2322C64.3598 28.266 64.3249 28.2937 64.2855 28.3134C64.2461 28.3331 64.2031 28.3443 64.1591 28.3465C64.1151 28.3487 64.0712 28.3417 64.03 28.326C63.9889 28.3102 63.9515 28.2862 63.9201 28.2552C63.8888 28.2243 63.8642 28.1872 63.848 28.1462C63.8318 28.1053 63.8242 28.0614 63.8258 28.0174C63.8274 27.9734 63.8382 27.9302 63.8573 27.8906C63.8765 27.851 63.9037 27.8157 63.9372 27.7872L66.5692 25.1361C66.627 25.0779 66.705 25.0443 66.787 25.0423C66.869 25.0403 66.9486 25.07 67.0091 25.1253L69.9024 27.7763C69.9497 27.8196 69.9828 27.8762 69.9974 27.9386C70.012 28.001 70.0074 28.0664 69.9841 28.1262C69.9609 28.1859 69.9201 28.2372 69.8672 28.2734C69.8142 28.3096 69.7516 28.3289 69.6875 28.3288L69.6888 28.3263Z" fill="#2F3A5A"/>
<path d="M64.1641 28.3263C64.0846 28.3264 64.0079 28.2966 63.9492 28.243L61.2791 25.7979L58.8632 28.2322C58.8351 28.266 58.8002 28.2937 58.7608 28.3134C58.7214 28.3331 58.6784 28.3443 58.6344 28.3465C58.5904 28.3487 58.5465 28.3417 58.5053 28.326C58.4642 28.3102 58.4268 28.2862 58.3954 28.2552C58.3641 28.2243 58.3395 28.1872 58.3233 28.1462C58.3071 28.1053 58.2995 28.0614 58.3011 28.0174C58.3027 27.9734 58.3134 27.9302 58.3326 27.8906C58.3518 27.851 58.379 27.8157 58.4125 27.7872L61.0438 25.1361C61.1016 25.0779 61.1797 25.0443 61.2616 25.0423C61.3436 25.0403 61.4232 25.07 61.4838 25.1253L64.3777 27.7763C64.425 27.8196 64.4581 27.8762 64.4727 27.9386C64.4873 28.001 64.4827 28.0664 64.4594 28.1262C64.4362 28.1859 64.3954 28.2372 64.3425 28.2734C64.2896 28.3096 64.2269 28.3289 64.1628 28.3288L64.1641 28.3263Z" fill="#2F3A5A"/>
<path d="M58.6393 28.3263C58.5598 28.3264 58.4831 28.2966 58.4244 28.243L55.7543 25.7979L53.3385 28.2322C53.3104 28.266 53.2755 28.2937 53.2361 28.3134C53.1967 28.3331 53.1536 28.3443 53.1097 28.3465C53.0657 28.3487 53.0217 28.3417 52.9806 28.326C52.9395 28.3102 52.902 28.2862 52.8707 28.2552C52.8394 28.2243 52.8148 28.1872 52.7986 28.1462C52.7823 28.1053 52.7748 28.0614 52.7764 28.0174C52.778 27.9734 52.7887 27.9302 52.8079 27.8906C52.8271 27.851 52.8543 27.8157 52.8878 27.7872L55.5191 25.1361C55.5769 25.0779 55.6549 25.0443 55.7369 25.0423C55.8189 25.0403 55.8985 25.07 55.959 25.1253L58.8529 27.7763C58.9002 27.8196 58.9334 27.8762 58.948 27.9386C58.9626 28.001 58.9579 28.0664 58.9347 28.1262C58.9114 28.1859 58.8707 28.2372 58.8177 28.2734C58.7648 28.3096 58.7022 28.3289 58.6381 28.3288L58.6393 28.3263Z" fill="#2F3A5A"/>
<path d="M53.1146 28.3263C53.0351 28.3264 52.9584 28.2966 52.8998 28.243L50.2296 25.7979L47.8138 28.2322C47.7857 28.266 47.7508 28.2937 47.7114 28.3134C47.672 28.3331 47.629 28.3443 47.585 28.3465C47.541 28.3487 47.497 28.3417 47.4559 28.326C47.4148 28.3102 47.3773 28.2862 47.346 28.2552C47.3147 28.2243 47.2901 28.1872 47.2739 28.1462C47.2576 28.1053 47.2501 28.0614 47.2517 28.0174C47.2533 27.9734 47.264 27.9302 47.2832 27.8906C47.3024 27.851 47.3296 27.8157 47.3631 27.7872L49.995 25.1361C50.0528 25.0779 50.1309 25.0443 50.2128 25.0423C50.2948 25.0403 50.3744 25.07 50.435 25.1253L53.3289 27.7763C53.3762 27.8196 53.4093 27.8762 53.4239 27.9386C53.4385 28.001 53.4339 28.0664 53.4106 28.1262C53.3874 28.1859 53.3466 28.2372 53.2937 28.2734C53.2408 28.3096 53.1781 28.3289 53.114 28.3288L53.1146 28.3263Z" fill="#2F3A5A"/>
<path d="M47.5887 28.3263C47.5092 28.3264 47.4325 28.2966 47.3738 28.243L44.7037 25.7979L42.2879 28.2322C42.2598 28.266 42.2249 28.2937 42.1855 28.3134C42.1461 28.3331 42.103 28.3443 42.0591 28.3465C42.0151 28.3487 41.9711 28.3417 41.93 28.326C41.8889 28.3102 41.8514 28.2862 41.8201 28.2552C41.7888 28.2243 41.7642 28.1872 41.748 28.1462C41.7317 28.1053 41.7242 28.0614 41.7258 28.0174C41.7274 27.9734 41.7381 27.9302 41.7573 27.8906C41.7765 27.851 41.8037 27.8157 41.8372 27.7872L44.4685 25.1361C44.5263 25.0779 44.6043 25.0443 44.6863 25.0423C44.7683 25.0403 44.8479 25.07 44.9084 25.1253L47.8023 27.7763C47.8497 27.8196 47.8828 27.8762 47.8974 27.9386C47.912 28.001 47.9073 28.0664 47.8841 28.1262C47.8608 28.1859 47.8201 28.2372 47.7671 28.2734C47.7142 28.3096 47.6516 28.3289 47.5875 28.3288L47.5887 28.3263Z" fill="#2F3A5A"/>
<path d="M42.0639 28.3263C41.9844 28.3264 41.9077 28.2966 41.8491 28.243L39.1789 25.7979L36.7631 28.2322C36.735 28.266 36.7001 28.2937 36.6607 28.3134C36.6213 28.3331 36.5783 28.3443 36.5343 28.3465C36.4903 28.3487 36.4463 28.3417 36.4052 28.326C36.3641 28.3102 36.3267 28.2862 36.2953 28.2552C36.264 28.2243 36.2394 28.1872 36.2232 28.1462C36.2069 28.1053 36.1994 28.0614 36.201 28.0174C36.2026 27.9734 36.2133 27.9302 36.2325 27.8906C36.2517 27.851 36.2789 27.8157 36.3124 27.7872L38.9437 25.1361C39.0015 25.0779 39.0795 25.0443 39.1615 25.0423C39.2435 25.0403 39.3231 25.07 39.3837 25.1253L42.2769 27.7757C42.3242 27.819 42.3574 27.8755 42.3719 27.938C42.3865 28.0004 42.3819 28.0658 42.3587 28.1255C42.3354 28.1853 42.2947 28.2366 42.2417 28.2728C42.1888 28.3089 42.1261 28.3282 42.062 28.3282L42.0639 28.3263Z" fill="#2F3A5A"/>
<path d="M80.7395 23.9505C80.6599 23.9506 80.5833 23.9209 80.5246 23.8673L77.8545 21.4222L75.4387 23.8564C75.4105 23.8903 75.3756 23.918 75.3362 23.9376C75.2969 23.9573 75.2538 23.9686 75.2098 23.9708C75.1658 23.9729 75.1219 23.9659 75.0808 23.9502C75.0396 23.9345 75.0022 23.9104 74.9709 23.8795C74.9395 23.8485 74.915 23.8114 74.8987 23.7705C74.8825 23.7296 74.8749 23.6857 74.8765 23.6417C74.8781 23.5977 74.8889 23.5545 74.908 23.5149C74.9272 23.4752 74.9544 23.44 74.9879 23.4114L77.6193 20.7604C77.677 20.7022 77.7551 20.6686 77.837 20.6665C77.919 20.6645 77.9986 20.6943 78.0592 20.7496L80.9531 23.4006C81.0004 23.4439 81.0335 23.5004 81.0481 23.5629C81.0627 23.6253 81.0581 23.6907 81.0348 23.7504C81.0116 23.8102 80.9708 23.8615 80.9179 23.8977C80.8649 23.9338 80.8023 23.9532 80.7382 23.9531L80.7395 23.9505Z" fill="#2F3A5A"/>
<path d="M75.2148 23.9505C75.1353 23.9506 75.0586 23.9209 74.9999 23.8673L72.3298 21.4222L69.914 23.8564C69.8858 23.8903 69.851 23.918 69.8116 23.9376C69.7722 23.9573 69.7291 23.9686 69.6851 23.9708C69.6412 23.9729 69.5972 23.9659 69.5561 23.9502C69.5149 23.9345 69.4775 23.9104 69.4462 23.8795C69.4148 23.8485 69.3903 23.8114 69.374 23.7705C69.3578 23.7296 69.3502 23.6857 69.3518 23.6417C69.3534 23.5977 69.3642 23.5545 69.3833 23.5149C69.4025 23.4752 69.4297 23.44 69.4632 23.4114L72.0952 20.7604C72.153 20.7022 72.231 20.6686 72.313 20.6665C72.395 20.6645 72.4746 20.6943 72.5351 20.7496L75.429 23.4006C75.4763 23.4439 75.5095 23.5004 75.5241 23.5629C75.5387 23.6253 75.534 23.6907 75.5108 23.7504C75.4875 23.8102 75.4468 23.8615 75.3938 23.8977C75.3409 23.9338 75.2783 23.9532 75.2142 23.9531L75.2148 23.9505Z" fill="#2F3A5A"/>
<path d="M69.6888 23.9505C69.6092 23.9506 69.5326 23.9209 69.4739 23.8673L66.8038 21.4222L64.388 23.8564C64.3598 23.8903 64.3249 23.918 64.2855 23.9376C64.2461 23.9573 64.2031 23.9686 64.1591 23.9708C64.1151 23.9729 64.0712 23.9659 64.03 23.9502C63.9889 23.9345 63.9515 23.9104 63.9201 23.8795C63.8888 23.8485 63.8642 23.8114 63.848 23.7705C63.8318 23.7296 63.8242 23.6857 63.8258 23.6417C63.8274 23.5977 63.8382 23.5545 63.8573 23.5149C63.8765 23.4752 63.9037 23.44 63.9372 23.4114L66.5692 20.7604C66.627 20.7022 66.705 20.6686 66.787 20.6665C66.869 20.6645 66.9486 20.6943 67.0091 20.7496L69.9024 23.4006C69.9497 23.4439 69.9828 23.5004 69.9974 23.5629C70.012 23.6253 70.0074 23.6907 69.9841 23.7504C69.9609 23.8102 69.9201 23.8615 69.8672 23.8977C69.8142 23.9338 69.7516 23.9532 69.6875 23.9531L69.6888 23.9505Z" fill="#2F3A5A"/>
<path d="M64.1641 23.9505C64.0846 23.9506 64.0079 23.9209 63.9492 23.8673L61.2791 21.4222L58.8632 23.8564C58.8351 23.8903 58.8002 23.918 58.7608 23.9376C58.7214 23.9573 58.6784 23.9686 58.6344 23.9708C58.5904 23.9729 58.5465 23.9659 58.5053 23.9502C58.4642 23.9345 58.4268 23.9104 58.3954 23.8795C58.3641 23.8485 58.3395 23.8114 58.3233 23.7705C58.3071 23.7296 58.2995 23.6857 58.3011 23.6417C58.3027 23.5977 58.3134 23.5545 58.3326 23.5149C58.3518 23.4752 58.379 23.44 58.4125 23.4114L61.0438 20.7604C61.1016 20.7022 61.1797 20.6686 61.2616 20.6665C61.3436 20.6645 61.4232 20.6943 61.4838 20.7496L64.3777 23.4006C64.425 23.4439 64.4581 23.5004 64.4727 23.5629C64.4873 23.6253 64.4827 23.6907 64.4594 23.7504C64.4362 23.8102 64.3954 23.8615 64.3425 23.8977C64.2896 23.9338 64.2269 23.9532 64.1628 23.9531L64.1641 23.9505Z" fill="#2F3A5A"/>
<path d="M58.6393 23.9505C58.5598 23.9506 58.4831 23.9209 58.4244 23.8673L55.7543 21.4222L53.3385 23.8564C53.3104 23.8903 53.2755 23.918 53.2361 23.9376C53.1967 23.9573 53.1536 23.9686 53.1097 23.9708C53.0657 23.9729 53.0217 23.9659 52.9806 23.9502C52.9395 23.9345 52.902 23.9104 52.8707 23.8795C52.8394 23.8485 52.8148 23.8114 52.7986 23.7705C52.7823 23.7296 52.7748 23.6857 52.7764 23.6417C52.778 23.5977 52.7887 23.5545 52.8079 23.5149C52.8271 23.4752 52.8543 23.44 52.8878 23.4114L55.5191 20.7604C55.5769 20.7022 55.6549 20.6686 55.7369 20.6665C55.8189 20.6645 55.8985 20.6943 55.959 20.7496L58.8529 23.4006C58.9002 23.4439 58.9334 23.5004 58.948 23.5629C58.9626 23.6253 58.9579 23.6907 58.9347 23.7504C58.9114 23.8102 58.8707 23.8615 58.8177 23.8977C58.7648 23.9338 58.7022 23.9532 58.6381 23.9531L58.6393 23.9505Z" fill="#2F3A5A"/>
<path d="M53.1146 23.9505C53.0351 23.9506 52.9584 23.9209 52.8998 23.8673L50.2296 21.4222L47.8138 23.8564C47.7857 23.8903 47.7508 23.918 47.7114 23.9376C47.672 23.9573 47.629 23.9686 47.585 23.9708C47.541 23.9729 47.497 23.9659 47.4559 23.9502C47.4148 23.9345 47.3773 23.9104 47.346 23.8795C47.3147 23.8485 47.2901 23.8114 47.2739 23.7705C47.2576 23.7296 47.2501 23.6857 47.2517 23.6417C47.2533 23.5977 47.264 23.5545 47.2832 23.5149C47.3024 23.4752 47.3296 23.44 47.3631 23.4114L49.995 20.7604C50.0528 20.7022 50.1309 20.6686 50.2128 20.6665C50.2948 20.6645 50.3744 20.6943 50.435 20.7496L53.3289 23.4006C53.3762 23.4439 53.4093 23.5004 53.4239 23.5629C53.4385 23.6253 53.4339 23.6907 53.4106 23.7504C53.3874 23.8102 53.3466 23.8615 53.2937 23.8977C53.2408 23.9338 53.1781 23.9532 53.114 23.9531L53.1146 23.9505Z" fill="#2F3A5A"/>
<path d="M47.5887 23.9505C47.5092 23.9506 47.4325 23.9209 47.3738 23.8673L44.7037 21.4222L42.2879 23.8564C42.2598 23.8903 42.2249 23.918 42.1855 23.9376C42.1461 23.9573 42.103 23.9686 42.0591 23.9708C42.0151 23.9729 41.9711 23.9659 41.93 23.9502C41.8889 23.9345 41.8514 23.9104 41.8201 23.8795C41.7888 23.8485 41.7642 23.8114 41.748 23.7705C41.7317 23.7296 41.7242 23.6857 41.7258 23.6417C41.7274 23.5977 41.7381 23.5545 41.7573 23.5149C41.7765 23.4752 41.8037 23.44 41.8372 23.4114L44.4685 20.7604C44.5263 20.7022 44.6043 20.6686 44.6863 20.6665C44.7683 20.6645 44.8479 20.6943 44.9084 20.7496L47.8023 23.4006C47.8497 23.4439 47.8828 23.5004 47.8974 23.5629C47.912 23.6253 47.9073 23.6907 47.8841 23.7504C47.8608 23.8102 47.8201 23.8615 47.7671 23.8977C47.7142 23.9338 47.6516 23.9532 47.5875 23.9531L47.5887 23.9505Z" fill="#2F3A5A"/>
<path d="M42.0639 23.9505C41.9844 23.9506 41.9077 23.9209 41.8491 23.8673L39.1789 21.4222L36.7631 23.8564C36.735 23.8903 36.7001 23.918 36.6607 23.9376C36.6213 23.9573 36.5783 23.9686 36.5343 23.9708C36.4903 23.9729 36.4463 23.9659 36.4052 23.9502C36.3641 23.9345 36.3267 23.9104 36.2953 23.8795C36.264 23.8485 36.2394 23.8114 36.2232 23.7705C36.2069 23.7296 36.1994 23.6857 36.201 23.6417C36.2026 23.5977 36.2133 23.5545 36.2325 23.5149C36.2517 23.4752 36.2789 23.44 36.3124 23.4114L38.9437 20.7604C39.0015 20.7022 39.0795 20.6686 39.1615 20.6665C39.2435 20.6645 39.3231 20.6943 39.3837 20.7496L42.2775 23.4006C42.3249 23.4439 42.358 23.5004 42.3726 23.5629C42.3872 23.6253 42.3825 23.6907 42.3593 23.7504C42.3361 23.8102 42.2953 23.8615 42.2424 23.8977C42.1894 23.9338 42.1268 23.9532 42.0627 23.9531L42.0639 23.9505Z" fill="#2F3A5A"/>
<path d="M27.7834 75.2766C42.7765 75.2766 54.9308 63.1223 54.9308 48.1292C54.9308 33.136 42.7765 20.9817 27.7834 20.9817C12.7902 20.9817 0.635895 33.136 0.635895 48.1292C0.635895 63.1223 12.7902 75.2766 27.7834 75.2766Z" fill="#9297AB"/>
<path d="M54.9283 48.1303C54.9286 53.6134 53.2685 58.968 50.1666 63.4892C47.0647 68.0105 42.6664 71.4864 37.5507 73.4595C32.4349 75.4325 26.8416 75.8102 21.5071 74.5428C16.1726 73.2753 11.3469 70.4222 7.66534 66.359C12.9319 70.7954 19.6877 73.0646 26.5646 72.7069C33.4414 72.3492 39.9253 69.3914 44.7032 64.4325C49.4811 59.4735 52.1959 52.8842 52.2977 45.9988C52.3995 39.1134 49.8808 32.4466 45.2517 27.3486C48.2856 29.8947 50.7244 33.075 52.3963 36.6656C54.0682 40.2561 54.9325 44.1696 54.9283 48.1303Z" fill="#84879C"/>
<path d="M27.7821 75.9123C22.2874 75.9123 16.916 74.2829 12.3473 71.2302C7.77857 68.1775 4.21769 63.8385 2.11494 58.762C0.01219 53.6855 -0.537985 48.0995 0.533987 42.7104C1.60596 37.3212 4.25193 32.3709 8.13731 28.4855C12.0227 24.6002 16.9729 21.9542 22.3621 20.8822C27.7513 19.8103 33.3373 20.3604 38.4138 22.4632C43.4903 24.5659 47.8292 28.1268 50.8819 32.6955C53.9347 37.2642 55.564 42.6356 55.564 48.1303C55.5555 55.4959 52.6257 62.5574 47.4174 67.7657C42.2092 72.9739 35.1477 75.9037 27.7821 75.9123ZM27.7821 21.6199C22.5388 21.6199 17.4133 23.1747 13.0537 26.0877C8.69406 29.0007 5.29615 33.1411 3.28964 37.9852C1.28312 42.8294 0.758129 48.1597 1.78104 53.3023C2.80395 58.4448 5.32883 63.1685 9.03638 66.8761C12.7439 70.5836 17.4676 73.1085 22.6102 74.1314C27.7527 75.1543 33.0831 74.6293 37.9272 72.6228C42.7714 70.6163 46.9117 67.2184 49.8247 62.8588C52.7377 58.4991 54.2926 53.3736 54.2926 48.1303C54.285 41.1014 51.4896 34.3625 46.5196 29.3921C41.5497 24.4216 34.811 21.6256 27.7821 21.6173V21.6199Z" fill="#2F3A5A"/>
<path d="M27.7822 29.0771C24.0139 29.0773 20.3303 30.1948 17.1972 32.2885C14.064 34.3822 11.6221 37.358 10.1802 40.8395C8.73834 44.321 8.36124 48.1519 9.09662 51.8478C9.83199 55.5436 11.6468 58.9384 14.3116 61.6028C16.9763 64.2672 20.3714 66.0816 24.0673 66.8165C27.7632 67.5513 31.5941 67.1737 35.0754 65.7314C38.5568 64.289 41.5322 61.8467 43.6255 58.7133C45.7187 55.5799 46.8358 51.8961 46.8354 48.1278C46.8349 43.075 44.8273 38.2293 41.2542 34.6566C37.681 31.084 32.8351 29.077 27.7822 29.0771ZM30.4104 33.2807C32.631 33.6713 34.7349 34.5577 36.5656 35.8739L29.191 44.9771L30.4104 33.2807ZM26.3792 44.9561L19.0001 35.8726C20.8309 34.5572 22.9345 33.6713 25.1547 33.2807L26.3792 44.9561ZM23.9557 46.6383L12.9338 45.4977C13.3032 43.3953 14.1173 41.3961 15.3217 39.6336L23.9557 46.6383ZM24.6614 49.5379L15.5474 56.943C14.2206 55.106 13.3272 52.9922 12.9345 50.7604L24.6614 49.5379ZM26.2984 51.8901L25.1509 62.9781C23.0365 62.6065 21.0266 61.7853 19.2569 60.5699L26.2984 51.8901ZM29.2565 51.8768L36.3094 60.5705C34.5394 61.7865 32.5287 62.608 30.4136 62.9794L29.2565 51.8768ZM30.8688 49.5347L42.63 50.7604C42.2371 52.9931 41.3433 55.1078 40.0158 56.9455L30.8688 49.5347ZM31.5833 46.6573L40.2428 39.6336C41.4475 41.397 42.2616 43.3974 42.6306 45.5009L31.5833 46.6573Z" fill="#D9E2E9"/>
<path d="M27.7853 67.818C23.8913 67.8184 20.0847 66.6641 16.8468 64.501C13.6088 62.3379 11.085 59.2633 9.59453 55.6659C8.10402 52.0684 7.71374 48.1098 8.47305 44.2906C9.23236 40.4714 11.1071 36.9631 13.8603 34.2093C16.6135 31.4556 20.1215 29.5801 23.9405 28.8201C27.7596 28.06 31.7183 28.4496 35.316 29.9394C38.9138 31.4292 41.9889 33.9524 44.1526 37.1899C46.3163 40.4274 47.4713 44.2338 47.4717 48.1278C47.4657 53.3475 45.3897 58.3517 41.6992 62.0429C38.0088 65.7341 33.005 67.811 27.7853 67.818ZM27.7853 29.7129C24.1427 29.7125 20.5817 30.7924 17.5528 32.8159C14.5238 34.8394 12.163 37.7157 10.7689 41.081C9.3747 44.4463 9.00983 48.1495 9.72038 51.7222C10.4309 55.2949 12.185 58.5766 14.7608 61.1524C17.3365 63.7281 20.6183 65.4822 24.1909 66.1928C27.7636 66.9033 31.4668 66.5384 34.8321 65.1443C38.1974 63.7501 41.0737 61.3893 43.0972 58.3604C45.1208 55.3314 46.2006 51.7705 46.2002 48.1278C46.1945 43.2456 44.2525 38.565 40.8003 35.1128C37.3481 31.6606 32.6675 29.7186 27.7853 29.7129ZM30.4135 63.6145C30.256 63.6143 30.1042 63.5557 29.9874 63.45C29.8707 63.3443 29.7973 63.199 29.7816 63.0423L28.6245 51.9423C28.6096 51.8054 28.6395 51.6675 28.7097 51.5491C28.7799 51.4307 28.8866 51.3383 29.0138 51.2858C29.1411 51.2333 29.2819 51.2234 29.4152 51.2578C29.5484 51.2921 29.667 51.3688 29.7529 51.4763L36.8027 60.1694C36.858 60.2375 36.8985 60.3164 36.9218 60.4009C36.9452 60.4855 36.9507 60.574 36.9382 60.6608C36.9257 60.7476 36.8953 60.8309 36.849 60.9054C36.8027 60.9799 36.7415 61.0441 36.6692 61.0938C34.8255 62.3639 32.7291 63.2205 30.5235 63.605C30.4872 63.6114 30.4504 63.6146 30.4135 63.6145ZM30.1109 53.9379L30.9736 62.219C32.5298 61.8711 34.0165 61.2642 35.3716 60.4237L30.1109 53.9379ZM25.1521 63.6132C25.115 63.6133 25.078 63.6101 25.0415 63.6037C22.8369 63.2188 20.7414 62.3624 18.8983 61.0931C18.826 61.0434 18.7648 60.9793 18.7185 60.9048C18.6722 60.8303 18.6418 60.747 18.6293 60.6602C18.6167 60.5733 18.6223 60.4849 18.6456 60.4003C18.6689 60.3157 18.7095 60.2369 18.7648 60.1688L25.805 51.489C25.8913 51.3827 26.0096 51.3071 26.1423 51.2735C26.2751 51.2399 26.4151 51.25 26.5416 51.3023C26.6681 51.3547 26.7744 51.4465 26.8445 51.5641C26.9146 51.6817 26.9449 51.8188 26.9309 51.955L25.7866 63.043C25.7707 63.2003 25.6968 63.3461 25.5793 63.4519C25.4617 63.5577 25.309 63.6159 25.1508 63.6151L25.1521 63.6132ZM20.1933 60.4224C21.5478 61.2623 23.0336 61.869 24.5888 62.2171L25.4445 53.9493L20.1933 60.4224ZM40.0157 57.5807C39.8699 57.5807 39.7285 57.5307 39.6152 57.4389L30.4682 50.0268C30.3619 49.9405 30.2863 49.8221 30.2527 49.6894C30.219 49.5567 30.2291 49.4167 30.2815 49.2901C30.3339 49.1636 30.4257 49.0574 30.5433 48.9873C30.6609 48.9171 30.798 48.8868 30.9342 48.9009L42.6954 50.1266C42.7822 50.1356 42.8663 50.1623 42.9423 50.2052C43.0183 50.2481 43.0847 50.3062 43.1373 50.3758C43.1899 50.4455 43.2276 50.5253 43.2481 50.6101C43.2685 50.695 43.2712 50.7832 43.2561 50.8691C42.8429 53.1954 41.9114 55.3989 40.5307 57.3162C40.4718 57.3979 40.3943 57.4644 40.3047 57.5102C40.215 57.5561 40.1158 57.58 40.0151 57.58L40.0157 57.5807ZM32.9317 50.3885L39.8816 56.0186C40.8222 54.585 41.4959 52.9932 41.8702 51.3199L32.9317 50.3885ZM15.5473 57.5788C15.4465 57.5789 15.3471 57.555 15.2574 57.5091C15.1676 57.4632 15.09 57.3967 15.0311 57.3149C13.6454 55.4017 12.7141 53.1976 12.3082 50.8704C12.2931 50.7845 12.2958 50.6964 12.3162 50.6115C12.3366 50.5267 12.3742 50.447 12.4267 50.3773C12.4793 50.3077 12.5456 50.2496 12.6216 50.2067C12.6975 50.1637 12.7815 50.1369 12.8683 50.1279L24.5958 48.906C24.7321 48.8917 24.8693 48.9219 24.987 48.992C25.1047 49.0621 25.1966 49.1683 25.2491 49.2949C25.3015 49.4214 25.3117 49.5615 25.2781 49.6943C25.2444 49.8271 25.1688 49.9455 25.0624 50.0319L15.9484 57.4364C15.8351 57.5285 15.6934 57.5788 15.5473 57.5788ZM13.6941 51.3205C14.0684 52.9923 14.7414 54.5828 15.6808 56.0155L22.6028 50.3917L13.6941 51.3205ZM31.5832 47.2931C31.452 47.293 31.3239 47.2523 31.2167 47.1765C31.1096 47.1007 31.0284 46.9936 30.9846 46.8699C30.9407 46.7462 30.9362 46.6119 30.9716 46.4855C31.0071 46.3591 31.0809 46.2468 31.1827 46.164L39.8447 39.1397C39.913 39.0843 39.9919 39.0436 40.0767 39.0203C40.1614 38.9969 40.2501 38.9914 40.3371 39.0041C40.4241 39.0167 40.5075 39.0473 40.5821 39.0939C40.6566 39.1404 40.7208 39.2019 40.7704 39.2745C42.0281 41.1115 42.8769 43.1971 43.2593 45.3903C43.2744 45.4762 43.2717 45.5644 43.2513 45.6492C43.2309 45.734 43.1933 45.8137 43.1407 45.8834C43.0882 45.953 43.0219 46.0111 42.9459 46.054C42.87 46.097 42.786 46.1238 42.6992 46.1329L31.6494 47.2931C31.6271 47.2931 31.6049 47.2931 31.5832 47.2931ZM40.0965 40.5726L33.6475 45.8042L41.8727 44.9408C41.5272 43.3963 40.9269 41.92 40.0965 40.5726ZM23.9562 47.274C23.9346 47.274 23.913 47.274 23.8927 47.2708L12.8689 46.1303C12.782 46.1214 12.6979 46.0947 12.6218 46.0519C12.5457 46.009 12.4792 45.9509 12.4265 45.8813C12.3739 45.8116 12.3361 45.7318 12.3157 45.6469C12.2952 45.562 12.2924 45.4738 12.3075 45.3878C12.6898 43.1956 13.5384 41.111 14.7958 39.2751C14.8454 39.2025 14.9096 39.141 14.9841 39.0945C15.0587 39.048 15.1421 39.0174 15.2291 39.0047C15.3161 38.9921 15.4048 38.9976 15.4895 39.0209C15.5743 39.0442 15.6532 39.0849 15.7215 39.1403L24.3568 46.1449C24.4586 46.2277 24.5324 46.34 24.5679 46.4664C24.6033 46.5928 24.5988 46.7271 24.5549 46.8508C24.5111 46.9745 24.4299 47.0816 24.3227 47.1574C24.2156 47.2332 24.0875 47.2739 23.9562 47.274ZM13.6947 44.9377L21.8958 45.7864L15.4697 40.5733C14.6396 41.9193 14.0397 43.3943 13.6947 44.9377ZM29.1948 45.6128C29.106 45.6127 29.0182 45.594 28.937 45.558C28.8559 45.5219 28.7832 45.4692 28.7237 45.4033C28.6642 45.3374 28.6191 45.2598 28.5914 45.1754C28.5637 45.0911 28.554 45.0018 28.5628 44.9135L29.7816 33.2158C29.7906 33.1291 29.8174 33.0452 29.8603 32.9693C29.9032 32.8934 29.9612 32.8271 30.0308 32.7746C30.1004 32.7221 30.18 32.6844 30.2648 32.664C30.3495 32.6435 30.4376 32.6407 30.5235 32.6558C32.8382 33.0593 35.0311 33.9831 36.9368 35.3577C37.0071 35.4082 37.0663 35.4725 37.1109 35.5467C37.1555 35.6209 37.1844 35.7034 37.1959 35.7891C37.2075 35.8749 37.2014 35.9621 37.1781 36.0455C37.1547 36.1288 37.1146 36.2065 37.0602 36.2738L29.6894 45.3763C29.6297 45.45 29.5544 45.5095 29.4688 45.5503C29.3832 45.5911 29.2896 45.6122 29.1948 45.6122V45.6128ZM30.9748 34.0423L30.0492 42.9115L35.6437 36.0087C34.2174 35.0783 32.6356 34.4116 30.9736 34.0404L30.9748 34.0423ZM26.3791 45.5918C26.2845 45.5918 26.1912 45.5706 26.1058 45.5299C26.0205 45.4893 25.9453 45.43 25.8857 45.3566L18.506 36.2738C18.4514 36.2065 18.411 36.1287 18.3875 36.0453C18.364 35.9619 18.3578 35.8745 18.3693 35.7886C18.3808 35.7027 18.4097 35.62 18.4543 35.5457C18.499 35.4713 18.5583 35.4069 18.6287 35.3564C20.5352 33.9819 22.7287 33.0581 25.044 32.6545C25.1298 32.6394 25.2178 32.6422 25.3026 32.6626C25.3873 32.683 25.4669 32.7206 25.5365 32.7731C25.606 32.8256 25.6641 32.8918 25.707 32.9676C25.7499 33.0434 25.7768 33.1273 25.7859 33.2139L27.011 44.8893C27.0199 44.9777 27.0101 45.0669 26.9824 45.1513C26.9547 45.2356 26.9097 45.3133 26.8501 45.3792C26.7906 45.445 26.7179 45.4977 26.6368 45.5338C26.5557 45.5699 26.4679 45.5886 26.3791 45.5887V45.5918ZM19.9288 36.008L25.5234 42.895L24.5952 34.0404C22.9346 34.4119 21.3541 35.0784 19.9288 36.008Z" fill="#2F3A5A"/>
<path d="M27.9884 54.2353C31.2334 54.2353 33.864 51.6047 33.864 48.3598C33.864 45.1148 31.2334 42.4843 27.9884 42.4843C24.7435 42.4843 22.1129 45.1148 22.1129 48.3598C22.1129 51.6047 24.7435 54.2353 27.9884 54.2353Z" fill="#C1CDD3"/>
<path d="M27.9878 54.8711C26.7 54.8709 25.4412 54.489 24.3706 53.7735C23.2999 53.0579 22.4654 52.041 21.9727 50.8513C21.4799 49.6615 21.351 48.3524 21.6023 47.0893C21.8536 45.8263 22.4737 44.6662 23.3843 43.7556C24.2948 42.845 25.455 42.2249 26.718 41.9737C27.981 41.7224 29.2901 41.8513 30.4799 42.344C31.6696 42.8368 32.6866 43.6712 33.4021 44.7419C34.1176 45.8126 34.4996 47.0714 34.4997 48.3592C34.498 50.0857 33.8114 51.7411 32.5905 52.9619C31.3697 54.1828 29.7143 54.8694 27.9878 54.8711ZM27.9878 43.12C26.9515 43.12 25.9384 43.4273 25.0767 44.0031C24.215 44.5788 23.5435 45.3972 23.1469 46.3546C22.7503 47.3121 22.6465 48.3656 22.8487 49.382C23.0509 50.3984 23.5499 51.3321 24.2827 52.0649C25.0155 52.7977 25.9491 53.2967 26.9656 53.4989C27.982 53.7011 29.0355 53.5973 29.993 53.2007C30.9504 52.8041 31.7688 52.1325 32.3445 51.2709C32.9203 50.4092 33.2276 49.3961 33.2276 48.3598C33.2261 46.9706 32.6735 45.6387 31.6912 44.6564C30.7089 43.674 29.377 43.1215 27.9878 43.12Z" fill="#2F3A5A"/>
</g>
<path d="M66.6086 32.8125H35.1105C33.1166 32.8125 31.5002 34.4102 31.5002 36.381V79.7752C31.5002 81.7461 33.1166 83.3438 35.1105 83.3438H66.6086C68.6025 83.3438 70.2189 81.7461 70.2189 79.7752V36.381C70.2189 34.4102 68.6025 32.8125 66.6086 32.8125Z" fill="#E1B378"/>
<path d="M66.2467 84H35.4728C34.4195 83.9988 33.4098 83.577 32.665 82.8271C31.9203 82.0773 31.5013 81.0606 31.5002 80.0001V36.8124C31.5013 35.7519 31.9203 34.7352 32.665 33.9854C33.4098 33.2355 34.4195 32.8137 35.4728 32.8125H66.2467C67.2999 32.8138 68.3096 33.2357 69.0542 33.9855C69.7989 34.7354 70.2177 35.752 70.2189 36.8124V80.0001C70.2177 81.0605 69.7989 82.0771 69.0542 82.827C68.3096 83.5768 67.2999 83.9987 66.2467 84ZM35.4728 33.7092C34.6556 33.7101 33.8722 34.0373 33.2944 34.619C32.7166 35.2008 32.3916 35.9896 32.3908 36.8124V80.0001C32.3916 80.8229 32.7166 81.6117 33.2944 82.1935C33.8722 82.7752 34.6556 83.1024 35.4728 83.1033H66.2467C67.0638 83.1023 67.8471 82.7751 68.4248 82.1933C69.0025 81.6115 69.3275 80.8228 69.3283 80.0001V36.8124C69.3275 35.9897 69.0025 35.201 68.4248 34.6192C67.8471 34.0374 67.0638 33.7102 66.2467 33.7092H35.4728Z" fill="#2F3A5A"/>
<path d="M35.4377 36.0938H66.9377V80.7188H35.4377V36.0938Z" fill="#F0F5F9"/>
<path d="M66.49 80.7188H35.2291C35.1104 80.7188 34.9965 80.6713 34.9125 80.5868C34.8286 80.5023 34.7814 80.3876 34.7814 80.2681V35.8881C34.7814 35.7686 34.8286 35.654 34.9125 35.5695C34.9965 35.485 35.1104 35.4375 35.2291 35.4375H66.49C66.6087 35.4375 66.7226 35.485 66.8065 35.5695C66.8905 35.654 66.9377 35.7686 66.9377 35.8881V80.2681C66.9377 80.3876 66.8905 80.5023 66.8065 80.5868C66.7226 80.6713 66.6087 80.7188 66.49 80.7188ZM35.6768 79.8175H66.0423V36.3388H35.6768V79.8175Z" fill="#2F3A5A"/>
<path d="M54.0888 30.9367V30.0633C54.0888 29.226 53.7486 28.423 53.143 27.8309C52.5374 27.2389 51.716 26.9062 50.8595 26.9062C50.0031 26.9062 49.1817 27.2389 48.5761 27.8309C47.9705 28.423 47.6303 29.226 47.6303 30.0633V30.9367H42.0002V38.7188H59.7189V30.9367H54.0888Z" fill="#9297AB"/>
<path d="M59.7189 30.8438V38.7188H42.0002V36.8616H57.539V30.8438H59.7189Z" fill="#84879C"/>
<path d="M59.914 39.375H41.805C41.6827 39.375 41.5654 39.327 41.479 39.2414C41.3925 39.1559 41.3439 39.0399 41.3439 38.9189V30.8731C41.3439 30.7521 41.3925 30.6361 41.479 30.5506C41.5654 30.4651 41.6827 30.417 41.805 30.417H47.098V29.9701C47.098 28.9835 47.4943 28.0372 48.1997 27.3396C48.9052 26.6419 49.8619 26.25 50.8595 26.25C51.8571 26.25 52.8139 26.6419 53.5193 27.3396C54.2247 28.0372 54.621 28.9835 54.621 29.9701V30.417H59.914C60.0363 30.417 60.1536 30.4651 60.2401 30.5506C60.3266 30.6361 60.3752 30.7521 60.3752 30.8731V38.9189C60.3752 39.0399 60.3266 39.1559 60.2401 39.2414C60.1536 39.327 60.0363 39.375 59.914 39.375ZM42.2662 38.4629H59.4529V31.3292H54.1599C54.0376 31.3292 53.9203 31.2811 53.8338 31.1956C53.7473 31.1101 53.6988 30.9941 53.6988 30.8731V29.9701C53.6988 29.2254 53.3996 28.5112 52.8672 27.9846C52.3347 27.458 51.6125 27.1621 50.8595 27.1621C50.1065 27.1621 49.3843 27.458 48.8519 27.9846C48.3194 28.5112 48.0203 29.2254 48.0203 29.9701V30.8731C48.0203 30.9941 47.9717 31.1101 47.8852 31.1956C47.7987 31.2811 47.6814 31.3292 47.5591 31.3292H42.2662V38.4629Z" fill="#2F3A5A"/>
<path d="M40.0314 45.2812H45.9377V51.1875H40.0314V45.2812Z" fill="#81DAFC"/>
<path d="M46.1158 51.8438H39.8532C39.7264 51.8438 39.6048 51.7934 39.5152 51.7037C39.4255 51.6141 39.3752 51.4925 39.3752 51.3657V45.1031C39.3752 44.9763 39.4255 44.8547 39.5152 44.765C39.6048 44.6754 39.7264 44.625 39.8532 44.625H46.1158C46.2426 44.625 46.3642 44.6754 46.4539 44.765C46.5435 44.8547 46.5939 44.9763 46.5939 45.1031V51.3657C46.5939 51.4925 46.5435 51.6141 46.4539 51.7037C46.3642 51.7934 46.2426 51.8438 46.1158 51.8438ZM40.3313 50.8876H45.6378V45.5811H40.3313V50.8876Z" fill="#2F3A5A"/>
<path d="M61.8956 47.25H49.0109C48.892 47.25 48.778 47.2154 48.6939 47.1539C48.6099 47.0924 48.5627 47.0089 48.5627 46.9219C48.5627 46.8349 48.6099 46.7514 48.6939 46.6899C48.778 46.6283 48.892 46.5938 49.0109 46.5938H61.8956C62.0145 46.5938 62.1285 46.6283 62.2126 46.6899C62.2967 46.7514 62.3439 46.8349 62.3439 46.9219C62.3439 47.0089 62.2967 47.0924 62.2126 47.1539C62.1285 47.2154 62.0145 47.25 61.8956 47.25Z" fill="#C1CDD3"/>
<path d="M61.8956 50.5312H49.0109C48.892 50.5312 48.778 50.4621 48.6939 50.339C48.6099 50.216 48.5627 50.049 48.5627 49.875C48.5627 49.701 48.6099 49.534 48.6939 49.411C48.778 49.2879 48.892 49.2188 49.0109 49.2188H61.8956C62.0145 49.2188 62.1285 49.2879 62.2126 49.411C62.2967 49.534 62.3439 49.701 62.3439 49.875C62.3439 50.049 62.2967 50.216 62.2126 50.339C62.1285 50.4621 62.0145 50.5312 61.8956 50.5312Z" fill="#C1CDD3"/>
<path d="M40.0314 56.4375H45.9377V62.3438H40.0314V56.4375Z" fill="#81DAFC"/>
<path d="M46.1158 63H39.8532C39.7264 63 39.6048 62.9496 39.5152 62.86C39.4255 62.7703 39.3752 62.6487 39.3752 62.5219V56.2593C39.3752 56.1325 39.4255 56.0109 39.5152 55.9213C39.6048 55.8316 39.7264 55.7812 39.8532 55.7812H46.1158C46.2426 55.7812 46.3642 55.8316 46.4539 55.9213C46.5435 56.0109 46.5939 56.1325 46.5939 56.2593V62.5219C46.5939 62.6487 46.5435 62.7703 46.4539 62.86C46.3642 62.9496 46.2426 63 46.1158 63ZM40.3313 62.0439H45.6378V56.7374H40.3313V62.0439Z" fill="#2F3A5A"/>
<path d="M61.8956 58.4062H49.0109C48.892 58.4062 48.778 58.3717 48.6939 58.3101C48.6099 58.2486 48.5627 58.1651 48.5627 58.0781C48.5627 57.9911 48.6099 57.9076 48.6939 57.8461C48.778 57.7846 48.892 57.75 49.0109 57.75H61.8956C62.0145 57.75 62.1285 57.7846 62.2126 57.8461C62.2967 57.9076 62.3439 57.9911 62.3439 58.0781C62.3439 58.1651 62.2967 58.2486 62.2126 58.3101C62.1285 58.3717 62.0145 58.4062 61.8956 58.4062Z" fill="#C1CDD3"/>
<path d="M61.8956 61.6875H49.0109C48.892 61.6875 48.778 61.6184 48.6939 61.4953C48.6099 61.3722 48.5627 61.2053 48.5627 61.0312C48.5627 60.8572 48.6099 60.6903 48.6939 60.5672C48.778 60.4441 48.892 60.375 49.0109 60.375H61.8956C62.0145 60.375 62.1285 60.4441 62.2126 60.5672C62.2967 60.6903 62.3439 60.8572 62.3439 61.0312C62.3439 61.2053 62.2967 61.3722 62.2126 61.4953C62.1285 61.6184 62.0145 61.6875 61.8956 61.6875Z" fill="#C1CDD3"/>
<path d="M40.0314 67.5938H45.9377V73.5H40.0314V67.5938Z" fill="#81DAFC"/>
<path d="M46.1158 74.1562H39.8532C39.7264 74.1562 39.6048 74.1059 39.5152 74.0162C39.4255 73.9266 39.3752 73.805 39.3752 73.6782V67.4156C39.3752 67.2888 39.4255 67.1672 39.5152 67.0775C39.6048 66.9879 39.7264 66.9375 39.8532 66.9375H46.1158C46.2426 66.9375 46.3642 66.9879 46.4539 67.0775C46.5435 67.1672 46.5939 67.2888 46.5939 67.4156V73.6782C46.5939 73.805 46.5435 73.9266 46.4539 74.0162C46.3642 74.1059 46.2426 74.1562 46.1158 74.1562ZM40.3313 73.2001H45.6378V67.8936H40.3313V73.2001Z" fill="#2F3A5A"/>
<path d="M61.8956 69.5625H49.0109C48.892 69.5625 48.778 69.5279 48.6939 69.4664C48.6099 69.4049 48.5627 69.3214 48.5627 69.2344C48.5627 69.1474 48.6099 69.0639 48.6939 69.0024C48.778 68.9408 48.892 68.9062 49.0109 68.9062H61.8956C62.0145 68.9062 62.1285 68.9408 62.2126 69.0024C62.2967 69.0639 62.3439 69.1474 62.3439 69.2344C62.3439 69.3214 62.2967 69.4049 62.2126 69.4664C62.1285 69.5279 62.0145 69.5625 61.8956 69.5625Z" fill="#C1CDD3"/>
<path d="M61.8956 72.8438H49.0109C48.892 72.8438 48.778 72.7746 48.6939 72.6515C48.6099 72.5285 48.5627 72.3615 48.5627 72.1875C48.5627 72.0135 48.6099 71.8465 48.6939 71.7235C48.778 71.6004 48.892 71.5312 49.0109 71.5312H61.8956C62.0145 71.5312 62.1285 71.6004 62.2126 71.7235C62.2967 71.8465 62.3439 72.0135 62.3439 72.1875C62.3439 72.3615 62.2967 72.5285 62.2126 72.6515C62.1285 72.7746 62.0145 72.8438 61.8956 72.8438Z" fill="#C1CDD3"/>
<path d="M42.0002 48.6142L42.6211 49.2188L43.9689 47.9062" fill="#81DAFC"/>
<path d="M42.5515 49.875C42.4274 49.875 42.3084 49.8241 42.2206 49.7336L41.4753 48.9665C41.39 48.8754 41.3429 48.7535 41.3439 48.6269C41.345 48.5004 41.3942 48.3793 41.481 48.2898C41.5677 48.2003 41.6851 48.1495 41.8078 48.1484C41.9304 48.1473 42.0486 48.196 42.1369 48.2839L42.5496 48.7092L43.8322 47.3855C43.9204 47.2976 44.0386 47.2489 44.1613 47.25C44.284 47.2511 44.4013 47.3019 44.4881 47.3914C44.5749 47.4809 44.6241 47.602 44.6251 47.7285C44.6262 47.8551 44.579 47.9771 44.4938 48.0681L42.879 49.7336C42.7921 49.8233 42.6744 49.8741 42.5515 49.875Z" fill="#2F3A5A"/>
<path d="M42.0002 59.4685L42.6211 60.375L43.9689 58.4062" fill="#81DAFC"/>
<path d="M42.5515 60.375C42.4274 60.375 42.3084 60.3368 42.2206 60.2689L41.4753 59.6939C41.39 59.6256 41.3429 59.5341 41.3439 59.4391C41.345 59.3442 41.3942 59.2534 41.481 59.1862C41.5677 59.1191 41.6851 59.081 41.8078 59.0802C41.9304 59.0793 42.0486 59.1158 42.1369 59.1818L42.5496 59.5008L43.8322 58.5079C43.9204 58.4419 44.0386 58.4054 44.1613 58.4063C44.284 58.4071 44.4013 58.4452 44.4881 58.5123C44.5749 58.5795 44.6241 58.6703 44.6251 58.7652C44.6262 58.8602 44.579 58.9516 44.4938 59.0199L42.879 60.2689C42.7921 60.3362 42.6744 60.3743 42.5515 60.375Z" fill="#2F3A5A"/>
<path d="M42.0002 70.6242L42.6211 71.5313L43.9689 69.5625" fill="#81DAFC"/>
<path d="M42.5515 71.5313C42.4274 71.5312 42.3084 71.4931 42.2206 71.4251L41.4753 70.8501C41.39 70.7818 41.3429 70.6903 41.3439 70.5954C41.345 70.5004 41.3942 70.4096 41.481 70.3425C41.5677 70.2753 41.6851 70.2372 41.8078 70.2364C41.9304 70.2356 42.0486 70.2721 42.1369 70.3381L42.5496 70.6571L43.8322 69.6642C43.9204 69.5982 44.0386 69.5617 44.1613 69.5625C44.284 69.5633 44.4013 69.6014 44.4881 69.6686C44.5749 69.7357 44.6241 69.8265 44.6251 69.9215C44.6262 70.0164 44.579 70.1079 44.4938 70.1762L42.879 71.4251C42.7921 71.4924 42.6744 71.5306 42.5515 71.5313Z" fill="#2F3A5A"/>
</g>
<defs>
<clipPath id="clip0_77_2172">
<rect width="84" height="84" fill="white" transform="translate(0.000152588)"/>
</clipPath>
<clipPath id="clip1_77_2172">
<rect width="81.375" height="81.375" fill="white" transform="translate(0.000152588 5.90625)"/>
</clipPath>
</defs>
</svg>
