<svg width="36" height="37" viewBox="0 0 36 37" fill="none" xmlns="http://www.w3.org/2000/svg">
<g clip-path="url(#clip0_80_3321)">
<path d="M24 3.5V12.5H33" stroke="#FACA30" stroke-width="3" stroke-linecap="round" stroke-linejoin="round"/>
<path d="M34.5 2L24 12.5" stroke="#FACA30" stroke-width="3" stroke-linecap="round" stroke-linejoin="round"/>
<path d="M33 25.8801V30.3801C33.0017 30.7979 32.9161 31.2114 32.7488 31.5942C32.5814 31.9769 32.3359 32.3205 32.0281 32.6029C31.7203 32.8854 31.3569 33.1004 30.9611 33.2342C30.5654 33.368 30.1461 33.4177 29.73 33.3801C25.1142 32.8786 20.6805 31.3014 16.785 28.7751C13.1607 26.4721 10.088 23.3994 7.78499 19.7751C5.24996 15.862 3.67236 11.4066 3.17999 6.77015C3.14251 6.35535 3.1918 5.93729 3.32474 5.54258C3.45768 5.14788 3.67135 4.78518 3.95214 4.47758C4.23293 4.16997 4.5747 3.92421 4.95568 3.75593C5.33666 3.58765 5.7485 3.50054 6.16499 3.50015H10.665C11.393 3.49298 12.0987 3.75076 12.6506 4.22544C13.2026 4.70013 13.5631 5.35932 13.665 6.08015C13.8549 7.52025 14.2072 8.93424 14.715 10.2951C14.9168 10.832 14.9605 11.4155 14.8409 11.9765C14.7212 12.5374 14.4433 13.0523 14.04 13.4601L12.135 15.3651C14.2703 19.1205 17.3797 22.2298 21.135 24.3651L23.04 22.4601C23.4478 22.0569 23.9627 21.7789 24.5237 21.6593C25.0846 21.5397 25.6681 21.5833 26.205 21.7851C27.5659 22.293 28.9799 22.6452 30.42 22.8351C31.1486 22.9379 31.8141 23.305 32.2898 23.8664C32.7655 24.4278 33.0182 25.1445 33 25.8801Z" stroke="#FACA30" stroke-width="3" stroke-linecap="round" stroke-linejoin="round"/>
</g>
<defs>
<clipPath id="clip0_80_3321">
<rect width="36" height="36" fill="white" transform="translate(0 0.5)"/>
</clipPath>
</defs>
</svg>
