<svg width="49" height="48" viewBox="0 0 49 48" fill="none" xmlns="http://www.w3.org/2000/svg">
<path d="M42.6626 20C42.6626 34 24.6354 46 24.6354 46C24.6354 46 6.60815 34 6.60815 20C6.60815 15.2261 8.50745 10.6477 11.8882 7.27208C15.269 3.89642 19.8543 2 24.6354 2C29.4165 2 34.0018 3.89642 37.3826 7.27208C40.7633 10.6477 42.6626 15.2261 42.6626 20Z" fill="#F5DF4D" fill-opacity="0.3" stroke="#FACA30" stroke-width="4" stroke-linecap="round" stroke-linejoin="round"/>
<path d="M24.6354 26C27.9541 26 30.6445 23.3137 30.6445 20C30.6445 16.6863 27.9541 14 24.6354 14C21.3167 14 18.6263 16.6863 18.6263 20C18.6263 23.3137 21.3167 26 24.6354 26Z" stroke="#FACA30" stroke-width="4" stroke-linecap="round" stroke-linejoin="round"/>
</svg>
